<svg xmlns="http://www.w3.org/2000/svg" xmlns:xlink="http://www.w3.org/1999/xlink" style="enable-background:new -188 -537.5 900 563" id="Capa_1" x="0" y="0" version="1.1" viewBox="-188 -537.5 900 563" xml:space="preserve"><style type="text/css">.st0{fill:url(#SVGID_1_)}.st1{opacity:.2;fill:#1d1b30}.st2{opacity:.3;fill:#7b20e5}.st3{fill:url(#XMLID_38_)}.st4{fill:url(#XMLID_39_)}.st5{fill:url(#XMLID_40_)}.st6{fill:url(#XMLID_46_)}.st6,.st7,.st8{clip-path:url(#XMLID_41_)}.st7{fill:url(#XMLID_47_)}.st8{fill:url(#XMLID_48_)}.st10,.st11,.st12,.st13,.st9{clip-path:url(#XMLID_41_)}.st9{fill:url(#XMLID_51_)}.st10{fill:url(#XMLID_52_)}.st11{fill:url(#XMLID_53_)}.st12{fill:url(#XMLID_54_)}.st13{fill:url(#XMLID_55_)}.st14{opacity:.3;fill:url(#XMLID_56_)}.st15{opacity:.5;fill:url(#XMLID_57_)}.st16{opacity:.55;fill:url(#XMLID_58_)}.st17{opacity:.6;fill:url(#XMLID_59_)}.st18{opacity:.4;fill:url(#XMLID_60_)}.st19{opacity:.6;fill:url(#XMLID_61_)}.st20{opacity:.4;fill:url(#XMLID_62_)}.st21{opacity:.55;fill:url(#XMLID_63_)}.st22{opacity:.2;fill:url(#XMLID_64_)}.st23{opacity:.4;fill:url(#XMLID_65_)}.st24{opacity:.6;fill:url(#XMLID_66_)}.st25{opacity:.4;fill:url(#XMLID_67_)}.st26{opacity:.5;fill:url(#XMLID_68_)}.st27{opacity:.55;fill:url(#XMLID_69_)}.st28{opacity:.6;fill:url(#XMLID_74_)}.st29{opacity:.2;fill:url(#XMLID_75_)}.st30{opacity:.4;fill:url(#XMLID_76_)}.st31{opacity:.6;fill:url(#XMLID_77_)}.st32{opacity:.55;fill:url(#XMLID_78_)}.st33{fill:none}.st34{fill:url(#XMLID_79_)}.st35{fill:url(#XMLID_80_)}.st36{fill:url(#XMLID_81_)}.st37{fill:url(#XMLID_82_)}.st38{fill:url(#XMLID_83_)}.st39{fill:url(#XMLID_84_)}.st40{fill:url(#XMLID_85_)}.st41{fill:url(#XMLID_86_)}.st42{fill:url(#XMLID_87_)}.st43{fill:url(#XMLID_88_)}.st44{fill:url(#XMLID_89_)}.st45{fill:url(#XMLID_90_)}.st46{fill:url(#XMLID_91_)}.st47{fill:url(#XMLID_92_)}.st48{fill:url(#XMLID_93_)}.st49{fill:url(#XMLID_94_)}.st50{fill:url(#XMLID_99_)}.st50,.st51,.st52{clip-path:url(#XMLID_95_)}.st51{fill:url(#XMLID_102_)}.st52{fill:url(#XMLID_106_)}.st53{fill:url(#XMLID_110_)}.st53,.st54,.st55,.st56,.st57{clip-path:url(#XMLID_95_)}.st54{fill:url(#XMLID_111_)}.st55{fill:url(#XMLID_112_)}.st56{fill:url(#XMLID_113_)}.st57{fill:url(#XMLID_115_)}.st58{opacity:.3;fill:url(#XMLID_116_)}.st59{opacity:.6;fill:url(#XMLID_117_)}.st60{opacity:.55;fill:url(#XMLID_118_)}</style><linearGradient id="SVGID_1_" x1="-188" x2="712" y1="-256" y2="-256" gradientUnits="userSpaceOnUse"><stop style="stop-color:#7f00ff" offset="0"/><stop style="stop-color:#7c00ff" offset=".275"/><stop style="stop-color:#7200ff" offset=".49"/><stop style="stop-color:#6100ff" offset=".685"/><stop style="stop-color:#4a00ff" offset=".867"/><stop style="stop-color:#3400ff" offset="1"/></linearGradient><rect width="900" height="563" x="-188" y="-537.5" class="st0"/><polygon id="XMLID_2_" points="366.5 -187.7 524 -89.1 367.6 9.6 210.1 -89" class="st1"/><path d="M-42.4-93.1l-13.3-46.5c-2-7.1-0.1-14.8,5-20.1l33.6-34.8c5.1-5.3,12.7-7.5,19.9-5.7l46.9,11.8	c7.2,1.8,12.8,7.3,14.9,14.4l13.3,46.5c2,7.1,0.1,14.8-5,20.1L39.3-72.6c-5.1,5.3-12.7,7.5-19.9,5.7l-46.9-11.8	C-34.7-80.5-40.4-86-42.4-93.1z" class="st2"/><path d="M399.5-334.6l-19.9-69.6c-3-10.6-0.2-22.1,7.5-30l50.4-52c7.7-8,19.1-11.2,29.8-8.5l70.3,17.6	c10.7,2.7,19.2,10.9,22.3,21.5l19.9,69.6c3,10.6,0.2,22.1-7.5,30l-50.4,52c-7.7,8-19.1,11.2-29.8,8.5l-70.3-17.6	C411-315.8,402.5-324,399.5-334.6z" class="st2"/><path d="M289.4-344.2l51.7-48.8c7.9-7.5,19.2-10.1,29.6-7l68.1,20.4c10.4,3.1,18.4,11.5,20.9,22.1l16.4,69.1	c2.5,10.6-0.8,21.7-8.7,29.1l-51.7,48.8c-7.9,7.5-19.2,10.1-29.6,7L318-223.8c-10.4-3.1-18.4-11.5-20.9-22.1L280.7-315	C278.2-325.6,281.5-336.7,289.4-344.2z" class="st2"/><linearGradient id="XMLID_38_" x1="316.202" x2="425.666" y1="-16805.43" y2="-16396.902" gradientTransform="matrix(1 0 0 -1 0 -16896)" gradientUnits="userSpaceOnUse"><stop style="stop-color:#4f3e90" offset="0"/><stop style="stop-color:#171a31" offset="1"/></linearGradient><polygon id="XMLID_20_" points="181.7 -185.2 181.7 -404.3 370.3 -513.9 560.1 -404.4 560.1 -185.3 371.6 -75.7" class="st3"/><linearGradient id="XMLID_39_" x1="343.589" x2="398.279" y1="-16593.668" y2="-16389.565" gradientTransform="matrix(1 0 0 -1 0 -16896)" gradientUnits="userSpaceOnUse"><stop style="stop-color:#4f3e90" offset="0"/><stop style="stop-color:#171a31" offset="1"/></linearGradient><polygon id="XMLID_49_" points="370.3 -513.9 560.1 -404.4 371.6 -294.8 181.7 -404.3" class="st4"/><linearGradient id="XMLID_40_" x1="431.081" x2="500.616" y1="-16526.184" y2="-16785.693" gradientTransform="matrix(1 0 0 -1 0 -16896)" gradientUnits="userSpaceOnUse"><stop style="stop-color:#4f3e90" offset="0"/><stop style="stop-color:#171a31" offset="1"/></linearGradient><polygon id="XMLID_50_" points="371.6 -75.7 371.6 -294.8 560.1 -404.4 560.1 -185.3" class="st5"/><g id="XMLID_97_"><defs><polygon id="XMLID_98_" points="368.2 -477.8 480 -413.3 369 -348.8 257.2 -413.3"/></defs><clipPath id="XMLID_41_"><use style="overflow:visible" xlink:href="#XMLID_98_"/></clipPath><linearGradient id="XMLID_46_" x1="352.446" x2="384.761" y1="-16442.67" y2="-16563.273" gradientTransform="matrix(1 0 0 -1 0 -16896)" gradientUnits="userSpaceOnUse"><stop style="stop-color:#00ace9" offset="0"/><stop style="stop-color:#007541" offset="1"/></linearGradient><polygon id="XMLID_109_" points="368.2 -457.6 480 -393 369 -328.5 257.2 -393" class="st6"/><linearGradient id="XMLID_47_" x1="352.446" x2="384.761" y1="-16462.576" y2="-16583.18" gradientTransform="matrix(1 0 0 -1 0 -16896)" gradientUnits="userSpaceOnUse"><stop style="stop-color:#00ace9" offset="0"/><stop style="stop-color:#007541" offset="1"/></linearGradient><polygon id="XMLID_108_" points="368.2 -437.7 480 -373.1 369 -308.6 257.2 -373.1" class="st7"/><linearGradient id="XMLID_48_" x1="352.446" x2="384.761" y1="-16482.484" y2="-16603.088" gradientTransform="matrix(1 0 0 -1 0 -16896)" gradientUnits="userSpaceOnUse"><stop style="stop-color:#00ace9" offset="0"/><stop style="stop-color:#007541" offset="1"/></linearGradient><polygon id="XMLID_107_" points="368.2 -417.7 480 -353.2 369 -288.7 257.2 -353.2" class="st8"/><linearGradient id="XMLID_51_" x1="352.446" x2="384.761" y1="-16502.391" y2="-16622.994" gradientTransform="matrix(1 0 0 -1 0 -16896)" gradientUnits="userSpaceOnUse"><stop style="stop-color:#00ace9" offset="0"/><stop style="stop-color:#007541" offset="1"/></linearGradient><polygon id="XMLID_105_" points="368.2 -397.8 480 -333.3 369 -268.8 257.2 -333.3" class="st9"/><linearGradient id="XMLID_52_" x1="352.446" x2="384.761" y1="-16522.297" y2="-16642.9" gradientTransform="matrix(1 0 0 -1 0 -16896)" gradientUnits="userSpaceOnUse"><stop style="stop-color:#00ace9" offset="0"/><stop style="stop-color:#007541" offset="1"/></linearGradient><polygon id="XMLID_104_" points="368.2 -377.9 480 -313.4 369 -248.9 257.2 -313.4" class="st10"/><linearGradient id="XMLID_53_" x1="352.446" x2="384.761" y1="-16542.205" y2="-16662.809" gradientTransform="matrix(1 0 0 -1 0 -16896)" gradientUnits="userSpaceOnUse"><stop style="stop-color:#00ace9" offset="0"/><stop style="stop-color:#007541" offset="1"/></linearGradient><polygon id="XMLID_103_" points="368.2 -358 480 -293.5 369 -229 257.2 -293.5" class="st11"/><linearGradient id="XMLID_54_" x1="352.446" x2="384.761" y1="-16562.111" y2="-16682.715" gradientTransform="matrix(1 0 0 -1 0 -16896)" gradientUnits="userSpaceOnUse"><stop style="stop-color:#00ace9" offset="0"/><stop style="stop-color:#007541" offset="1"/></linearGradient><polygon id="XMLID_101_" points="368.2 -338.1 480 -273.6 369 -209.1 257.2 -273.6" class="st12"/><linearGradient id="XMLID_55_" x1="352.446" x2="384.761" y1="-16582.018" y2="-16702.621" gradientTransform="matrix(1 0 0 -1 0 -16896)" gradientUnits="userSpaceOnUse"><stop style="stop-color:#00ace9" offset="0"/><stop style="stop-color:#007541" offset="1"/></linearGradient><polygon id="XMLID_100_" points="368.2 -318.2 480 -253.7 369 -189.2 257.2 -253.7" class="st13"/></g><linearGradient id="XMLID_56_" x1="327.891" x2="409.326" y1="-16536.225" y2="-16232.303" gradientTransform="matrix(1 0 0 -1 0 -16896)" gradientUnits="userSpaceOnUse"><stop style="stop-color:#fff;stop-opacity:0" offset="0"/><stop style="stop-color:#fff;stop-opacity:.3" offset="1"/></linearGradient><polygon id="XMLID_96_" points="368.3 -674.7 278.8 -622.7 278.8 -400.8 368.9 -348.8 458.4 -400.8 458.4 -622.7" class="st14"/><linearGradient id="XMLID_57_" x1="387.298" x2="389.802" y1="-16511.352" y2="-16511.352" gradientTransform="matrix(1 0 0 -1 0 -16896)" gradientUnits="userSpaceOnUse"><stop style="stop-color:#fff;stop-opacity:.6" offset="0"/><stop style="stop-color:#fff" offset="1"/></linearGradient><circle id="XMLID_304_" cx="388.6" cy="-384.6" r="1.3" class="st15"/><linearGradient id="XMLID_58_" x1="133.965" x2="136.469" y1="-16514.631" y2="-16514.631" gradientTransform="matrix(1 0 0 -1 0 -16896)" gradientUnits="userSpaceOnUse"><stop style="stop-color:#fff;stop-opacity:.6" offset="0"/><stop style="stop-color:#fff" offset="1"/></linearGradient><circle id="XMLID_302_" cx="135.2" cy="-381.4" r="1.3" class="st16"/><linearGradient id="XMLID_59_" x1="67.799" x2="73.627" y1="-16489.412" y2="-16489.412" gradientTransform="matrix(1 0 0 -1 0 -16896)" gradientUnits="userSpaceOnUse"><stop style="stop-color:#fff;stop-opacity:.6" offset="0"/><stop style="stop-color:#fff" offset="1"/></linearGradient><circle id="XMLID_37_" cx="70.7" cy="-406.6" r="2.9" class="st17"/><linearGradient id="XMLID_60_" x1="682.249" x2="686.356" y1="-16498.789" y2="-16498.789" gradientTransform="matrix(1 0 0 -1 0 -16896)" gradientUnits="userSpaceOnUse"><stop style="stop-color:#fff;stop-opacity:.6" offset="0"/><stop style="stop-color:#fff" offset="1"/></linearGradient><circle id="XMLID_43_" cx="684.3" cy="-397.2" r="2.1" class="st18"/><linearGradient id="XMLID_61_" x1="109.519" x2="115.347" y1="-16392.346" y2="-16392.346" gradientTransform="matrix(1 0 0 -1 0 -16896)" gradientUnits="userSpaceOnUse"><stop style="stop-color:#fff;stop-opacity:.6" offset="0"/><stop style="stop-color:#fff" offset="1"/></linearGradient><circle id="XMLID_143_" cx="112.4" cy="-503.7" r="2.9" class="st19"/><linearGradient id="XMLID_62_" x1="231.255" x2="233.621" y1="-16408.668" y2="-16408.668" gradientTransform="matrix(1 0 0 -1 0 -16896)" gradientUnits="userSpaceOnUse"><stop style="stop-color:#fff;stop-opacity:.6" offset="0"/><stop style="stop-color:#fff" offset="1"/></linearGradient><circle id="XMLID_142_" cx="232.4" cy="-487.3" r="1.2" class="st20"/><linearGradient id="XMLID_63_" x1="187.991" x2="191.145" y1="-16421.092" y2="-16421.092" gradientTransform="matrix(1 0 0 -1 0 -16896)" gradientUnits="userSpaceOnUse"><stop style="stop-color:#fff;stop-opacity:.6" offset="0"/><stop style="stop-color:#fff" offset="1"/></linearGradient><circle id="XMLID_140_" cx="189.6" cy="-474.9" r="1.6" class="st21"/><linearGradient id="XMLID_64_" x1="163.399" x2="168.251" y1="-16372.685" y2="-16372.685" gradientTransform="matrix(1 0 0 -1 0 -16896)" gradientUnits="userSpaceOnUse"><stop style="stop-color:#fff;stop-opacity:.6" offset="0"/><stop style="stop-color:#fff" offset="1"/></linearGradient><circle id="XMLID_44_" cx="165.8" cy="-523.3" r="2.4" class="st22"/><linearGradient id="XMLID_65_" x1="-42.015" x2="-39.072" y1="-16437.119" y2="-16437.119" gradientTransform="matrix(1 0 0 -1 0 -16896)" gradientUnits="userSpaceOnUse"><stop style="stop-color:#fff;stop-opacity:.6" offset="0"/><stop style="stop-color:#fff" offset="1"/></linearGradient><circle id="XMLID_42_" cx="-40.5" cy="-458.9" r="1.5" class="st23"/><linearGradient id="XMLID_66_" x1="376.067" x2="381.896" y1="-16445.088" y2="-16445.088" gradientTransform="matrix(1 0 0 -1 0 -16896)" gradientUnits="userSpaceOnUse"><stop style="stop-color:#fff;stop-opacity:.6" offset="0"/><stop style="stop-color:#fff" offset="1"/></linearGradient><circle id="XMLID_73_" cx="379" cy="-450.9" r="2.9" class="st24"/><linearGradient id="XMLID_67_" x1="172.737" x2="175.102" y1="-16488.229" y2="-16488.229" gradientTransform="matrix(1 0 0 -1 0 -16896)" gradientUnits="userSpaceOnUse"><stop style="stop-color:#fff;stop-opacity:.6" offset="0"/><stop style="stop-color:#fff" offset="1"/></linearGradient><circle id="XMLID_72_" cx="173.9" cy="-407.8" r="1.2" class="st25"/><linearGradient id="XMLID_68_" x1="338.746" x2="341.899" y1="-16492.688" y2="-16492.688" gradientTransform="matrix(1 0 0 -1 0 -16896)" gradientUnits="userSpaceOnUse"><stop style="stop-color:#fff;stop-opacity:.6" offset="0"/><stop style="stop-color:#fff" offset="1"/></linearGradient><circle id="XMLID_71_" cx="340.3" cy="-403.3" r="1.6" class="st26"/><linearGradient id="XMLID_69_" x1="417.898" x2="421.052" y1="-16408.668" y2="-16408.668" gradientTransform="matrix(1 0 0 -1 0 -16896)" gradientUnits="userSpaceOnUse"><stop style="stop-color:#fff;stop-opacity:.6" offset="0"/><stop style="stop-color:#fff" offset="1"/></linearGradient><circle id="XMLID_70_" cx="419.5" cy="-487.3" r="1.6" class="st27"/><linearGradient id="XMLID_74_" x1="74.582" x2="80.41" y1="-16437.119" y2="-16437.119" gradientTransform="matrix(1 0 0 -1 0 -16896)" gradientUnits="userSpaceOnUse"><stop style="stop-color:#fff;stop-opacity:.6" offset="0"/><stop style="stop-color:#fff" offset="1"/></linearGradient><circle id="XMLID_369_" cx="77.5" cy="-458.9" r="2.9" class="st28"/><linearGradient id="XMLID_75_" x1="-32.877" x2="-28.024" y1="-16447.908" y2="-16447.908" gradientTransform="matrix(1 0 0 -1 0 -16896)" gradientUnits="userSpaceOnUse"><stop style="stop-color:#fff;stop-opacity:.6" offset="0"/><stop style="stop-color:#fff" offset="1"/></linearGradient><circle id="XMLID_361_" cx="-30.5" cy="-448.1" r="2.4" class="st29"/><linearGradient id="XMLID_76_" x1="27.538" x2="30.481" y1="-16529.867" y2="-16529.867" gradientTransform="matrix(1 0 0 -1 0 -16896)" gradientUnits="userSpaceOnUse"><stop style="stop-color:#fff;stop-opacity:.6" offset="0"/><stop style="stop-color:#fff" offset="1"/></linearGradient><circle id="XMLID_360_" cx="29" cy="-366.1" r="1.5" class="st30"/><linearGradient id="XMLID_77_" x1="315.433" x2="321.261" y1="-16360.103" y2="-16360.103" gradientTransform="matrix(1 0 0 -1 0 -16896)" gradientUnits="userSpaceOnUse"><stop style="stop-color:#fff;stop-opacity:.6" offset="0"/><stop style="stop-color:#fff" offset="1"/></linearGradient><circle id="XMLID_359_" cx="318.3" cy="-535.9" r="2.9" class="st31"/><linearGradient id="XMLID_78_" x1="159.985" x2="163.138" y1="-16501.168" y2="-16501.168" gradientTransform="matrix(1 0 0 -1 0 -16896)" gradientUnits="userSpaceOnUse"><stop style="stop-color:#fff;stop-opacity:.6" offset="0"/><stop style="stop-color:#fff" offset="1"/></linearGradient><circle id="XMLID_358_" cx="161.6" cy="-394.8" r="1.6" class="st32"/><rect width="518.4" height="324.3" x="-167.9" y="-510.9" class="st33"/><polygon id="XMLID_168_" points="108.7 -127.6 206.6 -66.3 109.3 -5 11.4 -66.3" class="st1"/><g id="XMLID_7_"><linearGradient id="XMLID_79_" x1="97.186" x2="128.135" y1="-16811.998" y2="-16696.496" gradientTransform="matrix(1 0 0 -1 0 -16896)" gradientUnits="userSpaceOnUse"><stop style="stop-color:#4f3e90" offset="0"/><stop style="stop-color:#171a31" offset="1"/></linearGradient><polygon id="XMLID_30_" points="112.3 -203.7 219.7 -141.8 113 -79.8 5.6 -141.7" class="st34"/><linearGradient id="XMLID_80_" x1="52.548" x2="66.074" y1="-16820.973" y2="-16770.496" gradientTransform="matrix(1 0 0 -1 0 -16896)" gradientUnits="userSpaceOnUse"><stop style="stop-color:#00ace9" offset="0"/><stop style="stop-color:#007541" offset="1"/></linearGradient><polygon id="XMLID_25_" points="5.6 -141.7 5.5 -120.8 113 -58.8 113 -79.7" class="st35"/><linearGradient id="XMLID_81_" x1="166.394" x2="166.394" y1="-16837.185" y2="-16754.283" gradientTransform="matrix(1 0 0 -1 0 -16896)" gradientUnits="userSpaceOnUse"><stop style="stop-color:#463780" offset="0"/><stop style="stop-color:#382e68" offset=".143"/><stop style="stop-color:#292550" offset=".331"/><stop style="stop-color:#1f1f3f" offset=".529"/><stop style="stop-color:#191b34" offset=".743"/><stop style="stop-color:#171a31" offset="1"/></linearGradient><polygon id="XMLID_8_" points="113 -58.8 113 -79.7 219.8 -141.7 219.7 -120.8" class="st36"/></g><g id="XMLID_21_"><linearGradient id="XMLID_82_" x1="97.186" x2="128.135" y1="-16773.002" y2="-16657.5" gradientTransform="matrix(1 0 0 -1 0 -16896)" gradientUnits="userSpaceOnUse"><stop style="stop-color:#4f3e90" offset="0"/><stop style="stop-color:#171a31" offset="1"/></linearGradient><polygon id="XMLID_6_" points="112.3 -242.7 219.7 -180.8 113 -118.8 5.6 -180.7" class="st37"/><linearGradient id="XMLID_83_" x1="52.548" x2="66.074" y1="-16781.979" y2="-16731.5" gradientTransform="matrix(1 0 0 -1 0 -16896)" gradientUnits="userSpaceOnUse"><stop style="stop-color:#00ace9" offset="0"/><stop style="stop-color:#007541" offset="1"/></linearGradient><polygon id="XMLID_5_" points="5.6 -180.7 5.5 -159.8 113 -97.8 113 -118.7" class="st38"/><linearGradient id="XMLID_84_" x1="166.394" x2="166.394" y1="-16798.19" y2="-16715.287" gradientTransform="matrix(1 0 0 -1 0 -16896)" gradientUnits="userSpaceOnUse"><stop style="stop-color:#463780" offset="0"/><stop style="stop-color:#382e68" offset=".143"/><stop style="stop-color:#292550" offset=".331"/><stop style="stop-color:#1f1f3f" offset=".529"/><stop style="stop-color:#191b34" offset=".743"/><stop style="stop-color:#171a31" offset="1"/></linearGradient><polygon id="XMLID_9_" points="113 -97.8 113 -118.7 219.8 -180.7 219.7 -159.8" class="st39"/></g><g id="XMLID_22_"><linearGradient id="XMLID_85_" x1="97.186" x2="128.135" y1="-16734.008" y2="-16618.506" gradientTransform="matrix(1 0 0 -1 0 -16896)" gradientUnits="userSpaceOnUse"><stop style="stop-color:#4f3e90" offset="0"/><stop style="stop-color:#171a31" offset="1"/></linearGradient><polygon id="XMLID_11_" points="112.3 -281.7 219.7 -219.7 113 -157.7 5.6 -219.7" class="st40"/><linearGradient id="XMLID_86_" x1="52.548" x2="66.074" y1="-16742.982" y2="-16692.506" gradientTransform="matrix(1 0 0 -1 0 -16896)" gradientUnits="userSpaceOnUse"><stop style="stop-color:#00ace9" offset="0"/><stop style="stop-color:#007541" offset="1"/></linearGradient><polygon id="XMLID_10_" points="5.6 -219.7 5.5 -198.8 113 -136.8 113 -157.7" class="st41"/><linearGradient id="XMLID_87_" x1="166.394" x2="166.394" y1="-16759.195" y2="-16676.293" gradientTransform="matrix(1 0 0 -1 0 -16896)" gradientUnits="userSpaceOnUse"><stop style="stop-color:#463780" offset="0"/><stop style="stop-color:#382e68" offset=".143"/><stop style="stop-color:#292550" offset=".331"/><stop style="stop-color:#1f1f3f" offset=".529"/><stop style="stop-color:#191b34" offset=".743"/><stop style="stop-color:#171a31" offset="1"/></linearGradient><polygon id="XMLID_12_" points="113 -136.8 113 -157.7 219.8 -219.7 219.7 -198.8" class="st42"/></g><g id="XMLID_23_"><linearGradient id="XMLID_88_" x1="97.186" x2="128.135" y1="-16695.012" y2="-16579.51" gradientTransform="matrix(1 0 0 -1 0 -16896)" gradientUnits="userSpaceOnUse"><stop style="stop-color:#4f3e90" offset="0"/><stop style="stop-color:#171a31" offset="1"/></linearGradient><polygon id="XMLID_14_" points="112.3 -320.7 219.7 -258.7 113 -196.7 5.6 -258.7" class="st43"/><linearGradient id="XMLID_89_" x1="52.548" x2="66.074" y1="-16703.986" y2="-16653.51" gradientTransform="matrix(1 0 0 -1 0 -16896)" gradientUnits="userSpaceOnUse"><stop style="stop-color:#00ace9" offset="0"/><stop style="stop-color:#007541" offset="1"/></linearGradient><polygon id="XMLID_13_" points="5.6 -258.7 5.5 -237.8 113 -175.8 113 -196.7" class="st44"/><linearGradient id="XMLID_90_" x1="166.394" x2="166.394" y1="-16720.199" y2="-16637.297" gradientTransform="matrix(1 0 0 -1 0 -16896)" gradientUnits="userSpaceOnUse"><stop style="stop-color:#463780" offset="0"/><stop style="stop-color:#382e68" offset=".143"/><stop style="stop-color:#292550" offset=".331"/><stop style="stop-color:#1f1f3f" offset=".529"/><stop style="stop-color:#191b34" offset=".743"/><stop style="stop-color:#171a31" offset="1"/></linearGradient><polygon id="XMLID_15_" points="113 -175.8 113 -196.7 219.8 -258.7 219.7 -237.8" class="st45"/></g><g id="XMLID_24_"><linearGradient id="XMLID_91_" x1="97.186" x2="128.135" y1="-16656.016" y2="-16540.514" gradientTransform="matrix(1 0 0 -1 0 -16896)" gradientUnits="userSpaceOnUse"><stop style="stop-color:#4f3e90" offset="0"/><stop style="stop-color:#171a31" offset="1"/></linearGradient><polygon id="XMLID_17_" points="112.3 -359.7 219.7 -297.7 113 -235.7 5.6 -297.7" class="st46"/><linearGradient id="XMLID_92_" x1="52.548" x2="66.074" y1="-16664.992" y2="-16614.514" gradientTransform="matrix(1 0 0 -1 0 -16896)" gradientUnits="userSpaceOnUse"><stop style="stop-color:#00ace9" offset="0"/><stop style="stop-color:#007541" offset="1"/></linearGradient><polygon id="XMLID_16_" points="5.6 -297.7 5.5 -276.8 113 -214.8 113 -235.7" class="st47"/><linearGradient id="XMLID_93_" x1="166.394" x2="166.394" y1="-16681.205" y2="-16598.301" gradientTransform="matrix(1 0 0 -1 0 -16896)" gradientUnits="userSpaceOnUse"><stop style="stop-color:#463780" offset="0"/><stop style="stop-color:#382e68" offset=".143"/><stop style="stop-color:#292550" offset=".331"/><stop style="stop-color:#1f1f3f" offset=".529"/><stop style="stop-color:#191b34" offset=".743"/><stop style="stop-color:#171a31" offset="1"/></linearGradient><polygon id="XMLID_18_" points="113 -214.8 113 -235.7 219.8 -297.7 219.7 -276.8" class="st48"/></g><linearGradient id="XMLID_94_" x1="103.776" x2="122.281" y1="-16631.18" y2="-16562.119" gradientTransform="matrix(1 0 0 -1 0 -16896)" gradientUnits="userSpaceOnUse"><stop style="stop-color:#00ace9" offset="0"/><stop style="stop-color:#007541" offset="1"/></linearGradient><polygon id="XMLID_26_" points="112.8 -336.4 177 -299.4 113.2 -262.3 49 -299.3" class="st49"/><g id="XMLID_4_"><defs><polygon id="XMLID_35_" points="112.8 -336.4 177 -299.4 113.2 -262.3 49 -299.3"/></defs><clipPath id="XMLID_95_"><use style="overflow:visible" xlink:href="#XMLID_35_"/></clipPath><linearGradient id="XMLID_99_" x1="103.744" x2="122.307" y1="-16573.664" y2="-16642.941" gradientTransform="matrix(1 0 0 -1 0 -16896)" gradientUnits="userSpaceOnUse"><stop style="stop-color:#00ace9" offset="0"/><stop style="stop-color:#007541" offset="1"/></linearGradient><polygon id="XMLID_19_" points="112.8 -324.8 177 -287.7 113.2 -250.6 49 -287.7" class="st50"/><linearGradient id="XMLID_102_" x1="103.744" x2="122.307" y1="-16585.1" y2="-16654.375" gradientTransform="matrix(1 0 0 -1 0 -16896)" gradientUnits="userSpaceOnUse"><stop style="stop-color:#00ace9" offset="0"/><stop style="stop-color:#007541" offset="1"/></linearGradient><polygon id="XMLID_27_" points="112.8 -313.3 177 -276.3 113.2 -239.2 49 -276.2" class="st51"/><linearGradient id="XMLID_106_" x1="103.744" x2="122.307" y1="-16596.533" y2="-16665.81" gradientTransform="matrix(1 0 0 -1 0 -16896)" gradientUnits="userSpaceOnUse"><stop style="stop-color:#00ace9" offset="0"/><stop style="stop-color:#007541" offset="1"/></linearGradient><polygon id="XMLID_28_" points="112.8 -301.9 177 -264.8 113.2 -227.8 49 -264.8" class="st52"/><linearGradient id="XMLID_110_" x1="103.744" x2="122.307" y1="-16607.969" y2="-16677.246" gradientTransform="matrix(1 0 0 -1 0 -16896)" gradientUnits="userSpaceOnUse"><stop style="stop-color:#00ace9" offset="0"/><stop style="stop-color:#007541" offset="1"/></linearGradient><polygon id="XMLID_29_" points="112.8 -290.5 177 -253.4 113.2 -216.3 49 -253.4" class="st53"/><linearGradient id="XMLID_111_" x1="103.744" x2="122.307" y1="-16619.404" y2="-16688.682" gradientTransform="matrix(1 0 0 -1 0 -16896)" gradientUnits="userSpaceOnUse"><stop style="stop-color:#00ace9" offset="0"/><stop style="stop-color:#007541" offset="1"/></linearGradient><polygon id="XMLID_31_" points="112.8 -279 177 -242 113.2 -204.9 49 -241.9" class="st54"/><linearGradient id="XMLID_112_" x1="103.744" x2="122.307" y1="-16630.838" y2="-16700.115" gradientTransform="matrix(1 0 0 -1 0 -16896)" gradientUnits="userSpaceOnUse"><stop style="stop-color:#00ace9" offset="0"/><stop style="stop-color:#007541" offset="1"/></linearGradient><polygon id="XMLID_32_" points="112.8 -267.6 177 -230.5 113.2 -193.5 49 -230.5" class="st55"/><linearGradient id="XMLID_113_" x1="103.744" x2="122.307" y1="-16642.273" y2="-16711.551" gradientTransform="matrix(1 0 0 -1 0 -16896)" gradientUnits="userSpaceOnUse"><stop style="stop-color:#00ace9" offset="0"/><stop style="stop-color:#007541" offset="1"/></linearGradient><polygon id="XMLID_33_" points="112.8 -256.2 177 -219.1 113.2 -182 49 -219.1" class="st56"/><linearGradient id="XMLID_115_" x1="103.744" x2="122.307" y1="-16653.709" y2="-16722.986" gradientTransform="matrix(1 0 0 -1 0 -16896)" gradientUnits="userSpaceOnUse"><stop style="stop-color:#00ace9" offset="0"/><stop style="stop-color:#007541" offset="1"/></linearGradient><polygon id="XMLID_34_" points="112.8 -244.7 177 -207.7 113.2 -170.6 49 -207.6" class="st57"/></g><linearGradient id="XMLID_116_" x1="83.635" x2="141.683" y1="-16624.654" y2="-16408.016" gradientTransform="matrix(1 0 0 -1 0 -16896)" gradientUnits="userSpaceOnUse"><stop style="stop-color:#fff;stop-opacity:0" offset="0"/><stop style="stop-color:#fff;stop-opacity:.3" offset="1"/></linearGradient><polygon id="XMLID_36_" points="112.4 -495.8 48.6 -458.7 48.6 -300.6 112.9 -263.5 176.7 -300.6 176.7 -458.8" class="st58"/><linearGradient id="XMLID_117_" x1="91.262" x2="97.374" y1="-16589.914" y2="-16589.914" gradientTransform="matrix(1 0 0 -1 0 -16896)" gradientUnits="userSpaceOnUse"><stop style="stop-color:#fff;stop-opacity:.6" offset="0"/><stop style="stop-color:#fff" offset="1"/></linearGradient><circle id="XMLID_3_" cx="94.3" cy="-306.1" r="3.1" class="st59"/><linearGradient id="XMLID_118_" x1="116.001" x2="119.308" y1="-16556.76" y2="-16556.76" gradientTransform="matrix(1 0 0 -1 0 -16896)" gradientUnits="userSpaceOnUse"><stop style="stop-color:#fff;stop-opacity:.6" offset="0"/><stop style="stop-color:#fff" offset="1"/></linearGradient><circle id="XMLID_45_" cx="117.7" cy="-339.2" r="1.7" class="st60"/><polyline id="XMLID_114_" points="113 -59.2 5.6 -121.2 112.6 -236.4 219.7 -121.2 113 -59.2" class="st1"/></svg>