<svg xmlns="http://www.w3.org/2000/svg" xmlns:xlink="http://www.w3.org/1999/xlink" id="Capa_1" x="0" y="0" version="1.1" viewBox="-188 -537.5 900 563" xml:space="preserve" style="enable-background:new -188 -537.5 900 563"><style type="text/css">.st0,.st1{clip-path:url(#SVGID_2_);fill:url(#SVGID_3_)}.st1{opacity:.3;fill:#7b20e5}.st2,.st3{fill:none;stroke-width:6;stroke-miterlimit:10}.st2{clip-path:url(#SVGID_2_);stroke:url(#XMLID_2_)}.st3{stroke:url(#XMLID_3_)}.st3,.st4{clip-path:url(#SVGID_2_)}.st5{fill:url(#XMLID_4_)}.st6{fill:url(#XMLID_5_)}.st7{fill:url(#XMLID_6_)}.st10,.st8,.st9{clip-path:url(#SVGID_2_)}.st8{fill:url(#XMLID_7_)}.st9{fill:url(#XMLID_8_)}.st10{fill:url(#XMLID_9_)}.st11{fill:url(#XMLID_10_)}.st12{fill:url(#XMLID_11_)}.st13{fill:url(#XMLID_12_)}.st14{fill:url(#XMLID_13_)}.st15{fill:url(#XMLID_14_)}.st16{fill:url(#XMLID_15_)}.st17{fill:url(#XMLID_17_)}.st17,.st18,.st19{clip-path:url(#XMLID_16_)}.st18{fill:url(#XMLID_18_)}.st19{fill:url(#XMLID_19_)}.st20{fill:url(#XMLID_21_)}.st20,.st21,.st22,.st23,.st24{clip-path:url(#XMLID_16_)}.st21{fill:url(#XMLID_22_)}.st22{fill:url(#XMLID_23_)}.st23{fill:url(#XMLID_24_)}.st24{fill:url(#XMLID_25_)}.st25{clip-path:url(#SVGID_2_);fill:url(#XMLID_26_)}.st26{fill:url(#XMLID_27_)}.st27{fill:url(#XMLID_28_)}.st28{fill:url(#XMLID_29_)}.st29{fill:url(#XMLID_30_)}.st30{fill:url(#XMLID_31_)}.st31{fill:url(#XMLID_32_)}.st32{fill:url(#XMLID_33_)}.st33{fill:url(#XMLID_34_)}.st34{fill:url(#XMLID_35_)}.st35{fill:url(#XMLID_36_)}.st36{fill:url(#XMLID_38_)}.st37{fill:url(#XMLID_39_)}.st38{opacity:.5;fill:url(#XMLID_40_)}.st38,.st39,.st40{clip-path:url(#SVGID_2_)}.st39{opacity:.55;fill:url(#XMLID_41_)}.st40{opacity:.6;fill:url(#XMLID_45_)}.st41{opacity:.4;fill:url(#XMLID_46_)}.st41,.st42,.st43,.st44,.st45{clip-path:url(#SVGID_2_)}.st42{opacity:.6;fill:url(#XMLID_47_)}.st43{opacity:.4;fill:url(#XMLID_48_)}.st44{opacity:.55;fill:url(#XMLID_51_)}.st45{opacity:.2;fill:url(#XMLID_52_)}.st46{opacity:.4;fill:url(#XMLID_53_)}.st46,.st47,.st48,.st49,.st50{clip-path:url(#SVGID_2_)}.st47{opacity:.6;fill:url(#XMLID_54_)}.st48{opacity:.4;fill:url(#XMLID_55_)}.st49{opacity:.5;fill:url(#XMLID_56_)}.st50{opacity:.55;fill:url(#XMLID_57_)}.st51{opacity:.6;fill:url(#XMLID_58_)}.st51,.st52,.st53,.st54,.st55{clip-path:url(#SVGID_2_)}.st52{opacity:.2;fill:url(#XMLID_59_)}.st53{opacity:.4;fill:url(#XMLID_60_)}.st54{opacity:.6;fill:url(#XMLID_61_)}.st55{opacity:.55;fill:url(#XMLID_62_)}</style><g><defs><rect id="SVGID_1_" width="900" height="563" x="-188" y="-537.5"/></defs><clipPath id="SVGID_2_"><use xlink:href="#SVGID_1_" style="overflow:visible"/></clipPath><linearGradient id="SVGID_3_" x1="-188" x2="712" y1="-256" y2="-256" gradientUnits="userSpaceOnUse"><stop offset="0" style="stop-color:#7f00ff"/><stop offset=".275" style="stop-color:#7c00ff"/><stop offset=".49" style="stop-color:#7200ff"/><stop offset=".685" style="stop-color:#6100ff"/><stop offset=".867" style="stop-color:#4a00ff"/><stop offset="1" style="stop-color:#3400ff"/></linearGradient><rect width="900" height="563" x="-188" y="-537.5" class="st0"/><path d="M-114-93.1l-13.3-46.5c-2-7.1-0.1-14.8,5-20.1l33.6-34.8c5.1-5.3,12.7-7.5,19.9-5.7l46.9,11.8 c7.2,1.8,12.8,7.3,14.9,14.4l13.3,46.5c2,7.1,0.1,14.8-5,20.1l-33.6,34.8c-5.1,5.3-12.7,7.5-19.9,5.7l-46.9-11.8 C-106.3-80.5-112-86-114-93.1z" class="st1"/><path d="M-44.7-293.1l-19.9-69.6c-3-10.6-0.2-22.1,7.5-30l50.4-52c7.7-8,19.1-11.2,29.8-8.5l70.3,17.6 c10.7,2.7,19.2,10.9,22.3,21.5l19.9,69.6c3,10.6,0.2,22.1-7.5,30l-50.4,52c-7.7,8-19.1,11.2-29.8,8.5l-70.3-17.6 C-33.1-274.2-41.6-282.4-44.7-293.1z" class="st1"/><path d="M289.4-344.2l51.7-48.8c7.9-7.5,19.2-10.1,29.6-7l68.1,20.4c10.4,3.1,18.4,11.5,20.9,22.1l16.4,69.1 c2.5,10.6-0.8,21.7-8.7,29.1l-51.7,48.8c-7.9,7.5-19.2,10.1-29.6,7L318-223.8c-10.4-3.1-18.4-11.5-20.9-22.1L280.7-315 C278.2-325.6,281.5-336.7,289.4-344.2z" class="st1"/><linearGradient id="XMLID_2_" x1="73.137" x2="165.536" y1="-16846.463" y2="-16846.463" gradientTransform="matrix(1 0 0 -1 0 -16896)" gradientUnits="userSpaceOnUse"><stop offset="0" style="stop-color:#00ace9"/><stop offset="1" style="stop-color:#007541"/></linearGradient><polyline id="XMLID_372_" points="162.5 -108.8 162.5 -38.8 74.5 7.1" class="st2"/><linearGradient id="XMLID_3_" x1="27.933" x2="321.978" y1="-16841.754" y2="-16841.754" gradientTransform="matrix(1 0 0 -1 0 -16896)" gradientUnits="userSpaceOnUse"><stop offset="0" style="stop-color:#00ace9"/><stop offset="1" style="stop-color:#007541"/></linearGradient><polyline id="XMLID_65_" points="30.9 -253.1 30.9 -16.8 320.5 142" class="st3"/><g id="XMLID_178_" class="st4"><linearGradient id="XMLID_4_" x1="125.01" x2="192.398" y1="-16511.045" y2="-16259.551" gradientTransform="matrix(1 0 0 -1 0 -16896)" gradientUnits="userSpaceOnUse"><stop offset="0" style="stop-color:#4f3e90"/><stop offset="1" style="stop-color:#171a31"/></linearGradient><polygon id="XMLID_184_" points="42.2 -443.2 42.2 -578.1 158.3 -645.6 275.2 -578.1 275.2 -443.3 159.1 -375.8" class="st5"/><linearGradient id="XMLID_5_" x1="141.87" x2="175.538" y1="-16380.683" y2="-16255.033" gradientTransform="matrix(1 0 0 -1 0 -16896)" gradientUnits="userSpaceOnUse"><stop offset="0" style="stop-color:#4f3e90"/><stop offset="1" style="stop-color:#171a31"/></linearGradient><polygon id="XMLID_182_" points="158.3 -645.6 275.2 -578.1 159.1 -510.7 42.2 -578.1" class="st6"/><linearGradient id="XMLID_6_" x1="195.731" x2="238.538" y1="-16339.139" y2="-16498.894" gradientTransform="matrix(1 0 0 -1 0 -16896)" gradientUnits="userSpaceOnUse"><stop offset="0" style="stop-color:#4f3e90"/><stop offset="1" style="stop-color:#171a31"/></linearGradient><polygon id="XMLID_181_" points="159.1 -375.8 159.1 -510.7 275.2 -578.1 275.2 -443.3" class="st7"/></g><linearGradient id="XMLID_7_" x1="465.968" x2="656.023" y1="-17388.125" y2="-16678.83" gradientTransform="matrix(1 0 0 -1 0 -16896)" gradientUnits="userSpaceOnUse"><stop offset="0" style="stop-color:#4f3e90"/><stop offset="1" style="stop-color:#171a31"/></linearGradient><polygon id="XMLID_20_" points="232.5 327.8 232.5 -52.6 559.9 -242.9 889.5 -52.7 889.5 327.7 562.1 517.9" class="st8"/><linearGradient id="XMLID_8_" x1="513.519" x2="608.473" y1="-17020.459" y2="-16666.088" gradientTransform="matrix(1 0 0 -1 0 -16896)" gradientUnits="userSpaceOnUse"><stop offset="0" style="stop-color:#4f3e90"/><stop offset="1" style="stop-color:#171a31"/></linearGradient><polygon id="XMLID_49_" points="559.9 -242.9 889.5 -52.7 562.1 137.5 232.5 -52.6" class="st9"/><linearGradient id="XMLID_9_" x1="665.424" x2="786.153" y1="-16903.291" y2="-17353.857" gradientTransform="matrix(1 0 0 -1 0 -16896)" gradientUnits="userSpaceOnUse"><stop offset="0" style="stop-color:#4f3e90"/><stop offset="1" style="stop-color:#171a31"/></linearGradient><polygon id="XMLID_50_" points="562.1 517.9 562.1 137.5 889.5 -52.7 889.5 327.7" class="st10"/><g id="XMLID_171_" class="st4"><linearGradient id="XMLID_10_" x1="-2.757" x2="64.631" y1="-16720.039" y2="-16468.543" gradientTransform="matrix(1 0 0 -1 0 -16896)" gradientUnits="userSpaceOnUse"><stop offset="0" style="stop-color:#4f3e90"/><stop offset="1" style="stop-color:#171a31"/></linearGradient><polygon id="XMLID_175_" points="-85.5 -234.2 -85.5 -369.1 30.5 -436.6 147.4 -369.2 147.4 -234.3 31.3 -166.8" class="st11"/><linearGradient id="XMLID_11_" x1="14.103" x2="47.771" y1="-16589.676" y2="-16464.025" gradientTransform="matrix(1 0 0 -1 0 -16896)" gradientUnits="userSpaceOnUse"><stop offset="0" style="stop-color:#4f3e90"/><stop offset="1" style="stop-color:#171a31"/></linearGradient><polygon id="XMLID_173_" points="30.5 -436.6 147.4 -369.2 31.3 -301.7 -85.5 -369.1" class="st12"/><linearGradient id="XMLID_12_" x1="67.964" x2="110.771" y1="-16548.131" y2="-16707.889" gradientTransform="matrix(1 0 0 -1 0 -16896)" gradientUnits="userSpaceOnUse"><stop offset="0" style="stop-color:#4f3e90"/><stop offset="1" style="stop-color:#171a31"/></linearGradient><polygon id="XMLID_172_" points="31.3 -166.8 31.3 -301.7 147.4 -369.2 147.4 -234.3" class="st13"/></g><g id="XMLID_185_" class="st4"><linearGradient id="XMLID_13_" x1="146.742" x2="178.333" y1="-16821.438" y2="-16703.539" gradientTransform="matrix(1 0 0 -1 0 -16896)" gradientUnits="userSpaceOnUse"><stop offset="0" style="stop-color:#4f3e90"/><stop offset="1" style="stop-color:#171a31"/></linearGradient><polygon id="XMLID_188_" points="107.9 -101.9 107.9 -165.1 162.4 -196.7 217.1 -165.1 217.1 -101.9 162.7 -70.3" class="st14"/><linearGradient id="XMLID_14_" x1="154.646" x2="170.429" y1="-16760.324" y2="-16701.422" gradientTransform="matrix(1 0 0 -1 0 -16896)" gradientUnits="userSpaceOnUse"><stop offset="0" style="stop-color:#4f3e90"/><stop offset="1" style="stop-color:#171a31"/></linearGradient><polygon id="XMLID_187_" points="162.4 -196.7 217.1 -165.1 162.7 -133.5 107.9 -165.1" class="st15"/><linearGradient id="XMLID_15_" x1="179.896" x2="199.963" y1="-16740.85" y2="-16815.742" gradientTransform="matrix(1 0 0 -1 0 -16896)" gradientUnits="userSpaceOnUse"><stop offset="0" style="stop-color:#4f3e90"/><stop offset="1" style="stop-color:#171a31"/></linearGradient><polygon id="XMLID_186_" points="162.7 -70.3 162.7 -133.5 217.1 -165.1 217.1 -101.9" class="st16"/></g><g id="XMLID_97_" class="st4"><defs><polygon id="XMLID_98_" points="556.3 -180.3 750.4 -68.2 557.6 43.8 363.5 -68.2"/></defs><clipPath id="XMLID_16_"><use xlink:href="#XMLID_98_" style="overflow:visible"/></clipPath><linearGradient id="XMLID_17_" x1="528.896" x2="585.003" y1="-16758.291" y2="-16967.685" gradientTransform="matrix(1 0 0 -1 0 -16896)" gradientUnits="userSpaceOnUse"><stop offset="0" style="stop-color:#00ace9"/><stop offset="1" style="stop-color:#007541"/></linearGradient><polygon id="XMLID_109_" points="556.3 -145.1 750.4 -33 557.6 79 363.5 -33" class="st17"/><linearGradient id="XMLID_18_" x1="528.896" x2="585.003" y1="-16792.856" y2="-17002.248" gradientTransform="matrix(1 0 0 -1 0 -16896)" gradientUnits="userSpaceOnUse"><stop offset="0" style="stop-color:#00ace9"/><stop offset="1" style="stop-color:#007541"/></linearGradient><polygon id="XMLID_108_" points="556.3 -110.5 750.4 1.5 557.6 113.6 363.5 1.6" class="st18"/><linearGradient id="XMLID_19_" x1="528.896" x2="585.003" y1="-16827.418" y2="-17036.813" gradientTransform="matrix(1 0 0 -1 0 -16896)" gradientUnits="userSpaceOnUse"><stop offset="0" style="stop-color:#00ace9"/><stop offset="1" style="stop-color:#007541"/></linearGradient><polygon id="XMLID_107_" points="556.3 -75.9 750.4 36.1 557.6 148.1 363.5 36.2" class="st19"/><linearGradient id="XMLID_21_" x1="528.896" x2="585.003" y1="-16861.981" y2="-17071.375" gradientTransform="matrix(1 0 0 -1 0 -16896)" gradientUnits="userSpaceOnUse"><stop offset="0" style="stop-color:#00ace9"/><stop offset="1" style="stop-color:#007541"/></linearGradient><polygon id="XMLID_105_" points="556.3 -41.4 750.4 70.7 557.6 182.7 363.5 70.7" class="st20"/><linearGradient id="XMLID_22_" x1="528.896" x2="585.003" y1="-16896.543" y2="-17105.938" gradientTransform="matrix(1 0 0 -1 0 -16896)" gradientUnits="userSpaceOnUse"><stop offset="0" style="stop-color:#00ace9"/><stop offset="1" style="stop-color:#007541"/></linearGradient><polygon id="XMLID_104_" points="556.3 -6.8 750.4 105.2 557.6 217.3 363.5 105.3" class="st21"/><linearGradient id="XMLID_23_" x1="528.896" x2="585.003" y1="-16931.106" y2="-17140.5" gradientTransform="matrix(1 0 0 -1 0 -16896)" gradientUnits="userSpaceOnUse"><stop offset="0" style="stop-color:#00ace9"/><stop offset="1" style="stop-color:#007541"/></linearGradient><polygon id="XMLID_103_" points="556.3 27.8 750.4 139.8 557.6 251.8 363.5 139.8" class="st22"/><linearGradient id="XMLID_24_" x1="528.896" x2="585.003" y1="-16965.67" y2="-17175.063" gradientTransform="matrix(1 0 0 -1 0 -16896)" gradientUnits="userSpaceOnUse"><stop offset="0" style="stop-color:#00ace9"/><stop offset="1" style="stop-color:#007541"/></linearGradient><polygon id="XMLID_101_" points="556.3 62.3 750.4 174.4 557.6 286.4 363.5 174.4" class="st23"/><linearGradient id="XMLID_25_" x1="528.896" x2="585.003" y1="-17000.232" y2="-17209.627" gradientTransform="matrix(1 0 0 -1 0 -16896)" gradientUnits="userSpaceOnUse"><stop offset="0" style="stop-color:#00ace9"/><stop offset="1" style="stop-color:#007541"/></linearGradient><polygon id="XMLID_100_" points="556.3 96.9 750.4 208.9 557.6 321 363.5 209" class="st24"/></g><linearGradient id="XMLID_26_" x1="486.263" x2="627.653" y1="-16920.723" y2="-16393.047" gradientTransform="matrix(1 0 0 -1 0 -16896)" gradientUnits="userSpaceOnUse"><stop offset="0" style="stop-color:#fff;stop-opacity:0"/><stop offset="1" style="stop-color:#fff;stop-opacity:.3"/></linearGradient><polygon id="XMLID_96_" points="556.4 -522 401 -431.7 401 -46.4 557.5 43.8 712.9 -46.5 712.9 -431.8" class="st25"/><g id="XMLID_572_" class="st4"><linearGradient id="XMLID_27_" x1="186.31" x2="196.434" y1="-16759.658" y2="-16797.44" gradientTransform="matrix(1 0 0 -1 0 -16896)" gradientUnits="userSpaceOnUse"><stop offset="0" style="stop-color:#00ace9"/><stop offset="1" style="stop-color:#007541"/></linearGradient><polygon id="XMLID_574_" points="177.6 -93.5 177.6 -125.4 205.1 -141.4 205.1 -109.5" class="st26"/><linearGradient id="XMLID_28_" x1="207.357" x2="231.167" y1="-16754.018" y2="-16842.879" gradientTransform="matrix(1 0 0 -1 0 -16896)" gradientUnits="userSpaceOnUse"><stop offset="0" style="stop-color:#fff;stop-opacity:0"/><stop offset="1" style="stop-color:#fff;stop-opacity:.3"/></linearGradient><polygon id="XMLID_573_" points="177.6 -93.5 217.6 -49.5 256.6 -72.1 256.6 -117.5 205.1 -141.4 177.6 -125.4" class="st27"/></g><g id="XMLID_581_" class="st4"><linearGradient id="XMLID_29_" x1="85.87" x2="105.208" y1="-16590.451" y2="-16662.623" gradientTransform="matrix(1 0 0 -1 0 -16896)" gradientUnits="userSpaceOnUse"><stop offset="0" style="stop-color:#00ace9"/><stop offset="1" style="stop-color:#007541"/></linearGradient><polygon id="XMLID_583_" points="69.3 -223.8 69.3 -284.7 121.8 -315.2 121.8 -254.2" class="st28"/><linearGradient id="XMLID_30_" x1="126.072" x2="171.553" y1="-16577.961" y2="-16747.699" gradientTransform="matrix(1 0 0 -1 0 -16896)" gradientUnits="userSpaceOnUse"><stop offset="0" style="stop-color:#fff;stop-opacity:0"/><stop offset="1" style="stop-color:#fff;stop-opacity:.3"/></linearGradient><polygon id="XMLID_582_" points="69.3 -225.5 145.7 -141.4 220.2 -184.6 220.2 -271.2 121.8 -316.9 69.3 -286.4" class="st29"/></g><g id="XMLID_584_" class="st4"><linearGradient id="XMLID_31_" x1="216.288" x2="235.626" y1="-16378.219" y2="-16450.389" gradientTransform="matrix(1 0 0 -1 0 -16896)" gradientUnits="userSpaceOnUse"><stop offset="0" style="stop-color:#00ace9"/><stop offset="1" style="stop-color:#007541"/></linearGradient><polygon id="XMLID_586_" points="199.7 -436 199.7 -496.9 252.2 -527.4 252.2 -466.5" class="st30"/><linearGradient id="XMLID_32_" x1="256.49" x2="301.971" y1="-16365.728" y2="-16535.467" gradientTransform="matrix(1 0 0 -1 0 -16896)" gradientUnits="userSpaceOnUse"><stop offset="0" style="stop-color:#fff;stop-opacity:0"/><stop offset="1" style="stop-color:#fff;stop-opacity:.3"/></linearGradient><polygon id="XMLID_585_" points="199.7 -437.7 276.1 -353.6 350.6 -396.9 350.6 -483.4 252.2 -529.1 199.7 -498.6" class="st31"/></g><g id="XMLID_575_" class="st4"><linearGradient id="XMLID_33_" x1="125.399" x2="139.496" y1="-16752.732" y2="-16805.344" gradientTransform="matrix(1 0 0 -1 0 -16896)" gradientUnits="userSpaceOnUse"><stop offset="0" style="stop-color:#00ace9"/><stop offset="1" style="stop-color:#007541"/></linearGradient><polygon id="XMLID_577_" points="118.3 -141.4 146.6 -125.1 146.6 -92.5 118.3 -108.8" class="st32"/><linearGradient id="XMLID_34_" x1="99.465" x2="118.286" y1="-16759.682" y2="-16829.924" gradientTransform="matrix(1 0 0 -1 0 -16896)" gradientUnits="userSpaceOnUse"><stop offset="0" style="stop-color:#fff;stop-opacity:0"/><stop offset="1" style="stop-color:#fff;stop-opacity:.3"/></linearGradient><polygon id="XMLID_576_" points="118.3 -141.4 69.3 -127.1 69.3 -84.3 106.4 -62.9 146.6 -92.5 146.6 -125.1" class="st33"/></g><g id="XMLID_578_" class="st4"><linearGradient id="XMLID_35_" x1="-46.62" x2="-18.972" y1="-16577.129" y2="-16680.313" gradientTransform="matrix(1 0 0 -1 0 -16896)" gradientUnits="userSpaceOnUse"><stop offset="0" style="stop-color:#00ace9"/><stop offset="1" style="stop-color:#007541"/></linearGradient><polygon id="XMLID_580_" points="-60.5 -315.2 -5.1 -283.3 -5.1 -219.4 -60.5 -251.3" class="st34"/><linearGradient id="XMLID_36_" x1="-97.484" x2="-60.571" y1="-16590.758" y2="-16728.521" gradientTransform="matrix(1 0 0 -1 0 -16896)" gradientUnits="userSpaceOnUse"><stop offset="0" style="stop-color:#fff;stop-opacity:0"/><stop offset="1" style="stop-color:#fff;stop-opacity:.3"/></linearGradient><polygon id="XMLID_579_" points="-60.5 -315.2 -156.6 -287.2 -156.6 -203.2 -83.9 -161.2 -5.1 -219.4 -5.1 -283.3" class="st35"/></g><g id="XMLID_587_" class="st4"><linearGradient id="XMLID_38_" x1="84.124" x2="111.889" y1="-16364.879" y2="-16468.498" gradientTransform="matrix(1 0 0 -1 0 -16896)" gradientUnits="userSpaceOnUse"><stop offset="0" style="stop-color:#00ace9"/><stop offset="1" style="stop-color:#007541"/></linearGradient><polygon id="XMLID_589_" points="70.2 -527.4 125.8 -495.3 125.8 -431.2 70.2 -463.3" class="st36"/><linearGradient id="XMLID_39_" x1="33.046" x2="70.115" y1="-16378.565" y2="-16516.908" gradientTransform="matrix(1 0 0 -1 0 -16896)" gradientUnits="userSpaceOnUse"><stop offset="0" style="stop-color:#fff;stop-opacity:0"/><stop offset="1" style="stop-color:#fff;stop-opacity:.3"/></linearGradient><polygon id="XMLID_588_" points="70.2 -527.4 -26.3 -499.3 -26.3 -415 46.7 -372.8 125.8 -431.2 125.8 -495.3" class="st37"/></g><linearGradient id="XMLID_40_" x1="589.408" x2="593.755" y1="-16877.539" y2="-16877.539" gradientTransform="matrix(1 0 0 -1 0 -16896)" gradientUnits="userSpaceOnUse"><stop offset="0" style="stop-color:#fff;stop-opacity:.6"/><stop offset="1" style="stop-color:#fff"/></linearGradient><circle id="XMLID_304_" cx="591.6" cy="-18.5" r="2.2" class="st38"/><linearGradient id="XMLID_41_" x1="460.414" x2="464.761" y1="-16583.426" y2="-16583.426" gradientTransform="matrix(1 0 0 -1 0 -16896)" gradientUnits="userSpaceOnUse"><stop offset="0" style="stop-color:#fff;stop-opacity:.6"/><stop offset="1" style="stop-color:#fff"/></linearGradient><circle id="XMLID_302_" cx="462.6" cy="-312.6" r="2.2" class="st39"/><linearGradient id="XMLID_45_" x1="345.536" x2="355.654" y1="-16539.639" y2="-16539.639" gradientTransform="matrix(1 0 0 -1 0 -16896)" gradientUnits="userSpaceOnUse"><stop offset="0" style="stop-color:#fff;stop-opacity:.6"/><stop offset="1" style="stop-color:#fff"/></linearGradient><circle id="XMLID_37_" cx="350.6" cy="-356.4" r="5.1" class="st40"/><linearGradient id="XMLID_46_" x1="682.249" x2="686.356" y1="-16498.789" y2="-16498.789" gradientTransform="matrix(1 0 0 -1 0 -16896)" gradientUnits="userSpaceOnUse"><stop offset="0" style="stop-color:#fff;stop-opacity:.6"/><stop offset="1" style="stop-color:#fff"/></linearGradient><circle id="XMLID_43_" cx="684.3" cy="-397.2" r="2.1" class="st41"/><linearGradient id="XMLID_47_" x1="417.971" x2="428.089" y1="-16371.111" y2="-16371.111" gradientTransform="matrix(1 0 0 -1 0 -16896)" gradientUnits="userSpaceOnUse"><stop offset="0" style="stop-color:#fff;stop-opacity:.6"/><stop offset="1" style="stop-color:#fff"/></linearGradient><circle id="XMLID_143_" cx="423" cy="-524.9" r="5.1" class="st42"/><linearGradient id="XMLID_48_" x1="318.482" x2="322.589" y1="-16699.258" y2="-16699.258" gradientTransform="matrix(1 0 0 -1 0 -16896)" gradientUnits="userSpaceOnUse"><stop offset="0" style="stop-color:#fff;stop-opacity:.6"/><stop offset="1" style="stop-color:#fff"/></linearGradient><circle id="XMLID_142_" cx="320.5" cy="-196.7" r="2.1" class="st43"/><linearGradient id="XMLID_51_" x1="554.216" x2="559.691" y1="-16421.019" y2="-16421.019" gradientTransform="matrix(1 0 0 -1 0 -16896)" gradientUnits="userSpaceOnUse"><stop offset="0" style="stop-color:#fff;stop-opacity:.6"/><stop offset="1" style="stop-color:#fff"/></linearGradient><circle id="XMLID_140_" cx="557" cy="-475" r="2.7" class="st44"/><linearGradient id="XMLID_52_" x1="200.668" x2="209.093" y1="-16636.781" y2="-16636.781" gradientTransform="matrix(1 0 0 -1 0 -16896)" gradientUnits="userSpaceOnUse"><stop offset="0" style="stop-color:#fff;stop-opacity:.6"/><stop offset="1" style="stop-color:#fff"/></linearGradient><circle id="XMLID_44_" cx="204.9" cy="-259.2" r="4.2" class="st45"/><linearGradient id="XMLID_53_" x1="-126.534" x2="-121.424" y1="-16448.846" y2="-16448.846" gradientTransform="matrix(1 0 0 -1 0 -16896)" gradientUnits="userSpaceOnUse"><stop offset="0" style="stop-color:#fff;stop-opacity:.6"/><stop offset="1" style="stop-color:#fff"/></linearGradient><circle id="XMLID_42_" cx="-124" cy="-447.2" r="2.6" class="st46"/><linearGradient id="XMLID_54_" x1="569.909" x2="580.027" y1="-16762.488" y2="-16762.488" gradientTransform="matrix(1 0 0 -1 0 -16896)" gradientUnits="userSpaceOnUse"><stop offset="0" style="stop-color:#fff;stop-opacity:.6"/><stop offset="1" style="stop-color:#fff"/></linearGradient><circle id="XMLID_73_" cx="575" cy="-133.5" r="5.1" class="st47"/><linearGradient id="XMLID_55_" x1="527.731" x2="531.838" y1="-16537.584" y2="-16537.584" gradientTransform="matrix(1 0 0 -1 0 -16896)" gradientUnits="userSpaceOnUse"><stop offset="0" style="stop-color:#fff;stop-opacity:.6"/><stop offset="1" style="stop-color:#fff"/></linearGradient><circle id="XMLID_72_" cx="529.8" cy="-358.4" r="2.1" class="st48"/><linearGradient id="XMLID_56_" x1="505.11" x2="510.585" y1="-16845.133" y2="-16845.133" gradientTransform="matrix(1 0 0 -1 0 -16896)" gradientUnits="userSpaceOnUse"><stop offset="0" style="stop-color:#fff;stop-opacity:.6"/><stop offset="1" style="stop-color:#fff"/></linearGradient><circle id="XMLID_71_" cx="507.8" cy="-50.9" r="2.7" class="st49"/><linearGradient id="XMLID_57_" x1="642.536" x2="648.011" y1="-16699.258" y2="-16699.258" gradientTransform="matrix(1 0 0 -1 0 -16896)" gradientUnits="userSpaceOnUse"><stop offset="0" style="stop-color:#fff;stop-opacity:.6"/><stop offset="1" style="stop-color:#fff"/></linearGradient><circle id="XMLID_70_" cx="645.3" cy="-196.7" r="2.7" class="st50"/><linearGradient id="XMLID_58_" x1="357.313" x2="367.432" y1="-16448.846" y2="-16448.846" gradientTransform="matrix(1 0 0 -1 0 -16896)" gradientUnits="userSpaceOnUse"><stop offset="0" style="stop-color:#fff;stop-opacity:.6"/><stop offset="1" style="stop-color:#fff"/></linearGradient><circle id="XMLID_369_" cx="362.4" cy="-447.2" r="5.1" class="st51"/><linearGradient id="XMLID_59_" x1="170.74" x2="179.165" y1="-16467.578" y2="-16467.578" gradientTransform="matrix(1 0 0 -1 0 -16896)" gradientUnits="userSpaceOnUse"><stop offset="0" style="stop-color:#fff;stop-opacity:.6"/><stop offset="1" style="stop-color:#fff"/></linearGradient><circle id="XMLID_361_" cx="175" cy="-428.4" r="4.2" class="st52"/><linearGradient id="XMLID_60_" x1="275.633" x2="280.742" y1="-16609.877" y2="-16609.877" gradientTransform="matrix(1 0 0 -1 0 -16896)" gradientUnits="userSpaceOnUse"><stop offset="0" style="stop-color:#fff;stop-opacity:.6"/><stop offset="1" style="stop-color:#fff"/></linearGradient><circle id="XMLID_360_" cx="278.2" cy="-286.1" r="2.6" class="st53"/><linearGradient id="XMLID_61_" x1="464.634" x2="474.753" y1="-16614.935" y2="-16614.935" gradientTransform="matrix(1 0 0 -1 0 -16896)" gradientUnits="userSpaceOnUse"><stop offset="0" style="stop-color:#fff;stop-opacity:.6"/><stop offset="1" style="stop-color:#fff"/></linearGradient><circle id="XMLID_359_" cx="469.7" cy="-281.1" r="5.1" class="st54"/><linearGradient id="XMLID_62_" x1="505.591" x2="511.066" y1="-16560.049" y2="-16560.049" gradientTransform="matrix(1 0 0 -1 0 -16896)" gradientUnits="userSpaceOnUse"><stop offset="0" style="stop-color:#fff;stop-opacity:.6"/><stop offset="1" style="stop-color:#fff"/></linearGradient><circle id="XMLID_358_" cx="508.3" cy="-336" r="2.7" class="st55"/></g></svg>