<svg xmlns="http://www.w3.org/2000/svg" xmlns:xlink="http://www.w3.org/1999/xlink" id="Capa_1" x="0" y="0" version="1.1" viewBox="225 -56 900 563" xml:space="preserve" style="enable-background:new 225 -56 900 563"><style type="text/css">.st0{fill:url(#SVGID_1_)}.st1{opacity:.94}.st2{fill:#fff}</style><linearGradient id="SVGID_1_" x1="225" x2="1125" y1="226.5" y2="226.5" gradientTransform="matrix(1 0 0 -1 0 452)" gradientUnits="userSpaceOnUse"><stop offset="0" style="stop-color:#7f00ff"/><stop offset=".275" style="stop-color:#7c00ff"/><stop offset=".49" style="stop-color:#7200ff"/><stop offset=".685" style="stop-color:#6100ff"/><stop offset=".867" style="stop-color:#4a00ff"/><stop offset="1" style="stop-color:#3400ff"/></linearGradient><rect width="900" height="563" x="225" y="-56" class="st0"/><g class="st1"><path d="M634.7,182.6l23.9-5.1v20h17.6V218h-18v35.4c0,0-0.3,12.7,18,7.3v18.8c0,0-10.3,6.8-30.8,0 c0,0-9.4-7-10.8-19.2C633.4,248.1,634.7,182.6,634.7,182.6z" class="st2"/><g><rect width="23.8" height="84.5" x="604.5" y="197.4" class="st2"/><polygon points="604.5 189.7 628.3 184.5 628.3 165.1 604.5 170.3" class="st2"/></g><path d="M749,182.6l23.9-5.1v20h17.6V218h-18v35.4c0,0-0.3,12.7,18,7.3v18.8c0,0-10.3,6.8-30.8,0c0,0-9.4-7-10.8-19.2 C747.7,248.1,749,182.6,749,182.6z" class="st2"/><g><rect width="23.8" height="84.5" x="718.7" y="197.4" class="st2"/><polygon points="718.7 189.7 742.5 184.5 742.5 165.1 718.7 170.3" class="st2"/></g><path d="M593.1,211.6c0,0-6.5-12.6-21.9-15.5c-15.4-2.9-22.6,7.1-22.6,7.1l-1.3,0.7v-26.4v-12.3l-21.8,5.1v111.7h0.7 h24.3v-5.3c9.5,6.5,19.7,5.9,19.7,5.9c16.5-3.4,20.4-11.9,20.4-11.9s5.7-5.3,8.8-24.4S593.1,211.6,593.1,211.6z M567.9,259.4 c-10.3,5.3-17.6-2.5-17.6-2.5v-35.3c0,0,2.9-5,12.5-4.7c9.5,0.3,13.2,15.8,13.2,15.8S578.1,254,567.9,259.4z" class="st2"/><circle cx="812.2" cy="273.6" r="12.3" class="st2"/></g></svg>