<svg xmlns="http://www.w3.org/2000/svg" xmlns:xlink="http://www.w3.org/1999/xlink" id="Capa_1" x="0" y="0" version="1.1" viewBox="6 -6 512 512" xml:space="preserve" style="enable-background:new 6 -6 512 512"><style type="text/css">.st0{opacity:.17;fill:#1d1b30}.st1{fill:url(#XMLID_5_)}.st2{fill:url(#XMLID_7_)}.st3{fill:url(#XMLID_9_)}.st4{fill:url(#SVGID_1_)}.st5{fill:url(#SVGID_2_)}.st6{fill:#3f00fc}.st7{fill:#7f00ff}.st8{fill:url(#XMLID_10_)}.st9{fill:url(#XMLID_18_)}.st10{fill:url(#SVGID_3_)}.st11{fill:url(#SVGID_4_)}.st12{fill:url(#SVGID_5_)}.st13{fill:url(#SVGID_6_)}.st14{fill:url(#SVGID_7_)}.st15{fill:url(#SVGID_8_)}.st16{fill:url(#SVGID_9_)}.st17{fill:url(#SVGID_10_)}.st18{fill:url(#SVGID_11_)}.st19{fill:url(#SVGID_12_)}.st20{fill:url(#SVGID_13_)}.st21{fill:url(#SVGID_14_)}.st22{fill:url(#XMLID_19_)}.st23{fill:url(#XMLID_21_)}.st24{fill:url(#XMLID_22_)}.st25{fill:url(#SVGID_15_)}.st26{fill:url(#SVGID_16_)}.st27{fill:url(#XMLID_23_)}.st28{fill:url(#XMLID_24_)}.st29{fill:url(#SVGID_17_)}.st30{fill:url(#SVGID_18_)}.st31{fill:url(#SVGID_19_)}.st32{fill:url(#SVGID_20_)}.st33{fill:url(#SVGID_21_)}.st34{fill:url(#SVGID_22_)}.st35{fill:url(#SVGID_23_)}.st36{fill:url(#SVGID_24_)}.st37{fill:url(#SVGID_25_)}.st38{fill:url(#SVGID_26_)}.st39{fill:url(#SVGID_27_)}.st40{fill:url(#SVGID_28_)}.st41{fill:url(#XMLID_25_)}.st42{fill:url(#XMLID_26_)}.st43{fill:url(#XMLID_27_)}.st44{fill:url(#SVGID_29_)}.st45{fill:url(#SVGID_30_)}.st46{fill:url(#XMLID_28_)}.st47{fill:url(#XMLID_29_)}.st48{fill:url(#SVGID_31_)}.st49{fill:url(#SVGID_32_)}.st50{fill:url(#SVGID_33_)}.st51{fill:url(#SVGID_34_)}.st52{fill:url(#SVGID_35_)}.st53{fill:url(#SVGID_36_)}.st54{fill:url(#SVGID_37_)}.st55{fill:url(#SVGID_38_)}.st56{fill:url(#SVGID_39_)}.st57{fill:url(#SVGID_40_)}.st58{fill:url(#SVGID_41_)}.st59{fill:url(#SVGID_42_)}</style><switch><g><polygon points="354.6 383.6 474.7 360 480 287.4 457.9 267.8 267.9 333.6" class="st0"/><polygon points="176.4 412.7 296.5 389.1 301.8 316.5 279.6 296.9 89.7 362.7" class="st0"/><polygon points="176.4 281 296.5 257.4 301.8 184.8 279.6 165.2 89.7 231" class="st0"/><g><linearGradient id="XMLID_5_" x1="148.373" x2="198.359" y1="-16158.489" y2="-15971.938" gradientTransform="matrix(1 0 0 -1 0 -15884)" gradientUnits="userSpaceOnUse"><stop offset="0" style="stop-color:#4f3e90"/><stop offset="1" style="stop-color:#171a31"/></linearGradient><polygon id="XMLID_17_" points="87 231.3 87 131.2 173.1 81.2 259.8 131.2 259.8 231.2 173.7 281.3" class="st1"/><linearGradient id="XMLID_7_" x1="160.88" x2="185.853" y1="-16061.79" y2="-15968.587" gradientTransform="matrix(1 0 0 -1 0 -15884)" gradientUnits="userSpaceOnUse"><stop offset="0" style="stop-color:#4f3e90"/><stop offset="1" style="stop-color:#171a31"/></linearGradient><polygon id="XMLID_16_" points="173.1 81.2 259.8 131.2 173.7 181.2 87 131.2" class="st2"/><linearGradient id="XMLID_9_" x1="200.832" x2="232.585" y1="-16030.974" y2="-16149.477" gradientTransform="matrix(1 0 0 -1 0 -15884)" gradientUnits="userSpaceOnUse"><stop offset="0" style="stop-color:#4f3e90"/><stop offset="1" style="stop-color:#171a31"/></linearGradient><polygon id="XMLID_15_" points="173.7 281.3 173.7 181.2 259.8 131.2 259.8 231.2" class="st3"/><linearGradient id="SVGID_1_" x1="208.859" x2="231.019" y1="212.442" y2="212.442" gradientUnits="userSpaceOnUse"><stop offset="0" style="stop-color:#7f00ff"/><stop offset=".298" style="stop-color:#7c00ff"/><stop offset=".526" style="stop-color:#7200fe"/><stop offset=".731" style="stop-color:#6200fe"/><stop offset=".921" style="stop-color:#4b00fd"/><stop offset="1" style="stop-color:#3f00fc"/></linearGradient><polygon points="231 164.1 208.9 177.5 208.9 260.8 231 247.4" class="st4"/><linearGradient id="SVGID_2_" x1="116.129" x2="138.829" y1="358.981" y2="443.699" gradientTransform="matrix(1 0 0 -1 0 613.9562)" gradientUnits="userSpaceOnUse"><stop offset="0" style="stop-color:#7f00ff"/><stop offset=".298" style="stop-color:#7c00ff"/><stop offset=".526" style="stop-color:#7200fe"/><stop offset=".731" style="stop-color:#6200fe"/><stop offset=".921" style="stop-color:#4b00fd"/><stop offset="1" style="stop-color:#3f00fc"/></linearGradient><polygon points="138.6 261 116.4 247.5 116.4 164.2 138.6 177.7" class="st5"/><polygon points="231 247.9 208.9 260.8 231 247.4" class="st6"/><polygon points="116.4 248.2 116.4 247.5 138.6 261" class="st7"/><g><linearGradient id="XMLID_10_" x1="160.268" x2="187.06" y1="-16086.537" y2="-15986.545" gradientTransform="matrix(1 0 0 -1 0 -15884)" gradientUnits="userSpaceOnUse"><stop offset="0" style="stop-color:#4f3e90"/><stop offset="1" style="stop-color:#171a31"/></linearGradient><polygon id="XMLID_14_" points="173.4 98.9 266.3 152.5 174 206.2 81 152.6" class="st8"/><linearGradient id="XMLID_18_" x1="160.268" x2="187.06" y1="-16061.036" y2="-15961.044" gradientTransform="matrix(1 0 0 -1 0 -15884)" gradientUnits="userSpaceOnUse"><stop offset="0" style="stop-color:#4f3e90"/><stop offset="1" style="stop-color:#171a31"/></linearGradient><polygon id="XMLID_13_" points="173.4 73.4 266.3 127 174 180.7 81 127.1" class="st9"/><linearGradient id="SVGID_3_" x1="213.36" x2="226.966" y1="141.248" y2="192.028" gradientUnits="userSpaceOnUse"><stop offset="0" style="stop-color:#4f3e90"/><stop offset="1" style="stop-color:#171a31"/></linearGradient><polygon points="174 180.7 174 206.2 266.3 152.6 266.3 127.1" class="st10"/><linearGradient id="SVGID_4_" x1="114.47" x2="140.487" y1="118.09" y2="215.186" gradientUnits="userSpaceOnUse"><stop offset="0" style="stop-color:#4f3e90"/><stop offset="1" style="stop-color:#171a31"/></linearGradient><polygon points="81 127.1 81 152.6 174 206.2 174 180.7" class="st11"/></g><linearGradient id="SVGID_5_" x1="210.404" x2="232.564" y1="166.035" y2="166.035" gradientUnits="userSpaceOnUse"><stop offset="0" style="stop-color:#7f00ff"/><stop offset=".298" style="stop-color:#7c00ff"/><stop offset=".526" style="stop-color:#7200fe"/><stop offset=".731" style="stop-color:#6200fe"/><stop offset=".921" style="stop-color:#4b00fd"/><stop offset="1" style="stop-color:#3f00fc"/></linearGradient><polygon points="210.4 185.1 210.4 159.6 232.6 147 232.6 172.2" class="st12"/><linearGradient id="SVGID_6_" x1="114.129" x2="136.289" y1="165.445" y2="165.445" gradientUnits="userSpaceOnUse"><stop offset="0" style="stop-color:#7f00ff"/><stop offset=".298" style="stop-color:#7c00ff"/><stop offset=".526" style="stop-color:#7200fe"/><stop offset=".731" style="stop-color:#6200fe"/><stop offset=".921" style="stop-color:#4b00fd"/><stop offset="1" style="stop-color:#3f00fc"/></linearGradient><polygon points="114.1 146.4 114.1 171.9 136.3 184.5 136.3 159.3" class="st13"/><linearGradient id="SVGID_7_" x1="116.399" x2="232.564" y1="126.585" y2="126.585" gradientUnits="userSpaceOnUse"><stop offset="0" style="stop-color:#7f00ff"/><stop offset=".298" style="stop-color:#7c00ff"/><stop offset=".526" style="stop-color:#7200fe"/><stop offset=".731" style="stop-color:#6200fe"/><stop offset=".921" style="stop-color:#4b00fd"/><stop offset="1" style="stop-color:#3f00fc"/></linearGradient><polyline points="210.4 159.6 116.4 106.5 138.6 93.6 232.6 147" class="st14"/><linearGradient id="SVGID_8_" x1="114.129" x2="227.788" y1="125.735" y2="125.735" gradientUnits="userSpaceOnUse"><stop offset="0" style="stop-color:#7f00ff"/><stop offset=".298" style="stop-color:#7c00ff"/><stop offset=".526" style="stop-color:#7200fe"/><stop offset=".731" style="stop-color:#6200fe"/><stop offset=".921" style="stop-color:#4b00fd"/><stop offset="1" style="stop-color:#3f00fc"/></linearGradient><polyline points="114.1 146.4 205.6 92.2 227.8 104.8 136.3 159.3" class="st15"/><g><g><linearGradient id="SVGID_9_" x1="161.839" x2="198.152" y1="106.107" y2="106.107" gradientUnits="userSpaceOnUse"><stop offset="0" style="stop-color:#a300ff"/><stop offset=".223" style="stop-color:#a000ff"/><stop offset=".394" style="stop-color:#9600ff"/><stop offset=".548" style="stop-color:#8600fe"/><stop offset=".691" style="stop-color:#6f00fe"/><stop offset=".828" style="stop-color:#5100fd"/><stop offset=".957" style="stop-color:#2d00fc"/><stop offset="1" style="stop-color:#1f00fc"/></linearGradient><path d="M198.2,89.4c-2.4-0.8-5.5-0.4-9.2,1.6c-11.9,6.6-11.4,21.1-11.7,31.1c-0.1,4.4-0.3,7.9-1.9,9.4 c0,0-0.4,0.3-0.7,0.6l-12.9-9.7c2.1-2,1.8-7.7,2-14.2c0.3-9.4,1.4-20.7,11.6-26.3c5.8-3.2,9.4-1.3,12.8,0.9 C190.4,84.2,196,87.9,198.2,89.4z" class="st16"/><linearGradient id="SVGID_10_" x1="161.839" x2="177.256" y1="120.742" y2="120.742" gradientUnits="userSpaceOnUse"><stop offset="0" style="stop-color:#a300ff"/><stop offset=".223" style="stop-color:#a000ff"/><stop offset=".394" style="stop-color:#9600ff"/><stop offset=".548" style="stop-color:#8600fe"/><stop offset=".691" style="stop-color:#6f00fe"/><stop offset=".828" style="stop-color:#5100fd"/><stop offset=".957" style="stop-color:#2d00fc"/><stop offset="1" style="stop-color:#1f00fc"/></linearGradient><path d="M175.4,131.4c0,0-0.3,0.5-1.1,1.1l-2.4,0.8l-10.1-11c2.1-2,1.8-7.7,2-14.2c0,0.3,0.1,0.6,0.1,0.9 c-0.1,11.8,13.3,16.6,13.3,16.6S177,129.9,175.4,131.4z" class="st17"/><linearGradient id="SVGID_11_" x1="174.318" x2="204.189" y1="110.766" y2="110.766" gradientUnits="userSpaceOnUse"><stop offset="0" style="stop-color:#a300ff"/><stop offset=".223" style="stop-color:#a000ff"/><stop offset=".394" style="stop-color:#9600ff"/><stop offset=".548" style="stop-color:#8600fe"/><stop offset=".691" style="stop-color:#6f00fe"/><stop offset=".828" style="stop-color:#5100fd"/><stop offset=".957" style="stop-color:#2d00fc"/><stop offset="1" style="stop-color:#1f00fc"/></linearGradient><path d="M190,122.8c-21.7,14.3-14.6,8.6-14.6,8.6c2.1-2.1,1.8-7.9,2-14.6c0.3-0.2,0.6-0.4,0.9-0.6 c9-6,13.3-14.1,14.1-20.9c0.2-2.1,0.1-4-0.3-5.8c5.3-1.7,9.1,0.3,10.9,4.3C206.3,100.9,203.1,114.2,190,122.8z" class="st18"/><linearGradient id="SVGID_12_" x1="192.067" x2="202.979" y1="92.165" y2="92.165" gradientUnits="userSpaceOnUse"><stop offset="0" style="stop-color:#a300ff"/><stop offset=".223" style="stop-color:#a000ff"/><stop offset=".394" style="stop-color:#9600ff"/><stop offset=".548" style="stop-color:#8600fe"/><stop offset=".691" style="stop-color:#6f00fe"/><stop offset=".828" style="stop-color:#5100fd"/><stop offset=".957" style="stop-color:#2d00fc"/><stop offset="1" style="stop-color:#1f00fc"/></linearGradient><path d="M192.4,95.4c0.2-2.1,0.1-4-0.3-5.8c5.3-1.7,9.1,0.3,10.9,4.3C199.5,94.3,195.7,94.9,192.4,95.4z" class="st19"/></g><linearGradient id="SVGID_13_" x1="133.165" x2="176.492" y1="123.669" y2="123.669" gradientUnits="userSpaceOnUse"><stop offset="0" style="stop-color:#a300ff"/><stop offset=".223" style="stop-color:#a000ff"/><stop offset=".394" style="stop-color:#9600ff"/><stop offset=".548" style="stop-color:#8600fe"/><stop offset=".691" style="stop-color:#6f00fe"/><stop offset=".828" style="stop-color:#5100fd"/><stop offset=".957" style="stop-color:#2d00fc"/><stop offset="1" style="stop-color:#1f00fc"/></linearGradient><path d="M176.1,131.2c-6.1-0.1-10.4-26.2-27.3-25.8c6.6,7.6,9.9,19.1,13.9,19.2c0,0,4.9-0.6-19.1,8.6 c-3.9,1.5-7.3,2.1-10.4,2.2c4,5.9,11.9,9,23.8,4.5C181,130.6,176.1,131.2,176.1,131.2z" class="st20"/><linearGradient id="SVGID_14_" x1="120.639" x2="155.198" y1="119.309" y2="119.309" gradientUnits="userSpaceOnUse"><stop offset="0" style="stop-color:#a300ff"/><stop offset=".223" style="stop-color:#a000ff"/><stop offset=".394" style="stop-color:#9600ff"/><stop offset=".548" style="stop-color:#8600fe"/><stop offset=".691" style="stop-color:#6f00fe"/><stop offset=".828" style="stop-color:#5100fd"/><stop offset=".957" style="stop-color:#2d00fc"/><stop offset="1" style="stop-color:#1f00fc"/></linearGradient><path d="M155.2,106.6c-3.3-1.4-7.1-1.8-11.8-0.3c-4.7,1.5-8.2,4.5-10.4,8.1c-4.8,8-3.6,19,3.4,24.4 c-3.4-1.9-9.4-5.4-10.5-6.3c-5.9-5.4-6.9-15.1-3-22.6c2.2-4.1,5.8-7.5,10.9-9.1c3.9-1.2,7.3-1.2,10.2-0.3 C145.9,101,152,104.6,155.2,106.6z" class="st21"/></g></g><g><linearGradient id="XMLID_19_" x1="329.314" x2="379.3" y1="-16260.813" y2="-16074.262" gradientTransform="matrix(1 0 0 -1 0 -15884)" gradientUnits="userSpaceOnUse"><stop offset="0" style="stop-color:#4f3e90"/><stop offset="1" style="stop-color:#171a31"/></linearGradient><polygon id="XMLID_20_" points="267.9 333.6 267.9 233.5 354 183.5 440.7 233.5 440.7 333.6 354.6 383.6" class="st22"/><linearGradient id="XMLID_21_" x1="341.82" x2="366.794" y1="-16164.113" y2="-16070.91" gradientTransform="matrix(1 0 0 -1 0 -15884)" gradientUnits="userSpaceOnUse"><stop offset="0" style="stop-color:#4f3e90"/><stop offset="1" style="stop-color:#171a31"/></linearGradient><polygon id="XMLID_49_" points="354 183.5 440.7 233.5 354.6 283.5 267.9 233.5" class="st23"/><linearGradient id="XMLID_22_" x1="381.772" x2="413.525" y1="-16133.297" y2="-16251.801" gradientTransform="matrix(1 0 0 -1 0 -15884)" gradientUnits="userSpaceOnUse"><stop offset="0" style="stop-color:#4f3e90"/><stop offset="1" style="stop-color:#171a31"/></linearGradient><polygon id="XMLID_50_" points="354.6 383.6 354.6 283.5 440.7 233.5 440.7 333.6" class="st24"/><linearGradient id="SVGID_15_" x1="389.799" x2="411.959" y1="314.766" y2="314.766" gradientUnits="userSpaceOnUse"><stop offset="0" style="stop-color:#7f00ff"/><stop offset=".298" style="stop-color:#7c00ff"/><stop offset=".526" style="stop-color:#7200fe"/><stop offset=".731" style="stop-color:#6200fe"/><stop offset=".921" style="stop-color:#4b00fd"/><stop offset="1" style="stop-color:#3f00fc"/></linearGradient><polygon points="412 266.4 389.8 279.9 389.8 363.1 412 349.7" class="st25"/><linearGradient id="SVGID_16_" x1="297.069" x2="319.769" y1="256.657" y2="341.375" gradientTransform="matrix(1 0 0 -1 0 613.9562)" gradientUnits="userSpaceOnUse"><stop offset="0" style="stop-color:#7f00ff"/><stop offset=".298" style="stop-color:#7c00ff"/><stop offset=".526" style="stop-color:#7200fe"/><stop offset=".731" style="stop-color:#6200fe"/><stop offset=".921" style="stop-color:#4b00fd"/><stop offset="1" style="stop-color:#3f00fc"/></linearGradient><polygon points="319.5 363.3 297.3 349.8 297.3 266.6 319.5 280" class="st26"/><polygon points="412 350.3 389.8 363.1 412 349.7" class="st6"/><polygon points="297.3 350.6 297.3 349.8 319.5 363.3" class="st7"/><g><linearGradient id="XMLID_23_" x1="341.208" x2="368.001" y1="-16188.86" y2="-16088.868" gradientTransform="matrix(1 0 0 -1 0 -15884)" gradientUnits="userSpaceOnUse"><stop offset="0" style="stop-color:#4f3e90"/><stop offset="1" style="stop-color:#171a31"/></linearGradient><polygon id="XMLID_3_" points="354.3 201.2 447.3 254.9 354.9 308.5 261.9 254.9" class="st27"/><linearGradient id="XMLID_24_" x1="341.208" x2="368.001" y1="-16163.36" y2="-16063.368" gradientTransform="matrix(1 0 0 -1 0 -15884)" gradientUnits="userSpaceOnUse"><stop offset="0" style="stop-color:#4f3e90"/><stop offset="1" style="stop-color:#171a31"/></linearGradient><polygon id="XMLID_1_" points="354.3 175.7 447.3 229.4 354.9 283 261.9 229.4" class="st28"/><linearGradient id="SVGID_17_" x1="394.301" x2="407.907" y1="243.572" y2="294.351" gradientUnits="userSpaceOnUse"><stop offset="0" style="stop-color:#4f3e90"/><stop offset="1" style="stop-color:#171a31"/></linearGradient><polygon points="354.9 283 354.9 308.5 447.3 254.9 447.3 229.4" class="st29"/><linearGradient id="SVGID_18_" x1="295.411" x2="321.428" y1="220.414" y2="317.51" gradientUnits="userSpaceOnUse"><stop offset="0" style="stop-color:#4f3e90"/><stop offset="1" style="stop-color:#171a31"/></linearGradient><polygon points="261.9 229.4 261.9 254.9 354.9 308.5 354.9 283" class="st30"/></g><linearGradient id="SVGID_19_" x1="391.345" x2="413.505" y1="268.359" y2="268.359" gradientUnits="userSpaceOnUse"><stop offset="0" style="stop-color:#7f00ff"/><stop offset=".298" style="stop-color:#7c00ff"/><stop offset=".526" style="stop-color:#7200fe"/><stop offset=".731" style="stop-color:#6200fe"/><stop offset=".921" style="stop-color:#4b00fd"/><stop offset="1" style="stop-color:#3f00fc"/></linearGradient><polygon points="391.3 287.4 391.3 261.9 413.5 249.3 413.5 274.5" class="st31"/><linearGradient id="SVGID_20_" x1="295.069" x2="317.229" y1="267.769" y2="267.769" gradientUnits="userSpaceOnUse"><stop offset="0" style="stop-color:#7f00ff"/><stop offset=".298" style="stop-color:#7c00ff"/><stop offset=".526" style="stop-color:#7200fe"/><stop offset=".731" style="stop-color:#6200fe"/><stop offset=".921" style="stop-color:#4b00fd"/><stop offset="1" style="stop-color:#3f00fc"/></linearGradient><polygon points="295.1 248.7 295.1 274.2 317.2 286.8 317.2 261.6" class="st32"/><linearGradient id="SVGID_21_" x1="297.339" x2="413.505" y1="228.909" y2="228.909" gradientUnits="userSpaceOnUse"><stop offset="0" style="stop-color:#7f00ff"/><stop offset=".298" style="stop-color:#7c00ff"/><stop offset=".526" style="stop-color:#7200fe"/><stop offset=".731" style="stop-color:#6200fe"/><stop offset=".921" style="stop-color:#4b00fd"/><stop offset="1" style="stop-color:#3f00fc"/></linearGradient><polyline points="391.3 261.9 297.3 208.8 319.5 195.9 413.5 249.3" class="st33"/><linearGradient id="SVGID_22_" x1="295.069" x2="408.729" y1="228.059" y2="228.059" gradientUnits="userSpaceOnUse"><stop offset="0" style="stop-color:#7f00ff"/><stop offset=".298" style="stop-color:#7c00ff"/><stop offset=".526" style="stop-color:#7200fe"/><stop offset=".731" style="stop-color:#6200fe"/><stop offset=".921" style="stop-color:#4b00fd"/><stop offset="1" style="stop-color:#3f00fc"/></linearGradient><polyline points="295.1 248.7 386.6 194.5 408.7 207.1 317.2 261.6" class="st34"/><g><g><linearGradient id="SVGID_23_" x1="342.779" x2="379.093" y1="208.43" y2="208.43" gradientUnits="userSpaceOnUse"><stop offset="0" style="stop-color:#a300ff"/><stop offset=".223" style="stop-color:#a000ff"/><stop offset=".394" style="stop-color:#9600ff"/><stop offset=".548" style="stop-color:#8600fe"/><stop offset=".691" style="stop-color:#6f00fe"/><stop offset=".828" style="stop-color:#5100fd"/><stop offset=".957" style="stop-color:#2d00fc"/><stop offset="1" style="stop-color:#1f00fc"/></linearGradient><path d="M379.1,191.7c-2.4-0.8-5.5-0.4-9.2,1.6c-11.9,6.6-11.4,21.1-11.7,31.1c-0.1,4.4-0.3,7.9-1.9,9.4 c0,0-0.4,0.3-0.7,0.6l-12.9-9.7c2.1-2,1.8-7.7,2-14.2c0.3-9.4,1.4-20.7,11.6-26.3c5.8-3.2,9.4-1.3,12.8,0.9 C371.3,186.5,377,190.3,379.1,191.7z" class="st35"/><linearGradient id="SVGID_24_" x1="342.779" x2="358.196" y1="223.066" y2="223.066" gradientUnits="userSpaceOnUse"><stop offset="0" style="stop-color:#a300ff"/><stop offset=".223" style="stop-color:#a000ff"/><stop offset=".394" style="stop-color:#9600ff"/><stop offset=".548" style="stop-color:#8600fe"/><stop offset=".691" style="stop-color:#6f00fe"/><stop offset=".828" style="stop-color:#5100fd"/><stop offset=".957" style="stop-color:#2d00fc"/><stop offset="1" style="stop-color:#1f00fc"/></linearGradient><path d="M356.4,233.8c0,0-0.3,0.5-1.1,1.1l-2.4,0.8l-10.1-11c2.1-2,1.8-7.7,2-14.2c0,0.3,0.1,0.6,0.1,0.9 c-0.1,11.8,13.3,16.6,13.3,16.6S357.9,232.3,356.4,233.8z" class="st36"/><linearGradient id="SVGID_25_" x1="355.258" x2="385.129" y1="213.09" y2="213.09" gradientUnits="userSpaceOnUse"><stop offset="0" style="stop-color:#a300ff"/><stop offset=".223" style="stop-color:#a000ff"/><stop offset=".394" style="stop-color:#9600ff"/><stop offset=".548" style="stop-color:#8600fe"/><stop offset=".691" style="stop-color:#6f00fe"/><stop offset=".828" style="stop-color:#5100fd"/><stop offset=".957" style="stop-color:#2d00fc"/><stop offset="1" style="stop-color:#1f00fc"/></linearGradient><path d="M370.9,225.1c-21.7,14.3-14.6,8.6-14.6,8.6c2.1-2.1,1.8-7.9,2-14.6c0.3-0.2,0.6-0.4,0.9-0.6 c9-6,13.3-14.1,14.1-20.9c0.2-2.1,0.1-4-0.3-5.8c5.3-1.7,9.1,0.3,10.9,4.3C387.2,203.2,384,216.5,370.9,225.1z" class="st37"/><linearGradient id="SVGID_26_" x1="373.008" x2="383.92" y1="194.489" y2="194.489" gradientUnits="userSpaceOnUse"><stop offset="0" style="stop-color:#a300ff"/><stop offset=".223" style="stop-color:#a000ff"/><stop offset=".394" style="stop-color:#9600ff"/><stop offset=".548" style="stop-color:#8600fe"/><stop offset=".691" style="stop-color:#6f00fe"/><stop offset=".828" style="stop-color:#5100fd"/><stop offset=".957" style="stop-color:#2d00fc"/><stop offset="1" style="stop-color:#1f00fc"/></linearGradient><path d="M373.3,197.7c0.2-2.1,0.1-4-0.3-5.8c5.3-1.7,9.1,0.3,10.9,4.3C380.5,196.6,376.6,197.2,373.3,197.7z" class="st38"/></g><linearGradient id="SVGID_27_" x1="314.105" x2="357.432" y1="225.993" y2="225.993" gradientUnits="userSpaceOnUse"><stop offset="0" style="stop-color:#a300ff"/><stop offset=".223" style="stop-color:#a000ff"/><stop offset=".394" style="stop-color:#9600ff"/><stop offset=".548" style="stop-color:#8600fe"/><stop offset=".691" style="stop-color:#6f00fe"/><stop offset=".828" style="stop-color:#5100fd"/><stop offset=".957" style="stop-color:#2d00fc"/><stop offset="1" style="stop-color:#1f00fc"/></linearGradient><path d="M357,233.5c-6.1-0.1-10.4-26.2-27.3-25.8c6.6,7.6,9.9,19.1,13.9,19.2c0,0,4.9-0.6-19.1,8.6 c-3.9,1.5-7.3,2.1-10.4,2.2c4,5.9,11.9,9,23.8,4.5C361.9,232.9,357,233.5,357,233.5z" class="st39"/><linearGradient id="SVGID_28_" x1="301.579" x2="336.139" y1="221.633" y2="221.633" gradientUnits="userSpaceOnUse"><stop offset="0" style="stop-color:#a300ff"/><stop offset=".223" style="stop-color:#a000ff"/><stop offset=".394" style="stop-color:#9600ff"/><stop offset=".548" style="stop-color:#8600fe"/><stop offset=".691" style="stop-color:#6f00fe"/><stop offset=".828" style="stop-color:#5100fd"/><stop offset=".957" style="stop-color:#2d00fc"/><stop offset="1" style="stop-color:#1f00fc"/></linearGradient><path d="M336.1,208.9c-3.3-1.4-7.1-1.8-11.8-0.3c-4.7,1.5-8.2,4.5-10.4,8.1c-4.8,8-3.6,19,3.4,24.4 c-3.4-1.9-9.4-5.4-10.5-6.3c-5.9-5.4-6.9-15.1-3-22.6c2.2-4.1,5.8-7.5,10.9-9.1c3.9-1.2,7.3-1.2,10.2-0.3 C326.9,203.4,332.9,207,336.1,208.9z" class="st40"/></g></g><g><linearGradient id="XMLID_25_" x1="151.076" x2="201.062" y1="-16291.133" y2="-16104.581" gradientTransform="matrix(1 0 0 -1 0 -15884)" gradientUnits="userSpaceOnUse"><stop offset="0" style="stop-color:#4f3e90"/><stop offset="1" style="stop-color:#171a31"/></linearGradient><polygon id="XMLID_12_" points="89.7 363.9 89.7 263.9 175.8 213.8 262.5 263.8 262.5 363.9 176.4 413.9" class="st41"/><linearGradient id="XMLID_26_" x1="163.582" x2="188.556" y1="-16194.434" y2="-16101.23" gradientTransform="matrix(1 0 0 -1 0 -15884)" gradientUnits="userSpaceOnUse"><stop offset="0" style="stop-color:#4f3e90"/><stop offset="1" style="stop-color:#171a31"/></linearGradient><polygon id="XMLID_11_" points="175.8 213.8 262.5 263.8 176.4 313.9 89.7 263.9" class="st42"/><linearGradient id="XMLID_27_" x1="203.535" x2="235.287" y1="-16163.617" y2="-16282.12" gradientTransform="matrix(1 0 0 -1 0 -15884)" gradientUnits="userSpaceOnUse"><stop offset="0" style="stop-color:#4f3e90"/><stop offset="1" style="stop-color:#171a31"/></linearGradient><polygon id="XMLID_8_" points="176.4 413.9 176.4 313.9 262.5 263.8 262.5 363.9" class="st43"/><linearGradient id="SVGID_29_" x1="211.561" x2="233.721" y1="345.086" y2="345.086" gradientUnits="userSpaceOnUse"><stop offset="0" style="stop-color:#7f00ff"/><stop offset=".298" style="stop-color:#7c00ff"/><stop offset=".526" style="stop-color:#7200fe"/><stop offset=".731" style="stop-color:#6200fe"/><stop offset=".921" style="stop-color:#4b00fd"/><stop offset="1" style="stop-color:#3f00fc"/></linearGradient><polygon points="233.7 296.7 211.6 310.2 211.6 393.5 233.7 380" class="st44"/><linearGradient id="SVGID_30_" x1="118.831" x2="141.531" y1="226.337" y2="311.056" gradientTransform="matrix(1 0 0 -1 0 613.9562)" gradientUnits="userSpaceOnUse"><stop offset="0" style="stop-color:#7f00ff"/><stop offset=".298" style="stop-color:#7c00ff"/><stop offset=".526" style="stop-color:#7200fe"/><stop offset=".731" style="stop-color:#6200fe"/><stop offset=".921" style="stop-color:#4b00fd"/><stop offset="1" style="stop-color:#3f00fc"/></linearGradient><polygon points="141.3 393.6 119.1 380.2 119.1 296.9 141.3 310.4" class="st45"/><polygon points="233.7 380.6 211.6 393.5 233.7 380" class="st6"/><polygon points="119.1 380.9 119.1 380.2 141.3 393.6" class="st7"/><g><linearGradient id="XMLID_28_" x1="162.97" x2="189.763" y1="-16219.181" y2="-16119.189" gradientTransform="matrix(1 0 0 -1 0 -15884)" gradientUnits="userSpaceOnUse"><stop offset="0" style="stop-color:#4f3e90"/><stop offset="1" style="stop-color:#171a31"/></linearGradient><polygon id="XMLID_6_" points="176.1 231.5 269 285.2 176.7 338.9 83.7 285.2" class="st46"/><linearGradient id="XMLID_29_" x1="162.97" x2="189.763" y1="-16193.68" y2="-16093.688" gradientTransform="matrix(1 0 0 -1 0 -15884)" gradientUnits="userSpaceOnUse"><stop offset="0" style="stop-color:#4f3e90"/><stop offset="1" style="stop-color:#171a31"/></linearGradient><polygon id="XMLID_4_" points="176.1 206 269 259.7 176.7 313.4 83.7 259.7" class="st47"/><linearGradient id="SVGID_31_" x1="216.063" x2="229.669" y1="273.892" y2="324.671" gradientUnits="userSpaceOnUse"><stop offset="0" style="stop-color:#4f3e90"/><stop offset="1" style="stop-color:#171a31"/></linearGradient><polygon points="176.7 313.4 176.7 338.9 269 285.2 269 259.7" class="st48"/><linearGradient id="SVGID_32_" x1="117.173" x2="143.19" y1="250.733" y2="347.829" gradientUnits="userSpaceOnUse"><stop offset="0" style="stop-color:#4f3e90"/><stop offset="1" style="stop-color:#171a31"/></linearGradient><polygon points="83.7 259.7 83.7 285.2 176.7 338.9 176.7 313.4" class="st49"/></g><linearGradient id="SVGID_33_" x1="213.107" x2="235.267" y1="298.679" y2="298.679" gradientUnits="userSpaceOnUse"><stop offset="0" style="stop-color:#7f00ff"/><stop offset=".298" style="stop-color:#7c00ff"/><stop offset=".526" style="stop-color:#7200fe"/><stop offset=".731" style="stop-color:#6200fe"/><stop offset=".921" style="stop-color:#4b00fd"/><stop offset="1" style="stop-color:#3f00fc"/></linearGradient><polygon points="213.1 317.7 213.1 292.2 235.3 279.6 235.3 304.8" class="st50"/><linearGradient id="SVGID_34_" x1="116.832" x2="138.992" y1="298.089" y2="298.089" gradientUnits="userSpaceOnUse"><stop offset="0" style="stop-color:#7f00ff"/><stop offset=".298" style="stop-color:#7c00ff"/><stop offset=".526" style="stop-color:#7200fe"/><stop offset=".731" style="stop-color:#6200fe"/><stop offset=".921" style="stop-color:#4b00fd"/><stop offset="1" style="stop-color:#3f00fc"/></linearGradient><polygon points="116.8 279.1 116.8 304.6 139 317.1 139 291.9" class="st51"/><linearGradient id="SVGID_35_" x1="119.101" x2="235.267" y1="259.229" y2="259.229" gradientUnits="userSpaceOnUse"><stop offset="0" style="stop-color:#7f00ff"/><stop offset=".298" style="stop-color:#7c00ff"/><stop offset=".526" style="stop-color:#7200fe"/><stop offset=".731" style="stop-color:#6200fe"/><stop offset=".921" style="stop-color:#4b00fd"/><stop offset="1" style="stop-color:#3f00fc"/></linearGradient><polyline points="213.1 292.2 119.1 239.1 141.3 226.2 235.3 279.6" class="st52"/><linearGradient id="SVGID_36_" x1="116.832" x2="230.491" y1="258.378" y2="258.378" gradientUnits="userSpaceOnUse"><stop offset="0" style="stop-color:#7f00ff"/><stop offset=".298" style="stop-color:#7c00ff"/><stop offset=".526" style="stop-color:#7200fe"/><stop offset=".731" style="stop-color:#6200fe"/><stop offset=".921" style="stop-color:#4b00fd"/><stop offset="1" style="stop-color:#3f00fc"/></linearGradient><polyline points="116.8 279.1 208.3 224.8 230.5 237.4 139 291.9" class="st53"/><g><g><linearGradient id="SVGID_37_" x1="164.541" x2="200.855" y1="238.75" y2="238.75" gradientUnits="userSpaceOnUse"><stop offset="0" style="stop-color:#a300ff"/><stop offset=".223" style="stop-color:#a000ff"/><stop offset=".394" style="stop-color:#9600ff"/><stop offset=".548" style="stop-color:#8600fe"/><stop offset=".691" style="stop-color:#6f00fe"/><stop offset=".828" style="stop-color:#5100fd"/><stop offset=".957" style="stop-color:#2d00fc"/><stop offset="1" style="stop-color:#1f00fc"/></linearGradient><path d="M200.9,222c-2.4-0.8-5.5-0.4-9.2,1.6c-11.9,6.6-11.4,21.1-11.7,31.1c-0.1,4.4-0.3,7.9-1.9,9.4 c0,0-0.4,0.3-0.7,0.6l-12.9-9.7c2.1-2,1.8-7.7,2-14.2c0.3-9.4,1.4-20.7,11.6-26.3c5.8-3.2,9.4-1.3,12.8,0.9 C193.1,216.8,198.7,220.6,200.9,222z" class="st54"/><linearGradient id="SVGID_38_" x1="164.541" x2="179.958" y1="253.386" y2="253.386" gradientUnits="userSpaceOnUse"><stop offset="0" style="stop-color:#a300ff"/><stop offset=".223" style="stop-color:#a000ff"/><stop offset=".394" style="stop-color:#9600ff"/><stop offset=".548" style="stop-color:#8600fe"/><stop offset=".691" style="stop-color:#6f00fe"/><stop offset=".828" style="stop-color:#5100fd"/><stop offset=".957" style="stop-color:#2d00fc"/><stop offset="1" style="stop-color:#1f00fc"/></linearGradient><path d="M178.1,264.1c0,0-0.3,0.5-1.1,1.1l-2.4,0.8l-10.1-11c2.1-2,1.8-7.7,2-14.2c0,0.3,0.1,0.6,0.1,0.9 c-0.1,11.8,13.3,16.6,13.3,16.6S179.7,262.6,178.1,264.1z" class="st55"/><linearGradient id="SVGID_39_" x1="177.02" x2="206.891" y1="243.41" y2="243.41" gradientUnits="userSpaceOnUse"><stop offset="0" style="stop-color:#a300ff"/><stop offset=".223" style="stop-color:#a000ff"/><stop offset=".394" style="stop-color:#9600ff"/><stop offset=".548" style="stop-color:#8600fe"/><stop offset=".691" style="stop-color:#6f00fe"/><stop offset=".828" style="stop-color:#5100fd"/><stop offset=".957" style="stop-color:#2d00fc"/><stop offset="1" style="stop-color:#1f00fc"/></linearGradient><path d="M192.7,255.5c-21.7,14.3-14.6,8.6-14.6,8.6c2.1-2.1,1.8-7.9,2-14.6c0.3-0.2,0.6-0.4,0.9-0.6 c9-6,13.3-14.1,14.1-20.9c0.2-2.1,0.1-4-0.3-5.8c5.3-1.7,9.1,0.3,10.9,4.3C209,233.6,205.8,246.8,192.7,255.5z" class="st56"/><linearGradient id="SVGID_40_" x1="194.77" x2="205.682" y1="224.809" y2="224.809" gradientUnits="userSpaceOnUse"><stop offset="0" style="stop-color:#a300ff"/><stop offset=".223" style="stop-color:#a000ff"/><stop offset=".394" style="stop-color:#9600ff"/><stop offset=".548" style="stop-color:#8600fe"/><stop offset=".691" style="stop-color:#6f00fe"/><stop offset=".828" style="stop-color:#5100fd"/><stop offset=".957" style="stop-color:#2d00fc"/><stop offset="1" style="stop-color:#1f00fc"/></linearGradient><path d="M195.1,228c0.2-2.1,0.1-4-0.3-5.8c5.3-1.7,9.1,0.3,10.9,4.3C202.2,227,198.4,227.5,195.1,228z" class="st57"/></g><linearGradient id="SVGID_41_" x1="135.867" x2="179.194" y1="256.313" y2="256.313" gradientUnits="userSpaceOnUse"><stop offset="0" style="stop-color:#a300ff"/><stop offset=".223" style="stop-color:#a000ff"/><stop offset=".394" style="stop-color:#9600ff"/><stop offset=".548" style="stop-color:#8600fe"/><stop offset=".691" style="stop-color:#6f00fe"/><stop offset=".828" style="stop-color:#5100fd"/><stop offset=".957" style="stop-color:#2d00fc"/><stop offset="1" style="stop-color:#1f00fc"/></linearGradient><path d="M178.8,263.8c-6.1-0.1-10.4-26.2-27.3-25.8c6.6,7.6,9.9,19.1,13.9,19.2c0,0,4.9-0.6-19.1,8.6 c-3.9,1.5-7.3,2.1-10.4,2.2c4,5.9,11.9,9,23.8,4.5C183.7,263.3,178.8,263.8,178.8,263.8z" class="st58"/><linearGradient id="SVGID_42_" x1="123.341" x2="157.901" y1="251.952" y2="251.952" gradientUnits="userSpaceOnUse"><stop offset="0" style="stop-color:#a300ff"/><stop offset=".223" style="stop-color:#a000ff"/><stop offset=".394" style="stop-color:#9600ff"/><stop offset=".548" style="stop-color:#8600fe"/><stop offset=".691" style="stop-color:#6f00fe"/><stop offset=".828" style="stop-color:#5100fd"/><stop offset=".957" style="stop-color:#2d00fc"/><stop offset="1" style="stop-color:#1f00fc"/></linearGradient><path d="M157.9,239.3c-3.3-1.4-7.1-1.8-11.8-0.3c-4.7,1.5-8.2,4.5-10.4,8.1c-4.8,8-3.6,19,3.4,24.4 c-3.4-1.9-9.4-5.4-10.5-6.3c-5.9-5.4-6.9-15.1-3-22.6c2.2-4.1,5.8-7.5,10.9-9.1c3.9-1.2,7.3-1.2,10.2-0.3 C148.6,233.7,154.7,237.3,157.9,239.3z" class="st59"/></g></g></g></switch></svg>