<svg xmlns="http://www.w3.org/2000/svg" xmlns:xlink="http://www.w3.org/1999/xlink" id="Capa_1" x="0" y="0" version="1.1" viewBox="6 -6 512 512" xml:space="preserve" style="enable-background:new 6 -6 512 512"><style type="text/css">.st0{opacity:.17;fill:#1d1b30}.st1{fill:url(#SVGID_1_)}.st2{fill:url(#SVGID_2_)}.st3{fill:url(#SVGID_3_)}.st4{fill:url(#SVGID_4_)}.st5{fill:url(#SVGID_5_)}.st6{fill:url(#SVGID_6_)}.st7{fill:url(#SVGID_7_)}.st8{fill:#5d5d5d}.st9{fill:#c8ebe8}.st10{fill:url(#SVGID_8_)}.st11{fill:url(#SVGID_9_)}.st12{fill:url(#SVGID_10_)}.st13{fill:url(#SVGID_11_)}.st14{fill:url(#SVGID_12_)}.st15{fill:url(#SVGID_13_)}.st16{fill:url(#SVGID_14_)}.st17{fill:url(#SVGID_15_)}.st18{opacity:.17}.st19{enable-background:new}.st20{clip-path:url(#SVGID_16_)}.st21{fill:#1d1b30}.st22{fill:url(#SVGID_17_)}.st23{fill:url(#XMLID_3_)}.st24{fill:url(#XMLID_4_)}.st25{fill:url(#SVGID_18_)}</style><switch><g><polygon points="67 223.3 506 229.1 518 273.1 480 343.4 337.5 379.6" class="st0"/><g><g><g><linearGradient id="SVGID_1_" x1="155.672" x2="426.18" y1="187.196" y2="187.196" gradientUnits="userSpaceOnUse"><stop offset="0" style="stop-color:#00ffba"/><stop offset=".179" style="stop-color:#11e0d1"/><stop offset=".378" style="stop-color:#20c5e5"/><stop offset=".581" style="stop-color:#2bb1f4"/><stop offset=".787" style="stop-color:#31a6fc"/><stop offset="1" style="stop-color:#33a2ff"/></linearGradient><polygon points="155.7 171.1 155.7 104.2 224.6 127.4 264.3 96.3 299.8 122.8 346.3 85.6 426.2 47 426.2 327.4" class="st1"/><linearGradient id="SVGID_2_" x1="395.671" x2="467.172" y1="319.182" y2="52.334" gradientUnits="userSpaceOnUse"><stop offset="0" style="stop-color:#00ffba"/><stop offset=".179" style="stop-color:#11e0d1"/><stop offset=".378" style="stop-color:#20c5e5"/><stop offset=".581" style="stop-color:#2bb1f4"/><stop offset=".787" style="stop-color:#31a6fc"/><stop offset="1" style="stop-color:#33a2ff"/></linearGradient><polygon points="426.2 327.4 437.7 320.6 437.7 44.4 426.2 47" class="st2"/><linearGradient id="SVGID_3_" x1="264.341" x2="308.293" y1="107.113" y2="107.113" gradientUnits="userSpaceOnUse"><stop offset="0" style="stop-color:#00ffba"/><stop offset=".179" style="stop-color:#11e0d1"/><stop offset=".378" style="stop-color:#20c5e5"/><stop offset=".581" style="stop-color:#2bb1f4"/><stop offset=".787" style="stop-color:#31a6fc"/><stop offset="1" style="stop-color:#33a2ff"/></linearGradient><polygon points="264.3 96.3 272.2 91.4 308.3 116 299.8 122.8" class="st3"/></g><g><linearGradient id="SVGID_4_" x1="126.127" x2="396.635" y1="219.461" y2="219.461" gradientUnits="userSpaceOnUse"><stop offset="0" style="stop-color:#7f00ff"/><stop offset=".298" style="stop-color:#7c00ff"/><stop offset=".526" style="stop-color:#7200fe"/><stop offset=".731" style="stop-color:#6200fe"/><stop offset=".921" style="stop-color:#4b00fd"/><stop offset="1" style="stop-color:#3f00fc"/></linearGradient><polygon points="126.1 188.5 126.1 116.6 161.1 94.2 235 130.8 304.2 116.6 350.5 141.2 396.6 98.7 396.6 344.8" class="st4"/><linearGradient id="SVGID_5_" x1="370.406" x2="434.257" y1="337.732" y2="99.436" gradientUnits="userSpaceOnUse"><stop offset="0" style="stop-color:#7f00ff"/><stop offset="1" style="stop-color:#3f00fc"/></linearGradient><polygon points="396.6 344.8 408.1 338.1 408.1 92.4 396.6 98.7" class="st5"/><linearGradient id="SVGID_6_" x1="161.146" x2="245.243" y1="110.306" y2="110.306" gradientUnits="userSpaceOnUse"><stop offset="0" style="stop-color:#7f00ff"/><stop offset="1" style="stop-color:#3f00fc"/></linearGradient><polygon points="161.1 94.2 168.8 89.8 245.2 128.7 235 130.8" class="st6"/><linearGradient id="SVGID_7_" x1="304.204" x2="356.878" y1="127.277" y2="127.277" gradientUnits="userSpaceOnUse"><stop offset="0" style="stop-color:#7f00ff"/><stop offset="1" style="stop-color:#3f00fc"/></linearGradient><polygon points="304.2 116.6 313.6 113.3 356.9 135.4 350.5 141.2" class="st7"/></g><path d="M80.4,223.6" class="st8"/><path d="M102.1,163.5" class="st9"/><g><linearGradient id="SVGID_8_" x1="96.582" x2="367.09" y1="234.241" y2="234.241" gradientUnits="userSpaceOnUse"><stop offset="0" style="stop-color:#0f9"/><stop offset=".024" style="stop-color:#02fd9e"/><stop offset=".213" style="stop-color:#14ebc1"/><stop offset=".406" style="stop-color:#22dddc"/><stop offset=".6" style="stop-color:#2bd4f0"/><stop offset=".796" style="stop-color:#31cefb"/><stop offset="1" style="stop-color:#3cf"/></linearGradient><polygon points="96.6 205.9 96.6 154.8 164.8 115.3 230.6 143.9 272.2 129.1 299.5 150.9 367.1 106.3 367.1 362.2" class="st10"/><linearGradient id="SVGID_9_" x1="339.64" x2="405.933" y1="354.808" y2="107.399" gradientUnits="userSpaceOnUse"><stop offset="0" style="stop-color:#0f9"/><stop offset=".034" style="stop-color:#08f7a9"/><stop offset=".103" style="stop-color:#15eac4"/><stop offset=".183" style="stop-color:#20dfda"/><stop offset=".276" style="stop-color:#29d6eb"/><stop offset=".391" style="stop-color:#2fd0f6"/><stop offset=".552" style="stop-color:#32cdfd"/><stop offset="1" style="stop-color:#3cf"/></linearGradient><polygon points="367.1 362.2 378.6 355.5 378.6 100.1 367.1 106.3" class="st11"/><linearGradient id="SVGID_10_" x1="164.834" x2="240.968" y1="127.419" y2="127.419" gradientUnits="userSpaceOnUse"><stop offset="0" style="stop-color:#0f9"/><stop offset="1" style="stop-color:#3cf"/></linearGradient><polygon points="164.8 115.3 172.5 111 241 140.1 230.6 143.9" class="st12"/><linearGradient id="SVGID_11_" x1="272.233" x2="306.096" y1="138.555" y2="138.555" gradientUnits="userSpaceOnUse"><stop offset="0" style="stop-color:#0f9"/><stop offset="1" style="stop-color:#3cf"/></linearGradient><polygon points="272.2 129.1 278.9 126.2 306.1 146.5 299.5 150.9" class="st13"/></g><g><linearGradient id="SVGID_12_" x1="67.036" x2="337.545" y1="261.32" y2="261.32" gradientUnits="userSpaceOnUse"><stop offset="0" style="stop-color:#7f00ff"/><stop offset=".298" style="stop-color:#7c00ff"/><stop offset=".526" style="stop-color:#7200fe"/><stop offset=".731" style="stop-color:#6200fe"/><stop offset=".921" style="stop-color:#4b00fd"/><stop offset="1" style="stop-color:#3f00fc"/></linearGradient><polygon points="67 223.3 67 183.2 102.1 163.5 201.1 183.2 236.1 162.8 269.9 183.9 337.5 143.1 337.5 379.6" class="st14"/><linearGradient id="SVGID_13_" x1="312.514" x2="373.969" y1="372.859" y2="143.506" gradientUnits="userSpaceOnUse"><stop offset="0" style="stop-color:#7f00ff"/><stop offset="1" style="stop-color:#3f00fc"/></linearGradient><polygon points="337.5 379.6 349.1 372.9 349.1 136.8 337.5 143.1" class="st15"/><linearGradient id="SVGID_14_" x1="102.056" x2="212.536" y1="170.444" y2="170.444" gradientUnits="userSpaceOnUse"><stop offset="0" style="stop-color:#7f00ff"/><stop offset="1" style="stop-color:#3f00fc"/></linearGradient><polygon points="102.1 163.5 112.7 157.7 212.5 176.4 201.1 183.2" class="st16"/><linearGradient id="SVGID_15_" x1="236.104" x2="277.761" y1="171.356" y2="171.356" gradientUnits="userSpaceOnUse"><stop offset="0" style="stop-color:#7f00ff"/><stop offset="1" style="stop-color:#3f00fc"/></linearGradient><polygon points="236.1 162.8 243.7 158.8 277.8 179.2 269.9 183.9" class="st17"/></g></g></g><g><g id="XMLID_7_" class="st18"><g><g class="st19"><defs><polygon id="SVGID_22_" points="59.8 384 133.7 341 208.2 384 134.2 427" class="st19"/></defs><clipPath id="SVGID_16_"><use xlink:href="#SVGID_22_" style="overflow:visible"/></clipPath><g class="st20"><g><g><g><path d="M171,362.5c-20.6-11.9-53.8-11.9-74.2,0c-20.4,11.9-20.3,31.1,0.2,43c20.6,11.9,53.8,11.9,74.2,0 S191.5,374.4,171,362.5" class="st21"/></g></g></g></g></g></g></g><linearGradient id="SVGID_17_" x1="58.534" x2="209.441" y1="-16233.348" y2="-16233.348" gradientTransform="matrix(1 0 0 -1 0 -15884)" gradientUnits="userSpaceOnUse"><stop offset="0" style="stop-color:#4f3e90"/><stop offset="1" style="stop-color:#171a31"/></linearGradient><path d="M58.5,348.2c0,0,0,40.7,69.7,44.2c69.7,3.6,81-37.6,81-37.6s7.5-40.5-62-48c0,0-40.2-5.4-70.3,14.1 C77,320.8,60.9,328.7,58.5,348.2z" class="st22"/><linearGradient id="XMLID_3_" x1="4291.706" x2="4414.233" y1="2346.819" y2="2346.819" gradientTransform="matrix(-1 0 0 -1.1206 4486.957 2958.8093)" gradientUnits="userSpaceOnUse"><stop offset="0" style="stop-color:#4f3e90"/><stop offset="1" style="stop-color:#171a31"/></linearGradient><path id="XMLID_5_" d="M195,344.6c0,0-0.9-24.3-60.9-25.7c0,0-56.3-0.4-60.9,25.7c0,0-8.6-28.5,60.9-31.3 C134,313.4,200.2,314.6,195,344.6z" class="st23"/><linearGradient id="XMLID_4_" x1="121.449" x2="140.381" y1="-16285.478" y2="-16214.821" gradientTransform="matrix(1 0 0 -1 0 -15884)" gradientUnits="userSpaceOnUse"><stop offset="0" style="stop-color:#4f3e90"/><stop offset="1" style="stop-color:#171a31"/></linearGradient><path id="XMLID_2_" d="M58.4,349.3c0,0,1.1,40.1,75.6,42.5c0,0,69.8,0.6,75.6-42.5c0,0,10.6,47.1-75.6,51.7 C134,401,51.9,398.9,58.4,349.3z" class="st24"/><linearGradient id="SVGID_18_" x1="86.608" x2="168.285" y1="-16231.254" y2="-16231.254" gradientTransform="matrix(1 0 0 -1 0 -15884)" gradientUnits="userSpaceOnUse"><stop offset="0" style="stop-color:#7f00ff"/><stop offset="1" style="stop-color:#3f00fc"/></linearGradient><path d="M163.1,339.6l5.2-2.8l-9.4-5.1l-4.8,3.2l-4.1-2.7l5.4-2.8l-9.1-5.2l-5.1,3l-6.7-3.9l-8.9,5.2l4.4,2.8 l-29.7,17.1l-4.7-2.7l-9,5.2l6.7,3.8l-4.2,2.5l8.9,5.1l4.2-2.3l3.9,2.2l-4.2,2.4l9,5.2l4.1-2.4c10.9,5.5,22.3,3.2,22.3,3.2 c14.3-4.5,12.6-12.1,12.6-12.1c10.4-0.7,15.2-5.6,15.2-5.6C172,345.3,163.1,339.6,163.1,339.6z M136,361.6 c-4.1,3-10.6,1.1-10.6,1.1l-16.2-9.4l11.5-6.7l15.3,8.8C136,355.5,140.2,358.6,136,361.6z M153,349.8c-4.8,2.6-9.5,0-9.5,0 l-13.9-8.1l9.7-5.7l14.4,8.4C153.7,344.3,157.8,347.1,153,349.8z" class="st25"/></g></g></switch></svg>