<svg xmlns="http://www.w3.org/2000/svg" xmlns:xlink="http://www.w3.org/1999/xlink" id="Capa_1" x="0" y="0" version="1.1" viewBox="151.7 164 220 177" xml:space="preserve" style="enable-background:new 151.7 164 220 177"><style type="text/css">.st0{opacity:.2;fill:#1e1a21}.st1{fill:url(#SVGID_1_)}.st2{fill:url(#SVGID_2_)}.st3{fill:url(#SVGID_3_)}.st4{fill:url(#SVGID_4_)}.st5{fill:url(#SVGID_5_)}.st6{fill:url(#SVGID_6_)}.st7{opacity:.25;fill:url(#SVGID_7_)}.st8{fill:url(#SVGID_8_)}.st9{fill:url(#SVGID_9_)}.st10{opacity:.6;fill:url(#SVGID_10_)}.st11{fill:url(#SVGID_11_)}.st12{fill:url(#SVGID_12_)}.st13{fill:url(#SVGID_13_)}.st14{fill:url(#SVGID_14_)}.st15{fill:url(#SVGID_15_)}.st16{fill:#3d20b7}.st17{fill:url(#SVGID_16_)}.st18{fill:url(#SVGID_17_)}</style><path d="M197.8,283.8c0,0-2.5,1.3,0.4,4.4c2.9,3.2,63.8,36.7,63.8,36.7s5,2.6,8.8,0l55.5-32.5c0,0,1.4-2.1-1.5-3.6	l-63.8-36.9c0,0-3.2-2.5-7.5,0S197.8,283.8,197.8,283.8z" class="st0"/><linearGradient id="SVGID_1_" x1="196.753" x2="326.587" y1="271.903" y2="271.903" gradientUnits="userSpaceOnUse"><stop offset="0" style="stop-color:#4f3e90"/><stop offset="1" style="stop-color:#171a31"/></linearGradient><path d="M197.8,267.3c0,0-2.5,1.3,0.4,4.4c2.9,3.2,63.8,36.7,63.8,36.7s5,2.6,8.8,0l55.5-32.5c0,0,1.4-2.1-1.5-3.6	l-63.8-36.9c0,0-3.2-2.5-7.5,0S197.8,267.3,197.8,267.3z" class="st1"/><linearGradient id="SVGID_2_" x1="196.753" x2="326.615" y1="293.051" y2="293.051" gradientUnits="userSpaceOnUse"><stop offset="0" style="stop-color:#463780"/><stop offset=".143" style="stop-color:#382e68"/><stop offset=".331" style="stop-color:#292550"/><stop offset=".529" style="stop-color:#1f1f3f"/><stop offset=".743" style="stop-color:#191b34"/><stop offset="1" style="stop-color:#171a31"/></linearGradient><path d="M196.8,276.4v-7.6c0,0,0,2,2.2,3.6c2.3,1.5,17.7,10.7,17.7,10.7l23.1,13l21.9,12.2c0,0,4.9,2.7,8.8,0.4	s55.8-32.7,55.8-32.7s0.5-0.7,0.3-1.8l0,8.2c0,0.7-0.4,1.4-1,1.7l-54.4,31.7c0,0-5.5,4.1-10.9-0.9l-62.5-36.6	C197.2,277.9,196.8,277.1,196.8,276.4L196.8,276.4z" class="st2"/><linearGradient id="SVGID_3_" x1="196.753" x2="326.587" y1="253.903" y2="253.903" gradientUnits="userSpaceOnUse"><stop offset="0" style="stop-color:#4f3e90"/><stop offset="1" style="stop-color:#171a31"/></linearGradient><path d="M197.8,249.3c0,0-2.5,1.3,0.4,4.4c2.9,3.2,63.8,36.7,63.8,36.7s5,2.6,8.8,0l55.5-32.5c0,0,1.4-2.1-1.5-3.6	l-63.8-36.9c0,0-3.2-2.5-7.5,0S197.8,249.3,197.8,249.3z" class="st3"/><linearGradient id="SVGID_4_" x1="196.753" x2="326.615" y1="275.051" y2="275.051" gradientUnits="userSpaceOnUse"><stop offset="0" style="stop-color:#463780"/><stop offset=".143" style="stop-color:#382e68"/><stop offset=".331" style="stop-color:#292550"/><stop offset=".529" style="stop-color:#1f1f3f"/><stop offset=".743" style="stop-color:#191b34"/><stop offset="1" style="stop-color:#171a31"/></linearGradient><path d="M196.8,258.4v-7.6c0,0,0,2,2.2,3.6s17.7,10.7,17.7,10.7l23.1,13l21.9,12.2c0,0,4.9,2.7,8.8,0.4	s55.8-32.7,55.8-32.7s0.5-0.7,0.3-1.8l0,8.2c0,0.7-0.4,1.4-1,1.7l-54.4,31.7c0,0-5.5,4.1-10.9-0.9l-62.5-36.6	C197.2,259.9,196.8,259.1,196.8,258.4L196.8,258.4z" class="st4"/><linearGradient id="SVGID_5_" x1="196.753" x2="326.587" y1="235.903" y2="235.903" gradientUnits="userSpaceOnUse"><stop offset="0" style="stop-color:#4f3e90"/><stop offset="1" style="stop-color:#171a31"/></linearGradient><path d="M197.8,231.3c0,0-2.5,1.3,0.4,4.4c2.9,3.2,63.8,36.7,63.8,36.7s5,2.6,8.8,0l55.5-32.5c0,0,1.4-2.1-1.5-3.6	l-63.8-36.9c0,0-3.2-2.5-7.5,0S197.8,231.3,197.8,231.3z" class="st5"/><linearGradient id="SVGID_6_" x1="196.753" x2="326.615" y1="257.051" y2="257.051" gradientUnits="userSpaceOnUse"><stop offset="0" style="stop-color:#463780"/><stop offset=".143" style="stop-color:#382e68"/><stop offset=".331" style="stop-color:#292550"/><stop offset=".529" style="stop-color:#1f1f3f"/><stop offset=".743" style="stop-color:#191b34"/><stop offset="1" style="stop-color:#171a31"/></linearGradient><path d="M196.8,240.4v-7.6c0,0,0,2,2.2,3.6s17.7,10.7,17.7,10.7l23.1,13l21.9,12.2c0,0,4.9,2.7,8.8,0.4	s55.8-32.7,55.8-32.7s0.5-0.7,0.3-1.8l0,8.2c0,0.7-0.4,1.4-1,1.7l-54.4,31.7c0,0-5.5,4.1-10.9-0.9l-62.5-36.6	C197.2,241.9,196.8,241.1,196.8,240.4L196.8,240.4z" class="st6"/><linearGradient id="SVGID_7_" x1="254.911" x2="271.743" y1="267.265" y2="204.447" gradientUnits="userSpaceOnUse"><stop offset="0" style="stop-color:#4f3e90;stop-opacity:.6"/><stop offset="1" style="stop-color:#171abf;stop-opacity:.4"/></linearGradient><path d="M204.6,231.6c0,0-2.3,1.1,0.4,4.1c2.7,2.9,58.6,33.7,58.6,33.7s4.6,2.4,8,0l51-29.8c0,0,1.3-2-1.4-3.3	l-58.6-33.9c0,0-2.9-2.3-6.9,0C251.8,204.6,204.6,231.6,204.6,231.6z" class="st7"/><g><linearGradient id="SVGID_8_" x1="196.753" x2="326.587" y1="217.903" y2="217.903" gradientUnits="userSpaceOnUse"><stop offset="0" style="stop-color:#4f3e90"/><stop offset="1" style="stop-color:#171a31"/></linearGradient><path d="M197.8,213.3c0,0-2.5,1.3,0.4,4.4c2.9,3.2,63.8,36.7,63.8,36.7s5,2.6,8.8,0l55.5-32.5c0,0,1.4-2.1-1.5-3.6 l-63.8-36.9c0,0-3.2-2.5-7.5,0S197.8,213.3,197.8,213.3z" class="st8"/><linearGradient id="SVGID_9_" x1="196.753" x2="326.615" y1="239.051" y2="239.051" gradientUnits="userSpaceOnUse"><stop offset="0" style="stop-color:#463780"/><stop offset=".143" style="stop-color:#382e68"/><stop offset=".331" style="stop-color:#292550"/><stop offset=".529" style="stop-color:#1f1f3f"/><stop offset=".743" style="stop-color:#191b34"/><stop offset="1" style="stop-color:#171a31"/></linearGradient><path d="M196.8,222.4v-7.6c0,0,0,2,2.2,3.6s17.7,10.7,17.7,10.7l23.1,13l21.9,12.2c0,0,4.9,2.7,8.8,0.4 s55.8-32.7,55.8-32.7s0.5-0.7,0.3-1.8l0,8.2c0,0.7-0.4,1.4-1,1.7l-54.4,31.7c0,0-5.5,4.1-10.9-0.9l-62.5-36.6 C197.2,223.9,196.8,223.1,196.8,222.4L196.8,222.4z" class="st9"/></g><linearGradient id="SVGID_10_" x1="225.797" x2="310.833" y1="223.129" y2="223.129" gradientUnits="userSpaceOnUse"><stop offset="0" style="stop-color:#463780"/><stop offset=".143" style="stop-color:#382e68"/><stop offset=".331" style="stop-color:#292550"/><stop offset=".529" style="stop-color:#1f1f3f"/><stop offset=".743" style="stop-color:#191b34"/><stop offset="1" style="stop-color:#171a31"/></linearGradient><polygon points="225.8 213.4 269.5 239.8 310.8 217.7 306.7 217.3 263.8 206.5" class="st10"/><g><linearGradient id="SVGID_11_" x1="225.797" x2="266.769" y1="215.288" y2="215.288" gradientUnits="userSpaceOnUse"><stop offset="0" style="stop-color:#7f00ff"/><stop offset=".489" style="stop-color:#7d00ff"/><stop offset=".665" style="stop-color:#7600ff"/><stop offset=".79" style="stop-color:#6b00ff"/><stop offset=".892" style="stop-color:#5a00ff"/><stop offset=".978" style="stop-color:#40f"/><stop offset="1" style="stop-color:#3d00ff"/></linearGradient><polygon points="225.8 210.8 238.5 203.4 266.8 219.7 254.1 227.1" class="st11"/><linearGradient id="SVGID_12_" x1="254.054" x2="280.914" y1="227.523" y2="227.523" gradientUnits="userSpaceOnUse"><stop offset="0" style="stop-color:#3f00fc"/><stop offset=".208" style="stop-color:#3f02f7"/><stop offset=".467" style="stop-color:#3e09e7"/><stop offset=".753" style="stop-color:#3e14ce"/><stop offset="1" style="stop-color:#3d20b2"/></linearGradient><polygon points="280.9 227.9 266.8 219.7 254.1 227.1 268.2 235.3" class="st12"/><linearGradient id="SVGID_13_" x1="249.11" x2="258.678" y1="204.589" y2="240.296" gradientUnits="userSpaceOnUse"><stop offset="0" style="stop-color:#851cb7"/><stop offset="1" style="stop-color:#3d20b7"/></linearGradient><polygon points="225.8 210.8 225.8 213 268.1 237.8 280.9 230.3 280.9 227.9 268.2 235.3" class="st13"/><linearGradient id="SVGID_14_" x1="244.326" x2="263.029" y1="202.356" y2="202.356" gradientUnits="userSpaceOnUse"><stop offset="0" style="stop-color:#3f00fc"/><stop offset=".208" style="stop-color:#3f02f7"/><stop offset=".467" style="stop-color:#3e09e7"/><stop offset=".753" style="stop-color:#3e14ce"/><stop offset="1" style="stop-color:#3d20b2"/></linearGradient><polygon points="244.3 204.1 246.2 199 261.9 189.8 263 214.9" class="st14"/><linearGradient id="SVGID_15_" x1="266.031" x2="304.253" y1="215.923" y2="215.923" gradientUnits="userSpaceOnUse"><stop offset="0" style="stop-color:#7f00ff"/><stop offset=".222" style="stop-color:#7a00ff"/><stop offset=".5" style="stop-color:#6a00ff"/><stop offset=".806" style="stop-color:#5100ff"/><stop offset="1" style="stop-color:#3d00ff"/></linearGradient><polygon points="266 216.6 266.1 205.3 304.3 214.3 283.2 226.6" class="st15"/><polygon points="266 216.6 283.2 226.6 304.3 214.3 304.3 216.6 283.2 229.2 266 219.3" class="st16"/><polygon points="244.3 204.1 244.3 206.8 263 217.6 263 214.9" class="st16"/><linearGradient id="SVGID_16_" x1="273.717" x2="275.324" y1="229.836" y2="235.835" gradientUnits="userSpaceOnUse"><stop offset="0" style="stop-color:#3f00fc"/><stop offset=".12" style="stop-color:#3d01f7"/><stop offset=".27" style="stop-color:#3804e7"/><stop offset=".436" style="stop-color:#2f08ce"/><stop offset=".614" style="stop-color:#230eaa"/><stop offset=".8" style="stop-color:#14167c"/><stop offset=".992" style="stop-color:#012045"/><stop offset="1" style="stop-color:#002043"/></linearGradient><polygon points="268.2 235.3 268.1 237.8 280.9 230.3 280.9 227.9" class="st17"/><linearGradient id="SVGID_17_" x1="292.576" x2="294.898" y1="217.435" y2="226.103" gradientUnits="userSpaceOnUse"><stop offset="0" style="stop-color:#3f00fc"/><stop offset=".12" style="stop-color:#3d01f7"/><stop offset=".27" style="stop-color:#3804e7"/><stop offset=".436" style="stop-color:#2f08ce"/><stop offset=".614" style="stop-color:#230eaa"/><stop offset=".8" style="stop-color:#14167c"/><stop offset=".992" style="stop-color:#012045"/><stop offset="1" style="stop-color:#002043"/></linearGradient><polygon points="283.2 226.6 283.2 229.2 304.3 216.6 304.3 214.3" class="st18"/></g></svg>