<svg xmlns="http://www.w3.org/2000/svg" xmlns:xlink="http://www.w3.org/1999/xlink" id="Capa_1" x="0" y="0" version="1.1" viewBox="31 -31 512 512" xml:space="preserve" style="enable-background:new 31 -31 512 512"><style type="text/css">.st0{opacity:.2;fill:#1e1a21;enable-background:new}.st1{fill:none;stroke:url(#SVGID_1_);stroke-width:3;stroke-linecap:round;stroke-linejoin:round;stroke-miterlimit:10}.st2{fill:url(#XMLID_2_)}.st3{fill:url(#XMLID_3_)}.st4{fill:url(#XMLID_4_)}.st5{fill:url(#XMLID_7_)}.st5,.st6,.st7{clip-path:url(#XMLID_6_)}.st6{fill:url(#XMLID_8_)}.st7{fill:url(#XMLID_9_)}.st10,.st11,.st12,.st8,.st9{clip-path:url(#XMLID_6_)}.st8{fill:url(#XMLID_10_)}.st9{fill:url(#XMLID_11_)}.st10{fill:url(#XMLID_12_)}.st11{fill:url(#XMLID_13_)}.st12{fill:url(#XMLID_14_)}.st13{opacity:.5;fill:none;stroke:#0053fb;stroke-width:2;stroke-miterlimit:10}.st14{fill:url(#XMLID_15_)}.st15{fill:url(#XMLID_16_)}.st16{fill:url(#XMLID_17_)}.st17{fill:url(#XMLID_18_)}.st18{fill:url(#XMLID_19_)}.st19{fill:url(#XMLID_21_)}.st20{fill:url(#XMLID_22_)}.st21{fill:url(#XMLID_23_)}.st22{fill:url(#XMLID_24_)}.st23{fill:url(#XMLID_25_)}.st24{fill:url(#XMLID_26_)}.st25{fill:url(#XMLID_27_)}.st26{fill:url(#XMLID_28_)}.st27{fill:url(#XMLID_29_)}.st28{fill:url(#SVGID_2_)}.st29{fill:url(#SVGID_3_)}.st30{fill:url(#SVGID_4_)}.st31{fill:url(#SVGID_5_)}.st32{fill:url(#SVGID_6_)}.st33{fill:url(#SVGID_7_)}.st34{opacity:.25;fill:url(#SVGID_8_);enable-background:new}.st35{fill:url(#SVGID_9_)}.st36{fill:url(#SVGID_10_)}.st37{opacity:.6;fill:url(#SVGID_11_);enable-background:new}.st38{fill:url(#SVGID_12_)}.st39{fill:url(#SVGID_13_)}.st40{fill:url(#SVGID_14_)}.st41{fill:url(#SVGID_15_)}.st42{fill:url(#SVGID_16_)}.st43{fill:#3d20b7}.st44{fill:url(#SVGID_17_)}.st45{fill:url(#SVGID_18_)}.st46{opacity:.5}.st47{fill:none;stroke:#0053fb;stroke-miterlimit:10}</style><path d="M149.6,393.5c0,0-5,2.4,0.8,8.8c5.7,6.3,126.7,72.9,126.7,72.9s10,5.2,17.4,0l110.2-64.6c0,0,2.8-4.2-3.1-7.1	l-126.5-73.3c0,0-6.4-5-14.9,0S149.6,393.5,149.6,393.5z" class="st0"/><linearGradient id="SVGID_1_" x1="228.8" x2="228.8" y1="38.575" y2="38.575" gradientTransform="matrix(1 0 0 -1 0 450)" gradientUnits="userSpaceOnUse"><stop offset="0" style="stop-color:#3f00fc"/><stop offset=".208" style="stop-color:#3f02f7"/><stop offset=".467" style="stop-color:#3e09e7"/><stop offset=".753" style="stop-color:#3e14ce"/><stop offset="1" style="stop-color:#3d20b2"/></linearGradient><path d="M228.8,411.4" class="st1"/><linearGradient id="XMLID_2_" x1="253.445" x2="320.562" y1="-16381.15" y2="-16130.664" gradientTransform="matrix(1 0 0 -1 0 -15934)" gradientUnits="userSpaceOnUse"><stop offset="0" style="stop-color:#4f3e90"/><stop offset="1" style="stop-color:#171a31"/></linearGradient><polygon id="XMLID_20_" points="171 389.1 171 254.8 286.6 187.6 403 254.7 403 389.1 287.4 456.2" class="st2"/><linearGradient id="XMLID_3_" x1="270.237" x2="303.77" y1="-16251.31" y2="-16126.164" gradientTransform="matrix(1 0 0 -1 0 -15934)" gradientUnits="userSpaceOnUse"><stop offset="0" style="stop-color:#4f3e90"/><stop offset="1" style="stop-color:#171a31"/></linearGradient><polygon id="XMLID_49_" points="286.6 187.6 403 254.7 287.4 321.9 171 254.8" class="st3"/><linearGradient id="XMLID_4_" x1="323.882" x2="366.517" y1="-16209.933" y2="-16369.049" gradientTransform="matrix(1 0 0 -1 0 -15934)" gradientUnits="userSpaceOnUse"><stop offset="0" style="stop-color:#4f3e90"/><stop offset="1" style="stop-color:#171a31"/></linearGradient><polygon id="XMLID_50_" points="287.4 456.2 287.4 321.9 403 254.7 403 389.1" class="st4"/><g id="XMLID_97_"><defs><polygon id="XMLID_98_" points="285.4 209.7 353.9 249.3 285.8 288.8 217.2 249.3"/></defs><linearGradient id="XMLID_5_" x1="217.246" x2="353.906" y1="249.262" y2="249.262" gradientUnits="userSpaceOnUse"><stop offset="0" style="stop-color:#7f00ff;stop-opacity:.4"/><stop offset="1" style="stop-color:#3d00ff;stop-opacity:.6"/></linearGradient><use xlink:href="#XMLID_98_" style="overflow:visible;fill:url(#XMLID_5_)"/><clipPath id="XMLID_6_"><use xlink:href="#XMLID_98_" style="overflow:visible"/></clipPath><linearGradient id="XMLID_7_" x1="275.667" x2="295.482" y1="-16158.726" y2="-16232.673" gradientTransform="matrix(1 0 0 -1 0 -15934)" gradientUnits="userSpaceOnUse"><stop offset="0" style="stop-color:#7f00ff;stop-opacity:.4"/><stop offset="1" style="stop-color:#3d00ff;stop-opacity:.6"/></linearGradient><polygon id="XMLID_109_" points="285.4 222.1 353.9 261.7 285.8 301.3 217.2 261.7" class="st5"/><linearGradient id="XMLID_8_" x1="275.667" x2="295.482" y1="-16170.932" y2="-16244.879" gradientTransform="matrix(1 0 0 -1 0 -15934)" gradientUnits="userSpaceOnUse"><stop offset="0" style="stop-color:#7f00ff;stop-opacity:.4"/><stop offset="1" style="stop-color:#3d00ff;stop-opacity:.6"/></linearGradient><polygon id="XMLID_108_" points="285.4 234.3 353.9 273.9 285.8 313.5 217.2 273.9" class="st6"/><linearGradient id="XMLID_9_" x1="275.667" x2="295.482" y1="-16183.138" y2="-16257.085" gradientTransform="matrix(1 0 0 -1 0 -15934)" gradientUnits="userSpaceOnUse"><stop offset="0" style="stop-color:#7f00ff;stop-opacity:.4"/><stop offset="1" style="stop-color:#3d00ff;stop-opacity:.6"/></linearGradient><polygon id="XMLID_107_" points="285.4 246.5 353.9 286.1 285.8 325.7 217.2 286.1" class="st7"/><linearGradient id="XMLID_10_" x1="275.667" x2="295.482" y1="-16195.344" y2="-16269.291" gradientTransform="matrix(1 0 0 -1 0 -15934)" gradientUnits="userSpaceOnUse"><stop offset="0" style="stop-color:#7f00ff;stop-opacity:.4"/><stop offset="1" style="stop-color:#3d00ff;stop-opacity:.6"/></linearGradient><polygon id="XMLID_105_" points="285.4 258.7 353.9 298.3 285.8 337.9 217.2 298.3" class="st8"/><linearGradient id="XMLID_11_" x1="275.667" x2="295.482" y1="-16207.549" y2="-16281.496" gradientTransform="matrix(1 0 0 -1 0 -15934)" gradientUnits="userSpaceOnUse"><stop offset="0" style="stop-color:#7f00ff;stop-opacity:.4"/><stop offset="1" style="stop-color:#3d00ff;stop-opacity:.6"/></linearGradient><polygon id="XMLID_104_" points="285.4 271 353.9 310.5 285.8 350.1 217.2 310.5" class="st9"/><linearGradient id="XMLID_12_" x1="275.667" x2="295.482" y1="-16219.755" y2="-16293.702" gradientTransform="matrix(1 0 0 -1 0 -15934)" gradientUnits="userSpaceOnUse"><stop offset="0" style="stop-color:#7f00ff;stop-opacity:.4"/><stop offset="1" style="stop-color:#3d00ff;stop-opacity:.6"/></linearGradient><polygon id="XMLID_103_" points="285.4 283.2 353.9 322.7 285.8 362.3 217.2 322.7" class="st10"/><linearGradient id="XMLID_13_" x1="275.667" x2="295.482" y1="-16231.961" y2="-16305.908" gradientTransform="matrix(1 0 0 -1 0 -15934)" gradientUnits="userSpaceOnUse"><stop offset="0" style="stop-color:#7f00ff;stop-opacity:.4"/><stop offset="1" style="stop-color:#3d00ff;stop-opacity:.6"/></linearGradient><polygon id="XMLID_101_" points="285.4 295.4 353.9 334.9 285.8 374.5 217.2 334.9" class="st11"/><linearGradient id="XMLID_14_" x1="275.667" x2="295.482" y1="-16244.167" y2="-16318.114" gradientTransform="matrix(1 0 0 -1 0 -15934)" gradientUnits="userSpaceOnUse"><stop offset="0" style="stop-color:#7f00ff;stop-opacity:.4"/><stop offset="1" style="stop-color:#3d00ff;stop-opacity:.6"/></linearGradient><polygon id="XMLID_100_" points="285.4 307.6 353.9 347.1 285.8 386.7 217.2 347.2" class="st12"/></g><polyline id="XMLID_56_" points="362.1 278.5 362.1 361 338.1 376.9 338.1 426.8" class="st13"/><linearGradient id="XMLID_15_" x1="297.037" x2="298.572" y1="-16200.838" y2="-16200.838" gradientTransform="matrix(1 0 0 -1 0 -15934)" gradientUnits="userSpaceOnUse"><stop offset="0" style="stop-color:#3f00fc"/><stop offset=".208" style="stop-color:#3f02f7"/><stop offset=".467" style="stop-color:#3e09e7"/><stop offset=".753" style="stop-color:#3e14ce"/><stop offset="1" style="stop-color:#3d20b2"/></linearGradient><circle id="XMLID_304_" cx="297.8" cy="266.8" r=".8" class="st14"/><linearGradient id="XMLID_16_" x1="251.483" x2="253.018" y1="-16096.972" y2="-16096.972" gradientTransform="matrix(1 0 0 -1 0 -15934)" gradientUnits="userSpaceOnUse"><stop offset="0" style="stop-color:#3f00fc"/><stop offset=".208" style="stop-color:#3f02f7"/><stop offset=".467" style="stop-color:#3e09e7"/><stop offset=".753" style="stop-color:#3e14ce"/><stop offset="1" style="stop-color:#3d20b2"/></linearGradient><circle id="XMLID_302_" cx="252.3" cy="163" r=".8" class="st15"/><linearGradient id="XMLID_17_" x1="345.391" x2="348.964" y1="-16026.505" y2="-16026.505" gradientTransform="matrix(1 0 0 -1 0 -15934)" gradientUnits="userSpaceOnUse"><stop offset="0" style="stop-color:#3f00fc"/><stop offset=".208" style="stop-color:#3f02f7"/><stop offset=".467" style="stop-color:#3e09e7"/><stop offset=".753" style="stop-color:#3e14ce"/><stop offset="1" style="stop-color:#3d20b2"/></linearGradient><circle id="XMLID_37_" cx="347.2" cy="92.5" r="1.8" class="st16"/><linearGradient id="XMLID_18_" x1="365.215" x2="366.665" y1="-15946.5" y2="-15946.5" gradientTransform="matrix(1 0 0 -1 0 -15934)" gradientUnits="userSpaceOnUse"><stop offset="0" style="stop-color:#3f00fc"/><stop offset=".208" style="stop-color:#3f02f7"/><stop offset=".467" style="stop-color:#3e09e7"/><stop offset=".753" style="stop-color:#3e14ce"/><stop offset="1" style="stop-color:#3d20b2"/></linearGradient><circle id="XMLID_43_" cx="365.9" cy="12.5" r=".7" class="st17"/><linearGradient id="XMLID_19_" x1="236.494" x2="240.068" y1="-16021.993" y2="-16021.993" gradientTransform="matrix(1 0 0 -1 0 -15934)" gradientUnits="userSpaceOnUse"><stop offset="0" style="stop-color:#3f00fc"/><stop offset=".208" style="stop-color:#3f02f7"/><stop offset=".467" style="stop-color:#3e09e7"/><stop offset=".753" style="stop-color:#3e14ce"/><stop offset="1" style="stop-color:#3d20b2"/></linearGradient><circle id="XMLID_143_" cx="238.3" cy="88" r="1.8" class="st18"/><linearGradient id="XMLID_21_" x1="358.329" x2="359.779" y1="-16105.871" y2="-16105.871" gradientTransform="matrix(1 0 0 -1 0 -15934)" gradientUnits="userSpaceOnUse"><stop offset="0" style="stop-color:#3f00fc"/><stop offset=".208" style="stop-color:#3f02f7"/><stop offset=".467" style="stop-color:#3e09e7"/><stop offset=".753" style="stop-color:#3e14ce"/><stop offset="1" style="stop-color:#3d20b2"/></linearGradient><circle id="XMLID_142_" cx="359.1" cy="171.9" r=".7" class="st19"/><linearGradient id="XMLID_22_" x1="284.609" x2="286.543" y1="-16039.618" y2="-16039.618" gradientTransform="matrix(1 0 0 -1 0 -15934)" gradientUnits="userSpaceOnUse"><stop offset="0" style="stop-color:#3f00fc"/><stop offset=".208" style="stop-color:#3f02f7"/><stop offset=".467" style="stop-color:#3e09e7"/><stop offset=".753" style="stop-color:#3e14ce"/><stop offset="1" style="stop-color:#3d20b2"/></linearGradient><circle id="XMLID_140_" cx="285.6" cy="105.6" r="1" class="st20"/><linearGradient id="XMLID_23_" x1="290.151" x2="293.724" y1="-16160.208" y2="-16160.208" gradientTransform="matrix(1 0 0 -1 0 -15934)" gradientUnits="userSpaceOnUse"><stop offset="0" style="stop-color:#3f00fc"/><stop offset=".208" style="stop-color:#3f02f7"/><stop offset=".467" style="stop-color:#3e09e7"/><stop offset=".753" style="stop-color:#3e14ce"/><stop offset="1" style="stop-color:#3d20b2"/></linearGradient><circle id="XMLID_73_" cx="291.9" cy="226.2" r="1.8" class="st21"/><linearGradient id="XMLID_24_" x1="275.256" x2="276.706" y1="-16080.783" y2="-16080.783" gradientTransform="matrix(1 0 0 -1 0 -15934)" gradientUnits="userSpaceOnUse"><stop offset="0" style="stop-color:#3f00fc"/><stop offset=".208" style="stop-color:#3f02f7"/><stop offset=".467" style="stop-color:#3e09e7"/><stop offset=".753" style="stop-color:#3e14ce"/><stop offset="1" style="stop-color:#3d20b2"/></linearGradient><circle id="XMLID_72_" cx="276" cy="146.8" r=".7" class="st22"/><linearGradient id="XMLID_25_" x1="267.267" x2="269.201" y1="-16189.394" y2="-16189.394" gradientTransform="matrix(1 0 0 -1 0 -15934)" gradientUnits="userSpaceOnUse"><stop offset="0" style="stop-color:#3f00fc"/><stop offset=".208" style="stop-color:#3f02f7"/><stop offset=".467" style="stop-color:#3e09e7"/><stop offset=".753" style="stop-color:#3e14ce"/><stop offset="1" style="stop-color:#3d20b2"/></linearGradient><circle id="XMLID_71_" cx="268.2" cy="255.4" r="1" class="st23"/><linearGradient id="XMLID_26_" x1="315.799" x2="317.733" y1="-16137.878" y2="-16137.878" gradientTransform="matrix(1 0 0 -1 0 -15934)" gradientUnits="userSpaceOnUse"><stop offset="0" style="stop-color:#3f00fc"/><stop offset=".208" style="stop-color:#3f02f7"/><stop offset=".467" style="stop-color:#3e09e7"/><stop offset=".753" style="stop-color:#3e14ce"/><stop offset="1" style="stop-color:#3d20b2"/></linearGradient><circle id="XMLID_70_" cx="316.8" cy="203.9" r="1" class="st24"/><linearGradient id="XMLID_27_" x1="250.464" x2="254.037" y1="-15928.862" y2="-15928.862" gradientTransform="matrix(1 0 0 -1 0 -15934)" gradientUnits="userSpaceOnUse"><stop offset="0" style="stop-color:#3f00fc"/><stop offset=".208" style="stop-color:#3f02f7"/><stop offset=".467" style="stop-color:#3e09e7"/><stop offset=".753" style="stop-color:#3e14ce"/><stop offset="1" style="stop-color:#3d20b2"/></linearGradient><circle id="XMLID_369_" cx="252.3" cy="-5.1" r="1.8" class="st25"/><linearGradient id="XMLID_28_" x1="288.364" x2="291.938" y1="-15987.517" y2="-15987.517" gradientTransform="matrix(1 0 0 -1 0 -15934)" gradientUnits="userSpaceOnUse"><stop offset="0" style="stop-color:#3f00fc"/><stop offset=".208" style="stop-color:#3f02f7"/><stop offset=".467" style="stop-color:#3e09e7"/><stop offset=".753" style="stop-color:#3e14ce"/><stop offset="1" style="stop-color:#3d20b2"/></linearGradient><circle id="XMLID_359_" cx="290.2" cy="53.5" r="1.8" class="st26"/><linearGradient id="XMLID_29_" x1="302.828" x2="304.762" y1="-15968.134" y2="-15968.134" gradientTransform="matrix(1 0 0 -1 0 -15934)" gradientUnits="userSpaceOnUse"><stop offset="0" style="stop-color:#3f00fc"/><stop offset=".208" style="stop-color:#3f02f7"/><stop offset=".467" style="stop-color:#3e09e7"/><stop offset=".753" style="stop-color:#3e14ce"/><stop offset="1" style="stop-color:#3d20b2"/></linearGradient><circle id="XMLID_358_" cx="303.8" cy="34.1" r="1" class="st27"/><g><path d="M148.5,430.1c0,0-2.1,1,0.3,3.7c2.4,2.6,52.9,30.4,52.9,30.4s4.2,2.2,7.2,0l46-27c0,0,1.2-1.8-1.3-3 l-52.8-30.6c0,0-2.7-2.1-6.2,0C191,405.7,148.5,430.1,148.5,430.1z" class="st0"/><linearGradient id="SVGID_2_" x1="147.632" x2="255.18" y1="29.771" y2="29.771" gradientTransform="matrix(1 0 0 -1 0 450)" gradientUnits="userSpaceOnUse"><stop offset="0" style="stop-color:#4f3e90"/><stop offset="1" style="stop-color:#171a31"/></linearGradient><path d="M148.5,416.4c0,0-2.1,1,0.3,3.7c2.4,2.6,52.9,30.4,52.9,30.4s4.2,2.2,7.2,0l46-27c0,0,1.2-1.8-1.3-3 l-52.8-30.6c0,0-2.7-2.1-6.2,0C191,392,148.5,416.4,148.5,416.4z" class="st28"/><linearGradient id="SVGID_3_" x1="147.668" x2="255.362" y1="12.229" y2="12.229" gradientTransform="matrix(1 0 0 -1 0 450)" gradientUnits="userSpaceOnUse"><stop offset="0" style="stop-color:#463780"/><stop offset=".143" style="stop-color:#382e68"/><stop offset=".331" style="stop-color:#292550"/><stop offset=".529" style="stop-color:#1f1f3f"/><stop offset=".743" style="stop-color:#191b34"/><stop offset="1" style="stop-color:#171a31"/></linearGradient><path d="M147.7,423.9v-6.3c0,0-0.1,1.7,1.9,2.9c1.9,1.3,14.7,8.8,14.7,8.8l19.1,10.8l18.2,10.1c0,0,4,2.2,7.3,0.3 c3.2-1.9,46.2-27.1,46.2-27.1s0.4-0.5,0.3-1.5v6.8c0,0.6-0.3,1.1-0.8,1.4l-45.1,26.3c0,0-4.6,3.4-9.1-0.8l-51.8-30.3 C148,425.2,147.7,424.6,147.7,423.9L147.7,423.9z" class="st29"/><linearGradient id="SVGID_4_" x1="147.632" x2="255.18" y1="44.686" y2="44.686" gradientTransform="matrix(1 0 0 -1 0 450)" gradientUnits="userSpaceOnUse"><stop offset="0" style="stop-color:#4f3e90"/><stop offset="1" style="stop-color:#171a31"/></linearGradient><path d="M148.5,401.5c0,0-2.1,1,0.3,3.7c2.4,2.6,52.9,30.4,52.9,30.4s4.2,2.2,7.2,0l46-27c0,0,1.2-1.8-1.3-3 L200.8,375c0,0-2.7-2.1-6.2,0C191,377.1,148.5,401.5,148.5,401.5z" class="st30"/><linearGradient id="SVGID_5_" x1="147.668" x2="255.362" y1="27.145" y2="27.145" gradientTransform="matrix(1 0 0 -1 0 450)" gradientUnits="userSpaceOnUse"><stop offset="0" style="stop-color:#463780"/><stop offset=".143" style="stop-color:#382e68"/><stop offset=".331" style="stop-color:#292550"/><stop offset=".529" style="stop-color:#1f1f3f"/><stop offset=".743" style="stop-color:#191b34"/><stop offset="1" style="stop-color:#171a31"/></linearGradient><path d="M147.7,409v-6.3c0,0-0.1,1.7,1.9,2.9c1.9,1.3,14.7,8.8,14.7,8.8l19.1,10.8l18.2,10.1c0,0,4,2.2,7.3,0.3 c3.2-1.9,46.2-27.1,46.2-27.1s0.4-0.5,0.3-1.5v6.8c0,0.6-0.3,1.1-0.8,1.4l-45.1,26.3c0,0-4.6,3.4-9.1-0.8l-51.8-30.3 C148,410.2,147.7,409.7,147.7,409L147.7,409z" class="st31"/><linearGradient id="SVGID_6_" x1="147.632" x2="255.18" y1="59.602" y2="59.602" gradientTransform="matrix(1 0 0 -1 0 450)" gradientUnits="userSpaceOnUse"><stop offset="0" style="stop-color:#4f3e90"/><stop offset="1" style="stop-color:#171a31"/></linearGradient><path d="M148.5,386.5c0,0-2.1,1,0.3,3.7c2.4,2.6,52.9,30.4,52.9,30.4s4.2,2.2,7.2,0l46-27c0,0,1.2-1.8-1.3-3 l-52.8-30.6c0,0-2.7-2.1-6.2,0C191,362.2,148.5,386.5,148.5,386.5z" class="st32"/><linearGradient id="SVGID_7_" x1="147.668" x2="255.362" y1="42.06" y2="42.06" gradientTransform="matrix(1 0 0 -1 0 450)" gradientUnits="userSpaceOnUse"><stop offset="0" style="stop-color:#463780"/><stop offset=".143" style="stop-color:#382e68"/><stop offset=".331" style="stop-color:#292550"/><stop offset=".529" style="stop-color:#1f1f3f"/><stop offset=".743" style="stop-color:#191b34"/><stop offset="1" style="stop-color:#171a31"/></linearGradient><path d="M147.7,394.1v-6.3c0,0-0.1,1.7,1.9,2.9c1.9,1.3,14.7,8.8,14.7,8.8l19.1,10.8l18.2,10.1c0,0,4,2.2,7.3,0.3 s46.2-27.1,46.2-27.1s0.4-0.5,0.3-1.5v6.8c0,0.6-0.3,1.1-0.8,1.4l-45.1,26.3c0,0-4.6,3.4-9.1-0.8l-51.8-30.3 C148,395.3,147.7,394.7,147.7,394.1L147.7,394.1z" class="st33"/><linearGradient id="SVGID_8_" x1="195.836" x2="209.775" y1="33.632" y2="85.652" gradientTransform="matrix(1 0 0 -1 0 450)" gradientUnits="userSpaceOnUse"><stop offset="0" style="stop-color:#4f3e90;stop-opacity:.6"/><stop offset="1" style="stop-color:#171abf;stop-opacity:.4"/></linearGradient><path d="M154.2,386.9c0,0-1.9,1,0.3,3.4s48.6,27.9,48.6,27.9s3.8,2,6.7,0l42.2-24.7c0,0,1.1-1.6-1.2-2.8l-48.5-28 c0,0-2.5-1.9-5.7,0C193.3,364.5,154.2,386.9,154.2,386.9z" class="st34"/><g><linearGradient id="SVGID_9_" x1="147.632" x2="255.18" y1="74.517" y2="74.517" gradientTransform="matrix(1 0 0 -1 0 450)" gradientUnits="userSpaceOnUse"><stop offset="0" style="stop-color:#4f3e90"/><stop offset="1" style="stop-color:#171a31"/></linearGradient><path d="M148.5,371.6c0,0-2.1,1,0.3,3.7c2.4,2.6,52.9,30.4,52.9,30.4s4.2,2.2,7.2,0l46-27c0,0,1.2-1.8-1.3-3 l-52.8-30.6c0,0-2.7-2.1-6.2,0C191,347.3,148.5,371.6,148.5,371.6z" class="st35"/><linearGradient id="SVGID_10_" x1="147.668" x2="255.362" y1="56.976" y2="56.976" gradientTransform="matrix(1 0 0 -1 0 450)" gradientUnits="userSpaceOnUse"><stop offset="0" style="stop-color:#463780"/><stop offset=".143" style="stop-color:#382e68"/><stop offset=".331" style="stop-color:#292550"/><stop offset=".529" style="stop-color:#1f1f3f"/><stop offset=".743" style="stop-color:#191b34"/><stop offset="1" style="stop-color:#171a31"/></linearGradient><path d="M147.7,379.2v-6.3c0,0-0.1,1.7,1.9,2.9c1.9,1.3,14.7,8.8,14.7,8.8l19.1,10.8l18.2,10.1c0,0,4,2.2,7.3,0.3 c3.2-1.9,46.2-27.1,46.2-27.1s0.4-0.5,0.3-1.5v6.8c0,0.6-0.3,1.1-0.8,1.4l-45.1,26.3c0,0-4.6,3.4-9.1-0.8l-51.8-30.3 C148,380.4,147.7,379.8,147.7,379.2L147.7,379.2z" class="st36"/></g><linearGradient id="SVGID_11_" x1="171.693" x2="242.168" y1="70.172" y2="70.172" gradientTransform="matrix(1 0 0 -1 0 450)" gradientUnits="userSpaceOnUse"><stop offset="0" style="stop-color:#463780"/><stop offset=".143" style="stop-color:#382e68"/><stop offset=".331" style="stop-color:#292550"/><stop offset=".529" style="stop-color:#1f1f3f"/><stop offset=".743" style="stop-color:#191b34"/><stop offset="1" style="stop-color:#171a31"/></linearGradient><polygon points="171.7 371.8 207.9 393.6 242.2 375.3 238.8 375 203.2 366" class="st37"/><g><linearGradient id="SVGID_12_" x1="171.693" x2="205.643" y1="76.671" y2="76.671" gradientTransform="matrix(1 0 0 -1 0 450)" gradientUnits="userSpaceOnUse"><stop offset="0" style="stop-color:#7f00ff"/><stop offset=".489" style="stop-color:#7d00ff"/><stop offset=".665" style="stop-color:#7600ff"/><stop offset=".79" style="stop-color:#6b00ff"/><stop offset=".892" style="stop-color:#5a00ff"/><stop offset=".978" style="stop-color:#40f"/><stop offset="1" style="stop-color:#3d00ff"/></linearGradient><polygon points="171.7 369.7 182.2 363.5 205.7 377 195.1 383.1" class="st38"/><linearGradient id="SVGID_13_" x1="195.131" x2="217.398" y1="66.55" y2="66.55" gradientTransform="matrix(1 0 0 -1 0 450)" gradientUnits="userSpaceOnUse"><stop offset="0" style="stop-color:#3f00fc"/><stop offset=".208" style="stop-color:#3f02f7"/><stop offset=".467" style="stop-color:#3e09e7"/><stop offset=".753" style="stop-color:#3e14ce"/><stop offset="1" style="stop-color:#3d20b2"/></linearGradient><polygon points="217.4 383.8 205.6 377 195.1 383.2 206.8 389.9" class="st39"/><linearGradient id="SVGID_14_" x1="191.024" x2="198.955" y1="85.527" y2="55.926" gradientTransform="matrix(1 0 0 -1 0 450)" gradientUnits="userSpaceOnUse"><stop offset="0" style="stop-color:#851cb7"/><stop offset="1" style="stop-color:#3d20b7"/></linearGradient><polygon points="171.7 369.7 171.7 371.5 206.8 392 217.4 385.8 217.4 383.8 206.9 389.9" class="st40"/><linearGradient id="SVGID_15_" x1="187.065" x2="202.566" y1="87.379" y2="87.379" gradientTransform="matrix(1 0 0 -1 0 450)" gradientUnits="userSpaceOnUse"><stop offset="0" style="stop-color:#3f00fc"/><stop offset=".208" style="stop-color:#3f02f7"/><stop offset=".467" style="stop-color:#3e09e7"/><stop offset=".753" style="stop-color:#3e14ce"/><stop offset="1" style="stop-color:#3d20b2"/></linearGradient><polygon points="187.1 364.1 188.6 359.9 201.6 352.2 202.6 373" class="st41"/><linearGradient id="SVGID_16_" x1="205.039" x2="236.735" y1="76.165" y2="76.165" gradientTransform="matrix(1 0 0 -1 0 450)" gradientUnits="userSpaceOnUse"><stop offset="0" style="stop-color:#7f00ff"/><stop offset=".222" style="stop-color:#7a00ff"/><stop offset=".5" style="stop-color:#6a00ff"/><stop offset=".806" style="stop-color:#5100ff"/><stop offset="1" style="stop-color:#3d00ff"/></linearGradient><polygon points="205 374.4 205.1 365 236.7 372.5 219.3 382.7" class="st42"/><polygon points="205 374.4 219.3 382.7 236.7 372.5 236.7 374.4 219.3 384.9 205 376.7" class="st43"/><polygon points="187.1 364.1 187.1 366.3 202.5 375.2 202.6 373" class="st43"/><linearGradient id="SVGID_17_" x1="211.431" x2="212.763" y1="64.616" y2="59.645" gradientTransform="matrix(1 0 0 -1 0 450)" gradientUnits="userSpaceOnUse"><stop offset="0" style="stop-color:#3f00fc"/><stop offset=".12" style="stop-color:#3d01f7"/><stop offset=".27" style="stop-color:#3804e7"/><stop offset=".436" style="stop-color:#2f08ce"/><stop offset=".614" style="stop-color:#230eaa"/><stop offset=".8" style="stop-color:#14167c"/><stop offset=".992" style="stop-color:#012045"/><stop offset="1" style="stop-color:#002043"/></linearGradient><polygon points="206.9 389.9 206.8 392 217.4 385.8 217.4 383.8" class="st44"/><linearGradient id="SVGID_18_" x1="227.06" x2="228.983" y1="74.892" y2="67.717" gradientTransform="matrix(1 0 0 -1 0 450)" gradientUnits="userSpaceOnUse"><stop offset="0" style="stop-color:#3f00fc"/><stop offset=".12" style="stop-color:#3d01f7"/><stop offset=".27" style="stop-color:#3804e7"/><stop offset=".436" style="stop-color:#2f08ce"/><stop offset=".614" style="stop-color:#230eaa"/><stop offset=".8" style="stop-color:#14167c"/><stop offset=".992" style="stop-color:#012045"/><stop offset="1" style="stop-color:#002043"/></linearGradient><polygon points="219.3 382.7 219.3 384.9 236.7 374.4 236.7 372.5" class="st45"/></g></g><g class="st46"><image style="overflow:visible;opacity:.3" width="32" height="328" transform="matrix(1 0 0 1 275 -11)" xlink:href="C0168991.png"/><g><line x1="285.6" x2="285.6" y1="-31" y2="266.1" class="st47"/></g></g></svg>