<svg xmlns="http://www.w3.org/2000/svg" xmlns:xlink="http://www.w3.org/1999/xlink" id="Capa_1" x="0" y="0" version="1.1" viewBox="6 -6 512 512" xml:space="preserve" style="enable-background:new 6 -6 512 512"><style type="text/css">.st0{opacity:.2;fill:#11081c}.st1{fill:url(#SVGID_1_)}.st2{fill:url(#SVGID_2_)}.st3{fill:url(#SVGID_3_)}.st4{fill:url(#SVGID_4_)}.st5{fill:url(#SVGID_5_)}.st6{fill:url(#SVGID_6_)}.st7{fill:url(#SVGID_7_)}.st8{fill:#3d20b7}.st9{fill:url(#SVGID_8_)}.st10{fill:url(#SVGID_9_)}.st11{fill:url(#SVGID_10_)}.st12{fill:url(#SVGID_11_)}.st13{fill:url(#SVGID_12_)}.st14{fill:url(#SVGID_13_)}.st15{fill:url(#SVGID_14_)}.st16{fill:url(#SVGID_15_)}.st17{fill:url(#SVGID_16_)}.st18{fill:url(#SVGID_17_)}.st19{fill:url(#SVGID_18_)}.st20{fill:url(#SVGID_19_)}.st21{fill:url(#SVGID_20_)}.st22{fill:url(#SVGID_21_)}.st23{fill:url(#SVGID_22_)}.st24{fill:url(#SVGID_23_)}.st25{fill:url(#SVGID_24_)}.st26{fill:url(#SVGID_25_)}.st27{fill:url(#SVGID_26_)}.st28{fill:url(#SVGID_27_)}.st29{fill:none;stroke:url(#SVGID_28_);stroke-width:3;stroke-linecap:round;stroke-linejoin:round;stroke-miterlimit:10}</style><g><path d="M259.2,358.7c0,0,22,19.9,59.7,4.8c37.7-15.1,84.5-36.2,98.8-44.9c14.2-8.7,24.3-22.2,3.3-25.9 S346.1,266,346.1,266s-2.1-13.8-8.8-20.5s-115.1,11.3-115.1,11.3l-51,29.1L259.2,358.7z" class="st0"/><g><g><g><linearGradient id="SVGID_1_" x1="152.306" x2="362.649" y1="286.411" y2="286.411" gradientUnits="userSpaceOnUse"><stop offset="0" style="stop-color:#4f3e90"/><stop offset="1" style="stop-color:#171a31"/></linearGradient><path d="M153.9,278.9c0,0-4.1,2,0.7,7.2c4.7,5.1,103.4,59.5,103.4,59.5s8.1,4.3,14.2,0l89.9-52.7 c0,0,2.3-3.4-2.5-5.9l-103.3-59.7c0,0-5.2-4.1-12.2,0C237.2,231.3,153.9,278.9,153.9,278.9z" class="st1"/><linearGradient id="SVGID_2_" x1="152.306" x2="362.695" y1="320.673" y2="320.673" gradientUnits="userSpaceOnUse"><stop offset="0" style="stop-color:#463780"/><stop offset=".143" style="stop-color:#382e68"/><stop offset=".331" style="stop-color:#292550"/><stop offset=".529" style="stop-color:#1f1f3f"/><stop offset=".743" style="stop-color:#191b34"/><stop offset="1" style="stop-color:#171a31"/></linearGradient><path d="M152.3,293.7v-12.3c0,0-0.1,3.3,3.6,5.8c3.7,2.5,28.7,17.3,28.7,17.3l37.4,21.1l35.5,19.7 c0,0,7.9,4.4,14.3,0.6c6.4-3.8,90.4-53,90.4-53s0.8-1.1,0.5-2.9l0,13.3c0,1.2-0.6,2.2-1.6,2.8L273,357.4c0,0-8.9,6.6-17.7-1.5 l-101.2-59.2C153,296.1,152.3,294.9,152.3,293.7L152.3,293.7z" class="st2"/></g><g><linearGradient id="SVGID_3_" x1="199.36" x2="265.738" y1="282.175" y2="282.175" gradientUnits="userSpaceOnUse"><stop offset="0" style="stop-color:#7f00ff"/><stop offset=".489" style="stop-color:#7d00ff"/><stop offset=".665" style="stop-color:#7600ff"/><stop offset=".79" style="stop-color:#6b00ff"/><stop offset=".892" style="stop-color:#5a00ff"/><stop offset=".978" style="stop-color:#40f"/><stop offset="1" style="stop-color:#3d00ff"/></linearGradient><polygon points="199.4 275 220 263 265.7 289.4 245.2 301.4" class="st3"/><linearGradient id="SVGID_4_" x1="245.139" x2="288.656" y1="301.995" y2="301.995" gradientUnits="userSpaceOnUse"><stop offset="0" style="stop-color:#3f00fc"/><stop offset=".208" style="stop-color:#3f02f7"/><stop offset=".467" style="stop-color:#3e09e7"/><stop offset=".753" style="stop-color:#3e14ce"/><stop offset="1" style="stop-color:#3d20b2"/></linearGradient><polygon points="288.7 302.6 265.7 289.4 245.1 301.4 268 314.6" class="st4"/><linearGradient id="SVGID_5_" x1="237.13" x2="252.631" y1="264.841" y2="322.689" gradientUnits="userSpaceOnUse"><stop offset="0" style="stop-color:#851cb7"/><stop offset="1" style="stop-color:#3d20b7"/></linearGradient><polygon points="199.4 275 199.4 278.5 267.9 318.6 288.7 306.5 288.7 302.6 268 314.6" class="st5"/><linearGradient id="SVGID_6_" x1="229.379" x2="259.68" y1="261.224" y2="261.224" gradientUnits="userSpaceOnUse"><stop offset="0" style="stop-color:#3f00fc"/><stop offset=".208" style="stop-color:#3f02f7"/><stop offset=".467" style="stop-color:#3e09e7"/><stop offset=".753" style="stop-color:#3e14ce"/><stop offset="1" style="stop-color:#3d20b2"/></linearGradient><polygon points="229.4 264 232.3 255.8 257.9 240.9 259.7 281.5" class="st6"/><linearGradient id="SVGID_7_" x1="264.542" x2="326.467" y1="283.204" y2="283.204" gradientUnits="userSpaceOnUse"><stop offset="0" style="stop-color:#7f00ff"/><stop offset=".222" style="stop-color:#7a00ff"/><stop offset=".5" style="stop-color:#6a00ff"/><stop offset=".806" style="stop-color:#5100ff"/><stop offset="1" style="stop-color:#3d00ff"/></linearGradient><polygon points="264.5 284.3 264.6 266 326.5 280.6 292.4 300.4" class="st7"/><polygon points="264.5 284.3 292.4 300.4 326.5 280.6 326.5 284.3 292.4 304.8 264.5 288.7" class="st8"/><polygon points="229.4 264 229.4 268.4 259.6 285.9 259.7 281.5" class="st8"/><linearGradient id="SVGID_8_" x1="276.995" x2="279.599" y1="305.744" y2="315.463" gradientUnits="userSpaceOnUse"><stop offset="0" style="stop-color:#3f00fc"/><stop offset=".12" style="stop-color:#3d01f7"/><stop offset=".27" style="stop-color:#3804e7"/><stop offset=".436" style="stop-color:#2f08ce"/><stop offset=".614" style="stop-color:#230eaa"/><stop offset=".8" style="stop-color:#14167c"/><stop offset=".992" style="stop-color:#012045"/><stop offset="1" style="stop-color:#002043"/></linearGradient><polygon points="268 314.6 267.9 318.6 288.7 306.5 288.7 302.6" class="st9"/><linearGradient id="SVGID_9_" x1="307.548" x2="311.311" y1="285.653" y2="299.696" gradientUnits="userSpaceOnUse"><stop offset="0" style="stop-color:#3f00fc"/><stop offset=".12" style="stop-color:#3d01f7"/><stop offset=".27" style="stop-color:#3804e7"/><stop offset=".436" style="stop-color:#2f08ce"/><stop offset=".614" style="stop-color:#230eaa"/><stop offset=".8" style="stop-color:#14167c"/><stop offset=".992" style="stop-color:#012045"/><stop offset="1" style="stop-color:#002043"/></linearGradient><polygon points="292.4 300.4 292.4 304.8 326.5 284.3 326.5 280.6" class="st10"/></g></g><g><g><linearGradient id="SVGID_10_" x1="119.12" x2="329.462" y1="241.184" y2="241.184" gradientUnits="userSpaceOnUse"><stop offset="0" style="stop-color:#4f3e90"/><stop offset="1" style="stop-color:#171a31"/></linearGradient><path d="M120.7,233.6c0,0-4.1,2,0.7,7.2s103.4,59.5,103.4,59.5s8.1,4.3,14.2,0l89.9-52.7c0,0,2.3-3.4-2.5-5.9 L223.1,182c0,0-5.2-4.1-12.2,0S120.7,233.6,120.7,233.6z" class="st11"/><linearGradient id="SVGID_11_" x1="119.12" x2="329.508" y1="275.446" y2="275.446" gradientUnits="userSpaceOnUse"><stop offset="0" style="stop-color:#463780"/><stop offset=".143" style="stop-color:#382e68"/><stop offset=".331" style="stop-color:#292550"/><stop offset=".529" style="stop-color:#1f1f3f"/><stop offset=".743" style="stop-color:#191b34"/><stop offset="1" style="stop-color:#171a31"/></linearGradient><path d="M119.1,248.4v-12.3c0,0-0.1,3.3,3.6,5.8s28.7,17.3,28.7,17.3l37.4,21.1l35.5,19.7c0,0,7.9,4.4,14.3,0.6 c6.4-3.8,90.4-53,90.4-53s0.8-1.1,0.5-2.9l0,13.3c0,1.2-0.6,2.2-1.6,2.8l-88.1,51.4c0,0-8.9,6.6-17.7-1.5l-101.2-59.2 C119.8,250.8,119.1,249.7,119.1,248.4L119.1,248.4z" class="st12"/></g><g><linearGradient id="SVGID_12_" x1="166.173" x2="232.552" y1="236.948" y2="236.948" gradientUnits="userSpaceOnUse"><stop offset="0" style="stop-color:#7f00ff"/><stop offset=".489" style="stop-color:#7d00ff"/><stop offset=".665" style="stop-color:#7600ff"/><stop offset=".79" style="stop-color:#6b00ff"/><stop offset=".892" style="stop-color:#5a00ff"/><stop offset=".978" style="stop-color:#40f"/><stop offset="1" style="stop-color:#3d00ff"/></linearGradient><polygon points="166.2 229.7 186.8 217.7 232.6 244.2 212 256.2" class="st13"/><linearGradient id="SVGID_13_" x1="211.952" x2="255.469" y1="256.769" y2="256.769" gradientUnits="userSpaceOnUse"><stop offset="0" style="stop-color:#3f00fc"/><stop offset=".208" style="stop-color:#3f02f7"/><stop offset=".467" style="stop-color:#3e09e7"/><stop offset=".753" style="stop-color:#3e14ce"/><stop offset="1" style="stop-color:#3d20b2"/></linearGradient><polygon points="255.5 257.4 232.5 244.2 212 256.2 234.8 269.4" class="st14"/><linearGradient id="SVGID_14_" x1="203.944" x2="219.444" y1="219.614" y2="277.462" gradientUnits="userSpaceOnUse"><stop offset="0" style="stop-color:#851cb7"/><stop offset="1" style="stop-color:#3d20b7"/></linearGradient><polygon points="166.2 229.7 166.2 233.3 234.8 273.4 255.5 261.3 255.5 257.4 234.8 269.4" class="st15"/><linearGradient id="SVGID_15_" x1="196.193" x2="226.494" y1="215.997" y2="215.997" gradientUnits="userSpaceOnUse"><stop offset="0" style="stop-color:#3f00fc"/><stop offset=".208" style="stop-color:#3f02f7"/><stop offset=".467" style="stop-color:#3e09e7"/><stop offset=".753" style="stop-color:#3e14ce"/><stop offset="1" style="stop-color:#3d20b2"/></linearGradient><polygon points="196.2 218.8 199.2 210.5 224.7 195.7 226.5 236.3" class="st16"/><linearGradient id="SVGID_16_" x1="231.356" x2="293.281" y1="237.977" y2="237.977" gradientUnits="userSpaceOnUse"><stop offset="0" style="stop-color:#7f00ff"/><stop offset=".222" style="stop-color:#7a00ff"/><stop offset=".5" style="stop-color:#6a00ff"/><stop offset=".806" style="stop-color:#5100ff"/><stop offset="1" style="stop-color:#3d00ff"/></linearGradient><polygon points="231.4 239.1 231.5 220.7 293.3 235.4 259.2 255.2" class="st17"/><polygon points="231.4 239.1 259.2 255.2 293.3 235.4 293.3 239.1 259.2 259.5 231.4 243.5" class="st8"/><polygon points="196.2 218.8 196.2 223.2 226.4 240.6 226.5 236.3" class="st8"/><linearGradient id="SVGID_17_" x1="243.809" x2="246.413" y1="260.517" y2="270.236" gradientUnits="userSpaceOnUse"><stop offset="0" style="stop-color:#3f00fc"/><stop offset=".12" style="stop-color:#3d01f7"/><stop offset=".27" style="stop-color:#3804e7"/><stop offset=".436" style="stop-color:#2f08ce"/><stop offset=".614" style="stop-color:#230eaa"/><stop offset=".8" style="stop-color:#14167c"/><stop offset=".992" style="stop-color:#012045"/><stop offset="1" style="stop-color:#002043"/></linearGradient><polygon points="234.8 269.4 234.8 273.4 255.5 261.3 255.5 257.4" class="st18"/><linearGradient id="SVGID_18_" x1="274.362" x2="278.125" y1="240.426" y2="254.469" gradientUnits="userSpaceOnUse"><stop offset="0" style="stop-color:#3f00fc"/><stop offset=".12" style="stop-color:#3d01f7"/><stop offset=".27" style="stop-color:#3804e7"/><stop offset=".436" style="stop-color:#2f08ce"/><stop offset=".614" style="stop-color:#230eaa"/><stop offset=".8" style="stop-color:#14167c"/><stop offset=".992" style="stop-color:#012045"/><stop offset="1" style="stop-color:#002043"/></linearGradient><polygon points="259.2 255.2 259.2 259.5 293.3 239.1 293.3 235.4" class="st19"/></g></g><g><g><linearGradient id="SVGID_19_" x1="90.998" x2="301.341" y1="191.873" y2="191.873" gradientUnits="userSpaceOnUse"><stop offset="0" style="stop-color:#4f3e90"/><stop offset="1" style="stop-color:#171a31"/></linearGradient><path d="M92.6,184.3c0,0-4.1,2,0.7,7.2S196.7,251,196.7,251s8.1,4.3,14.2,0l89.9-52.7c0,0,2.3-3.4-2.5-5.9 L195,132.7c0,0-5.2-4.1-12.2,0C175.8,136.7,92.6,184.3,92.6,184.3z" class="st20"/><linearGradient id="SVGID_20_" x1="90.998" x2="301.387" y1="226.134" y2="226.134" gradientUnits="userSpaceOnUse"><stop offset="0" style="stop-color:#463780"/><stop offset=".143" style="stop-color:#382e68"/><stop offset=".331" style="stop-color:#292550"/><stop offset=".529" style="stop-color:#1f1f3f"/><stop offset=".743" style="stop-color:#191b34"/><stop offset="1" style="stop-color:#171a31"/></linearGradient><path d="M91,199.1v-12.3c0,0-0.1,3.3,3.6,5.8c3.7,2.5,28.7,17.3,28.7,17.3l37.4,21.1l35.5,19.7 c0,0,7.9,4.4,14.3,0.6c6.4-3.8,90.4-53,90.4-53s0.8-1.1,0.5-2.9l0,13.3c0,1.2-0.6,2.2-1.6,2.8l-88.1,51.4c0,0-8.9,6.6-17.7-1.5 L92.7,202.2C91.7,201.5,91,200.4,91,199.1L91,199.1z" class="st21"/></g><g><linearGradient id="SVGID_21_" x1="138.052" x2="204.431" y1="187.637" y2="187.637" gradientUnits="userSpaceOnUse"><stop offset="0" style="stop-color:#7f00ff"/><stop offset=".489" style="stop-color:#7d00ff"/><stop offset=".665" style="stop-color:#7600ff"/><stop offset=".79" style="stop-color:#6b00ff"/><stop offset=".892" style="stop-color:#5a00ff"/><stop offset=".978" style="stop-color:#40f"/><stop offset="1" style="stop-color:#3d00ff"/></linearGradient><polygon points="138.1 180.4 158.7 168.4 204.4 194.8 183.9 206.8" class="st22"/><linearGradient id="SVGID_22_" x1="183.831" x2="227.348" y1="207.457" y2="207.457" gradientUnits="userSpaceOnUse"><stop offset="0" style="stop-color:#3f00fc"/><stop offset=".208" style="stop-color:#3f02f7"/><stop offset=".467" style="stop-color:#3e09e7"/><stop offset=".753" style="stop-color:#3e14ce"/><stop offset="1" style="stop-color:#3d20b2"/></linearGradient><polygon points="227.3 208.1 204.4 194.9 183.8 206.8 206.7 220.1" class="st23"/><linearGradient id="SVGID_23_" x1="175.823" x2="191.323" y1="170.303" y2="228.151" gradientUnits="userSpaceOnUse"><stop offset="0" style="stop-color:#851cb7"/><stop offset="1" style="stop-color:#3d20b7"/></linearGradient><polygon points="138.1 180.4 138.1 184 206.6 224 227.4 212 227.4 208.1 206.7 220.1" class="st24"/><linearGradient id="SVGID_24_" x1="168.071" x2="198.373" y1="166.685" y2="166.685" gradientUnits="userSpaceOnUse"><stop offset="0" style="stop-color:#3f00fc"/><stop offset=".208" style="stop-color:#3f02f7"/><stop offset=".467" style="stop-color:#3e09e7"/><stop offset=".753" style="stop-color:#3e14ce"/><stop offset="1" style="stop-color:#3d20b2"/></linearGradient><polygon points="168.1 169.5 171 161.2 196.5 146.4 198.4 187" class="st25"/><linearGradient id="SVGID_25_" x1="203.235" x2="265.159" y1="188.666" y2="188.666" gradientUnits="userSpaceOnUse"><stop offset="0" style="stop-color:#7f00ff"/><stop offset=".222" style="stop-color:#7a00ff"/><stop offset=".5" style="stop-color:#6a00ff"/><stop offset=".806" style="stop-color:#5100ff"/><stop offset="1" style="stop-color:#3d00ff"/></linearGradient><polygon points="203.2 189.8 203.3 171.4 265.2 186 231.1 205.9" class="st26"/><polygon points="203.2 189.8 231.1 205.9 265.2 186 265.2 189.8 231.1 210.2 203.2 194.2" class="st8"/><polygon points="168.1 169.5 168.1 173.9 198.3 191.3 198.4 187" class="st8"/><linearGradient id="SVGID_26_" x1="215.688" x2="218.292" y1="211.206" y2="220.924" gradientUnits="userSpaceOnUse"><stop offset="0" style="stop-color:#3f00fc"/><stop offset=".12" style="stop-color:#3d01f7"/><stop offset=".27" style="stop-color:#3804e7"/><stop offset=".436" style="stop-color:#2f08ce"/><stop offset=".614" style="stop-color:#230eaa"/><stop offset=".8" style="stop-color:#14167c"/><stop offset=".992" style="stop-color:#012045"/><stop offset="1" style="stop-color:#002043"/></linearGradient><polygon points="206.7 220.1 206.6 224 227.4 212 227.3 208.1" class="st27"/><linearGradient id="SVGID_27_" x1="246.241" x2="250.004" y1="191.115" y2="205.158" gradientUnits="userSpaceOnUse"><stop offset="0" style="stop-color:#3f00fc"/><stop offset=".12" style="stop-color:#3d01f7"/><stop offset=".27" style="stop-color:#3804e7"/><stop offset=".436" style="stop-color:#2f08ce"/><stop offset=".614" style="stop-color:#230eaa"/><stop offset=".8" style="stop-color:#14167c"/><stop offset=".992" style="stop-color:#012045"/><stop offset="1" style="stop-color:#002043"/></linearGradient><polygon points="231.1 205.9 231.1 210.2 265.2 189.8 265.2 186" class="st28"/></g></g></g></g><linearGradient id="SVGID_28_" x1="197.769" x2="197.769" y1="451.297" y2="451.297" gradientUnits="userSpaceOnUse"><stop offset="0" style="stop-color:#3f00fc"/><stop offset=".208" style="stop-color:#3f02f7"/><stop offset=".467" style="stop-color:#3e09e7"/><stop offset=".753" style="stop-color:#3e14ce"/><stop offset="1" style="stop-color:#3d20b2"/></linearGradient><path d="M197.8,451.3" class="st29"/></svg>