<svg xmlns="http://www.w3.org/2000/svg" xmlns:xlink="http://www.w3.org/1999/xlink" style="enable-background:new 0 0 3096 3096" id="Calque_1" x="0" y="0" version="1.1" viewBox="0 0 3096 3096" xml:space="preserve"><style type="text/css">.st0{stroke:url(#SVGID_1_)}.st0,.st1,.st2,.st3,.st4,.st5,.st6{fill:none;stroke-width:30;stroke-miterlimit:10}.st1{stroke:url(#SVGID_2_)}.st2{stroke:url(#SVGID_3_)}.st3{stroke:url(#SVGID_4_)}.st4{stroke:url(#SVGID_5_)}.st5{stroke:url(#SVGID_6_)}.st6{stroke:url(#SVGID_7_)}</style><linearGradient id="SVGID_1_" x1="738.437" x2="2314.778" y1="1302.002" y2="1302.002" gradientUnits="userSpaceOnUse"><stop style="stop-color:#0f9" offset="0"/><stop style="stop-color:#3cf" offset="1"/></linearGradient><path d="M868.8,1048.8c0,0-78-816.1,606.1-840.1c0,0,651.1-111,720.1,669.1c0,0,10.9,174.2,0,214.2c0,0,83.1-66,95.1-24	c0,0,22,72,0,112s-22,250-22,250s-16,120-62,118s-36-2-46-2s10.9,240.9-76.1,354.9c0,0-58.6,48.4-65.2,84.4	c0,0-51.6,110.7-84.6,134.7c-33,24-40.5,214.5-120,246c-79.5,31.5-361.5,78-525-51c-163.5-129-211.5-208.5-211.5-208.5	s-19.5-108-33-136.5c-13.5-28.5-112.5-142.5-126-175.5c-13.5-33-31.5-175.5-27-202.5c0,0-48.6,0.9-56.6-57.1s-54-130-54-130	l-26.2-131.2c0,0-3-78,0-141C757.8,1069.8,739.6,1009.6,868.8,1048.8z" class="st0"/><linearGradient id="SVGID_2_" x1="1168.147" x2="1917.633" y1="1899.197" y2="1899.197" gradientUnits="userSpaceOnUse"><stop style="stop-color:#0f9" offset="0"/><stop style="stop-color:#3cf" offset="1"/></linearGradient><path d="M1189.8,1708.9c0,0,453.7,81.1,708.1,18c0,0,33,228-75,318c-108,90-57-87-174-117c-117-30-201,9-201,9	s-66,44.5-63,133.3c3,88.7-180-117-195-180.7S1189.8,1708.9,1189.8,1708.9z" class="st1"/><linearGradient id="SVGID_3_" x1="1090.164" x2="2004.429" y1="1980.542" y2="1980.542" gradientUnits="userSpaceOnUse"><stop style="stop-color:#0f9" offset="0"/><stop style="stop-color:#3cf" offset="1"/></linearGradient><path d="M1959,2092.1c16.9-26.1,7.9-311.2,25.9-362.2c18-51-21-105.7-57-114.3c-36-8.7-120,24.3-189-14.7	c-69-39-177-45-240-39c-63,6-147,69-168,69c-21,0-117-15-117-15s-132-12-105,111s-27,192,12,267c39,75,128.1,288.5,128.1,288.5	s220.2,221.5,596.6,59.5c0,0,45.3-76.6,60.9-156.3S1959,2092.1,1959,2092.1z" class="st2"/><linearGradient id="SVGID_4_" x1="1813.878" x2="2141.032" y1="2552.99" y2="2552.99" gradientUnits="userSpaceOnUse"><stop style="stop-color:#0f9" offset="0"/><stop style="stop-color:#3cf" offset="1"/></linearGradient><path d="M2006.3,2010.6c0,0,8.6,215.4,89.6,271.9s-27,392.5-27,392.5s-84,153-138,222s-102,161-102,199" class="st3"/><linearGradient id="SVGID_5_" x1="979.444" x2="1294.131" y1="2502.212" y2="2502.212" gradientUnits="userSpaceOnUse"><stop style="stop-color:#0f9" offset="0"/><stop style="stop-color:#3cf" offset="1"/></linearGradient><path d="M994.4,1900.5L1014,2240c0,0,12,112,0,184s40,102.6,40,129.3c0,26.7-8,94.7,0,130.7s110.3,92,129.1,132	c18.9,40,66.9,236,98.9,280" class="st4"/><linearGradient id="SVGID_6_" x1="2016.069" x2="3102.573" y1="2275.502" y2="2275.502" gradientUnits="userSpaceOnUse"><stop style="stop-color:#0f9" offset="0"/><stop style="stop-color:#3cf" offset="1"/></linearGradient><path d="M2018.7,1985.3c0,0,185.2,32.6,203.3,194.6c0,0,222,189.6,300,220.8c78,31.2,357,115.2,420,115.2s74,12,154,51" class="st5"/><linearGradient id="SVGID_7_" x1="-7.149" x2="1017.325" y1="2499.16" y2="2499.16" gradientUnits="userSpaceOnUse"><stop style="stop-color:#0f9" offset="0"/><stop style="stop-color:#3cf" offset="1"/></linearGradient><path d="M1010.9,2185.7c-13.1,6.2-157.1,126.2-157.1,198.3c0,72-165,99-288,144S0,2813,0,2813" class="st6"/></svg>