<svg xmlns="http://www.w3.org/2000/svg" xmlns:xlink="http://www.w3.org/1999/xlink" style="enable-background:new 1242 -1152 3096 3096" id="Calque_1" x="0" y="0" version="1.1" viewBox="1242 -1152 3096 3096" xml:space="preserve"><style type="text/css">.st0{stroke:url(#SVGID_1_)}.st0,.st1,.st2,.st3,.st4{fill:none;stroke-width:30;stroke-miterlimit:10}.st1{stroke:url(#SVGID_2_)}.st2{stroke:url(#SVGID_3_)}.st3{stroke:url(#SVGID_4_)}.st4{stroke:url(#SVGID_5_)}</style><linearGradient id="SVGID_1_" x1="1980.571" x2="3493.246" y1="1083.535" y2="1083.535" gradientTransform="matrix(1 0 0 -1 0 792)" gradientUnits="userSpaceOnUse"><stop style="stop-color:#0f9" offset="0"/><stop style="stop-color:#3cf" offset="1"/></linearGradient><path d="M2068,64c0,0-4-16,0-72s-100-40-32-428l-40.4-61.4c0,0-6-108,154.5-237s125.7-175.9,125.7-175.9s138-48,225-42	c0,0,87-87,237-87s255,90,255,90s234,72,294,177c0,0,69.1,84.3,71.1,140.3s10,96,24,108s70,82,70,128s26,378,26,378	s-68.1,106.8-80.1,145.8s-30,195-30,195s-54-615.1-99-711.1s-54-174-213-186s-435,30-543.1,3c-108-27-99-42-99-42s-192,120-213,192	s-87,63-87,63s-36,201,0,261s24,249,24,249L2068,64z" class="st0"/><linearGradient id="SVGID_2_" x1="2060.578" x2="2193.35" y1="496.82" y2="496.82" gradientTransform="matrix(1 0 0 -1 0 792)" gradientUnits="userSpaceOnUse"><stop style="stop-color:#0f9" offset="0"/><stop style="stop-color:#3cf" offset="1"/></linearGradient><path d="M2192.5,502c0,0-70.5,4-94.5-164s-22.4-264.4-22.4-264.4" class="st1"/><linearGradient id="SVGID_3_" x1="2122.883" x2="3557.767" y1="227.668" y2="227.668" gradientTransform="matrix(1 0 0 -1 0 792)" gradientUnits="userSpaceOnUse"><stop style="stop-color:#0f9" offset="0"/><stop style="stop-color:#3cf" offset="1"/></linearGradient><path d="M3478-18c0,0,79,57.6,62.5,152.1s-37.5,72-40.5,147s-43.5,177-75,187.5s-61.5,15-61.5,15s3,264-87,373.5	c0,0-78,70.5-135,94.5s-130.5,130.5-211.5,144c0,0-149,103.3-351.2,7.4c0,0-42-48-117-126s-141-87-216-219s-48-309.7-51-361.9	s-21-37.1-30-55.1s-27-189-27-189" class="st2"/><linearGradient id="SVGID_4_" x1="2394.233" x2="4346.264" y1="-565.723" y2="-565.723" gradientTransform="matrix(1 0 0 -1 0 792)" gradientUnits="userSpaceOnUse"><stop style="stop-color:#0f9" offset="0"/><stop style="stop-color:#3cf" offset="1"/></linearGradient><path d="M4338,1782c0,0-406-268-542-320c0,0-76-34-128-80s-152-140-280-184c0,0,10-0.6,0-54.3s-67.7-241.1-120.9-278.4	c0,0-0.8,13.5-2.2,34.6c-4.4,68.4-14.3,216.5-18.9,243.8c-6,35.7-134,244.3-194,284.3s-102,192-102,192s40,22,48,40	s-220,238-208,198s-106-160-106-160s-82-34-92-142s-76-152-140-286s-37.2-335.5-37.2-335.5" class="st3"/><linearGradient id="SVGID_5_" x1="1238.053" x2="2413.573" y1="-490.733" y2="-490.733" gradientTransform="matrix(1 0 0 -1 0 792)" gradientUnits="userSpaceOnUse"><stop style="stop-color:#0f9" offset="0"/><stop style="stop-color:#3cf" offset="1"/></linearGradient><path d="M2399.7,922.7c0,0-51.9,126.2-102.9,186.2S2253,1175,2253,1175s-17-47-134,18s-357,205-393,207s-162,28-208,76	s-172,74-202,110s-74,48-74,48" class="st4"/></svg>