<svg xmlns="http://www.w3.org/2000/svg" xmlns:xlink="http://www.w3.org/1999/xlink" style="enable-background:new 0 0 3096 3096" id="Calque_1" x="0" y="0" version="1.1" viewBox="0 0 3096 3096" xml:space="preserve"><style type="text/css">.st0{stroke:url(#SVGID_1_)}.st0,.st1,.st2,.st3,.st4,.st5{fill:none;stroke-width:30;stroke-miterlimit:10}.st1{stroke:url(#SVGID_2_)}.st2{stroke:url(#SVGID_3_)}.st3{stroke:url(#SVGID_4_)}.st4{stroke:url(#SVGID_5_)}.st5{stroke:url(#SVGID_6_)}.st10,.st11,.st12,.st13,.st14{fill:none;stroke-width:30;stroke-miterlimit:10}.st6{stroke:url(#SVGID_7_)}.st6,.st7,.st8,.st9{fill:none;stroke-width:30;stroke-miterlimit:10}.st7{stroke:url(#SVGID_8_)}.st8{stroke:url(#SVGID_9_)}.st9{stroke:url(#SVGID_10_)}.st10{stroke:url(#SVGID_11_)}.st11{stroke:url(#SVGID_12_)}.st12{stroke:url(#SVGID_13_)}.st13{stroke:url(#SVGID_14_)}.st14{stroke:url(#SVGID_15_)}</style><linearGradient id="SVGID_1_" x1="700.745" x2="2437.453" y1="1253.739" y2="1253.739" gradientUnits="userSpaceOnUse"><stop style="stop-color:#0f9" offset="0"/><stop style="stop-color:#3cf" offset="1"/></linearGradient><path d="M2215.4,1393.2c0,0,5.5,9.1-23.4,36.8s-32,114-52,230s-76,204-80,210c0,0-82,92-156,132s-194,158-194,158	s-114,70-352,0c0,0-124-42-202-156s-118-56-226-236s-60-270-60-270l4-20c0,0-44,50-114-14s-36-168.9-36-168.9s8-109.1,10-129.1	s-18-70,58-80s74,90,74,90l22,154c0,0,16-354,28-386s240.8-168.2,249.8-393.2c0,0-36-126,369-222c0,0-25.2,24,66.9,51	s398.1,84,452.1,297s-42,375,96,606.1c14.6,24.4,27.8,46.8,39.9,67.3c102.5,173.3,126.7,214.2,242.1,259.8" class="st0"/><linearGradient id="SVGID_2_" x1="803.507" x2="803.507" y1="1515.572" y2="1515.572" gradientUnits="userSpaceOnUse"><stop style="stop-color:#0f9" offset="0"/><stop style="stop-color:#3cf" offset="1"/></linearGradient><path d="M803.5,1515.6" class="st1"/><linearGradient id="SVGID_3_" x1="793.108" x2="793.108" y1="1761.707" y2="1761.707" gradientUnits="userSpaceOnUse"><stop style="stop-color:#0f9" offset="0"/><stop style="stop-color:#3cf" offset="1"/></linearGradient><path d="M793.1,1761.7" class="st2"/><linearGradient id="SVGID_4_" x1="918.607" x2="918.607" y1="2223.537" y2="2223.537" gradientUnits="userSpaceOnUse"><stop style="stop-color:#0f9" offset="0"/><stop style="stop-color:#3cf" offset="1"/></linearGradient><path d="M918.6,2223.5" class="st3"/><linearGradient id="SVGID_5_" x1="282.438" x2="957.36" y1="2309.994" y2="2309.994" gradientUnits="userSpaceOnUse"><stop style="stop-color:#0f9" offset="0"/><stop style="stop-color:#3cf" offset="1"/></linearGradient><path d="M368.2,1954.8c0,0-268.6,527.8,240.5,690c0,0,80.4,12.2,168.9,12.2s112.5-12.2,112.5-12.2	S736.8,2471,778.8,2266.9c0,0,23.9-184,171.1-269" class="st4"/><linearGradient id="SVGID_6_" x1="2303.923" x2="2303.923" y1="2576.957" y2="2576.957" gradientUnits="userSpaceOnUse"><stop style="stop-color:#0f9" offset="0"/><stop style="stop-color:#3cf" offset="1"/></linearGradient><path d="M2303.9,2577" class="st5"/><linearGradient id="SVGID_7_" x1="2303.923" x2="2303.923" y1="2576.957" y2="2576.957" gradientUnits="userSpaceOnUse"><stop style="stop-color:#0f9" offset="0"/><stop style="stop-color:#3cf" offset="1"/></linearGradient><path d="M2303.9,2577" class="st6"/><linearGradient id="SVGID_8_" x1="326.896" x2="2817.55" y1="1409.268" y2="1409.268" gradientUnits="userSpaceOnUse"><stop style="stop-color:#0f9" offset="0"/><stop style="stop-color:#3cf" offset="1"/></linearGradient><path d="M368.2,1954.8c-2.2-8.8-4.4-17.7-6.5-26.9c-84-363,126-625.9,126-625.9S558,1180,622,836s664-728,724-760	s227.9,30.7,227.9,30.7s135-78,243-36c108,42,397.1,181.3,669.1,781.3c0,0,102.1,272.4,234.1,518.3s66,610.2,66,610.2	s-27.8,591.5-463.9,771.5c0,0,9.7-116.1-18.2-175" class="st7"/><linearGradient id="SVGID_9_" x1="1812.403" x2="2323.061" y1="2317.617" y2="2317.617" gradientUnits="userSpaceOnUse"><stop style="stop-color:#0f9" offset="0"/><stop style="stop-color:#3cf" offset="1"/></linearGradient><path d="M2322.1,2578.3c-615.4-39.4-482.6-532.4-482.6-532.4" class="st8"/><linearGradient id="SVGID_10_" x1="903.607" x2="1194.103" y1="2471.344" y2="2471.344" gradientUnits="userSpaceOnUse"><stop style="stop-color:#0f9" offset="0"/><stop style="stop-color:#3cf" offset="1"/></linearGradient><path d="M979.4,1840.8c0,0-60.8,304.8-60.8,382.8c0,0,99.4,648.5,263.4,872.5" class="st9"/><linearGradient id="SVGID_11_" x1="1743.601" x2="1785.782" y1="2191.247" y2="2191.247" gradientUnits="userSpaceOnUse"><stop style="stop-color:#0f9" offset="0"/><stop style="stop-color:#3cf" offset="1"/></linearGradient><line x1="1770.8" x2="1758.6" y1="2103.5" y2="2279" class="st10"/><linearGradient id="SVGID_12_" x1="918.607" x2="918.607" y1="2180.039" y2="2180.039" gradientUnits="userSpaceOnUse"><stop style="stop-color:#0f9" offset="0"/><stop style="stop-color:#3cf" offset="1"/></linearGradient><path d="M918.6,2180" class="st11"/><linearGradient id="SVGID_13_" x1="1562.627" x2="1782.644" y1="2691.499" y2="2691.499" gradientUnits="userSpaceOnUse"><stop style="stop-color:#0f9" offset="0"/><stop style="stop-color:#3cf" offset="1"/></linearGradient><path d="M1758.6,2279c0,0,71.1,529-184.7,817" class="st12"/><linearGradient id="SVGID_14_" x1="-13.28" x2="380.471" y1="2566.916" y2="2566.916" gradientUnits="userSpaceOnUse"><stop style="stop-color:#0f9" offset="0"/><stop style="stop-color:#3cf" offset="1"/></linearGradient><path d="M376.4,2496.5c0,0-351,100.1-376.4,148.3" class="st13"/><linearGradient id="SVGID_15_" x1="2615.533" x2="3108.845" y1="2653.157" y2="2653.157" gradientUnits="userSpaceOnUse"><stop style="stop-color:#0f9" offset="0"/><stop style="stop-color:#3cf" offset="1"/></linearGradient><path d="M3096,2814c-76-126-187.7-189.2-187.7-189.2s-43.1-31-105.2-62.4c0,0-31.7-25.1-183.9-63.3" class="st14"/></svg>