<svg xmlns="http://www.w3.org/2000/svg" xmlns:xlink="http://www.w3.org/1999/xlink" style="enable-background:new 0 0 3096 3096" id="Calque_1" x="0" y="0" version="1.1" viewBox="0 0 3096 3096" xml:space="preserve"><style type="text/css">.st0{stroke:url(#SVGID_1_)}.st0,.st1,.st2,.st3,.st4,.st5{fill:none;stroke-width:30;stroke-miterlimit:10}.st1{stroke:url(#SVGID_2_)}.st2{stroke:url(#SVGID_3_)}.st3{stroke:url(#SVGID_4_)}.st4{stroke:url(#SVGID_5_)}.st5{stroke:url(#SVGID_6_)}</style><image width="250" height="250" transform="matrix(12.384 0 0 12.384 -4081.6326 0)" xlink:href="mike.jpg" style="overflow:visible"/><linearGradient id="SVGID_1_" x1="687.398" x2="2325.892" y1="788.18" y2="788.18" gradientUnits="userSpaceOnUse"><stop style="stop-color:#0f9" offset="0"/><stop style="stop-color:#3cf" offset="1"/></linearGradient><path d="M925.8,1444.8c0,0-18-186,0-234c18-48,5-119-8-134.5c-13-15.5,40.7-210.5,16.8-243.5s-2.8-222,75.2-255	c78-33,264-83.5,351-41.8c87,41.8,96,14.8,96,14.8s0-5.5,117-14.8s309,2.8,396,299.8c0,0,4.1,72.2,12.1,94.2s44,104,60,126	s82,292,72,344c0,0,92.9-57.2,77.9-228.2c0,0,48,9,78-141c30-150,51-249,36-324s-126-240-273-282s-258-174-258-174s-105-144-291-105	c0,0-189.8-59.7-271.8-6.7s-148,77-152,145c0,0-114-18-180,96c0,0-22,92-72,114s-74,52-74,114s-32,180-26,230s18,168,10,206	s-23.5,24-10.7,66s30.7,70,76.7,140s66,56,80,110S925.8,1444.8,925.8,1444.8z" class="st0"/><linearGradient id="SVGID_2_" x1="2063.759" x2="2246.047" y1="1428.939" y2="1428.939" gradientUnits="userSpaceOnUse"><stop style="stop-color:#0f9" offset="0"/><stop style="stop-color:#3cf" offset="1"/></linearGradient><path d="M2230.2,1144.3c0,0,9.8,228.6-35.2,318.6c-7.4,14.7-14.9,26.4-22.3,35.7c-30.3,37.6-59.1,34.5-69.6,31.7	c-2.2-0.6-4.4,0.9-4.6,3.2l-19.6,161.6c-0.5,4.1,5,5.8,7,2.2" class="st1"/><linearGradient id="SVGID_3_" x1="831.702" x2="2100.219" y1="1798.13" y2="1798.13" gradientUnits="userSpaceOnUse"><stop style="stop-color:#0f9" offset="0"/><stop style="stop-color:#3cf" offset="1"/></linearGradient><path d="M856.1,1337.3c0,0-29.3,97.9,15.7,210.7s78,64.9,78,64.9s15,144,117,267c102,123,117,144,117,144s75,75,105,123	c30,48,39,57,108,78c69,21,189,30,234,18c45-12,171-90,192-108s183.7-152.2,262.9-437.6" class="st2"/><linearGradient id="SVGID_4_" x1="1013.178" x2="2236.167" y1="2325.814" y2="2325.814" gradientUnits="userSpaceOnUse"><stop style="stop-color:#0f9" offset="0"/><stop style="stop-color:#3cf" offset="1"/></linearGradient><path d="M2031.9,1846.7c0,0,1,207.2,16,225.2c15,18,105,111,147,111s21,81,21,81s-234,435-384,498s-213,0-213,0	s-141-12-180,12s-477-118.9-402-454c0,0,69-12.3,93-71.7c24-59.4,10-279.7,10-279.7" class="st3"/><linearGradient id="SVGID_5_" x1="2147.467" x2="3104.321" y1="2355.185" y2="2355.185" gradientUnits="userSpaceOnUse"><stop style="stop-color:#0f9" offset="0"/><stop style="stop-color:#3cf" offset="1"/></linearGradient><path d="M2154.9,2136c0,0,91.1-52,135.1,0s228,148.3,364,192.2c136,43.8,180,35.8,260,119.8s182,152,182,152" class="st4"/><linearGradient id="SVGID_6_" x1="-14.552" x2="1140.993" y1="2596.713" y2="2596.713" gradientUnits="userSpaceOnUse"><stop style="stop-color:#0f9" offset="0"/><stop style="stop-color:#3cf" offset="1"/></linearGradient><path d="M0,2996c0,0,42-168,170-232s444-252,444-252s379.3-280.6,452-292s72.7-11.4,72.7-11.4" class="st5"/></svg>