<svg xmlns="http://www.w3.org/2000/svg" xmlns:xlink="http://www.w3.org/1999/xlink" style="enable-background:new 0 0 3096 3096" id="Calque_1" x="0" y="0" version="1.1" viewBox="0 0 3096 3096" xml:space="preserve"><style type="text/css">.st0{stroke:url(#SVGID_1_)}.st0,.st1,.st2,.st3,.st4,.st5,.st6,.st7,.st8{fill:none;stroke-width:30;stroke-miterlimit:10}.st1{stroke:url(#SVGID_2_)}.st2{stroke:url(#SVGID_3_)}.st3{stroke:url(#SVGID_4_)}.st4{stroke:url(#SVGID_5_)}.st5{stroke:url(#SVGID_6_)}.st6{stroke:url(#SVGID_7_)}.st7{stroke:url(#SVGID_8_)}.st8{stroke:url(#SVGID_9_)}</style><linearGradient id="SVGID_1_" x1="3.683" x2="2996.967" y1="1570.049" y2="1570.049" gradientUnits="userSpaceOnUse"><stop style="stop-color:#0f9" offset="0"/><stop style="stop-color:#3cf" offset="1"/></linearGradient><path d="M2982,2792c-4-60-192-540-192-540s-132-292-132-664s-148-804-156-856s-160-396-316-528S1734,48,1678,56	s-112,36-112,36s-104-72-192,12c0,0-556,260-672,956c0,0-184,630.6-136,957.3S270,2792,270,2792S38,3032,18,3096" class="st0"/><linearGradient id="SVGID_2_" x1="903.625" x2="2318.555" y1="1709.183" y2="1709.183" gradientUnits="userSpaceOnUse"><stop style="stop-color:#0f9" offset="0"/><stop style="stop-color:#3cf" offset="1"/></linearGradient><path d="M943.6,1076.3c0,0-33.6,461.4-21.6,398.6c12-62.9-64,263.8,156,542.5c0,0,82.1,164.2,163.1,219.7	s70.8,54.4,192.9,91c0,0,200,8,368-88s292-424,292-424l48-101.1l24.5-55.3c0,0,79.8,55.3,141.2-9.1" class="st1"/><linearGradient id="SVGID_3_" x1="560.619" x2="776.406" y1="2886.639" y2="2886.639" gradientUnits="userSpaceOnUse"><stop style="stop-color:#0f9" offset="0"/><stop style="stop-color:#3cf" offset="1"/></linearGradient><path d="M574,3096c0,0,103.1-203.5,188.5-420" class="st2"/><linearGradient id="SVGID_4_" x1="2090.595" x2="2182.819" y1="2040.887" y2="2040.887" gradientUnits="userSpaceOnUse"><stop style="stop-color:#0f9" offset="0"/><stop style="stop-color:#3cf" offset="1"/></linearGradient><path d="M2126.8,1746.9c0,0-69.9,432.5,44.1,581.3" class="st3"/><linearGradient id="SVGID_5_" x1="946.394" x2="1222.178" y1="2644.814" y2="2644.814" gradientUnits="userSpaceOnUse"><stop style="stop-color:#0f9" offset="0"/><stop style="stop-color:#3cf" offset="1"/></linearGradient><path d="M964.8,3096c0,0-14.1-391.9,15.1-548.8c4.3-23.3,9.6-41.4,16.1-52.3c49.8-84,160.9,40.3,160.9,40.3	s79.8-77.4,38.5-339.8" class="st4"/><linearGradient id="SVGID_6_" x1="755.435" x2="999.387" y1="2595.954" y2="2595.954" gradientUnits="userSpaceOnUse"><stop style="stop-color:#0f9" offset="0"/><stop style="stop-color:#3cf" offset="1"/></linearGradient><path d="M762.5,2676c0,0,148.2-78.4,225.9-163.2" class="st5"/><linearGradient id="SVGID_7_" x1="-10.636" x2="383.631" y1="2736.443" y2="2736.443" gradientUnits="userSpaceOnUse"><stop style="stop-color:#0f9" offset="0"/><stop style="stop-color:#3cf" offset="1"/></linearGradient><path d="M0,2855c0,0,241.3-242.7,382.5-232.3" class="st6"/><linearGradient id="SVGID_8_" x1="1616.462" x2="3103.459" y1="2694.56" y2="2694.56" gradientUnits="userSpaceOnUse"><stop style="stop-color:#0f9" offset="0"/><stop style="stop-color:#3cf" offset="1"/></linearGradient><path d="M3096,2855c0,0-146-83.7-270-116.3S2165,2320,2165,2320c15,92-243,356-243,356c-166,6-160,202-160,202	c-28,0-132,218-132,218" class="st7"/><linearGradient id="SVGID_9_" x1="860.567" x2="2325" y1="1453.635" y2="1453.635" gradientUnits="userSpaceOnUse"><stop style="stop-color:#0f9" offset="0"/><stop style="stop-color:#3cf" offset="1"/></linearGradient><path d="M2257,2385.1c0,0-3.9-31.1-3-65.1c2.5-88.1,56-272,56-548c0-230-25-404.4-33.3-456.2c-0.9-5.5-8.1-6.9-11-2.2	l-97,158.5c-3,4.9-10.6,2.2-9.8-3.5c8.1-56.2,18.8-193.4-32.9-360.6c-68-220-196-260-196-260c-216-92-464-312-464-312	c-276,32-592,668-592,668" class="st8"/></svg>