<svg xmlns="http://www.w3.org/2000/svg" xmlns:xlink="http://www.w3.org/1999/xlink" style="enable-background:new -44 -146 612 792" id="Capa_1" x="0" y="0" version="1.1" viewBox="-44 -146 612 792" xml:space="preserve"><style type="text/css">.st0{fill:url(#SVGID_1_);stroke:url(#SVGID_2_)}.st0,.st1,.st2,.st3{stroke-miterlimit:10}.st1{fill:url(#SVGID_3_);stroke:url(#SVGID_4_)}.st2{fill:url(#SVGID_5_);stroke:url(#SVGID_6_)}.st3{fill:url(#SVGID_7_);stroke:url(#SVGID_8_)}.st4{fill:url(#SVGID_9_)}.st5{fill:url(#SVGID_10_)}.st6{fill:url(#SVGID_11_)}.st7{fill:url(#SVGID_12_)}.st10,.st11{stroke-width:5}.st10,.st11,.st12,.st13,.st14,.st8,.st9{fill:none;stroke-miterlimit:10}.st8,.st9{stroke:url(#SVGID_13_);stroke-width:5}.st9{stroke:url(#SVGID_14_)}.st10{stroke:#fff}.st11{stroke:url(#SVGID_15_)}.st12{stroke:url(#SVGID_16_)}.st12,.st13,.st14{stroke-width:6}.st13{stroke:url(#SVGID_17_)}.st14{stroke:url(#SVGID_18_)}</style><g><linearGradient id="SVGID_1_" x1="111.196" x2="119.798" y1="-15895.748" y2="-15895.748" gradientTransform="matrix(1 0 0 -1 0 -15884)" gradientUnits="userSpaceOnUse"><stop style="stop-color:#3f00fc" offset="0"/><stop style="stop-color:#7f00ff" offset="1"/></linearGradient><linearGradient id="SVGID_2_" x1="110.696" x2="120.298" y1="-15895.748" y2="-15895.748" gradientTransform="matrix(1 0 0 -1 0 -15884)" gradientUnits="userSpaceOnUse"><stop style="stop-color:#3f00fc" offset="0"/><stop style="stop-color:#7f00ff" offset="1"/></linearGradient><circle cx="115.5" cy="11.7" r="4.3" class="st0"/><linearGradient id="SVGID_3_" x1="110.347" x2="118.949" y1="-15844.267" y2="-15844.267" gradientTransform="matrix(1 0 0 -1 0 -15884)" gradientUnits="userSpaceOnUse"><stop style="stop-color:#3f00fc" offset="0"/><stop style="stop-color:#7f00ff" offset="1"/></linearGradient><linearGradient id="SVGID_4_" x1="109.847" x2="119.449" y1="-15844.267" y2="-15844.267" gradientTransform="matrix(1 0 0 -1 0 -15884)" gradientUnits="userSpaceOnUse"><stop style="stop-color:#3f00fc" offset="0"/><stop style="stop-color:#7f00ff" offset="1"/></linearGradient><circle cx="114.6" cy="-39.7" r="4.3" class="st1"/><linearGradient id="SVGID_5_" x1="112.819" x2="121.421" y1="-15945.374" y2="-15945.374" gradientTransform="matrix(1 0 0 -1 0 -15884)" gradientUnits="userSpaceOnUse"><stop style="stop-color:#3f00fc" offset="0"/><stop style="stop-color:#7f00ff" offset="1"/></linearGradient><linearGradient id="SVGID_6_" x1="112.319" x2="121.921" y1="-15945.374" y2="-15945.374" gradientTransform="matrix(1 0 0 -1 0 -15884)" gradientUnits="userSpaceOnUse"><stop style="stop-color:#3f00fc" offset="0"/><stop style="stop-color:#7f00ff" offset="1"/></linearGradient><circle cx="117.1" cy="61.4" r="4.3" class="st2"/><linearGradient id="SVGID_7_" x1="114.536" x2="123.138" y1="-15996.301" y2="-15996.301" gradientTransform="matrix(1 0 0 -1 0 -15884)" gradientUnits="userSpaceOnUse"><stop style="stop-color:#3f00fc" offset="0"/><stop style="stop-color:#7f00ff" offset="1"/></linearGradient><linearGradient id="SVGID_8_" x1="114.036" x2="123.638" y1="-15996.301" y2="-15996.301" gradientTransform="matrix(1 0 0 -1 0 -15884)" gradientUnits="userSpaceOnUse"><stop style="stop-color:#3f00fc" offset="0"/><stop style="stop-color:#7f00ff" offset="1"/></linearGradient><circle cx="118.8" cy="112.3" r="4.3" class="st3"/></g><text style="font-family:'MyriadPro-Regular';font-size:12px" transform="matrix(1 0 0 1 -2955.5 -3477.5)">max-width: 600px;</text><text style="font-family:'MyriadPro-Regular';font-size:12px" transform="matrix(1 0 0 1 -2955.5 -3463.1001)">margin: 0 auto;</text><g><linearGradient id="SVGID_9_" x1="58.631" x2="67.233" y1="-15807.942" y2="-15807.942" gradientTransform="matrix(1 0 0 -1 0 -15884)" gradientUnits="userSpaceOnUse"><stop style="stop-color:#3f00fc" offset="0"/><stop style="stop-color:#7f00ff" offset="1"/></linearGradient><circle cx="62.9" cy="-76.1" r="4.3" class="st4"/><linearGradient id="SVGID_10_" x1="58.928" x2="67.529" y1="-15858.858" y2="-15858.858" gradientTransform="matrix(1 0 0 -1 0 -15884)" gradientUnits="userSpaceOnUse"><stop style="stop-color:#3f00fc" offset="0"/><stop style="stop-color:#7f00ff" offset="1"/></linearGradient><circle cx="63.2" cy="-25.1" r="4.3" class="st5"/><linearGradient id="SVGID_11_" x1="59.244" x2="67.845" y1="-15906.996" y2="-15906.996" gradientTransform="matrix(1 0 0 -1 0 -15884)" gradientUnits="userSpaceOnUse"><stop style="stop-color:#3f00fc" offset="0"/><stop style="stop-color:#7f00ff" offset="1"/></linearGradient><circle cx="63.5" cy="23" r="4.3" class="st6"/><linearGradient id="SVGID_12_" x1="60.35" x2="68.952" y1="-15959.522" y2="-15959.522" gradientTransform="matrix(1 0 0 -1 0 -15884)" gradientUnits="userSpaceOnUse"><stop style="stop-color:#3f00fc" offset="0"/><stop style="stop-color:#7f00ff" offset="1"/></linearGradient><circle cx="64.7" cy="75.5" r="4.3" class="st7"/></g><g><linearGradient id="SVGID_13_" x1="183.2" x2="339.3" y1="27.61" y2="27.61" gradientUnits="userSpaceOnUse"><stop style="stop-color:#3f00fc" offset="0"/><stop style="stop-color:#7f00ff" offset="1"/></linearGradient><polygon points="261.6 114.3 185.7 70.9 185.7 -17.5 261.6 -59.1 336.8 -16.3 336.8 70.9" class="st8"/><linearGradient id="SVGID_14_" x1="184.456" x2="336.651" y1="4.708" y2="4.708" gradientUnits="userSpaceOnUse"><stop style="stop-color:#3f00fc" offset="0"/><stop style="stop-color:#7f00ff" offset="1"/></linearGradient><polyline points="185.7 -17.5 261.9 26.2 335.4 -16.3" class="st9"/><polyline points="213 89.1 33.4 191.8 33.4 453.9 262.9 581.8 490 452 490 429" class="st10"/><polyline points="310 89.2 490 189.9 490 269.5 490 278.3 262.6 410.1 33.4 281.4" class="st10"/><polyline points="33.4 191.8 263.5 322.6 490 189.9" class="st10"/><polyline points="108.9 496 108.9 235.1 336.7 103.8" class="st10"/><polyline points="110.3 147.8 339 277.5 339.4 366 338.4 453" class="st10"/><polyline points="185.7 538.5 186.8 453.1 33.4 368.2" class="st10"/><polyline points="338.4 538.6 338.4 453 414.5 409.7 414.8 495.5" class="st10"/><linearGradient id="SVGID_15_" x1="184.958" x2="548.606" y1="273.042" y2="273.042" gradientUnits="userSpaceOnUse"><stop style="stop-color:#3f00fc" offset="0"/><stop style="stop-color:#7f00ff" offset="1"/></linearGradient><polyline points="544.3 310.4 470.8 352.1 417.4 321.1 490.6 278.9 545.3 309.2 546.1 397.6 470.1 441 415.1 410.3 414.5 234.1 186.2 104.4" class="st11"/><line x1="261.3" x2="262" y1="146.8" y2="234" class="st10"/><polyline points="186.8 453.1 186.1 366.8 186.1 278.1 413 146.8" class="st10"/><linearGradient id="SVGID_16_" x1="183.096" x2="342.42" y1="459.432" y2="459.432" gradientUnits="userSpaceOnUse"><stop style="stop-color:#3f00fc" offset="0"/><stop style="stop-color:#7f00ff" offset="1"/></linearGradient><polyline points="307.3 384.7 339.4 402.8 338.4 491 262.6 533.4 186.3 490 186.1 401.6 214.2 385.7 216.3 384.7" class="st12"/><linearGradient id="SVGID_17_" x1="184.616" x2="340.857" y1="423.867" y2="423.867" gradientUnits="userSpaceOnUse"><stop style="stop-color:#3f00fc" offset="0"/><stop style="stop-color:#7f00ff" offset="1"/></linearGradient><polyline points="186.1 401.6 262.9 445.3 339.4 402.8" class="st13"/><linearGradient id="SVGID_18_" x1="259.6" x2="265.9" y1="489.35" y2="489.35" gradientUnits="userSpaceOnUse"><stop style="stop-color:#3f00fc" offset="0"/><stop style="stop-color:#7f00ff" offset="1"/></linearGradient><line x1="262.6" x2="262.9" y1="533.4" y2="445.3" class="st14"/><polyline points="186.1 366.8 262.6 410.1 339.4 366" class="st10"/><polyline points="187.2 105.1 413.6 233.5 414.5 419.5" class="st10"/><polyline points="413 322.9 490.6 278.9 490 263" class="st10"/></g></svg>