<svg xmlns="http://www.w3.org/2000/svg" xmlns:xlink="http://www.w3.org/1999/xlink" style="enable-background:new 0 0 612 792" x="0" y="0" version="1.1" viewBox="0 0 612 792" xml:space="preserve"><style type="text/css">.st0{display:none}.st1{display:inline;fill:#3c019e}.st2{fill:#fff}.st3{fill:#00d1b2}.st4,.st5,.st6{fill:none;stroke-miterlimit:10}.st4{stroke:#fff;stroke-width:5}.st5{stroke:url(#SVGID_1_)}.st6{stroke:url(#SVGID_2_)}.st7{fill:#3c019e}.st8{fill:#03105b}.st9{fill:url(#SVGID_3_)}.st10,.st11{fill:none;stroke:url(#SVGID_4_);stroke-miterlimit:10}.st11{stroke:url(#SVGID_5_)}.st12{fill:url(#SVGID_6_)}.st13,.st14{fill:none;stroke:url(#SVGID_7_);stroke-miterlimit:10}.st14{stroke:url(#SVGID_8_)}.st15{fill:url(#SVGID_9_)}.st16,.st17,.st18{fill:none;stroke-miterlimit:10}.st16{stroke:#00d1b2;stroke-width:5}.st17{stroke:url(#SVGID_10_)}.st18{stroke:url(#SVGID_11_)}.st19{fill:url(#SVGID_12_)}.st20,.st21,.st22{fill:none;stroke-miterlimit:10}.st20{stroke:#fff;stroke-width:3}.st21{stroke:url(#SVGID_13_)}.st22{stroke:url(#SVGID_14_)}.st23{fill:url(#SVGID_15_)}.st24,.st25,.st26{fill:none;stroke-miterlimit:10}.st24{stroke:#00d1b2;stroke-width:3}.st25{stroke:url(#SVGID_16_)}.st26{stroke:url(#SVGID_17_)}.st27{fill:url(#SVGID_18_)}.st28,.st29{fill:none;stroke:url(#SVGID_19_);stroke-miterlimit:10}.st29{stroke:url(#SVGID_20_)}.st30{fill:url(#SVGID_21_)}.st31,.st32{fill:none;stroke:url(#SVGID_22_);stroke-miterlimit:10}.st32{stroke:url(#SVGID_23_)}.st33{fill:url(#SVGID_24_)}.st34,.st35{fill:none;stroke:url(#SVGID_25_);stroke-miterlimit:10}.st35{stroke:url(#SVGID_26_)}.st36{fill:url(#SVGID_27_)}.st37,.st38{fill:none;stroke:url(#SVGID_28_);stroke-miterlimit:10}.st38{stroke:url(#SVGID_29_)}.st39{fill:url(#SVGID_30_)}.st40,.st41{fill:none;stroke:url(#SVGID_31_);stroke-miterlimit:10}.st41{stroke:url(#SVGID_32_)}.st42{fill:url(#SVGID_33_)}.st43,.st44{fill:none;stroke:url(#SVGID_34_);stroke-miterlimit:10}.st44{stroke:url(#SVGID_35_)}.st45{fill:url(#SVGID_36_)}.st46,.st47{fill:none;stroke:url(#SVGID_37_);stroke-miterlimit:10}.st47{stroke:url(#SVGID_38_)}.st48{fill:url(#SVGID_39_)}.st49,.st50{fill:none;stroke:url(#SVGID_40_);stroke-miterlimit:10}.st50{stroke:url(#SVGID_41_)}.st51{fill:url(#SVGID_42_)}</style><g id="Calque_2" class="st0"><rect width="612" height="791.2" y=".8" class="st1"/></g><g id="Layer_01"><g><circle cx="57.9" cy="624.2" r="3.3" class="st2"/><circle cx="57.9" cy="582.8" r="3.3" class="st2"/><circle cx="56.7" cy="546.6" r="3.3" class="st2"/><circle cx="56.7" cy="505.3" r="3.3" class="st2"/><circle cx="56.7" cy="468.7" r="3.3" class="st2"/><circle cx="56.7" cy="428.4" r="3.3" class="st2"/><circle cx="56.7" cy="388.2" r="3.3" class="st2"/></g><g><circle cx="492.1" cy="444.6" r="3.3" class="st3"/><circle cx="492.1" cy="403.2" r="3.3" class="st3"/><circle cx="490.8" cy="367" r="3.3" class="st3"/><circle cx="490.8" cy="325.7" r="3.3" class="st3"/><circle cx="490.8" cy="289.1" r="3.3" class="st3"/><circle cx="490.8" cy="248.8" r="3.3" class="st3"/><circle cx="490.8" cy="208.6" r="3.3" class="st3"/></g><g><g><polygon points="461.5 624 461.5 554.2 521.4 521.4 580.7 554.2 580.7 624 521.4 658.3" class="st4"/><linearGradient id="SVGID_1_" x1="461.255" x2="521.894" y1="606.047" y2="606.047" gradientUnits="userSpaceOnUse"><stop style="stop-color:#66f" offset="0"/><stop style="stop-color:#897de4" offset="1"/></linearGradient><polyline points="521.4 658.3 521.4 588.5 461.5 554.2" class="st5"/><linearGradient id="SVGID_2_" x1="521.144" x2="580.994" y1="571.374" y2="571.374" gradientUnits="userSpaceOnUse"><stop style="stop-color:#66f" offset="0"/><stop style="stop-color:#897de4" offset="1"/></linearGradient><line x1="580.7" x2="521.4" y1="554.2" y2="588.5" class="st6"/></g><g><g><polygon points="463.1 623.5 463.1 555.2 521.6 523.1 579.7 555.2 579.7 623.5 521.6 657" class="st7"/><polyline points="521.6 657 521.6 588.8 463.1 555.2" class="st7"/><line x1="579.7" x2="521.6" y1="555.2" y2="588.8" class="st8"/></g><linearGradient id="SVGID_3_" x1="520.714" x2="523.043" y1="589.164" y2="589.164" gradientUnits="userSpaceOnUse"><stop style="stop-color:#66f" offset="0"/><stop style="stop-color:#897de4" offset="1"/></linearGradient><path d="M520.7,589.8l1.2-1.6l1.1,1.6C523,589.8,522.2,590.5,520.7,589.8z" class="st9"/><line x1="521.9" x2="463.3" y1="588.8" y2="555.2" class="st4"/><line x1="580" x2="521.9" y1="555.2" y2="588.8" class="st4"/></g></g><g><g><polygon points="461.5 540 461.5 470.3 521.4 437.5 580.7 470.3 580.7 540 521.4 574.3" class="st4"/><linearGradient id="SVGID_4_" x1="461.255" x2="521.894" y1="522.082" y2="522.082" gradientUnits="userSpaceOnUse"><stop style="stop-color:#66f" offset="0"/><stop style="stop-color:#897de4" offset="1"/></linearGradient><polyline points="521.4 574.3 521.4 504.5 461.5 470.3" class="st10"/><linearGradient id="SVGID_5_" x1="521.144" x2="580.994" y1="487.408" y2="487.408" gradientUnits="userSpaceOnUse"><stop style="stop-color:#66f" offset="0"/><stop style="stop-color:#897de4" offset="1"/></linearGradient><line x1="580.7" x2="521.4" y1="470.3" y2="504.5" class="st11"/></g><g><g><polygon points="463.1 539.5 463.1 471.3 521.6 439.2 579.7 471.3 579.7 539.5 521.6 573" class="st7"/><polyline points="521.6 573 521.6 504.8 463.1 471.3" class="st7"/><line x1="579.7" x2="521.6" y1="471.3" y2="504.8" class="st8"/></g><linearGradient id="SVGID_6_" x1="520.714" x2="523.043" y1="505.198" y2="505.198" gradientUnits="userSpaceOnUse"><stop style="stop-color:#66f" offset="0"/><stop style="stop-color:#897de4" offset="1"/></linearGradient><path d="M520.7,505.9l1.2-1.6l1.1,1.6C523,505.9,522.2,506.6,520.7,505.9z" class="st12"/><line x1="521.9" x2="463.3" y1="504.8" y2="471.3" class="st4"/><line x1="580" x2="521.9" y1="471.3" y2="504.8" class="st4"/></g></g><g><g><polygon points="461.5 456.5 461.5 386.7 521.4 353.9 580.7 386.7 580.7 456.5 521.4 490.7" class="st4"/><linearGradient id="SVGID_7_" x1="461.255" x2="521.894" y1="438.484" y2="438.484" gradientUnits="userSpaceOnUse"><stop style="stop-color:#66f" offset="0"/><stop style="stop-color:#897de4" offset="1"/></linearGradient><polyline points="521.4 490.7 521.4 420.9 461.5 386.7" class="st13"/><linearGradient id="SVGID_8_" x1="521.144" x2="580.994" y1="403.81" y2="403.81" gradientUnits="userSpaceOnUse"><stop style="stop-color:#66f" offset="0"/><stop style="stop-color:#897de4" offset="1"/></linearGradient><line x1="580.7" x2="521.4" y1="386.7" y2="420.9" class="st14"/></g><g><g><polygon points="463.1 455.9 463.1 387.7 521.6 355.6 579.7 387.7 579.7 455.9 521.6 489.4" class="st7"/><polyline points="521.6 489.4 521.6 421.2 463.1 387.7" class="st7"/><line x1="579.7" x2="521.6" y1="387.7" y2="421.2" class="st8"/></g><linearGradient id="SVGID_9_" x1="520.714" x2="523.043" y1="421.6" y2="421.6" gradientUnits="userSpaceOnUse"><stop style="stop-color:#66f" offset="0"/><stop style="stop-color:#897de4" offset="1"/></linearGradient><path d="M520.7,422.3l1.2-1.6l1.1,1.6C523,422.3,522.2,423,520.7,422.3z" class="st15"/><line x1="521.9" x2="463.3" y1="421.2" y2="387.7" class="st4"/><line x1="580" x2="521.9" y1="387.7" y2="421.2" class="st4"/></g></g><g><g><polygon points="461.5 371 461.5 301.3 521.4 268.5 580.7 301.3 580.7 371 521.4 405.3" class="st16"/><linearGradient id="SVGID_10_" x1="461.255" x2="521.894" y1="353.081" y2="353.081" gradientUnits="userSpaceOnUse"><stop style="stop-color:#66f" offset="0"/><stop style="stop-color:#897de4" offset="1"/></linearGradient><polyline points="521.4 405.3 521.4 335.5 461.5 301.3" class="st17"/><linearGradient id="SVGID_11_" x1="521.144" x2="580.994" y1="318.408" y2="318.408" gradientUnits="userSpaceOnUse"><stop style="stop-color:#66f" offset="0"/><stop style="stop-color:#897de4" offset="1"/></linearGradient><line x1="580.7" x2="521.4" y1="301.3" y2="335.5" class="st18"/></g><g><g><polygon points="463.1 370.5 463.1 302.3 521.6 270.2 579.7 302.3 579.7 370.5 521.6 404" class="st7"/><polyline points="521.6 404 521.6 335.8 463.1 302.3" class="st7"/><line x1="579.7" x2="521.6" y1="302.3" y2="335.8" class="st8"/></g><linearGradient id="SVGID_12_" x1="520.714" x2="523.043" y1="336.197" y2="336.197" gradientUnits="userSpaceOnUse"><stop style="stop-color:#66f" offset="0"/><stop style="stop-color:#897de4" offset="1"/></linearGradient><path d="M520.7,336.9l1.2-1.6l1.1,1.6C523,336.9,522.2,337.6,520.7,336.9z" class="st19"/><line x1="521.9" x2="463.3" y1="335.8" y2="302.3" class="st16"/><line x1="580" x2="521.9" y1="302.3" y2="335.8" class="st16"/></g></g><g><g><polygon points="461 174.9 461 139.2 491.6 122.4 521.9 139.2 521.9 174.9 491.6 192.4" class="st20"/><linearGradient id="SVGID_13_" x1="460.724" x2="492.088" y1="165.58" y2="165.58" gradientUnits="userSpaceOnUse"><stop style="stop-color:#66f" offset="0"/><stop style="stop-color:#897de4" offset="1"/></linearGradient><polyline points="491.6 192.4 491.6 156.7 461 139.2" class="st21"/><linearGradient id="SVGID_14_" x1="491.338" x2="522.176" y1="147.961" y2="147.961" gradientUnits="userSpaceOnUse"><stop style="stop-color:#66f" offset="0"/><stop style="stop-color:#897de4" offset="1"/></linearGradient><line x1="521.9" x2="491.6" y1="139.2" y2="156.7" class="st22"/></g><g><g><polygon points="461.8 174.6 461.8 139.7 491.7 123.3 521.4 139.7 521.4 174.6 491.7 191.7" class="st7"/><polyline points="491.7 191.7 491.7 156.8 461.8 139.7" class="st7"/><line x1="521.4" x2="491.7" y1="139.7" y2="156.8" class="st8"/></g><linearGradient id="SVGID_15_" x1="491.24" x2="492.43" y1="157.055" y2="157.055" gradientUnits="userSpaceOnUse"><stop style="stop-color:#66f" offset="0"/><stop style="stop-color:#897de4" offset="1"/></linearGradient><path d="M491.2,157.4l0.6-0.8l0.6,0.8C492.4,157.4,492,157.8,491.2,157.4z" class="st23"/><line x1="491.8" x2="461.9" y1="156.8" y2="139.7" class="st20"/><line x1="521.5" x2="491.9" y1="139.7" y2="156.8" class="st20"/></g></g><g><g><polygon points="26.2 389.5 26.2 353.8 56.8 337 87.2 353.8 87.2 389.5 56.8 407" class="st24"/><linearGradient id="SVGID_16_" x1="25.966" x2="57.329" y1="380.182" y2="380.182" gradientUnits="userSpaceOnUse"><stop style="stop-color:#66f" offset="0"/><stop style="stop-color:#897de4" offset="1"/></linearGradient><polyline points="56.8 407 56.8 371.3 26.2 353.8" class="st25"/><linearGradient id="SVGID_17_" x1="56.579" x2="87.418" y1="362.563" y2="362.563" gradientUnits="userSpaceOnUse"><stop style="stop-color:#66f" offset="0"/><stop style="stop-color:#897de4" offset="1"/></linearGradient><line x1="87.2" x2="56.8" y1="353.8" y2="371.3" class="st26"/></g><g><g><polygon points="27 389.2 27 354.3 57 337.9 86.6 354.3 86.6 389.2 57 406.3" class="st7"/><polyline points="57 406.3 57 371.4 27 354.3" class="st7"/><line x1="86.6" x2="57" y1="354.3" y2="371.4" class="st8"/></g><linearGradient id="SVGID_18_" x1="56.482" x2="57.672" y1="371.657" y2="371.657" gradientUnits="userSpaceOnUse"><stop style="stop-color:#66f" offset="0"/><stop style="stop-color:#897de4" offset="1"/></linearGradient><path d="M56.5,372l0.6-0.8l0.6,0.8C57.7,372,57.3,372.4,56.5,372z" class="st27"/><line x1="57.1" x2="27.1" y1="371.4" y2="354.3" class="st24"/><line x1="86.8" x2="57.1" y1="354.3" y2="371.4" class="st24"/></g></g><g><circle cx="407.7" cy="604.1" r="3.3" class="st3"/><circle cx="408.4" cy="564" r="3.3" class="st3"/><circle cx="407.7" cy="642.8" r="3.3" class="st3"/><circle cx="407.7" cy="682.5" r="3.3" class="st3"/><circle cx="407.7" cy="720" r="3.3" class="st3"/><circle cx="408.4" cy="761" r="3.3" class="st3"/></g><text transform="matrix(1 0 0 1 -2911.5 -3331.5)"><tspan style="font-family:'MyriadPro-Regular';font-size:12px" x="0" y="0">max-width: 600px;</tspan><tspan style="font-family:'MyriadPro-Regular';font-size:12px" x="0" y="14.4"> margin: 0 auto;</tspan></text><g><g><polygon points="208.5 579.3 208.5 478.7 294.8 431.4 380.3 478.7 380.3 579.3 294.8 628.7" class="st4"/><linearGradient id="SVGID_19_" x1="208.222" x2="295.293" y1="553.51" y2="553.51" gradientUnits="userSpaceOnUse"><stop style="stop-color:#66f" offset="0"/><stop style="stop-color:#897de4" offset="1"/></linearGradient><polyline points="294.8 628.7 294.8 528.1 208.5 478.7" class="st28"/><linearGradient id="SVGID_20_" x1="294.542" x2="380.583" y1="503.439" y2="503.439" gradientUnits="userSpaceOnUse"><stop style="stop-color:#66f" offset="0"/><stop style="stop-color:#897de4" offset="1"/></linearGradient><line x1="380.3" x2="294.8" y1="478.7" y2="528.1" class="st29"/></g><g><g><polygon points="210.7 578.5 210.7 480.2 295.1 433.9 378.8 480.2 378.8 578.5 295.1 626.9" class="st7"/><polyline points="295.1 626.9 295.1 528.5 210.7 480.2" class="st7"/><line x1="378.8" x2="295.1" y1="480.2" y2="528.5" class="st8"/></g><linearGradient id="SVGID_21_" x1="293.812" x2="297.168" y1="529.08" y2="529.08" gradientUnits="userSpaceOnUse"><stop style="stop-color:#66f" offset="0"/><stop style="stop-color:#897de4" offset="1"/></linearGradient><path d="M293.8,530l1.7-2.3l1.6,2.3C297.2,530,296,531.1,293.8,530z" class="st30"/><line x1="295.5" x2="211.1" y1="528.5" y2="480.2" class="st4"/><line x1="379.2" x2="295.5" y1="480.2" y2="528.5" class="st4"/></g></g><g><g><polygon points="322.1 571.9 322.1 471.4 408.4 424.1 494 471.4 494 571.9 408.4 621.3" class="st16"/><linearGradient id="SVGID_22_" x1="321.864" x2="408.934" y1="546.13" y2="546.13" gradientUnits="userSpaceOnUse"><stop style="stop-color:#66f" offset="0"/><stop style="stop-color:#897de4" offset="1"/></linearGradient><polyline points="408.4 621.3 408.4 520.8 322.1 471.4" class="st31"/><linearGradient id="SVGID_23_" x1="408.184" x2="494.225" y1="496.059" y2="496.059" gradientUnits="userSpaceOnUse"><stop style="stop-color:#66f" offset="0"/><stop style="stop-color:#897de4" offset="1"/></linearGradient><line x1="494" x2="408.4" y1="471.4" y2="520.8" class="st32"/></g><g><g><polygon points="324.4 571.2 324.4 472.8 408.8 426.5 492.5 472.8 492.5 571.2 408.8 619.5" class="st7"/><polyline points="408.8 619.5 408.8 521.1 324.4 472.8" class="st7"/><line x1="492.5" x2="408.8" y1="472.8" y2="521.1" class="st8"/></g><linearGradient id="SVGID_24_" x1="407.453" x2="410.81" y1="521.7" y2="521.7" gradientUnits="userSpaceOnUse"><stop style="stop-color:#66f" offset="0"/><stop style="stop-color:#897de4" offset="1"/></linearGradient><path d="M407.5,522.6l1.7-2.3l1.6,2.3C410.8,522.6,409.7,523.7,407.5,522.6z" class="st33"/><line x1="409.2" x2="324.7" y1="521.1" y2="472.8" class="st16"/><line x1="492.8" x2="409.2" y1="472.8" y2="521.1" class="st16"/></g></g><g><g><polygon points="208.5 337.8 208.5 237.2 294.8 189.9 380.3 237.2 380.3 337.8 294.8 387.2" class="st4"/><linearGradient id="SVGID_25_" x1="208.222" x2="295.293" y1="311.998" y2="311.998" gradientUnits="userSpaceOnUse"><stop style="stop-color:#66f" offset="0"/><stop style="stop-color:#897de4" offset="1"/></linearGradient><polyline points="294.8 387.2 294.8 286.6 208.5 237.2" class="st34"/><linearGradient id="SVGID_26_" x1="294.542" x2="380.583" y1="261.926" y2="261.926" gradientUnits="userSpaceOnUse"><stop style="stop-color:#66f" offset="0"/><stop style="stop-color:#897de4" offset="1"/></linearGradient><line x1="380.3" x2="294.8" y1="237.2" y2="286.6" class="st35"/></g><g><g><polygon points="210.7 337 210.7 238.6 295.1 192.4 378.8 238.6 378.8 337 295.1 385.4" class="st7"/><polyline points="295.1 385.4 295.1 287 210.7 238.6" class="st7"/><line x1="378.8" x2="295.1" y1="238.6" y2="287" class="st8"/></g><linearGradient id="SVGID_27_" x1="293.812" x2="297.168" y1="287.568" y2="287.568" gradientUnits="userSpaceOnUse"><stop style="stop-color:#66f" offset="0"/><stop style="stop-color:#897de4" offset="1"/></linearGradient><path d="M293.8,288.5l1.7-2.3l1.6,2.3C297.2,288.5,296,289.5,293.8,288.5z" class="st36"/><line x1="295.5" x2="211.1" y1="287" y2="238.6" class="st4"/><line x1="379.2" x2="295.5" y1="238.6" y2="287" class="st4"/></g></g><g><g><polygon points="208.5 214.7 208.5 114.1 294.8 66.8 380.3 114.1 380.3 214.7 294.8 264.1" class="st16"/><linearGradient id="SVGID_28_" x1="208.222" x2="295.293" y1="188.905" y2="188.905" gradientUnits="userSpaceOnUse"><stop style="stop-color:#66f" offset="0"/><stop style="stop-color:#897de4" offset="1"/></linearGradient><polyline points="294.8 264.1 294.8 163.5 208.5 114.1" class="st37"/><linearGradient id="SVGID_29_" x1="294.542" x2="380.583" y1="138.834" y2="138.834" gradientUnits="userSpaceOnUse"><stop style="stop-color:#66f" offset="0"/><stop style="stop-color:#897de4" offset="1"/></linearGradient><line x1="380.3" x2="294.8" y1="114.1" y2="163.5" class="st38"/></g><g><g><polygon points="210.7 213.9 210.7 115.6 295.1 69.3 378.8 115.6 378.8 213.9 295.1 262.3" class="st7"/><polyline points="295.1 262.3 295.1 163.9 210.7 115.6" class="st7"/><line x1="378.8" x2="295.1" y1="115.6" y2="163.9" class="st8"/></g><linearGradient id="SVGID_30_" x1="293.812" x2="297.168" y1="164.475" y2="164.475" gradientUnits="userSpaceOnUse"><stop style="stop-color:#66f" offset="0"/><stop style="stop-color:#897de4" offset="1"/></linearGradient><path d="M293.8,165.4l1.7-2.3l1.6,2.3C297.2,165.4,296,166.4,293.8,165.4z" class="st39"/><line x1="295.5" x2="211.1" y1="163.9" y2="115.6" class="st16"/><line x1="379.2" x2="295.5" y1="115.6" y2="163.9" class="st16"/></g></g><g><g><polygon points="112.2 713.2 112.2 630.6 183 591.8 253.2 630.6 253.2 713.2 183 753.7" class="st4"/><linearGradient id="SVGID_31_" x1="111.958" x2="183.538" y1="691.966" y2="691.966" gradientUnits="userSpaceOnUse"><stop style="stop-color:#66f" offset="0"/><stop style="stop-color:#897de4" offset="1"/></linearGradient><polyline points="183 753.7 183 671.2 112.2 630.6" class="st40"/><linearGradient id="SVGID_32_" x1="182.788" x2="253.478" y1="650.919" y2="650.919" gradientUnits="userSpaceOnUse"><stop style="stop-color:#66f" offset="0"/><stop style="stop-color:#897de4" offset="1"/></linearGradient><line x1="253.2" x2="183" y1="630.6" y2="671.2" class="st41"/></g><g><g><polygon points="114 712.5 114 631.8 183.3 593.9 252 631.8 252 712.5 183.3 752.2" class="st7"/><polyline points="183.3 752.2 183.3 671.5 114 631.8" class="st7"/><line x1="252" x2="183.3" y1="631.8" y2="671.5" class="st8"/></g><linearGradient id="SVGID_33_" x1="182.233" x2="184.987" y1="671.959" y2="671.959" gradientUnits="userSpaceOnUse"><stop style="stop-color:#66f" offset="0"/><stop style="stop-color:#897de4" offset="1"/></linearGradient><path d="M182.2,672.7l1.4-1.9l1.3,1.9C185,672.7,184,673.6,182.2,672.7z" class="st42"/><line x1="183.6" x2="114.4" y1="671.5" y2="631.8" class="st4"/><line x1="252.3" x2="183.6" y1="631.8" y2="671.5" class="st4"/></g></g><g><g><polygon points="112.2 613.9 112.2 531.3 183 492.5 253.2 531.3 253.2 613.9 183 654.4" class="st4"/><linearGradient id="SVGID_34_" x1="111.958" x2="183.538" y1="592.663" y2="592.663" gradientUnits="userSpaceOnUse"><stop style="stop-color:#66f" offset="0"/><stop style="stop-color:#897de4" offset="1"/></linearGradient><polyline points="183 654.4 183 571.9 112.2 531.3" class="st43"/><linearGradient id="SVGID_35_" x1="182.788" x2="253.478" y1="551.616" y2="551.616" gradientUnits="userSpaceOnUse"><stop style="stop-color:#66f" offset="0"/><stop style="stop-color:#897de4" offset="1"/></linearGradient><line x1="253.2" x2="183" y1="531.3" y2="571.9" class="st44"/></g><g><g><polygon points="114 613.2 114 532.5 183.3 494.6 252 532.5 252 613.2 183.3 652.9" class="st7"/><polyline points="183.3 652.9 183.3 572.2 114 532.5" class="st7"/><line x1="252" x2="183.3" y1="532.5" y2="572.2" class="st8"/></g><linearGradient id="SVGID_36_" x1="182.233" x2="184.987" y1="572.655" y2="572.655" gradientUnits="userSpaceOnUse"><stop style="stop-color:#66f" offset="0"/><stop style="stop-color:#897de4" offset="1"/></linearGradient><path d="M182.2,573.4l1.4-1.9l1.3,1.9C185,573.4,184,574.3,182.2,573.4z" class="st45"/><line x1="183.6" x2="114.4" y1="572.2" y2="532.5" class="st4"/><line x1="252.3" x2="183.6" y1="532.5" y2="572.2" class="st4"/></g></g><g><g><polygon points="112.2 515 112.2 432.5 183 393.7 253.2 432.5 253.2 515 183 555.5" class="st16"/><linearGradient id="SVGID_37_" x1="111.958" x2="183.538" y1="493.794" y2="493.794" gradientUnits="userSpaceOnUse"><stop style="stop-color:#66f" offset="0"/><stop style="stop-color:#897de4" offset="1"/></linearGradient><polyline points="183 555.5 183 473 112.2 432.5" class="st46"/><linearGradient id="SVGID_38_" x1="182.788" x2="253.478" y1="452.747" y2="452.747" gradientUnits="userSpaceOnUse"><stop style="stop-color:#66f" offset="0"/><stop style="stop-color:#897de4" offset="1"/></linearGradient><line x1="253.2" x2="183" y1="432.5" y2="473" class="st47"/></g><g><g><polygon points="114 514.4 114 433.6 183.3 395.7 252 433.6 252 514.4 183.3 554" class="st7"/><polyline points="183.3 554 183.3 473.3 114 433.6" class="st7"/><line x1="252" x2="183.3" y1="433.6" y2="473.3" class="st8"/></g><linearGradient id="SVGID_39_" x1="182.233" x2="184.987" y1="473.786" y2="473.786" gradientUnits="userSpaceOnUse"><stop style="stop-color:#66f" offset="0"/><stop style="stop-color:#897de4" offset="1"/></linearGradient><path d="M182.2,474.6l1.4-1.9l1.3,1.9C185,474.6,184,475.4,182.2,474.6z" class="st48"/><line x1="183.6" x2="114.4" y1="473.3" y2="433.6" class="st16"/><line x1="252.3" x2="183.6" y1="433.6" y2="473.3" class="st16"/></g></g><g><g><polygon points="112.2 414 112.2 331.5 183 292.7 253.2 331.5 253.2 414 183 454.5" class="st4"/><linearGradient id="SVGID_40_" x1="111.958" x2="183.538" y1="392.79" y2="392.79" gradientUnits="userSpaceOnUse"><stop style="stop-color:#66f" offset="0"/><stop style="stop-color:#897de4" offset="1"/></linearGradient><polyline points="183 454.5 183 372 112.2 331.5" class="st49"/><linearGradient id="SVGID_41_" x1="182.788" x2="253.478" y1="351.743" y2="351.743" gradientUnits="userSpaceOnUse"><stop style="stop-color:#66f" offset="0"/><stop style="stop-color:#897de4" offset="1"/></linearGradient><line x1="253.2" x2="183" y1="331.5" y2="372" class="st50"/></g><g><g><polygon points="114 413.4 114 332.6 183.3 294.7 252 332.6 252 413.4 183.3 453" class="st7"/><polyline points="183.3 453 183.3 372.3 114 332.6" class="st7"/><line x1="252" x2="183.3" y1="332.6" y2="372.3" class="st8"/></g><linearGradient id="SVGID_42_" x1="182.233" x2="184.987" y1="372.783" y2="372.783" gradientUnits="userSpaceOnUse"><stop style="stop-color:#66f" offset="0"/><stop style="stop-color:#897de4" offset="1"/></linearGradient><path d="M182.2,373.6l1.4-1.9l1.3,1.9C185,373.6,184,374.4,182.2,373.6z" class="st51"/><line x1="183.6" x2="114.4" y1="372.3" y2="332.6" class="st4"/><line x1="252.3" x2="183.6" y1="332.6" y2="372.3" class="st4"/></g></g></g></svg>