<svg xmlns="http://www.w3.org/2000/svg" xmlns:xlink="http://www.w3.org/1999/xlink" id="Calque_1" x="0" y="0" version="1.1" viewBox="-437 270 24 24" xml:space="preserve" style="enable-background:new -437 270 24 24"><style type="text/css">.st0{fill:#fff}</style><path d="M-414.1,287.4v3.3c0,1.2-1,2.2-2.2,2.2c-0.1,0-0.1,0-0.2,0c-3.4-0.4-6.6-1.5-9.4-3.4c-2.6-1.7-4.9-3.9-6.6-6.6	c-1.8-2.9-3-6.1-3.4-9.5c-0.1-1.2,0.8-2.3,2-2.4c0.1,0,0.1,0,0.2,0h3.3c1.1,0,2,0.8,2.2,1.9c0.1,1.1,0.4,2.1,0.8,3.1	c0.3,0.8,0.1,1.7-0.5,2.3l-1.4,1.4c1.6,2.7,3.8,5,6.6,6.6l1.4-1.4c0.6-0.6,1.5-0.8,2.3-0.5c1,0.4,2,0.6,3.1,0.8	C-414.8,285.3-414,286.3-414.1,287.4z" class="st0"/></svg>