<svg xmlns="http://www.w3.org/2000/svg" xmlns:xlink="http://www.w3.org/1999/xlink" id="Capa_1" x="0" y="0" version="1.1" viewBox="6 -6 512 512" xml:space="preserve" style="enable-background:new 6 -6 512 512"><style type="text/css">.st0{fill:url(#SVGID_1_)}.st1{fill:url(#SVGID_2_)}.st2{fill:url(#SVGID_3_)}.st3{fill:url(#SVGID_4_)}.st4{fill:url(#SVGID_5_)}.st5{fill:url(#SVGID_6_)}</style><switch><g><g><g><g><linearGradient id="SVGID_1_" x1="151.619" x2="372.369" y1="249.949" y2="249.949" gradientUnits="userSpaceOnUse"><stop offset="0" style="stop-color:#7f00ff"/><stop offset="1" style="stop-color:#3f00fc"/></linearGradient><path d="M335.6,167.7c-45.4-40.6-115.2-36.8-155.9,8.7c-18.1,20.2-28.1,46.4-28.1,73.6c0,31.4,13.4,61.3,36.8,82.3 c45.4,40.6,115.2,36.8,155.9-8.7C384.9,278.1,381,208.3,335.6,167.7z M324.3,319.6c-38.4,34.4-97.5,31.1-131.9-7.4 c-15.3-17.1-23.8-39.3-23.8-62.3c0-26.6,11.3-51.9,31.1-69.6c38.4-34.4,97.5-31.1,131.9,7.4C366,226.1,362.7,285.2,324.3,319.6 z" class="st0"/></g></g><g><g><linearGradient id="SVGID_2_" x1="219.542" x2="312.946" y1="249.951" y2="249.951" gradientUnits="userSpaceOnUse"><stop offset="0" style="stop-color:#7f00ff"/><stop offset="1" style="stop-color:#3f00fc"/></linearGradient><path d="M311.9,267.3c-1.7-6.7-5.4-12.8-10.7-17.3c14.1-12.1,15.7-33.4,3.6-47.5c-4.5-5.3-10.6-9-17.3-10.7v-18.2 h-17v17h-17v-17h-17v17h-17v17h8.5v84.9h-8.5v17h17v17h17v-17h17v17h17v-18.2C305.5,303.6,316.5,285.3,311.9,267.3z M279,292.4 h-34v-34h34c9.4,0,17,7.6,17,17S288.4,292.4,279,292.4z M279,241.5h-34v-34h34c9.4,0,17,7.6,17,17S288.4,241.5,279,241.5z" class="st1"/></g></g><g><g><linearGradient id="SVGID_3_" x1="7.283" x2="516.717" y1="250" y2="250" gradientUnits="userSpaceOnUse"><stop offset="0" style="stop-color:#7f00ff"/><stop offset="1" style="stop-color:#3f00fc"/></linearGradient><path d="M499.7,273.9c13.2-4.7,20.2-19.2,15.6-32.4c-4.7-13.2-19.2-20.2-32.4-15.6c-7.3,2.6-13,8.3-15.6,15.6 h-61.4c-3-50.1-31.7-95.1-76-118.8v-51h95c2.6,7.2,8.2,12.9,15.4,15.4v69.5c0,4.7,3.8,8.5,8.5,8.5h67.9v-17h-59.4v-61 c13.2-4.7,20.2-19.2,15.6-32.4s-19.2-20.2-32.4-15.6c-7.3,2.6-13,8.3-15.6,15.6H321.4c-4.7,0-8.5,3.8-8.5,8.5v51.9 c-16.3-6.2-33.5-9.4-50.9-9.5c-5.7,0-11.3,0.4-17,1.1V95.6c13.2-4.6,20.2-19,15.6-32.2c-2.5-7.3-8.3-13-15.6-15.6V12.2h271.7 v-17H236.5c-4.7,0-8.5,3.8-8.5,8.5v44c-7.2,2.6-12.9,8.2-15.4,15.4h-78V44.6c13.2-4.7,20.2-19.2,15.6-32.4 C145.5-1,131-8,117.8-3.3c-7.3,2.6-13,8.3-15.6,15.6h-95v17h95c2.6,7.2,8.2,12.9,15.4,15.4v27c0,4.7,3.8,8.5,8.5,8.5h86.5 c2.6,7.2,8.2,12.9,15.4,15.4v14.3c-61.5,15-106.1,68.4-109.9,131.6H66.7v-35.5c13.2-4.6,20.2-19,15.6-32.2 c-2.5-7.3-8.3-13-15.6-15.6v-52.5c0-4.7-3.8-8.5-8.5-8.5H7.3v17h42.5v44c-13.2,4.6-20.2,19-15.6,32.2c2.5,7.3,8.3,13,15.6,15.6 v44c0,4.7,3.8,8.5,8.5,8.5h59.9c1.2,20.8,6.8,41.1,16.6,59.4H92.2c-4.7,0-8.5,3.8-8.5,8.5v42.5H7.3v17h76.4v17 c0,4.7,3.8,8.5,8.5,8.5h59.4v18.5c-7.2,2.6-12.9,8.2-15.4,15.4H7.3v17h128.9c4.7,13.2,19.2,20.2,32.4,15.6 c13.2-4.7,20.2-19.2,15.6-32.4c-2.6-7.3-8.3-13-15.6-15.6v-27c0-4.7-3.8-8.5-8.5-8.5h-59.4v-59.4h44.9 c25.4,34.8,65,56.5,108,59v59.9c0,4.7,3.8,8.5,8.5,8.5h67.9v42.5h17v-50.9c0-4.7-3.8-8.5-8.5-8.5h-67.9v-51.4 c35.3-2,68.7-17,93.6-42h50.7v103.4c-13.3,4.7-20.2,19.2-15.5,32.5c4.7,13.3,19.2,20.2,32.5,15.5c13.3-4.7,20.2-19.2,15.5-32.5 c-2.6-7.3-8.3-13-15.5-15.5V343.3c0-4.7-3.8-8.5-8.5-8.5h-44.9c16.3-22.3,25.9-48.8,27.4-76.4h61.4c2.6,7.2,8.2,12.9,15.4,15.4 v111.9c0,4.7,3.8,8.5,8.5,8.5h25.5v-17h-17L499.7,273.9L499.7,273.9z M448.8,54.7c4.7,0,8.5,3.8,8.5,8.5c0,4.7-3.8,8.5-8.5,8.5 c-4.7,0-8.5-3.8-8.5-8.5C440.3,58.5,444.1,54.7,448.8,54.7z M126.1,29.2c-4.7,0-8.5-3.8-8.5-8.5s3.8-8.5,8.5-8.5 s8.5,3.8,8.5,8.5S130.8,29.2,126.1,29.2z M58.2,190.5c-4.7,0-8.5-3.8-8.5-8.5s3.8-8.5,8.5-8.5s8.5,3.8,8.5,8.5 S62.9,190.5,58.2,190.5z M160.1,445.2c4.7,0,8.5,3.8,8.5,8.5c0,4.7-3.8,8.5-8.5,8.5c-4.7,0-8.5-3.8-8.5-8.5 C151.6,449,155.4,445.2,160.1,445.2z M423.3,470.7c4.7,0,8.5,3.8,8.5,8.5c0,4.7-3.8,8.5-8.5,8.5c-4.7,0-8.5-3.8-8.5-8.5 C414.8,474.5,418.6,470.7,423.3,470.7z M236.5,63.2c4.7,0,8.5,3.8,8.5,8.5c0,4.7-3.8,8.5-8.5,8.5c-4.7,0-8.5-3.8-8.5-8.5 C228,67,231.8,63.2,236.5,63.2z M262,377.3c-70.3,0-127.4-57-127.4-127.4c0.1-70.3,57.1-127.3,127.4-127.4 c70.3,0,127.4,57,127.4,127.4S332.3,377.3,262,377.3z M491.2,258.4c-4.7,0-8.5-3.8-8.5-8.5c0-4.7,3.8-8.5,8.5-8.5 c4.7,0,8.5,3.8,8.5,8.5C499.7,254.6,495.9,258.4,491.2,258.4z" class="st2"/></g></g><g><g><linearGradient id="SVGID_4_" x1="7.283" x2="58.225" y1="343.344" y2="343.344" gradientUnits="userSpaceOnUse"><stop offset="0" style="stop-color:#7f00ff"/><stop offset="1" style="stop-color:#3f00fc"/></linearGradient><rect width="50.9" height="17" x="7.3" y="334.9" class="st3"/></g></g><g><g><linearGradient id="SVGID_5_" x1="287.464" x2="304.445" y1="419.758" y2="419.758" gradientUnits="userSpaceOnUse"><stop offset="0" style="stop-color:#7f00ff"/><stop offset="1" style="stop-color:#3f00fc"/></linearGradient><rect width="17" height="17" x="287.5" y="411.3" class="st4"/></g></g><g><g><linearGradient id="SVGID_6_" x1="406.329" x2="423.31" y1="118.35" y2="118.35" gradientUnits="userSpaceOnUse"><stop offset="0" style="stop-color:#7f00ff"/><stop offset="1" style="stop-color:#3f00fc"/></linearGradient><rect width="17" height="25.5" x="406.3" y="105.6" class="st5"/></g></g></g></g></switch></svg>