<svg xmlns="http://www.w3.org/2000/svg" xmlns:xlink="http://www.w3.org/1999/xlink" id="Capa_1" x="0" y="0" version="1.1" viewBox="6 -6 512 512" xml:space="preserve" style="enable-background:new 6 -6 512 512"><style type="text/css">.st0{fill:url(#SVGID_1_)}.st1{fill:url(#SVGID_2_)}.st2{fill:url(#SVGID_3_)}.st3{fill:url(#SVGID_4_)}.st4{fill:url(#SVGID_5_)}.st5{fill:url(#SVGID_6_)}</style><switch><g><g><g><g><linearGradient id="SVGID_1_" x1="114.852" x2="172.441" y1="128.445" y2="128.445" gradientUnits="userSpaceOnUse"><stop offset="0" style="stop-color:#0f9"/><stop offset="1" style="stop-color:#3cf"/></linearGradient><path d="M171.4,135.1c-0.8-2.5-2.2-4.7-3.9-6.6c7.1-7.7,6.6-19.8-1.2-26.9c-1.9-1.8-4.2-3.1-6.6-3.9v-7.6h-12.8 v6.4H134v-6.4h-12.8v6.4h-6.4v12.8h6.4v38.4h-6.4v12.8h6.4v6.4H134v-6.4h12.8v6.4h12.8v-7.6C169.6,155.8,174.8,145,171.4,135.1 z M153.2,147.6H134v-12.8h19.2c3.5,0,6.4,2.9,6.4,6.4C159.6,144.8,156.8,147.6,153.2,147.6z M153.2,122H134v-12.8h19.2 c3.5,0,6.4,2.9,6.4,6.4C159.6,119.2,156.8,122,153.2,122z" class="st0"/></g></g><g><g><linearGradient id="SVGID_2_" x1="357.975" x2="415.564" y1="371.567" y2="371.567" gradientUnits="userSpaceOnUse"><stop offset="0" style="stop-color:#0f9"/><stop offset="1" style="stop-color:#3cf"/></linearGradient><path d="M414.5,378.2c-0.8-2.5-2.2-4.7-3.9-6.6c7.1-7.7,6.6-19.8-1.2-26.9c-1.9-1.8-4.2-3.1-6.6-3.9v-7.6H390v6.4 h-12.8v-6.4h-12.8v6.4H358v12.8h6.4v38.4H358v12.8h6.4v6.4h12.8v-6.4H390v6.4h12.8v-7.6C412.7,398.9,417.9,388.1,414.5,378.2z M396.4,390.8h-19.2V378h19.2c3.5,0,6.4,2.9,6.4,6.4C402.8,387.9,399.9,390.8,396.4,390.8z M396.4,365.2h-19.2v-12.8h19.2 c3.5,0,6.4,2.9,6.4,6.4C402.8,362.3,399.9,365.2,396.4,365.2z" class="st1"/></g></g><g><g><linearGradient id="SVGID_3_" x1="230.015" x2="287.604" y1="250.006" y2="250.006" gradientUnits="userSpaceOnUse"><stop offset="0" style="stop-color:#0f9"/><stop offset="1" style="stop-color:#3cf"/></linearGradient><path d="M286.6,256.6c-0.8-2.5-2.2-4.7-3.9-6.6c7.1-7.7,6.6-19.8-1.2-26.9c-1.9-1.8-4.2-3.1-6.6-3.9v-7.6H262v6.4 h-12.8v-6.4h-12.8v6.4H230v12.8h6.4v38.4H230V282h6.4v6.4h12.8V282H262v6.4h12.8v-7.6C284.7,277.4,290,266.6,286.6,256.6z M268.4,269.2h-19.2v-12.8h19.2c3.5,0,6.4,2.9,6.4,6.4C274.8,266.3,271.9,269.2,268.4,269.2z M268.4,243.6h-19.2v-12.8h19.2 c3.5,0,6.4,2.9,6.4,6.4C274.8,240.7,271.9,243.6,268.4,243.6z" class="st2"/></g></g><g><g><linearGradient id="SVGID_4_" x1="357.975" x2="415.564" y1="128.445" y2="128.445" gradientUnits="userSpaceOnUse"><stop offset="0" style="stop-color:#0f9"/><stop offset="1" style="stop-color:#3cf"/></linearGradient><path d="M414.5,135.1c-0.8-2.5-2.2-4.7-3.9-6.6c7.1-7.7,6.6-19.8-1.2-26.9c-1.9-1.8-4.2-3.1-6.6-3.9v-7.6H390v6.4 h-12.8v-6.4h-12.8v6.4H358v12.8h6.4v38.4H358v12.8h6.4v6.4h12.8v-6.4H390v6.4h12.8v-7.6C412.7,155.8,417.9,145,414.5,135.1z M396.4,147.6h-19.2v-12.8h19.2c3.5,0,6.4,2.9,6.4,6.4C402.8,144.8,399.9,147.6,396.4,147.6z M396.4,122h-19.2v-12.8h19.2 c3.5,0,6.4,2.9,6.4,6.4C402.8,119.2,399.9,122,396.4,122z" class="st3"/></g></g><g><g><linearGradient id="SVGID_5_" x1="114.852" x2="172.441" y1="371.567" y2="371.567" gradientUnits="userSpaceOnUse"><stop offset="0" style="stop-color:#0f9"/><stop offset="1" style="stop-color:#3cf"/></linearGradient><path d="M171.4,378.2c-0.8-2.5-2.2-4.7-3.9-6.6c7.1-7.7,6.6-19.8-1.2-26.9c-1.9-1.8-4.2-3.1-6.6-3.9v-7.6h-12.8 v6.4H134v-6.4h-12.8v6.4h-6.4v12.8h6.4v38.4h-6.4v12.8h6.4v6.4H134v-6.4h12.8v6.4h12.8v-7.6 C169.6,398.9,174.8,388.1,171.4,378.2z M153.2,390.8H134V378h19.2c3.5,0,6.4,2.9,6.4,6.4C159.6,387.9,156.8,390.8,153.2,390.8z M153.2,365.2H134v-12.8h19.2c3.5,0,6.4,2.9,6.4,6.4C159.6,362.3,156.8,365.2,153.2,365.2z" class="st4"/></g></g><g><g><linearGradient id="SVGID_6_" x1="69.997" x2="454.003" y1="250" y2="250" gradientUnits="userSpaceOnUse"><stop offset="0" style="stop-color:#0f9"/><stop offset="1" style="stop-color:#3cf"/></linearGradient><path d="M390,301.5v-103c38.7-3.5,67.3-37.7,63.7-76.4S416,54.8,377.3,58.3c-31.4,2.8-57.1,26.3-62.9,57.3H209.6 c-7-38.2-43.7-63.5-82-56.5c-38.2,7-63.5,43.7-56.5,82c5.7,31.1,31.4,54.5,62.9,57.3v103c-36.2,3.3-63.9,33.7-64,70.1 c0.2,38.9,31.9,70.2,70.7,70c36.1-0.2,66.2-27.7,69.7-63.6h103c3.5,38.7,37.7,67.2,76.5,63.7c38.7-3.5,67.2-37.7,63.7-76.5 C450.6,331.4,423.8,304.6,390,301.5z M383.6,70.9c31.8,0,57.6,25.8,57.6,57.6c0,31.8-25.8,57.6-57.6,57.6 c-31.8,0-57.6-25.8-57.6-57.6C326,96.7,351.8,70.9,383.6,70.9z M198,250c0-31.8,25.8-57.6,57.6-57.6 c31.8,0,57.5,25.8,57.6,57.6c0,31.8-25.8,57.6-57.6,57.6C223.8,307.6,198,281.8,198,250z M204.6,298.4l-19.2,19.2 c-10.9-9.1-24.4-14.7-38.6-16v-103c14.2-1.3,27.7-6.9,38.6-16l19.2,19.2c-12.4,13-19.4,30.3-19.4,48.3 C185.2,268,192.2,285.3,204.6,298.4z M312.4,208.6l26.1-26.1c10.9,9.1,24.4,14.7,38.6,16v103c-14.2,1.3-27.7,6.9-38.6,16 l-26.1-26.1C330.5,266.8,330.5,233.3,312.4,208.6z M210.8,128.4h102.4c0,16.5,5.8,32.4,16.3,45L304,199 c-24.5-23.4-62.4-25.9-89.7-5.8l-19.7-19.7C205.1,160.8,210.8,144.9,210.8,128.4z M82.9,128.4c0-31.8,25.8-57.6,57.6-57.6 S198,96.6,198,128.4c0,31.8-25.8,57.6-57.6,57.6C108.7,186,82.9,160.2,82.9,128.4z M140.4,429.1c-31.8,0-57.6-25.8-57.6-57.6 c0-31.8,25.8-57.5,57.6-57.6c31.8,0,57.6,25.8,57.6,57.6S172.2,429.1,140.4,429.1z M210.5,365.2c-1.3-14.2-6.9-27.7-16-38.6 l19.7-19.7c27.4,20.1,65.2,17.6,89.7-5.8l25.6,25.6c-9.1,10.9-14.7,24.4-16,38.6H210.5z M383.6,429.1 c-31.8,0-57.6-25.8-57.6-57.6c0-31.8,25.8-57.6,57.6-57.6c31.8,0,57.5,25.8,57.6,57.6C441.1,403.4,415.4,429.1,383.6,429.1z" class="st5"/></g></g></g></g></switch></svg>