<svg xmlns="http://www.w3.org/2000/svg" xmlns:xlink="http://www.w3.org/1999/xlink" id="Capa_1" x="0" y="0" version="1.1" viewBox="6 -6 512 512" xml:space="preserve" style="enable-background:new 6 -6 512 512"><style type="text/css">.st0{fill:url(#SVGID_1_)}.st1{fill:url(#SVGID_2_)}.st2{fill:url(#SVGID_3_)}.st3{fill:url(#SVGID_4_)}.st4{fill:url(#SVGID_5_)}</style><switch><g><g><g><g><linearGradient id="SVGID_1_" x1="80.722" x2="298.252" y1="249.997" y2="249.997" gradientUnits="userSpaceOnUse"><stop offset="0" style="stop-color:#0f9"/><stop offset="1" style="stop-color:#3cf"/></linearGradient><path d="M292.2,316.5h-6v-42.3c0-3.3-2.7-6-6-6v-36.3h6c3.3,0,6-2.7,6-6v-48.3c0-3.3-2.7-6-6-6h-12.1v-36.3h2.3 c3.3,0,6-2.7,6-6V80.8c0-3.3-2.7-6-6-6H95.1c-3.3,0-6,2.7-6,6v42.3h-2.3c-3.3,0-6,2.7-6,6v48.3c0,3.3,2.7,6,6,6h12.1v36.3h-6 c-3.3,0-6,2.7-6,6v48.3c0,3.3,2.7,6,6,6v42.3c0,3.3,2.7,6,6,6h6v36.3h-9.8c-3.3,0-6,2.7-6,6v48.3c0,3.3,2.7,6,6,6h181.3 c3.3,0,6-2.7,6-6v-42.3h9.8c3.3,0,6-2.7,6-6v-48.3C298.3,319.2,295.5,316.5,292.2,316.5z M280.1,183.5v36.3H262v-36.3H280.1z M117,328.5h18.1v36.3H117V328.5z M110.9,316.5h-6v-36.3H123v36.3H110.9z M129.1,268.1v-36.3h18.1v36.3H129.1z M110.9,219.8 v-36.3h18.1v36.3H110.9z M141.1,219.8v-36.3h18.1v36.3H141.1z M135.1,280.2h18.1v36.3h-18.1V280.2z M147.2,328.5h18.1v36.3 h-18.1V328.5z M159.3,268.1v-36.3h18.1v36.3H159.3z M171.4,219.8v-36.3h18.1v36.3H171.4z M165.3,280.2h18.1v36.3h-18.1V280.2z M177.4,328.5h18.1v36.3h-18.1V328.5z M189.5,268.1v-36.3h18.1v36.3H189.5z M201.6,219.8v-36.3h18.1v36.3H201.6z M195.5,280.2 h18.1v36.3h-18.1V280.2z M207.6,328.5h18.1v36.3h-18.1V328.5z M219.7,268.1v-36.3h18.1v36.3H219.7z M231.8,219.8v-36.3h18.1 v36.3H231.8z M225.7,280.2h18.1v36.3h-18.1V280.2z M237.8,328.5H256v36.3h-18.1V328.5z M249.9,268.1v-36.3H268v36.3H249.9z M256,280.2h18.1v36.3H256V280.2z M252.2,86.8h18.1v36.3h-18.1V86.8z M243.9,135.2H262v36.3h-18.1V135.2z M222,86.8h18.1v36.3 H222V86.8z M213.7,135.2h18.1v36.3h-18.1V135.2z M191.8,86.8h18.1v36.3h-18.1V86.8z M183.4,135.2h18.1v36.3h-18.1V135.2z M161.5,86.8h18.1v36.3h-18.1V86.8z M153.2,135.2h18.1v36.3h-18.1V135.2z M131.3,86.8h18.1v36.3h-18.1V86.8z M123,135.2h18.1 v36.3H123V135.2z M101.1,86.8h18.1v36.3h-18.1V86.8z M92.8,171.4v-36.3h18.1v36.3H92.8z M98.8,268.1v-36.3H117v36.3H98.8z M119.2,413.1h-18.1v-36.3h18.1V413.1z M149.5,413.1h-18.1v-36.3h18.1V413.1z M179.7,413.1h-18.1v-36.3h18.1V413.1z M209.9,413.1h-18.1v-36.3h18.1V413.1z M240.1,413.1H222v-36.3h18.1V413.1z M270.3,413.1h-18.1v-36.3h18.1V413.1z M286.2,364.8 H268v-36.3h18.1V364.8z" class="st0"/></g></g><g><g><linearGradient id="SVGID_2_" x1="288.584" x2="443.278" y1="328.553" y2="328.553" gradientUnits="userSpaceOnUse"><stop offset="0" style="stop-color:#0f9"/><stop offset="1" style="stop-color:#3cf"/></linearGradient><path d="M404.6,251.2c-16.7-12.6-37.1-19.3-58-19.3c-20.9-0.1-41.3,6.7-58,19.3l7.3,9.7 c37.4-28,90.4-20.5,118.4,16.9s20.5,90.4-16.9,118.4c-30.1,22.6-71.4,22.6-101.5,0l-7.3,9.7c42.7,32,103.3,23.4,135.4-19.3 C456,343.8,447.3,283.2,404.6,251.2z" class="st1"/></g></g><g><g><linearGradient id="SVGID_3_" x1="288.584" x2="443.273" y1="170.236" y2="170.236" gradientUnits="userSpaceOnUse"><stop offset="0" style="stop-color:#0f9"/><stop offset="1" style="stop-color:#3cf"/></linearGradient><path d="M346.6,92.9c-20.9-0.1-41.3,6.7-58,19.3l7.3,9.7c37.4-28,90.4-20.5,118.4,16.9 c22.6,30.1,22.6,71.4,0,101.5l9.7,7.3c12.6-16.7,19.4-37.1,19.3-58C443.2,136.2,400,93,346.6,92.9z" class="st2"/></g></g><g><g><linearGradient id="SVGID_4_" x1="316.38" x2="382.855" y1="177.487" y2="177.487" gradientUnits="userSpaceOnUse"><stop offset="0" style="stop-color:#0f9"/><stop offset="1" style="stop-color:#3cf"/></linearGradient><path d="M382.1,189.8c-1.2-4.8-3.9-9.1-7.6-12.3c10-8.6,11.2-23.8,2.6-33.8c-3.2-3.8-7.5-6.4-12.3-7.6v-12.9h-12.1 v12.1h-12.1v-12.1h-12.1v12.1h-12.1v12.1h6v60.4h-6v12.1h12.1v12.1h12.1v-12.1h12.1v12.1h12.1v-12.9 C377.6,215.7,385.4,202.7,382.1,189.8z M358.7,207.7h-24.2v-24.2h24.2c6.7,0,12.1,5.4,12.1,12.1 C370.8,202.3,365.4,207.7,358.7,207.7z M358.7,171.4h-24.2v-24.2h24.2c6.7,0,12.1,5.4,12.1,12.1 C370.8,166,365.4,171.4,358.7,171.4z" class="st3"/></g></g><g><g><linearGradient id="SVGID_5_" x1="316.38" x2="382.855" y1="328.55" y2="328.55" gradientUnits="userSpaceOnUse"><stop offset="0" style="stop-color:#0f9"/><stop offset="1" style="stop-color:#3cf"/></linearGradient><path d="M382.1,340.9c-1.2-4.8-3.9-9.1-7.6-12.3c10-8.6,11.2-23.8,2.6-33.8c-3.2-3.8-7.5-6.4-12.3-7.6v-12.9h-12.1 v12.1h-12.1v-12.1h-12.1v12.1h-12.1v12.1h6v60.4h-6v12.1h12.1v12.1h12.1v-12.1h12.1v12.1h12.1V370 C377.6,366.8,385.4,353.7,382.1,340.9z M358.7,358.8h-24.2v-24.2h24.2c6.7,0,12.1,5.4,12.1,12.1S365.4,358.8,358.7,358.8z M358.7,322.5h-24.2v-24.2h24.2c6.7,0,12.1,5.4,12.1,12.1S365.4,322.5,358.7,322.5z" class="st4"/></g></g></g></g></switch></svg>