<svg xmlns="http://www.w3.org/2000/svg" xmlns:xlink="http://www.w3.org/1999/xlink" id="Capa_1" x="0" y="0" version="1.1" viewBox="6 -6 512 512" xml:space="preserve" style="enable-background:new 6 -6 512 512"><style type="text/css">.st0{fill:url(#SVGID_1_)}.st1{fill:url(#SVGID_2_)}.st2{fill:url(#SVGID_3_)}</style><switch><g><g><g><g><linearGradient id="SVGID_1_" x1="6.508" x2="506.657" y1="222.462" y2="222.462" gradientUnits="userSpaceOnUse"><stop offset="0" style="stop-color:#0f9"/><stop offset="1" style="stop-color:#3cf"/></linearGradient><path d="M425.3,121.1v0.1C369.3,29.9,250,1.3,158.8,57.3c-30.2,18.5-54.8,45-71,76.6l-1.5-3.5 c-39.2,16.9-65.3,38.6-75.4,62.6l15.7,6.6c7.1-16.9,25.7-33.4,52.9-47.2c-15.1,38.8-17.3,81.4-6.3,121.5 c-29.7-15.5-47.3-34.4-49.6-53.7l-16.9,2c3.3,27.5,26.7,52.2,67.5,71.3l3.1-6.7c35.7,101,146.4,153.9,247.4,118.3 s153.9-146.4,118.3-247.4c-1.6-4.5-3.4-9-5.3-13.4c25.8,11.4,45.1,25.4,55.1,40.3l14.2-9.5 C492.3,153.6,464.2,134.9,425.3,121.1z M380.6,93.6l-7.3,4.9l-28-5.6l-18.7-6.2c-1.5-0.5-3.2-0.6-4.8-0.2l-23.2,5.8l-7.5-2.5 l6-12.1h20.3c1.3,0,2.6-0.3,3.8-0.9l21.1-10.6C356.3,73.6,369.2,82.8,380.6,93.6z M189.8,60.3l14.3,9.5c1,0.7,2.1,1.1,3.3,1.3 l28.5,4.8l-1.9,5.7l-15.1,5.1c-1.9,0.6-3.6,2-4.6,3.7l-18.1,30.1l-28.7,17.2l-43.1,6.1c-4.2,0.6-7.3,4.2-7.3,8.4v19.2 c0,2.3,0.9,4.4,2.5,6l10.3,10.3v6.1l-22.7-15.1l-9.1-27.3C116.2,110.7,148.9,78.1,189.8,60.3z M89,177.9L89,177.9l3,9.1 c0.6,1.8,1.8,3.3,3.4,4.4l29.7,19.8l-5.4,5.4c-1.6,1.6-2.5,3.8-2.5,6v19.2c0,1.3,0.3,2.6,0.9,3.8l12.8,25.6 c1.2,2.4,3.4,4,6,4.5l25.1,5v21.6c-1.9-0.3-3.9-0.6-5.8-1c-17.7-3.4-35.1-8-52.1-14l-3.8,10.7C82.2,260.6,78.3,218,89,177.9z M260,399.5c-65.5-0.1-125.7-36.3-156.3-94.3c16.1,5.4,32.5,9.7,49.2,12.9c2.9,0.6,6,1,9.1,1.6v18c0,1.1,0.2,2.2,0.6,3.2 l12.8,32c0.9,2.3,2.8,4.1,5.2,4.9l19.2,6.4c2.6,0.9,5.4,0.4,7.7-1.2c2.2-1.6,3.5-4.2,3.5-6.9v-27.7l22.2-16.6 c1.5-1.2,2.5-2.8,2.9-4.7c4.1,0.1,8.3,0.3,12.4,0.3h5.7c3.1,0,6.3,0,9.5-0.1c14.7-0.2,29.3-1.1,43.7-2.4 c4.9,12.6,17.1,20.9,30.7,20.9h0.5c17.1-0.3,31.1-13.6,32.3-30.7c5-1.1,10.1-2.2,14.9-3.5v0.5c0,2.3,0.9,4.4,2.5,6l11.9,11.9 C366.8,373.8,315,399.5,260,399.5z M322,313c-0.2-8.8,6.9-16.1,15.7-16.3c0,0,0,0,0,0h0.3c8.9,0,16,7.2,16,16 c0,8.9-7.2,16-16,16C329.3,328.8,322.1,321.7,322,313z M410,315.9l-7.2-7.3v-1.8c5.2-1.6,10.2-3.3,15.2-5.1 C415.5,306.6,412.9,311.3,410,315.9z M427.2,280c-7.7,3.2-15.8,6.2-24.4,8.9v-2.3c0-1.3-0.3-2.6-0.9-3.8l-24.7-49.4v-23.6 c0-2.9-1.4-5.5-3.8-7.1L354.2,190c-2-1.3-4.5-1.8-6.8-1.2l-25.6,6.4l4.1,16.5l21.9-5.5l12.3,8.2v21c0,1.3,0.3,2.6,0.9,3.8 l24.7,49.4v5.4c-5.9,1.6-11.9,3.1-18,4.4c-1.7-3.5-3.9-6.7-6.7-9.4c-6.3-6.1-14.8-9.4-23.6-9.3c-16.2,0.2-29.9,12.2-32.1,28.3 c-13.8,1.3-27.9,2.1-42,2.3c-3.1,0.1-6.2,0.1-9.2,0.1h-5.5c-4.1,0-8.1-0.2-12.1-0.3v-0.8l23.1-23.1l-12.1-12.1L222,299.8 c-1.6,1.6-2.5,3.8-2.5,6v3.6c-0.3,0-0.6,0-0.9-0.1l-0.8,12.6l-20.5,15.3c-2.1,1.6-3.4,4.1-3.4,6.8v20.1l-4.2-1.4L179,336.1 v-13.7c4.2,0.6,8.4,1.2,12.6,1.7l1.9-17c-4.9-0.5-9.7-1.2-14.5-1.9v-31.4c0-4.1-2.9-7.5-6.8-8.4l-27.9-5.6l-10-20v-13.6 l21.1-21.1l7.5,15c1.6,3.2,5,5,8.5,4.7l36.1-3.8l5.6,5.6l12.1-12.1l-8.5-8.5c-1.8-1.8-4.4-2.7-6.9-2.4l-34.3,3.6l-10.1-20.3 c-2.1-4.2-7.2-5.9-11.4-3.8c-0.8,0.4-1.6,0.9-2.2,1.6l-4.6,4.6v-5c0-2.3-0.9-4.4-2.5-6L134.3,168v-8.3l37.4-5.3 c1.1-0.2,2.2-0.5,3.2-1.1l32-19.2c1.2-0.7,2.2-1.7,2.9-2.9l17.6-29.3l16.2-5.4c2.5-0.8,4.5-2.8,5.4-5.4l6.4-19.2 c1.5-4.5-0.9-9.3-5.4-10.8c-0.4-0.1-0.8-0.2-1.3-0.3l-36.6-6.1l-2.3-1.6c16.3-4.9,33.2-7.4,50.2-7.4c21.3,0,42.4,3.9,62.3,11.5 l-6.8,3.4H292c-3.2,0-6.2,1.8-7.6,4.7L271.6,91c-2.1,4.2-0.4,9.3,3.8,11.4c0.4,0.2,0.7,0.3,1.1,0.5l19.2,6.4 c1.5,0.5,3.2,0.6,4.8,0.2l23.2-5.8l16.8,5.6c0.3,0.1,0.7,0.2,1,0.3l32,6.4c0.6,0.1,1.1,0.2,1.7,0.2c1.7,0,3.3-0.5,4.7-1.4 l12.9-8.6c6,6.8,11.5,14,16.3,21.7l-28.2,9.4l-32.6-5.4l-10.8-16.1c-1.6-2.4-4.2-3.8-7.1-3.8H292c-2.3,0-4.4,0.9-6,2.5 l-19.2,19.2l12.1,12l16.7-16.7h30.3l10.2,15.3c1.3,2,3.4,3.3,5.7,3.7l38.4,6.4c1.4,0.2,2.8,0.1,4.1-0.3l33.5-11.2 C439.5,185.3,442.9,234.9,427.2,280z" class="st0"/></g></g><g><g><linearGradient id="SVGID_2_" x1="452.641" x2="517.492" y1="242.499" y2="242.499" gradientUnits="userSpaceOnUse"><stop offset="0" style="stop-color:#0f9"/><stop offset="1" style="stop-color:#3cf"/></linearGradient><path d="M517.1,202.5l-16.9,2c0.2,1.5,0.3,3,0.3,4.5c0,20.4-17,41.3-47.8,58.7l8.4,14.8 c36.9-20.9,56.5-46.3,56.5-73.6v-0.9C517.5,206.2,517.3,204.3,517.1,202.5z" class="st1"/></g></g><g><g><linearGradient id="SVGID_3_" x1="227.686" x2="304.423" y1="211.975" y2="211.975" gradientUnits="userSpaceOnUse"><stop offset="0" style="stop-color:#0f9"/><stop offset="1" style="stop-color:#3cf"/></linearGradient><path d="M303,220.8c-1.1-3.3-2.9-6.3-5.3-8.8c9.5-10.3,8.7-26.3-1.6-35.8c-2.6-2.3-5.6-4.1-8.8-5.3v-10.1h-17.1 v8.5h-17.1v-8.5h-17.1v8.5h-8.5v17.1h8.5v51.2h-8.5v17.1h8.5v8.5h17.1v-8.5h17.1v8.5h17.1V253C300.6,248.5,307.6,234,303,220.8 z M278.8,237.5h-25.6v-17.1h25.6c4.7,0,8.5,3.8,8.5,8.5S283.5,237.5,278.8,237.5z M278.8,203.4h-25.6v-17.1h25.6 c4.7,0,8.5,3.8,8.5,8.5S283.5,203.4,278.8,203.4z" class="st2"/></g></g></g></g></switch></svg>