<svg xmlns="http://www.w3.org/2000/svg" xmlns:xlink="http://www.w3.org/1999/xlink" id="Capa_1" x="0" y="0" version="1.1" viewBox="6 -6 512 512" xml:space="preserve" style="enable-background:new 6 -6 512 512"><style type="text/css">.st0{fill:url(#SVGID_1_)}.st1{fill:url(#SVGID_2_)}.st2{fill:url(#SVGID_3_)}</style><switch><g><g><g><g><linearGradient id="SVGID_1_" x1="230.12" x2="293.858" y1="374.288" y2="374.288" gradientUnits="userSpaceOnUse"><stop offset="0" style="stop-color:#0f9"/><stop offset="1" style="stop-color:#3cf"/></linearGradient><path d="M274.7,329.7h-25.5c-10.6,0-19.1,8.6-19.1,19.1v12.7c0,8.1,5.1,15.3,12.7,18v33c0,3.5,2.9,6.4,6.4,6.4 h25.5c3.5,0,6.4-2.9,6.4-6.4v-33c7.6-2.7,12.7-9.9,12.7-18v-12.7C293.9,338.2,285.3,329.7,274.7,329.7z M281.1,361.5 c0,3.5-2.9,6.4-6.4,6.4c-3.5,0-6.4,2.9-6.4,6.4v31.9h-12.7v-31.9c0-3.5-2.9-6.4-6.4-6.4s-6.4-2.9-6.4-6.4v-12.7 c0-3.5,2.9-6.4,6.4-6.4h25.5c3.5,0,6.4,2.9,6.4,6.4V361.5z" class="st0"/></g></g><g><g><linearGradient id="SVGID_2_" x1="153.635" x2="370.365" y1="250" y2="250" gradientUnits="userSpaceOnUse"><stop offset="0" style="stop-color:#0f9"/><stop offset="1" style="stop-color:#3cf"/></linearGradient><path d="M338.5,310.6h-19.1v-44.6c0-3.2-0.3-6.5-0.8-9.6c51-31.2,67.1-97.8,35.9-148.9 c-19.7-32.2-54.7-51.8-92.5-51.8c-59.8-0.1-108.3,48.3-108.4,108.1c0,37.8,19.6,72.9,51.9,92.5c-0.6,3.2-0.9,6.4-0.9,9.7v44.6 h-19.1c-3.5,0-6.4,2.9-6.4,6.4V438c0,3.5,2.9,6.4,6.4,6.4h153c3.5,0,6.4-2.9,6.4-6.4V316.9C344.8,313.4,342,310.6,338.5,310.6z M167.6,181.3c-9.7-52,24.6-102.1,76.7-111.7S346.3,94.2,356,146.2c7,37.8-9.2,76.1-41.1,97.3c-1.7-3.9-3.8-7.7-6.2-11.1 c37.8-25.8,47.5-77.3,21.8-115c-25.8-37.8-77.3-47.5-115-21.8s-47.5,77.3-21.8,115c15.4,22.6,41,36.2,68.4,36.1h3.9 c0.8,0.4,1.7,0.8,2.5,1.1c4.8,1.7,8.8,5.4,10.9,10C227.3,267.7,177.3,233.3,167.6,181.3z M272.7,235.9 c-2.5-0.7-4.2-2.9-4.4-5.5v-1.6c0-3.1,2.5-5.7,5.7-5.7c0.6,0,1.1,0.1,1.7,0.3c18.4,5.9,30.9,23.1,30.9,42.5v44.6h-12.7v-44.6 C293.8,252.5,285.4,240.5,272.7,235.9z M299.8,222.8c-5.9-5.2-12.7-9.1-20.2-11.5c-9.7-3.1-20,2.2-23.2,11.9 c-0.6,1.8-0.9,3.7-0.9,5.7v1.6c0,1.1,0.1,2.3,0.4,3.4c-38.8-3.2-67.6-37.1-64.5-75.9s37.1-67.6,75.9-64.5 c38.8,3.2,67.6,37.1,64.5,75.9C330.1,191.2,318.2,210.9,299.8,222.8z M281.1,270.6v40h-38.2v-40 C255.5,272.9,268.5,272.9,281.1,270.6z M230.1,267.5v43h-12.7v-44.6c0-1.1,0.1-2.2,0.2-3.3 C221.7,264.6,225.8,266.2,230.1,267.5z M332.1,431.7H191.9V323.3h140.2V431.7z" class="st1"/></g></g><g><g><linearGradient id="SVGID_3_" x1="230.12" x2="300.233" y1="157.58" y2="157.58" gradientUnits="userSpaceOnUse"><stop offset="0" style="stop-color:#0f9"/><stop offset="1" style="stop-color:#3cf"/></linearGradient><path d="M291.4,164c10.6-9.1,11.8-25.1,2.7-35.7c-3.4-4-8-6.8-13-8v-13.7h-12.7v12.7h-12.7v-12.7h-12.7v12.7h-12.7 v12.7h6.4v63.7h-6.4v12.7h44.6c14.1,0,25.5-11.4,25.5-25.5C300.2,175.7,297,168.7,291.4,164z M274.7,195.8h-25.5v-25.5h25.5 c7,0,12.7,5.7,12.7,12.7C287.5,190.1,281.8,195.8,274.7,195.8z M274.7,157.6h-25.5v-25.5h25.5c7,0,12.7,5.7,12.7,12.7 S281.8,157.6,274.7,157.6z" class="st2"/></g></g></g></g></switch></svg>