<svg xmlns="http://www.w3.org/2000/svg" xmlns:xlink="http://www.w3.org/1999/xlink" id="Capa_1" x="0" y="0" version="1.1" viewBox="6 -6 512 512" xml:space="preserve" style="enable-background:new 6 -6 512 512"><style type="text/css">.st0{fill:url(#SVGID_1_)}.st1{fill:url(#SVGID_2_)}.st2{fill:url(#SVGID_3_)}.st3{fill:url(#SVGID_4_)}.st4{fill:url(#SVGID_5_)}.st5{fill:url(#SVGID_6_)}.st6{fill:url(#SVGID_7_)}.st7{fill:url(#SVGID_8_)}.st8{fill:url(#SVGID_9_)}.st9{fill:url(#SVGID_10_)}.st10{fill:url(#SVGID_11_)}.st11{fill:url(#SVGID_12_)}.st12{fill:url(#SVGID_13_)}.st13{fill:url(#SVGID_14_)}.st14{fill:url(#SVGID_15_)}.st15{fill:url(#SVGID_16_)}.st16{fill:url(#SVGID_17_)}.st17{fill:url(#SVGID_18_)}.st18{fill:url(#SVGID_19_)}.st19{fill:url(#SVGID_20_)}.st20{fill:url(#SVGID_21_)}.st21{fill:url(#SVGID_22_)}.st22{fill:url(#SVGID_23_)}.st23{fill:url(#SVGID_24_)}</style><switch><g><g><g><g><linearGradient id="SVGID_1_" x1="47.546" x2="476.454" y1="250" y2="250" gradientUnits="userSpaceOnUse"><stop offset="0" style="stop-color:#0f9"/><stop offset="1" style="stop-color:#3cf"/></linearGradient><path d="M433.6,157.6V78.4c0-3.9-3.2-7.1-7.1-7.1H97.6c-27.6,0-50,22.4-50,50v257.3c0,27.6,22.4,50,50,50h328.8 c3.9,0,7.1-3.2,7.1-7.1v-78.6h-7.1c27.6,0,50-22.4,50-50v-85.8C476.4,182.3,458.2,161.2,433.6,157.6z M97.6,85.6h321.7v71.5 l-321.7,0.5v-0.5c-19.7,0-35.7-16-35.7-35.7S77.8,85.6,97.6,85.6z M419.3,414.4H97.6c-19.7,0-35.7-16-35.7-35.7V156.3 c9.4,9.7,22.3,15.1,35.7,15.1v0.5l321.7-0.5v71.5H319.2c-27.6,0-50,22.4-50,50s22.4,50,50,50h100.1V414.4z M462.2,292.9 c0,19.7-16,35.7-35.7,35.7H319.2c-19.7,0-35.7-16-35.7-35.7s16-35.7,35.7-35.7h114.4v-0.6c10.9-1.6,20.9-6.7,28.6-14.5V292.9z M461.5,214.2c-2.9,14.1-13.8,25.1-27.9,27.9v-70.1C452.9,176,465.4,194.9,461.5,214.2z" class="st0"/></g></g><g><g><linearGradient id="SVGID_2_" x1="297.742" x2="340.633" y1="292.891" y2="292.891" gradientUnits="userSpaceOnUse"><stop offset="0" style="stop-color:#0f9"/><stop offset="1" style="stop-color:#3cf"/></linearGradient><path d="M319.2,271.4c-11.8,0-21.4,9.6-21.4,21.4s9.6,21.4,21.4,21.4s21.4-9.6,21.4-21.4S331,271.4,319.2,271.4z M319.2,300c-3.9,0-7.1-3.2-7.1-7.1c0-3.9,3.2-7.1,7.1-7.1c3.9,0,7.1,3.2,7.1,7.1C326.3,296.8,323.1,300,319.2,300z" class="st1"/></g></g><g><g><linearGradient id="SVGID_3_" x1="90.437" x2="404.969" y1="135.625" y2="135.625" gradientUnits="userSpaceOnUse"><stop offset="0" style="stop-color:#0f9"/><stop offset="1" style="stop-color:#3cf"/></linearGradient><rect width="314.5" height="14.3" x="90.4" y="128.5" class="st2"/></g></g><g><g><linearGradient id="SVGID_4_" x1="376.375" x2="397.821" y1="192.812" y2="192.812" gradientUnits="userSpaceOnUse"><stop offset="0" style="stop-color:#0f9"/><stop offset="1" style="stop-color:#3cf"/></linearGradient><rect width="21.4" height="14.3" x="376.4" y="185.7" class="st3"/></g></g><g><g><linearGradient id="SVGID_5_" x1="340.633" x2="362.079" y1="192.812" y2="192.812" gradientUnits="userSpaceOnUse"><stop offset="0" style="stop-color:#0f9"/><stop offset="1" style="stop-color:#3cf"/></linearGradient><rect width="21.4" height="14.3" x="340.6" y="185.7" class="st4"/></g></g><g><g><linearGradient id="SVGID_6_" x1="304.891" x2="326.336" y1="192.812" y2="192.812" gradientUnits="userSpaceOnUse"><stop offset="0" style="stop-color:#0f9"/><stop offset="1" style="stop-color:#3cf"/></linearGradient><rect width="21.4" height="14.3" x="304.9" y="185.7" class="st5"/></g></g><g><g><linearGradient id="SVGID_7_" x1="269.149" x2="290.594" y1="192.812" y2="192.812" gradientUnits="userSpaceOnUse"><stop offset="0" style="stop-color:#0f9"/><stop offset="1" style="stop-color:#3cf"/></linearGradient><rect width="21.4" height="14.3" x="269.1" y="185.7" class="st6"/></g></g><g><g><linearGradient id="SVGID_8_" x1="233.406" x2="254.851" y1="192.812" y2="192.812" gradientUnits="userSpaceOnUse"><stop offset="0" style="stop-color:#0f9"/><stop offset="1" style="stop-color:#3cf"/></linearGradient><rect width="21.4" height="14.3" x="233.4" y="185.7" class="st7"/></g></g><g><g><linearGradient id="SVGID_9_" x1="197.664" x2="219.109" y1="192.812" y2="192.812" gradientUnits="userSpaceOnUse"><stop offset="0" style="stop-color:#0f9"/><stop offset="1" style="stop-color:#3cf"/></linearGradient><rect width="21.4" height="14.3" x="197.7" y="185.7" class="st8"/></g></g><g><g><linearGradient id="SVGID_10_" x1="161.922" x2="183.367" y1="192.812" y2="192.812" gradientUnits="userSpaceOnUse"><stop offset="0" style="stop-color:#0f9"/><stop offset="1" style="stop-color:#3cf"/></linearGradient><rect width="21.4" height="14.3" x="161.9" y="185.7" class="st9"/></g></g><g><g><linearGradient id="SVGID_11_" x1="126.179" x2="147.625" y1="192.812" y2="192.812" gradientUnits="userSpaceOnUse"><stop offset="0" style="stop-color:#0f9"/><stop offset="1" style="stop-color:#3cf"/></linearGradient><rect width="21.4" height="14.3" x="126.2" y="185.7" class="st10"/></g></g><g><g><linearGradient id="SVGID_12_" x1="90.437" x2="111.882" y1="192.812" y2="192.812" gradientUnits="userSpaceOnUse"><stop offset="0" style="stop-color:#0f9"/><stop offset="1" style="stop-color:#3cf"/></linearGradient><rect width="21.4" height="14.3" x="90.4" y="185.7" class="st11"/></g></g><g><g><linearGradient id="SVGID_13_" x1="376.375" x2="397.821" y1="392.969" y2="392.969" gradientUnits="userSpaceOnUse"><stop offset="0" style="stop-color:#0f9"/><stop offset="1" style="stop-color:#3cf"/></linearGradient><rect width="21.4" height="14.3" x="376.4" y="385.8" class="st12"/></g></g><g><g><linearGradient id="SVGID_14_" x1="340.633" x2="362.079" y1="392.969" y2="392.969" gradientUnits="userSpaceOnUse"><stop offset="0" style="stop-color:#0f9"/><stop offset="1" style="stop-color:#3cf"/></linearGradient><rect width="21.4" height="14.3" x="340.6" y="385.8" class="st13"/></g></g><g><g><linearGradient id="SVGID_15_" x1="304.891" x2="326.336" y1="392.969" y2="392.969" gradientUnits="userSpaceOnUse"><stop offset="0" style="stop-color:#0f9"/><stop offset="1" style="stop-color:#3cf"/></linearGradient><rect width="21.4" height="14.3" x="304.9" y="385.8" class="st14"/></g></g><g><g><linearGradient id="SVGID_16_" x1="269.149" x2="290.594" y1="392.969" y2="392.969" gradientUnits="userSpaceOnUse"><stop offset="0" style="stop-color:#0f9"/><stop offset="1" style="stop-color:#3cf"/></linearGradient><rect width="21.4" height="14.3" x="269.1" y="385.8" class="st15"/></g></g><g><g><linearGradient id="SVGID_17_" x1="233.406" x2="254.851" y1="392.969" y2="392.969" gradientUnits="userSpaceOnUse"><stop offset="0" style="stop-color:#0f9"/><stop offset="1" style="stop-color:#3cf"/></linearGradient><rect width="21.4" height="14.3" x="233.4" y="385.8" class="st16"/></g></g><g><g><linearGradient id="SVGID_18_" x1="197.664" x2="219.109" y1="392.969" y2="392.969" gradientUnits="userSpaceOnUse"><stop offset="0" style="stop-color:#0f9"/><stop offset="1" style="stop-color:#3cf"/></linearGradient><rect width="21.4" height="14.3" x="197.7" y="385.8" class="st17"/></g></g><g><g><linearGradient id="SVGID_19_" x1="161.922" x2="183.367" y1="392.969" y2="392.969" gradientUnits="userSpaceOnUse"><stop offset="0" style="stop-color:#0f9"/><stop offset="1" style="stop-color:#3cf"/></linearGradient><rect width="21.4" height="14.3" x="161.9" y="385.8" class="st18"/></g></g><g><g><linearGradient id="SVGID_20_" x1="126.179" x2="147.625" y1="392.969" y2="392.969" gradientUnits="userSpaceOnUse"><stop offset="0" style="stop-color:#0f9"/><stop offset="1" style="stop-color:#3cf"/></linearGradient><rect width="21.4" height="14.3" x="126.2" y="385.8" class="st19"/></g></g><g><g><linearGradient id="SVGID_21_" x1="90.437" x2="111.882" y1="392.969" y2="392.969" gradientUnits="userSpaceOnUse"><stop offset="0" style="stop-color:#0f9"/><stop offset="1" style="stop-color:#3cf"/></linearGradient><rect width="21.4" height="14.3" x="90.4" y="385.8" class="st20"/></g></g><g><g><linearGradient id="SVGID_22_" x1="90.437" x2="404.969" y1="107.031" y2="107.031" gradientUnits="userSpaceOnUse"><stop offset="0" style="stop-color:#0f9"/><stop offset="1" style="stop-color:#3cf"/></linearGradient><rect width="314.5" height="14.3" x="90.4" y="99.9" class="st21"/></g></g><g><g><linearGradient id="SVGID_23_" x1="147.625" x2="211.969" y1="292.891" y2="292.891" gradientUnits="userSpaceOnUse"><stop offset="0" style="stop-color:#0f9"/><stop offset="1" style="stop-color:#3cf"/></linearGradient><path d="M210.8,300.3c-0.9-2.7-2.5-5.3-4.4-7.4c7.9-8.7,7.3-22.1-1.3-30c-2.1-2-4.7-3.5-7.4-4.4V250h-14.3v7.1 h-14.3V250h-14.3v7.1h-7.1v14.3h7.1v42.9h-7.1v14.3h7.1v7.1h14.3v-7.1h14.3v7.1h14.3v-8.5C208.8,323.5,214.6,311.4,210.8,300.3 z M190.5,314.3h-21.4V300h21.4c3.9,0,7.1,3.2,7.1,7.1C197.7,311.1,194.5,314.3,190.5,314.3z M190.5,285.7h-21.4v-14.3h21.4 c3.9,0,7.1,3.2,7.1,7.1C197.7,282.5,194.5,285.7,190.5,285.7z" class="st22"/></g></g><g><g><linearGradient id="SVGID_24_" x1="97.585" x2="254.851" y1="292.891" y2="292.891" gradientUnits="userSpaceOnUse"><stop offset="0" style="stop-color:#0f9"/><stop offset="1" style="stop-color:#3cf"/></linearGradient><path d="M176.2,214.3c-43.4,0-78.6,35.2-78.6,78.6s35.2,78.6,78.6,78.6s78.6-35.2,78.6-78.6 C254.8,249.5,219.6,214.3,176.2,214.3z M176.2,357.2c-35.5,0-64.3-28.8-64.3-64.3c0-35.5,28.8-64.3,64.3-64.3 s64.3,28.8,64.3,64.3C240.5,328.4,211.7,357.2,176.2,357.2z" class="st23"/></g></g></g></g></switch></svg>