<svg xmlns="http://www.w3.org/2000/svg" xmlns:xlink="http://www.w3.org/1999/xlink" style="enable-background:new 0 0 612 792" id="Layer_01" x="0" y="0" version="1.1" viewBox="0 0 612 792" xml:space="preserve"><style type="text/css">.st0,.st1,.st2{fill:none;stroke-miterlimit:10}.st0{stroke:#00d1b2;stroke-width:6}.st1{stroke:url(#SVGID_1_)}.st2{stroke:url(#SVGID_2_)}.st3{stroke:#fff;stroke-width:6}.st3,.st4,.st5,.st6{fill:none;stroke-miterlimit:10}.st4{stroke:#00d1b2;stroke-width:3}.st5{stroke:url(#SVGID_3_)}.st6{stroke:url(#SVGID_4_)}.st7{fill:#3c019e}.st8{fill:#03105b}.st9{fill:url(#SVGID_5_)}.st10,.st11,.st12{fill:none;stroke-miterlimit:10}.st10{stroke:#00d1b2;stroke-width:5}.st11{stroke:url(#SVGID_6_)}.st12{stroke:url(#SVGID_7_)}.st13{fill:#00d1b2}.st14{fill:url(#SVGID_8_)}</style><g><g><polygon points="198.7 536.1 198.7 415.5 302.2 358.8 404.8 415.5 404.8 536.1 302.2 595.4" class="st0"/><linearGradient id="SVGID_1_" x1="198.437" x2="302.717" y1="505.208" y2="505.208" gradientUnits="userSpaceOnUse"><stop style="stop-color:#66f" offset="0"/><stop style="stop-color:#897de4" offset="1"/></linearGradient><polyline points="302.2 595.4 302.2 474.7 198.7 415.5" class="st1"/><linearGradient id="SVGID_2_" x1="301.966" x2="405.061" y1="445.111" y2="445.111" gradientUnits="userSpaceOnUse"><stop style="stop-color:#66f" offset="0"/><stop style="stop-color:#897de4" offset="1"/></linearGradient><line x1="404.8" x2="302.2" y1="415.5" y2="474.7" class="st2"/></g><g><line x1="501.1" x2="302.7" y1="357.9" y2="472.6" class="st3"/><polygon points="102.4 591.3 102.4 357.9 302.7 248.2 501.1 357.9 501.1 591.3 302.7 705.9" class="st3"/><polyline points="302.7 705.9 302.7 472.6 102.4 357.9" class="st3"/></g><g><g><polygon points="274.6 46.7 274.6 14.9 301.9 0 328.9 14.9 328.9 46.7 301.9 62.3" class="st4"/><linearGradient id="SVGID_3_" x1="274.349" x2="302.372" y1="38.418" y2="38.418" gradientUnits="userSpaceOnUse"><stop style="stop-color:#66f" offset="0"/><stop style="stop-color:#897de4" offset="1"/></linearGradient><polyline points="301.9 62.3 301.9 30.6 274.6 14.9" class="st5"/><linearGradient id="SVGID_4_" x1="301.622" x2="329.149" y1="22.746" y2="22.746" gradientUnits="userSpaceOnUse"><stop style="stop-color:#66f" offset="0"/><stop style="stop-color:#897de4" offset="1"/></linearGradient><line x1="328.9" x2="301.9" y1="14.9" y2="30.6" class="st6"/></g><g><g><polygon points="275.3 46.5 275.3 15.4 302 .8 328.4 15.4 328.4 46.5 302 61.7" class="st7"/><polyline points="302 61.7 302 30.7 275.3 15.4" class="st7"/><line x1="328.4" x2="302" y1="15.4" y2="30.7" class="st8"/></g><linearGradient id="SVGID_5_" x1="301.562" x2="302.622" y1="30.848" y2="30.848" gradientUnits="userSpaceOnUse"><stop style="stop-color:#66f" offset="0"/><stop style="stop-color:#897de4" offset="1"/></linearGradient><path d="M301.6,31.1l0.5-0.7l0.5,0.7C302.6,31.1,302.3,31.5,301.6,31.1z" class="st9"/><line x1="302.1" x2="275.4" y1="30.7" y2="15.4" class="st4"/><line x1="328.5" x2="302.1" y1="15.4" y2="30.7" class="st4"/></g></g><g><polygon points="238.9 250.5 238.9 177 302 142.5 364.6 177 364.6 250.5 302 286.7" class="st10"/><linearGradient id="SVGID_6_" x1="238.684" x2="302.534" y1="231.625" y2="231.625" gradientUnits="userSpaceOnUse"><stop style="stop-color:#66f" offset="0"/><stop style="stop-color:#897de4" offset="1"/></linearGradient><polyline points="302 286.7 302 213.1 238.9 177" class="st11"/><linearGradient id="SVGID_7_" x1="301.784" x2="364.814" y1="195.081" y2="195.081" gradientUnits="userSpaceOnUse"><stop style="stop-color:#66f" offset="0"/><stop style="stop-color:#897de4" offset="1"/></linearGradient><line x1="364.6" x2="302" y1="177" y2="213.1" class="st12"/></g><circle cx="582.1" cy="386.2" r="3" class="st13"/><circle cx="529.9" cy="299.9" r="3" class="st13"/><circle cx="470.6" cy="262.5" r="3" class="st13"/><circle cx="302.7" cy="304.1" r="3" class="st13"/><circle cx="302.7" cy="337.1" r="3" class="st13"/><g><circle cx="152.5" cy="564.6" r="3" class="st13"/><circle cx="181.5" cy="548.1" r="3" class="st13"/><circle cx="120.6" cy="582.7" r="3" class="st13"/></g><g><circle cx="456.6" cy="562" r="3" class="st13"/><circle cx="485.6" cy="578.5" r="3" class="st13"/><circle cx="424.7" cy="543.9" r="3" class="st13"/></g><circle cx="561.6" cy="318.3" r="3" class="st13"/><circle cx="501.1" cy="280.6" r="3" class="st13"/><circle cx="440.5" cy="245.3" r="3" class="st13"/><circle cx="383.2" cy="209.4" r="3" class="st13"/><circle cx="411.6" cy="226.9" r="3" class="st13"/><circle cx="582.7" cy="350.5" r="3" class="st13"/><circle cx="582.1" cy="420.7" r="3" class="st13"/><circle cx="582.1" cy="456.1" r="3" class="st13"/><circle cx="582.1" cy="489.5" r="3" class="st13"/><circle cx="582.7" cy="526" r="3" class="st13"/><circle cx="494.5" cy="682.6" r="3" class="st13"/><circle cx="580.8" cy="629.6" r="3" class="st13"/><circle cx="582.1" cy="559.7" r="3" class="st13"/><circle cx="582.1" cy="595.4" r="3" class="st13"/><circle cx="555.3" cy="649.2" r="3" class="st13"/><circle cx="526.8" cy="665.2" r="3" class="st13"/><circle cx="463.4" cy="697.5" r="3" class="st13"/><circle cx="432.5" cy="715.4" r="3" class="st13"/><circle cx="401.8" cy="731.8" r="3" class="st13"/><circle cx="371.7" cy="746.6" r="3" class="st13"/><circle cx="340.8" cy="763.9" r="3" class="st13"/><circle cx="310.8" cy="780.6" r="3" class="st13"/><circle cx="280.1" cy="774.7" r="3" class="st13"/><circle cx="247.5" cy="755.8" r="3" class="st13"/><circle cx="220.2" cy="740.7" r="3" class="st13"/><circle cx="157.8" cy="705.9" r="3" class="st13"/><circle cx="125.1" cy="689" r="3" class="st13"/><circle cx="188.1" cy="721.3" r="3" class="st13"/><circle cx="66.1" cy="654.6" r="3" class="st13"/><circle cx="97.9" cy="671.5" r="3" class="st13"/><circle cx="36.3" cy="638.3" r="3" class="st13"/><circle cx="29.3" cy="605.9" r="3" class="st13"/><circle cx="30.4" cy="573.7" r="3" class="st13"/><circle cx="30.4" cy="536.8" r="3" class="st13"/><circle cx="29.3" cy="504.5" r="3" class="st13"/><circle cx="29.3" cy="467.8" r="3" class="st13"/><circle cx="29.3" cy="435.2" r="3" class="st13"/><circle cx="29.3" cy="399.3" r="3" class="st13"/><circle cx="29.3" cy="363.4" r="3" class="st13"/><circle cx="202.5" cy="219.3" r="3" class="st13"/><circle cx="169" cy="238.2" r="3" class="st13"/><circle cx="139.2" cy="253.2" r="3" class="st13"/><circle cx="29.3" cy="327.8" r="3" class="st13"/><circle cx="48.1" cy="302.9" r="3" class="st13"/><circle cx="229.9" cy="203.5" r="3" class="st13"/><circle cx="108.1" cy="271.5" r="3" class="st13"/><circle cx="78.4" cy="286.7" r="3" class="st13"/><g><g><polygon points="240.6 250 240.6 178.1 302.3 144.3 363.5 178.1 363.5 250 302.3 285.3" class="st7"/><polyline points="302.3 285.3 302.3 213.4 240.6 178.1" class="st7"/><line x1="363.5" x2="302.3" y1="178.1" y2="213.4" class="st8"/></g><linearGradient id="SVGID_8_" x1="301.317" x2="303.771" y1="213.825" y2="213.825" gradientUnits="userSpaceOnUse"><stop style="stop-color:#66f" offset="0"/><stop style="stop-color:#897de4" offset="1"/></linearGradient><path d="M301.3,214.5l1.3-1.7l1.2,1.7C303.8,214.5,302.9,215.3,301.3,214.5z" class="st14"/><line x1="302.6" x2="240.8" y1="213.4" y2="178.1" class="st10"/><line x1="363.7" x2="302.6" y1="178.1" y2="213.4" class="st10"/></g></g><text transform="matrix(1 0 0 1 -2911.5 -3331.5)"><tspan style="font-family:'MyriadPro-Regular';font-size:12px" x="0" y="0">max-width: 600px;</tspan><tspan style="font-family:'MyriadPro-Regular';font-size:12px" x="0" y="14.4"> margin: 0 auto;</tspan></text></svg>