<svg xmlns="http://www.w3.org/2000/svg" xmlns:xlink="http://www.w3.org/1999/xlink" style="enable-background:new 0 0 612 792" x="0" y="0" version="1.1" viewBox="0 0 612 792" xml:space="preserve"><style type="text/css">.st0{display:none}.st1{display:inline;fill:#3c019e}.st2,.st3,.st4{fill:none;stroke-miterlimit:10}.st2{stroke:#fff;stroke-width:5}.st3{stroke:url(#SVGID_1_)}.st4{stroke:url(#SVGID_2_)}.st5{fill:#3c019e}.st6{fill:#03105b}.st7{fill:url(#SVGID_3_)}.st8,.st9{fill:none;stroke:url(#SVGID_4_);stroke-miterlimit:10}.st9{stroke:url(#SVGID_5_)}.st10{fill:url(#SVGID_6_)}.st11,.st12{fill:none;stroke:url(#SVGID_7_);stroke-miterlimit:10}.st12{stroke:url(#SVGID_8_)}.st13{fill:url(#SVGID_9_)}.st14,.st15{fill:none;stroke:url(#SVGID_10_);stroke-miterlimit:10}.st15{stroke:url(#SVGID_11_)}.st16{fill:url(#SVGID_12_)}.st17,.st18{fill:none;stroke:url(#SVGID_13_);stroke-miterlimit:10}.st18{stroke:url(#SVGID_14_)}.st19{fill:url(#SVGID_15_)}.st20,.st21{fill:none;stroke:url(#SVGID_16_);stroke-miterlimit:10}.st21{stroke:url(#SVGID_17_)}.st22{fill:url(#SVGID_18_)}.st23,.st24{fill:none;stroke:url(#SVGID_19_);stroke-miterlimit:10}.st24{stroke:url(#SVGID_20_)}.st25{fill:url(#SVGID_21_)}.st26,.st27{fill:none;stroke:url(#SVGID_22_);stroke-miterlimit:10}.st27{stroke:url(#SVGID_23_)}.st28{fill:url(#SVGID_24_)}.st29,.st30{fill:none;stroke:url(#SVGID_25_);stroke-miterlimit:10}.st30{stroke:url(#SVGID_26_)}.st31{fill:url(#SVGID_27_)}.st32,.st33{fill:none;stroke:url(#SVGID_28_);stroke-miterlimit:10}.st33{stroke:url(#SVGID_29_)}.st34{fill:url(#SVGID_30_)}.st35,.st36{fill:none;stroke:url(#SVGID_31_);stroke-miterlimit:10}.st36{stroke:url(#SVGID_32_)}.st37{fill:url(#SVGID_33_)}.st38,.st39,.st40{fill:none;stroke-miterlimit:10}.st38{stroke:#00d1b2;stroke-width:5}.st39{stroke:url(#SVGID_34_)}.st40{stroke:url(#SVGID_35_)}.st41{fill:url(#SVGID_36_)}.st42,.st43{fill:none;stroke:url(#SVGID_37_);stroke-miterlimit:10}.st43{stroke:url(#SVGID_38_)}.st44{fill:url(#SVGID_39_)}.st45,.st46{fill:none;stroke:url(#SVGID_40_);stroke-miterlimit:10}.st46{stroke:url(#SVGID_41_)}.st47{fill:url(#SVGID_42_)}.st48,.st49{fill:none;stroke:url(#SVGID_43_);stroke-miterlimit:10}.st49{stroke:url(#SVGID_44_)}.st50{fill:url(#SVGID_45_)}.st51,.st52{fill:none;stroke:url(#SVGID_46_);stroke-miterlimit:10}.st52{stroke:url(#SVGID_47_)}.st53{fill:url(#SVGID_48_)}.st54,.st55{fill:none;stroke:url(#SVGID_49_);stroke-miterlimit:10}.st55{stroke:url(#SVGID_50_)}.st56{fill:url(#SVGID_51_)}.st57,.st58{fill:none;stroke:url(#SVGID_52_);stroke-miterlimit:10}.st58{stroke:url(#SVGID_53_)}.st59{fill:url(#SVGID_54_)}.st60,.st61{fill:none;stroke:url(#SVGID_55_);stroke-miterlimit:10}.st61{stroke:url(#SVGID_56_)}.st62{fill:url(#SVGID_57_)}.st63,.st64{fill:none;stroke:url(#SVGID_58_);stroke-miterlimit:10}.st64{stroke:url(#SVGID_59_)}.st65{fill:url(#SVGID_60_)}.st66,.st67{fill:none;stroke:url(#SVGID_61_);stroke-miterlimit:10}.st67{stroke:url(#SVGID_62_)}.st68{fill:url(#SVGID_63_)}.st69,.st70{fill:none;stroke:url(#SVGID_64_);stroke-miterlimit:10}.st70{stroke:url(#SVGID_65_)}.st71{fill:url(#SVGID_66_)}.st72,.st73{fill:none;stroke:url(#SVGID_67_);stroke-miterlimit:10}.st73{stroke:url(#SVGID_68_)}.st74{fill:url(#SVGID_69_)}.st75,.st76{fill:none;stroke:url(#SVGID_70_);stroke-miterlimit:10}.st76{stroke:url(#SVGID_71_)}.st77{fill:url(#SVGID_72_)}.st78,.st79{fill:none;stroke:url(#SVGID_73_);stroke-miterlimit:10}.st79{stroke:url(#SVGID_74_)}.st80{fill:url(#SVGID_75_)}.st81,.st82{fill:none;stroke:url(#SVGID_76_);stroke-miterlimit:10}.st82{stroke:url(#SVGID_77_)}.st83{fill:url(#SVGID_78_)}.st84,.st85{fill:none;stroke:url(#SVGID_79_);stroke-miterlimit:10}.st85{stroke:url(#SVGID_80_)}.st86{fill:url(#SVGID_81_)}.st87{fill:#00d1b2}</style><g id="Calque_2" class="st0"><rect width="612" height="791.2" y=".8" class="st1"/></g><g id="Layer_01"><text transform="matrix(1 0 0 1 -2911.5 -3331.5)"><tspan style="font-family:'MyriadPro-Regular';font-size:12px" x="0" y="0">max-width: 600px;</tspan><tspan style="font-family:'MyriadPro-Regular';font-size:12px" x="0" y="14.4"> margin: 0 auto;</tspan></text><g><g><g><g><g><polygon points="229.6 447.9 229.6 359.5 305.4 318 380.6 359.5 380.6 447.9 305.4 491.4" class="st2"/><linearGradient id="SVGID_1_" x1="229.337" x2="305.945" y1="425.234" y2="425.234" gradientUnits="userSpaceOnUse"><stop style="stop-color:#66f" offset="0"/><stop style="stop-color:#897de4" offset="1"/></linearGradient><polyline points="305.4 491.4 305.4 403 229.6 359.5" class="st3"/><linearGradient id="SVGID_2_" x1="305.195" x2="380.867" y1="381.258" y2="381.258" gradientUnits="userSpaceOnUse"><stop style="stop-color:#66f" offset="0"/><stop style="stop-color:#897de4" offset="1"/></linearGradient><line x1="380.6" x2="305.4" y1="359.5" y2="403" class="st4"/></g><g><g><polygon points="231.6 447.3 231.6 360.8 305.8 320.2 379.3 360.8 379.3 447.3 305.8 489.7" class="st5"/><polyline points="305.8 489.7 305.8 403.3 231.6 360.8" class="st5"/><line x1="379.3" x2="305.8" y1="360.8" y2="403.3" class="st6"/></g><linearGradient id="SVGID_3_" x1="304.583" x2="307.533" y1="403.791" y2="403.791" gradientUnits="userSpaceOnUse"><stop style="stop-color:#66f" offset="0"/><stop style="stop-color:#897de4" offset="1"/></linearGradient><path d="M304.6,404.6l1.5-2.1l1.4,2.1C307.5,404.6,306.5,405.5,304.6,404.6z" class="st7"/><line x1="306.1" x2="231.9" y1="403.3" y2="360.8" class="st2"/><line x1="379.6" x2="306.1" y1="360.8" y2="403.3" class="st2"/></g></g><g><g><polygon points="305.8 490 305.8 401.6 381.6 360 456.8 401.6 456.8 490 381.6 533.4" class="st2"/><linearGradient id="SVGID_4_" x1="305.507" x2="382.115" y1="467.268" y2="467.268" gradientUnits="userSpaceOnUse"><stop style="stop-color:#66f" offset="0"/><stop style="stop-color:#897de4" offset="1"/></linearGradient><polyline points="381.6 533.4 381.6 445 305.8 401.6" class="st8"/><linearGradient id="SVGID_5_" x1="381.365" x2="457.037" y1="423.291" y2="423.291" gradientUnits="userSpaceOnUse"><stop style="stop-color:#66f" offset="0"/><stop style="stop-color:#897de4" offset="1"/></linearGradient><line x1="456.8" x2="381.6" y1="401.6" y2="445" class="st9"/></g><g><g><polygon points="307.7 489.3 307.7 402.8 381.9 362.2 455.5 402.8 455.5 489.3 381.9 531.8" class="st5"/><polyline points="381.9 531.8 381.9 445.3 307.7 402.8" class="st5"/><line x1="455.5" x2="381.9" y1="402.8" y2="445.3" class="st6"/></g><linearGradient id="SVGID_6_" x1="380.753" x2="383.703" y1="445.825" y2="445.825" gradientUnits="userSpaceOnUse"><stop style="stop-color:#66f" offset="0"/><stop style="stop-color:#897de4" offset="1"/></linearGradient><path d="M380.8,446.7l1.5-2.1l1.4,2.1C383.7,446.7,382.7,447.6,380.8,446.7z" class="st10"/><line x1="382.3" x2="308.1" y1="445.3" y2="402.8" class="st2"/><line x1="455.8" x2="382.3" y1="402.8" y2="445.3" class="st2"/></g></g><g><g><polygon points="383 534 383 445.7 458.8 404.1 534 445.7 534 534 458.8 577.5" class="st2"/><linearGradient id="SVGID_7_" x1="382.703" x2="459.31" y1="511.348" y2="511.348" gradientUnits="userSpaceOnUse"><stop style="stop-color:#66f" offset="0"/><stop style="stop-color:#897de4" offset="1"/></linearGradient><polyline points="458.8 577.5 458.8 489.1 383 445.7" class="st11"/><linearGradient id="SVGID_8_" x1="458.56" x2="534.233" y1="467.372" y2="467.372" gradientUnits="userSpaceOnUse"><stop style="stop-color:#66f" offset="0"/><stop style="stop-color:#897de4" offset="1"/></linearGradient><line x1="534" x2="458.8" y1="445.7" y2="489.1" class="st12"/></g><g><g><polygon points="384.9 533.4 384.9 446.9 459.1 406.3 532.7 446.9 532.7 533.4 459.1 575.8" class="st5"/><polyline points="459.1 575.8 459.1 489.4 384.9 446.9" class="st5"/><line x1="532.7" x2="459.1" y1="446.9" y2="489.4" class="st6"/></g><linearGradient id="SVGID_9_" x1="457.948" x2="460.898" y1="489.905" y2="489.905" gradientUnits="userSpaceOnUse"><stop style="stop-color:#66f" offset="0"/><stop style="stop-color:#897de4" offset="1"/></linearGradient><path d="M457.9,490.7l1.5-2.1l1.4,2.1C460.9,490.7,459.9,491.6,457.9,490.7z" class="st13"/><line x1="459.5" x2="385.2" y1="489.4" y2="446.9" class="st2"/><line x1="533" x2="459.5" y1="446.9" y2="489.4" class="st2"/></g></g></g><g><g><g><polygon points="153.6 491.6 153.6 403.2 229.4 361.6 304.6 403.2 304.6 491.6 229.4 535" class="st2"/><linearGradient id="SVGID_10_" x1="153.303" x2="229.91" y1="468.858" y2="468.858" gradientUnits="userSpaceOnUse"><stop style="stop-color:#66f" offset="0"/><stop style="stop-color:#897de4" offset="1"/></linearGradient><polyline points="229.4 535 229.4 446.6 153.6 403.2" class="st14"/><linearGradient id="SVGID_11_" x1="229.16" x2="304.833" y1="424.882" y2="424.882" gradientUnits="userSpaceOnUse"><stop style="stop-color:#66f" offset="0"/><stop style="stop-color:#897de4" offset="1"/></linearGradient><line x1="304.6" x2="229.4" y1="403.2" y2="446.6" class="st15"/></g><g><g><polygon points="155.5 490.9 155.5 404.4 229.7 363.8 303.3 404.4 303.3 490.9 229.7 533.3" class="st5"/><polyline points="229.7 533.3 229.7 446.9 155.5 404.4" class="st5"/><line x1="303.3" x2="229.7" y1="404.4" y2="446.9" class="st6"/></g><linearGradient id="SVGID_12_" x1="228.549" x2="231.498" y1="447.415" y2="447.415" gradientUnits="userSpaceOnUse"><stop style="stop-color:#66f" offset="0"/><stop style="stop-color:#897de4" offset="1"/></linearGradient><path d="M228.5,448.2l1.5-2.1l1.4,2.1C231.5,448.2,230.5,449.1,228.5,448.2z" class="st16"/><line x1="230.1" x2="155.8" y1="446.9" y2="404.4" class="st2"/><line x1="303.6" x2="230.1" y1="404.4" y2="446.9" class="st2"/></g></g><g><g><polygon points="229.7 533.6 229.7 445.2 305.6 403.6 380.8 445.2 380.8 533.6 305.6 577" class="st2"/><linearGradient id="SVGID_13_" x1="229.473" x2="306.08" y1="510.891" y2="510.891" gradientUnits="userSpaceOnUse"><stop style="stop-color:#66f" offset="0"/><stop style="stop-color:#897de4" offset="1"/></linearGradient><polyline points="305.6 577 305.6 488.6 229.7 445.2" class="st17"/><linearGradient id="SVGID_14_" x1="305.33" x2="381.003" y1="466.915" y2="466.915" gradientUnits="userSpaceOnUse"><stop style="stop-color:#66f" offset="0"/><stop style="stop-color:#897de4" offset="1"/></linearGradient><line x1="380.8" x2="305.6" y1="445.2" y2="488.6" class="st18"/></g><g><g><polygon points="231.7 532.9 231.7 446.5 305.9 405.8 379.4 446.5 379.4 532.9 305.9 575.4" class="st5"/><polyline points="305.9 575.4 305.9 488.9 231.7 446.5" class="st5"/><line x1="379.4" x2="305.9" y1="446.5" y2="488.9" class="st6"/></g><linearGradient id="SVGID_15_" x1="304.719" x2="307.668" y1="489.448" y2="489.448" gradientUnits="userSpaceOnUse"><stop style="stop-color:#66f" offset="0"/><stop style="stop-color:#897de4" offset="1"/></linearGradient><path d="M304.7,490.3l1.5-2.1l1.4,2.1C307.7,490.3,306.7,491.2,304.7,490.3z" class="st19"/><line x1="306.2" x2="232" y1="488.9" y2="446.5" class="st2"/><line x1="379.8" x2="306.2" y1="446.5" y2="488.9" class="st2"/></g></g><g><g><polygon points="306.9 577.7 306.9 489.3 382.8 447.7 457.9 489.3 457.9 577.7 382.8 621.1" class="st2"/><linearGradient id="SVGID_16_" x1="306.668" x2="383.276" y1="554.972" y2="554.972" gradientUnits="userSpaceOnUse"><stop style="stop-color:#66f" offset="0"/><stop style="stop-color:#897de4" offset="1"/></linearGradient><polyline points="382.8 621.1 382.8 532.7 306.9 489.3" class="st20"/><linearGradient id="SVGID_17_" x1="382.526" x2="458.199" y1="510.995" y2="510.995" gradientUnits="userSpaceOnUse"><stop style="stop-color:#66f" offset="0"/><stop style="stop-color:#897de4" offset="1"/></linearGradient><line x1="457.9" x2="382.8" y1="489.3" y2="532.7" class="st21"/></g><g><g><polygon points="308.9 577 308.9 490.5 383.1 449.9 456.6 490.5 456.6 577 383.1 619.5" class="st5"/><polyline points="383.1 619.5 383.1 533 308.9 490.5" class="st5"/><line x1="456.6" x2="383.1" y1="490.5" y2="533" class="st6"/></g><linearGradient id="SVGID_18_" x1="381.914" x2="384.864" y1="533.529" y2="533.529" gradientUnits="userSpaceOnUse"><stop style="stop-color:#66f" offset="0"/><stop style="stop-color:#897de4" offset="1"/></linearGradient><path d="M381.9,534.4l1.5-2.1l1.4,2.1C384.9,534.4,383.8,535.3,381.9,534.4z" class="st22"/><line x1="383.4" x2="309.2" y1="533" y2="490.5" class="st2"/><line x1="457" x2="383.4" y1="490.5" y2="533" class="st2"/></g></g></g><g><g><g><polygon points="77.4 535.9 77.4 447.6 153.2 406 228.4 447.6 228.4 535.9 153.2 579.4" class="st2"/><linearGradient id="SVGID_19_" x1="77.139" x2="153.746" y1="513.239" y2="513.239" gradientUnits="userSpaceOnUse"><stop style="stop-color:#66f" offset="0"/><stop style="stop-color:#897de4" offset="1"/></linearGradient><polyline points="153.2 579.4 153.2 491 77.4 447.6" class="st23"/><linearGradient id="SVGID_20_" x1="152.996" x2="228.669" y1="469.263" y2="469.263" gradientUnits="userSpaceOnUse"><stop style="stop-color:#66f" offset="0"/><stop style="stop-color:#897de4" offset="1"/></linearGradient><line x1="228.4" x2="153.2" y1="447.6" y2="491" class="st24"/></g><g><g><polygon points="79.4 535.3 79.4 448.8 153.6 408.2 227.1 448.8 227.1 535.3 153.6 577.7" class="st5"/><polyline points="153.6 577.7 153.6 491.3 79.4 448.8" class="st5"/><line x1="227.1" x2="153.6" y1="448.8" y2="491.3" class="st6"/></g><linearGradient id="SVGID_21_" x1="152.384" x2="155.334" y1="491.796" y2="491.796" gradientUnits="userSpaceOnUse"><stop style="stop-color:#66f" offset="0"/><stop style="stop-color:#897de4" offset="1"/></linearGradient><path d="M152.4,492.6l1.5-2.1l1.4,2.1C155.3,492.6,154.3,493.5,152.4,492.6z" class="st25"/><line x1="153.9" x2="79.7" y1="491.3" y2="448.8" class="st2"/><line x1="227.4" x2="153.9" y1="448.8" y2="491.3" class="st2"/></g></g><g><g><polygon points="153.6 578 153.6 489.6 229.4 448 304.6 489.6 304.6 578 229.4 621.4" class="st2"/><linearGradient id="SVGID_22_" x1="153.309" x2="229.916" y1="555.273" y2="555.273" gradientUnits="userSpaceOnUse"><stop style="stop-color:#66f" offset="0"/><stop style="stop-color:#897de4" offset="1"/></linearGradient><polyline points="229.4 621.4 229.4 533 153.6 489.6" class="st26"/><linearGradient id="SVGID_23_" x1="229.166" x2="304.839" y1="511.296" y2="511.296" gradientUnits="userSpaceOnUse"><stop style="stop-color:#66f" offset="0"/><stop style="stop-color:#897de4" offset="1"/></linearGradient><line x1="304.6" x2="229.4" y1="489.6" y2="533" class="st27"/></g><g><g><polygon points="155.5 577.3 155.5 490.8 229.7 450.2 303.3 490.8 303.3 577.3 229.7 619.8" class="st5"/><polyline points="229.7 619.8 229.7 533.3 155.5 490.8" class="st5"/><line x1="303.3" x2="229.7" y1="490.8" y2="533.3" class="st6"/></g><linearGradient id="SVGID_24_" x1="228.554" x2="231.504" y1="533.83" y2="533.83" gradientUnits="userSpaceOnUse"><stop style="stop-color:#66f" offset="0"/><stop style="stop-color:#897de4" offset="1"/></linearGradient><path d="M228.6,534.7l1.5-2.1l1.4,2.1C231.5,534.7,230.5,535.6,228.6,534.7z" class="st28"/><line x1="230.1" x2="155.9" y1="533.3" y2="490.8" class="st2"/><line x1="303.6" x2="230.1" y1="490.8" y2="533.3" class="st2"/></g></g><g><g><polygon points="230.8 622.1 230.8 533.7 306.6 492.1 381.8 533.7 381.8 622.1 306.6 665.5" class="st2"/><linearGradient id="SVGID_25_" x1="230.504" x2="307.111" y1="599.353" y2="599.353" gradientUnits="userSpaceOnUse"><stop style="stop-color:#66f" offset="0"/><stop style="stop-color:#897de4" offset="1"/></linearGradient><polyline points="306.6 665.5 306.6 577.1 230.8 533.7" class="st29"/><linearGradient id="SVGID_26_" x1="306.361" x2="382.034" y1="555.377" y2="555.377" gradientUnits="userSpaceOnUse"><stop style="stop-color:#66f" offset="0"/><stop style="stop-color:#897de4" offset="1"/></linearGradient><line x1="381.8" x2="306.6" y1="533.7" y2="577.1" class="st30"/></g><g><g><polygon points="232.7 621.4 232.7 534.9 306.9 494.3 380.5 534.9 380.5 621.4 306.9 663.8" class="st5"/><polyline points="306.9 663.8 306.9 577.4 232.7 534.9" class="st5"/><line x1="380.5" x2="306.9" y1="534.9" y2="577.4" class="st6"/></g><linearGradient id="SVGID_27_" x1="305.75" x2="308.7" y1="577.91" y2="577.91" gradientUnits="userSpaceOnUse"><stop style="stop-color:#66f" offset="0"/><stop style="stop-color:#897de4" offset="1"/></linearGradient><path d="M305.7,578.7l1.5-2.1l1.4,2.1C308.7,578.7,307.7,579.6,305.7,578.7z" class="st31"/><line x1="307.3" x2="233.1" y1="577.4" y2="534.9" class="st2"/><line x1="380.8" x2="307.3" y1="534.9" y2="577.4" class="st2"/></g></g></g></g><g><g><polygon points="229.6 361.1 229.6 272.8 305.4 231.2 380.6 272.8 380.6 361.1 305.4 404.6" class="st2"/><linearGradient id="SVGID_28_" x1="229.337" x2="305.945" y1="338.44" y2="338.44" gradientUnits="userSpaceOnUse"><stop style="stop-color:#66f" offset="0"/><stop style="stop-color:#897de4" offset="1"/></linearGradient><polyline points="305.4 404.6 305.4 316.2 229.6 272.8" class="st32"/><linearGradient id="SVGID_29_" x1="305.195" x2="380.867" y1="294.464" y2="294.464" gradientUnits="userSpaceOnUse"><stop style="stop-color:#66f" offset="0"/><stop style="stop-color:#897de4" offset="1"/></linearGradient><line x1="380.6" x2="305.4" y1="272.8" y2="316.2" class="st33"/></g><g><g><polygon points="231.6 360.5 231.6 274 305.8 233.4 379.3 274 379.3 360.5 305.8 402.9" class="st5"/><polyline points="305.8 402.9 305.8 316.5 231.6 274" class="st5"/><line x1="379.3" x2="305.8" y1="274" y2="316.5" class="st6"/></g><linearGradient id="SVGID_30_" x1="304.583" x2="307.533" y1="316.998" y2="316.998" gradientUnits="userSpaceOnUse"><stop style="stop-color:#66f" offset="0"/><stop style="stop-color:#897de4" offset="1"/></linearGradient><path d="M304.6,317.8l1.5-2.1l1.4,2.1C307.5,317.8,306.5,318.7,304.6,317.8z" class="st34"/><line x1="306.1" x2="231.9" y1="316.5" y2="274" class="st2"/><line x1="379.6" x2="306.1" y1="274" y2="316.5" class="st2"/></g></g><g><g><polygon points="305.8 403.2 305.8 314.8 381.6 273.2 456.8 314.8 456.8 403.2 381.6 446.6" class="st2"/><linearGradient id="SVGID_31_" x1="305.507" x2="382.115" y1="380.474" y2="380.474" gradientUnits="userSpaceOnUse"><stop style="stop-color:#66f" offset="0"/><stop style="stop-color:#897de4" offset="1"/></linearGradient><polyline points="381.6 446.6 381.6 358.2 305.8 314.8" class="st35"/><linearGradient id="SVGID_32_" x1="381.365" x2="457.037" y1="336.498" y2="336.498" gradientUnits="userSpaceOnUse"><stop style="stop-color:#66f" offset="0"/><stop style="stop-color:#897de4" offset="1"/></linearGradient><line x1="456.8" x2="381.6" y1="314.8" y2="358.2" class="st36"/></g><g><g><polygon points="307.7 402.5 307.7 316 381.9 275.4 455.5 316 455.5 402.5 381.9 445" class="st5"/><polyline points="381.9 445 381.9 358.5 307.7 316" class="st5"/><line x1="455.5" x2="381.9" y1="316" y2="358.5" class="st6"/></g><linearGradient id="SVGID_33_" x1="380.753" x2="383.703" y1="359.031" y2="359.031" gradientUnits="userSpaceOnUse"><stop style="stop-color:#66f" offset="0"/><stop style="stop-color:#897de4" offset="1"/></linearGradient><path d="M380.8,359.9l1.5-2.1l1.4,2.1C383.7,359.9,382.7,360.8,380.8,359.9z" class="st37"/><line x1="382.3" x2="308.1" y1="358.5" y2="316" class="st2"/><line x1="455.8" x2="382.3" y1="316" y2="358.5" class="st2"/></g></g><g><g><polygon points="437.7 478.9 437.7 390.6 513.5 349 588.7 390.6 588.7 478.9 513.5 522.4" class="st38"/><linearGradient id="SVGID_34_" x1="437.429" x2="514.037" y1="456.242" y2="456.242" gradientUnits="userSpaceOnUse"><stop style="stop-color:#66f" offset="0"/><stop style="stop-color:#897de4" offset="1"/></linearGradient><polyline points="513.5 522.4 513.5 434 437.7 390.6" class="st39"/><linearGradient id="SVGID_35_" x1="513.287" x2="588.96" y1="412.266" y2="412.266" gradientUnits="userSpaceOnUse"><stop style="stop-color:#66f" offset="0"/><stop style="stop-color:#897de4" offset="1"/></linearGradient><line x1="588.7" x2="513.5" y1="390.6" y2="434" class="st40"/></g><g><g><polygon points="439.6 478.3 439.6 391.8 513.8 351.2 587.4 391.8 587.4 478.3 513.8 520.7" class="st5"/><polyline points="513.8 520.7 513.8 434.3 439.6 391.8" class="st5"/><line x1="587.4" x2="513.8" y1="391.8" y2="434.3" class="st6"/></g><linearGradient id="SVGID_36_" x1="512.675" x2="515.625" y1="434.799" y2="434.799" gradientUnits="userSpaceOnUse"><stop style="stop-color:#66f" offset="0"/><stop style="stop-color:#897de4" offset="1"/></linearGradient><path d="M512.7,435.6l1.5-2.1l1.4,2.1C515.6,435.6,514.6,436.5,512.7,435.6z" class="st41"/><line x1="514.2" x2="440" y1="434.3" y2="391.8" class="st38"/><line x1="587.7" x2="514.2" y1="391.8" y2="434.3" class="st38"/></g></g><g><g><g><polygon points="153.6 404.8 153.6 316.4 229.4 274.8 304.6 316.4 304.6 404.8 229.4 448.2" class="st2"/><linearGradient id="SVGID_37_" x1="153.303" x2="229.91" y1="382.064" y2="382.064" gradientUnits="userSpaceOnUse"><stop style="stop-color:#66f" offset="0"/><stop style="stop-color:#897de4" offset="1"/></linearGradient><polyline points="229.4 448.2 229.4 359.8 153.6 316.4" class="st42"/><linearGradient id="SVGID_38_" x1="229.16" x2="304.833" y1="338.088" y2="338.088" gradientUnits="userSpaceOnUse"><stop style="stop-color:#66f" offset="0"/><stop style="stop-color:#897de4" offset="1"/></linearGradient><line x1="304.6" x2="229.4" y1="316.4" y2="359.8" class="st43"/></g><g><g><polygon points="155.5 404.1 155.5 317.6 229.7 277 303.3 317.6 303.3 404.1 229.7 446.6" class="st5"/><polyline points="229.7 446.6 229.7 360.1 155.5 317.6" class="st5"/><line x1="303.3" x2="229.7" y1="317.6" y2="360.1" class="st6"/></g><linearGradient id="SVGID_39_" x1="228.549" x2="231.498" y1="360.621" y2="360.621" gradientUnits="userSpaceOnUse"><stop style="stop-color:#66f" offset="0"/><stop style="stop-color:#897de4" offset="1"/></linearGradient><path d="M228.5,361.5l1.5-2.1l1.4,2.1C231.5,361.5,230.5,362.4,228.5,361.5z" class="st44"/><line x1="230.1" x2="155.8" y1="360.1" y2="317.6" class="st2"/><line x1="303.6" x2="230.1" y1="317.6" y2="360.1" class="st2"/></g></g><g><g><polygon points="229.7 446.8 229.7 358.4 305.6 316.9 380.8 358.4 380.8 446.8 305.6 490.2" class="st2"/><linearGradient id="SVGID_40_" x1="229.473" x2="306.08" y1="424.097" y2="424.097" gradientUnits="userSpaceOnUse"><stop style="stop-color:#66f" offset="0"/><stop style="stop-color:#897de4" offset="1"/></linearGradient><polyline points="305.6 490.2 305.6 401.8 229.7 358.4" class="st45"/><linearGradient id="SVGID_41_" x1="305.33" x2="381.003" y1="380.121" y2="380.121" gradientUnits="userSpaceOnUse"><stop style="stop-color:#66f" offset="0"/><stop style="stop-color:#897de4" offset="1"/></linearGradient><line x1="380.8" x2="305.6" y1="358.4" y2="401.8" class="st46"/></g><g><g><polygon points="231.7 446.1 231.7 359.7 305.9 319 379.4 359.7 379.4 446.1 305.9 488.6" class="st5"/><polyline points="305.9 488.6 305.9 402.1 231.7 359.7" class="st5"/><line x1="379.4" x2="305.9" y1="359.7" y2="402.1" class="st6"/></g><linearGradient id="SVGID_42_" x1="304.719" x2="307.668" y1="402.654" y2="402.654" gradientUnits="userSpaceOnUse"><stop style="stop-color:#66f" offset="0"/><stop style="stop-color:#897de4" offset="1"/></linearGradient><path d="M304.7,403.5l1.5-2.1l1.4,2.1C307.7,403.5,306.7,404.4,304.7,403.5z" class="st47"/><line x1="306.2" x2="232" y1="402.1" y2="359.7" class="st2"/><line x1="379.8" x2="306.2" y1="359.7" y2="402.1" class="st2"/></g></g><g><g><polygon points="306.9 490.9 306.9 402.5 382.8 360.9 457.9 402.5 457.9 490.9 382.8 534.3" class="st2"/><linearGradient id="SVGID_43_" x1="306.668" x2="383.276" y1="468.178" y2="468.178" gradientUnits="userSpaceOnUse"><stop style="stop-color:#66f" offset="0"/><stop style="stop-color:#897de4" offset="1"/></linearGradient><polyline points="382.8 534.3 382.8 445.9 306.9 402.5" class="st48"/><linearGradient id="SVGID_44_" x1="382.526" x2="458.199" y1="424.202" y2="424.202" gradientUnits="userSpaceOnUse"><stop style="stop-color:#66f" offset="0"/><stop style="stop-color:#897de4" offset="1"/></linearGradient><line x1="457.9" x2="382.8" y1="402.5" y2="445.9" class="st49"/></g><g><g><polygon points="308.9 490.2 308.9 403.7 383.1 363.1 456.6 403.7 456.6 490.2 383.1 532.7" class="st5"/><polyline points="383.1 532.7 383.1 446.2 308.9 403.7" class="st5"/><line x1="456.6" x2="383.1" y1="403.7" y2="446.2" class="st6"/></g><linearGradient id="SVGID_45_" x1="381.914" x2="384.864" y1="446.735" y2="446.735" gradientUnits="userSpaceOnUse"><stop style="stop-color:#66f" offset="0"/><stop style="stop-color:#897de4" offset="1"/></linearGradient><path d="M381.9,447.6l1.5-2.1l1.4,2.1C384.9,447.6,383.8,448.5,381.9,447.6z" class="st50"/><line x1="383.4" x2="309.2" y1="446.2" y2="403.7" class="st2"/><line x1="457" x2="383.4" y1="403.7" y2="446.2" class="st2"/></g></g></g><g><g><polygon points="77.4 449.1 77.4 360.8 153.2 319.2 228.4 360.8 228.4 449.1 153.2 492.6" class="st2"/><linearGradient id="SVGID_46_" x1="77.139" x2="153.746" y1="426.445" y2="426.445" gradientUnits="userSpaceOnUse"><stop style="stop-color:#66f" offset="0"/><stop style="stop-color:#897de4" offset="1"/></linearGradient><polyline points="153.2 492.6 153.2 404.2 77.4 360.8" class="st51"/><linearGradient id="SVGID_47_" x1="152.996" x2="228.669" y1="382.469" y2="382.469" gradientUnits="userSpaceOnUse"><stop style="stop-color:#66f" offset="0"/><stop style="stop-color:#897de4" offset="1"/></linearGradient><line x1="228.4" x2="153.2" y1="360.8" y2="404.2" class="st52"/></g><g><g><polygon points="79.4 448.5 79.4 362 153.6 321.4 227.1 362 227.1 448.5 153.6 490.9" class="st5"/><polyline points="153.6 490.9 153.6 404.5 79.4 362" class="st5"/><line x1="227.1" x2="153.6" y1="362" y2="404.5" class="st6"/></g><linearGradient id="SVGID_48_" x1="152.384" x2="155.334" y1="405.002" y2="405.002" gradientUnits="userSpaceOnUse"><stop style="stop-color:#66f" offset="0"/><stop style="stop-color:#897de4" offset="1"/></linearGradient><path d="M152.4,405.8l1.5-2.1l1.4,2.1C155.3,405.8,154.3,406.7,152.4,405.8z" class="st53"/><line x1="153.9" x2="79.7" y1="404.5" y2="362" class="st2"/><line x1="227.4" x2="153.9" y1="362" y2="404.5" class="st2"/></g></g><g><g><polygon points="153.6 491.2 153.6 402.8 229.4 361.2 304.6 402.8 304.6 491.2 229.4 534.6" class="st2"/><linearGradient id="SVGID_49_" x1="153.309" x2="229.916" y1="468.479" y2="468.479" gradientUnits="userSpaceOnUse"><stop style="stop-color:#66f" offset="0"/><stop style="stop-color:#897de4" offset="1"/></linearGradient><polyline points="229.4 534.6 229.4 446.2 153.6 402.8" class="st54"/><linearGradient id="SVGID_50_" x1="229.166" x2="304.839" y1="424.503" y2="424.503" gradientUnits="userSpaceOnUse"><stop style="stop-color:#66f" offset="0"/><stop style="stop-color:#897de4" offset="1"/></linearGradient><line x1="304.6" x2="229.4" y1="402.8" y2="446.2" class="st55"/></g><g><g><polygon points="155.5 490.5 155.5 404 229.7 363.4 303.3 404 303.3 490.5 229.7 533" class="st5"/><polyline points="229.7 533 229.7 446.5 155.5 404" class="st5"/><line x1="303.3" x2="229.7" y1="404" y2="446.5" class="st6"/></g><linearGradient id="SVGID_51_" x1="228.554" x2="231.504" y1="447.036" y2="447.036" gradientUnits="userSpaceOnUse"><stop style="stop-color:#66f" offset="0"/><stop style="stop-color:#897de4" offset="1"/></linearGradient><path d="M228.6,447.9l1.5-2.1l1.4,2.1C231.5,447.9,230.5,448.8,228.6,447.9z" class="st56"/><line x1="230.1" x2="155.9" y1="446.5" y2="404" class="st2"/><line x1="303.6" x2="230.1" y1="404" y2="446.5" class="st2"/></g></g><g><g><polygon points="230.8 571.9 230.8 483.6 306.6 442 381.8 483.6 381.8 571.9 306.6 615.4" class="st38"/><linearGradient id="SVGID_52_" x1="230.504" x2="307.111" y1="549.245" y2="549.245" gradientUnits="userSpaceOnUse"><stop style="stop-color:#66f" offset="0"/><stop style="stop-color:#897de4" offset="1"/></linearGradient><polyline points="306.6 615.4 306.6 527 230.8 483.6" class="st57"/><linearGradient id="SVGID_53_" x1="306.361" x2="382.034" y1="505.268" y2="505.268" gradientUnits="userSpaceOnUse"><stop style="stop-color:#66f" offset="0"/><stop style="stop-color:#897de4" offset="1"/></linearGradient><line x1="381.8" x2="306.6" y1="483.6" y2="527" class="st58"/></g><g><g><polygon points="232.7 571.3 232.7 484.8 306.9 444.2 380.5 484.8 380.5 571.3 306.9 613.7" class="st5"/><polyline points="306.9 613.7 306.9 527.3 232.7 484.8" class="st38"/><line x1="380.5" x2="306.9" y1="484.8" y2="527.3" class="st6"/></g><linearGradient id="SVGID_54_" x1="305.75" x2="308.7" y1="527.802" y2="527.802" gradientUnits="userSpaceOnUse"><stop style="stop-color:#66f" offset="0"/><stop style="stop-color:#897de4" offset="1"/></linearGradient><path d="M305.7,528.6l1.5-2.1l1.4,2.1C308.7,528.6,307.7,529.5,305.7,528.6z" class="st59"/><line x1="307.3" x2="233.1" y1="527.3" y2="484.8" class="st38"/><line x1="380.8" x2="307.3" y1="484.8" y2="527.3" class="st38"/></g></g><g><g><g><polygon points="229.6 274.2 229.6 185.8 305.4 144.3 380.6 185.8 380.6 274.2 305.4 317.6" class="st2"/><linearGradient id="SVGID_55_" x1="229.337" x2="305.945" y1="251.494" y2="251.494" gradientUnits="userSpaceOnUse"><stop style="stop-color:#66f" offset="0"/><stop style="stop-color:#897de4" offset="1"/></linearGradient><polyline points="305.4 317.6 305.4 229.2 229.6 185.8" class="st60"/><linearGradient id="SVGID_56_" x1="305.195" x2="380.867" y1="207.518" y2="207.518" gradientUnits="userSpaceOnUse"><stop style="stop-color:#66f" offset="0"/><stop style="stop-color:#897de4" offset="1"/></linearGradient><line x1="380.6" x2="305.4" y1="185.8" y2="229.2" class="st61"/></g><g><g><polygon points="231.6 273.5 231.6 187.1 305.8 146.4 379.3 187.1 379.3 273.5 305.8 316" class="st5"/><polyline points="305.8 316 305.8 229.5 231.6 187.1" class="st5"/><line x1="379.3" x2="305.8" y1="187.1" y2="229.5" class="st6"/></g><linearGradient id="SVGID_57_" x1="304.583" x2="307.533" y1="230.052" y2="230.052" gradientUnits="userSpaceOnUse"><stop style="stop-color:#66f" offset="0"/><stop style="stop-color:#897de4" offset="1"/></linearGradient><path d="M304.6,230.9l1.5-2.1l1.4,2.1C307.5,230.9,306.5,231.8,304.6,230.9z" class="st62"/><line x1="306.1" x2="231.9" y1="229.5" y2="187.1" class="st2"/><line x1="379.6" x2="306.1" y1="187.1" y2="229.5" class="st2"/></g></g><g><g><polygon points="305.8 316.2 305.8 227.8 381.6 186.3 456.8 227.8 456.8 316.2 381.6 359.6" class="st2"/><linearGradient id="SVGID_58_" x1="305.507" x2="382.115" y1="293.528" y2="293.528" gradientUnits="userSpaceOnUse"><stop style="stop-color:#66f" offset="0"/><stop style="stop-color:#897de4" offset="1"/></linearGradient><polyline points="381.6 359.6 381.6 271.3 305.8 227.8" class="st63"/><linearGradient id="SVGID_59_" x1="381.365" x2="457.037" y1="249.552" y2="249.552" gradientUnits="userSpaceOnUse"><stop style="stop-color:#66f" offset="0"/><stop style="stop-color:#897de4" offset="1"/></linearGradient><line x1="456.8" x2="381.6" y1="227.8" y2="271.3" class="st64"/></g><g><g><polygon points="307.7 315.5 307.7 229.1 381.9 188.4 455.5 229.1 455.5 315.5 381.9 358" class="st5"/><polyline points="381.9 358 381.9 271.6 307.7 229.1" class="st5"/><line x1="455.5" x2="381.9" y1="229.1" y2="271.6" class="st6"/></g><linearGradient id="SVGID_60_" x1="380.753" x2="383.703" y1="272.085" y2="272.085" gradientUnits="userSpaceOnUse"><stop style="stop-color:#66f" offset="0"/><stop style="stop-color:#897de4" offset="1"/></linearGradient><path d="M380.8,272.9l1.5-2.1l1.4,2.1C383.7,272.9,382.7,273.8,380.8,272.9z" class="st65"/><line x1="382.3" x2="308.1" y1="271.6" y2="229.1" class="st2"/><line x1="455.8" x2="382.3" y1="229.1" y2="271.6" class="st2"/></g></g><g><g><polygon points="383 360.3 383 271.9 458.8 230.4 534 271.9 534 360.3 458.8 403.7" class="st2"/><linearGradient id="SVGID_61_" x1="382.703" x2="459.31" y1="337.608" y2="337.608" gradientUnits="userSpaceOnUse"><stop style="stop-color:#66f" offset="0"/><stop style="stop-color:#897de4" offset="1"/></linearGradient><polyline points="458.8 403.7 458.8 315.3 383 271.9" class="st66"/><linearGradient id="SVGID_62_" x1="458.56" x2="534.233" y1="293.632" y2="293.632" gradientUnits="userSpaceOnUse"><stop style="stop-color:#66f" offset="0"/><stop style="stop-color:#897de4" offset="1"/></linearGradient><line x1="534" x2="458.8" y1="271.9" y2="315.3" class="st67"/></g><g><g><polygon points="384.9 359.6 384.9 273.2 459.1 232.5 532.7 273.2 532.7 359.6 459.1 402.1" class="st5"/><polyline points="459.1 402.1 459.1 315.6 384.9 273.2" class="st5"/><line x1="532.7" x2="459.1" y1="273.2" y2="315.6" class="st6"/></g><linearGradient id="SVGID_63_" x1="457.948" x2="460.898" y1="316.165" y2="316.165" gradientUnits="userSpaceOnUse"><stop style="stop-color:#66f" offset="0"/><stop style="stop-color:#897de4" offset="1"/></linearGradient><path d="M457.9,317l1.5-2.1l1.4,2.1C460.9,317,459.9,317.9,457.9,317z" class="st68"/><line x1="459.5" x2="385.2" y1="315.6" y2="273.2" class="st2"/><line x1="533" x2="459.5" y1="273.2" y2="315.6" class="st2"/></g></g></g><g><g><polygon points="153.6 317.8 153.6 229.4 229.4 187.9 304.6 229.4 304.6 317.8 229.4 361.2" class="st2"/><linearGradient id="SVGID_64_" x1="153.303" x2="229.91" y1="295.118" y2="295.118" gradientUnits="userSpaceOnUse"><stop style="stop-color:#66f" offset="0"/><stop style="stop-color:#897de4" offset="1"/></linearGradient><polyline points="229.4 361.2 229.4 272.9 153.6 229.4" class="st69"/><linearGradient id="SVGID_65_" x1="229.16" x2="304.833" y1="251.142" y2="251.142" gradientUnits="userSpaceOnUse"><stop style="stop-color:#66f" offset="0"/><stop style="stop-color:#897de4" offset="1"/></linearGradient><line x1="304.6" x2="229.4" y1="229.4" y2="272.9" class="st70"/></g><g><g><polygon points="155.5 317.1 155.5 230.7 229.7 190 303.3 230.7 303.3 317.1 229.7 359.6" class="st5"/><polyline points="229.7 359.6 229.7 273.2 155.5 230.7" class="st5"/><line x1="303.3" x2="229.7" y1="230.7" y2="273.2" class="st6"/></g><linearGradient id="SVGID_66_" x1="228.549" x2="231.498" y1="273.675" y2="273.675" gradientUnits="userSpaceOnUse"><stop style="stop-color:#66f" offset="0"/><stop style="stop-color:#897de4" offset="1"/></linearGradient><path d="M228.5,274.5l1.5-2.1l1.4,2.1C231.5,274.5,230.5,275.4,228.5,274.5z" class="st71"/><line x1="230.1" x2="155.8" y1="273.2" y2="230.7" class="st2"/><line x1="303.6" x2="230.1" y1="230.7" y2="273.2" class="st2"/></g></g><g><g><polygon points="229.7 152.9 229.7 64.5 305.6 22.9 380.8 64.5 380.8 152.9 305.6 196.3" class="st38"/><linearGradient id="SVGID_67_" x1="229.473" x2="306.08" y1="130.177" y2="130.177" gradientUnits="userSpaceOnUse"><stop style="stop-color:#66f" offset="0"/><stop style="stop-color:#897de4" offset="1"/></linearGradient><polyline points="305.6 196.3 305.6 107.9 229.7 64.5" class="st72"/><linearGradient id="SVGID_68_" x1="305.33" x2="381.003" y1="86.201" y2="86.201" gradientUnits="userSpaceOnUse"><stop style="stop-color:#66f" offset="0"/><stop style="stop-color:#897de4" offset="1"/></linearGradient><line x1="380.8" x2="305.6" y1="64.5" y2="107.9" class="st73"/></g><g><g><polygon points="231.7 152.2 231.7 65.7 305.9 25.1 379.4 65.7 379.4 152.2 305.9 194.7" class="st5"/><polyline points="305.9 194.7 305.9 108.2 231.7 65.7" class="st38"/><line x1="379.4" x2="305.9" y1="65.7" y2="108.2" class="st6"/></g><linearGradient id="SVGID_69_" x1="304.719" x2="307.668" y1="108.734" y2="108.734" gradientUnits="userSpaceOnUse"><stop style="stop-color:#66f" offset="0"/><stop style="stop-color:#897de4" offset="1"/></linearGradient><path d="M304.7,109.6l1.5-2.1l1.4,2.1C307.7,109.6,306.7,110.5,304.7,109.6z" class="st74"/><line x1="306.2" x2="232" y1="108.2" y2="65.7" class="st38"/><line x1="379.8" x2="306.2" y1="65.7" y2="108.2" class="st38"/></g></g><g><g><polygon points="306.9 403.9 306.9 315.5 382.8 274 457.9 315.5 457.9 403.9 382.8 447.4" class="st2"/><linearGradient id="SVGID_70_" x1="306.668" x2="383.276" y1="381.232" y2="381.232" gradientUnits="userSpaceOnUse"><stop style="stop-color:#66f" offset="0"/><stop style="stop-color:#897de4" offset="1"/></linearGradient><polyline points="382.8 447.4 382.8 359 306.9 315.5" class="st75"/><linearGradient id="SVGID_71_" x1="382.526" x2="458.199" y1="337.256" y2="337.256" gradientUnits="userSpaceOnUse"><stop style="stop-color:#66f" offset="0"/><stop style="stop-color:#897de4" offset="1"/></linearGradient><line x1="457.9" x2="382.8" y1="315.5" y2="359" class="st76"/></g><g><g><polygon points="308.9 403.3 308.9 316.8 383.1 276.2 456.6 316.8 456.6 403.3 383.1 445.7" class="st5"/><polyline points="383.1 445.7 383.1 359.3 308.9 316.8" class="st5"/><line x1="456.6" x2="383.1" y1="316.8" y2="359.3" class="st6"/></g><linearGradient id="SVGID_72_" x1="381.914" x2="384.864" y1="359.789" y2="359.789" gradientUnits="userSpaceOnUse"><stop style="stop-color:#66f" offset="0"/><stop style="stop-color:#897de4" offset="1"/></linearGradient><path d="M381.9,360.6l1.5-2.1l1.4,2.1C384.9,360.6,383.8,361.5,381.9,360.6z" class="st77"/><line x1="383.4" x2="309.2" y1="359.3" y2="316.8" class="st2"/><line x1="457" x2="383.4" y1="316.8" y2="359.3" class="st2"/></g></g><g><g><g><polygon points="77.4 362.2 77.4 273.8 153.2 232.3 228.4 273.8 228.4 362.2 153.2 405.6" class="st2"/><linearGradient id="SVGID_73_" x1="77.139" x2="153.746" y1="339.499" y2="339.499" gradientUnits="userSpaceOnUse"><stop style="stop-color:#66f" offset="0"/><stop style="stop-color:#897de4" offset="1"/></linearGradient><polyline points="153.2 405.6 153.2 317.2 77.4 273.8" class="st78"/><linearGradient id="SVGID_74_" x1="152.996" x2="228.669" y1="295.523" y2="295.523" gradientUnits="userSpaceOnUse"><stop style="stop-color:#66f" offset="0"/><stop style="stop-color:#897de4" offset="1"/></linearGradient><line x1="228.4" x2="153.2" y1="273.8" y2="317.2" class="st79"/></g><g><g><polygon points="79.4 361.5 79.4 275.1 153.6 234.4 227.1 275.1 227.1 361.5 153.6 404" class="st5"/><polyline points="153.6 404 153.6 317.5 79.4 275.1" class="st5"/><line x1="227.1" x2="153.6" y1="275.1" y2="317.5" class="st6"/></g><linearGradient id="SVGID_75_" x1="152.384" x2="155.334" y1="318.057" y2="318.057" gradientUnits="userSpaceOnUse"><stop style="stop-color:#66f" offset="0"/><stop style="stop-color:#897de4" offset="1"/></linearGradient><path d="M152.4,318.9l1.5-2.1l1.4,2.1C155.3,318.9,154.3,319.8,152.4,318.9z" class="st80"/><line x1="153.9" x2="79.7" y1="317.5" y2="275.1" class="st2"/><line x1="227.4" x2="153.9" y1="275.1" y2="317.5" class="st2"/></g></g><g><g><polygon points="153.6 404.2 153.6 315.8 229.4 274.3 304.6 315.8 304.6 404.2 229.4 447.7" class="st2"/><linearGradient id="SVGID_76_" x1="153.309" x2="229.916" y1="381.533" y2="381.533" gradientUnits="userSpaceOnUse"><stop style="stop-color:#66f" offset="0"/><stop style="stop-color:#897de4" offset="1"/></linearGradient><polyline points="229.4 447.7 229.4 359.3 153.6 315.8" class="st81"/><linearGradient id="SVGID_77_" x1="229.166" x2="304.839" y1="337.557" y2="337.557" gradientUnits="userSpaceOnUse"><stop style="stop-color:#66f" offset="0"/><stop style="stop-color:#897de4" offset="1"/></linearGradient><line x1="304.6" x2="229.4" y1="315.8" y2="359.3" class="st82"/></g><g><g><polygon points="155.5 403.6 155.5 317.1 229.7 276.5 303.3 317.1 303.3 403.6 229.7 446" class="st5"/><polyline points="229.7 446 229.7 359.6 155.5 317.1" class="st5"/><line x1="303.3" x2="229.7" y1="317.1" y2="359.6" class="st6"/></g><linearGradient id="SVGID_78_" x1="228.554" x2="231.504" y1="360.09" y2="360.09" gradientUnits="userSpaceOnUse"><stop style="stop-color:#66f" offset="0"/><stop style="stop-color:#897de4" offset="1"/></linearGradient><path d="M228.6,360.9l1.5-2.1l1.4,2.1C231.5,360.9,230.5,361.8,228.6,360.9z" class="st83"/><line x1="230.1" x2="155.9" y1="359.6" y2="317.1" class="st2"/><line x1="303.6" x2="230.1" y1="317.1" y2="359.6" class="st2"/></g></g><g><g><polygon points="230.8 448.3 230.8 359.9 306.6 318.4 381.8 359.9 381.8 448.3 306.6 491.7" class="st2"/><linearGradient id="SVGID_79_" x1="230.504" x2="307.111" y1="425.613" y2="425.613" gradientUnits="userSpaceOnUse"><stop style="stop-color:#66f" offset="0"/><stop style="stop-color:#897de4" offset="1"/></linearGradient><polyline points="306.6 491.7 306.6 403.3 230.8 359.9" class="st84"/><linearGradient id="SVGID_80_" x1="306.361" x2="382.034" y1="381.637" y2="381.637" gradientUnits="userSpaceOnUse"><stop style="stop-color:#66f" offset="0"/><stop style="stop-color:#897de4" offset="1"/></linearGradient><line x1="381.8" x2="306.6" y1="359.9" y2="403.3" class="st85"/></g><g><g><polygon points="232.7 447.6 232.7 361.2 306.9 320.5 380.5 361.2 380.5 447.6 306.9 490.1" class="st5"/><polyline points="306.9 490.1 306.9 403.6 232.7 361.2" class="st5"/><line x1="380.5" x2="306.9" y1="361.2" y2="403.6" class="st6"/></g><linearGradient id="SVGID_81_" x1="305.75" x2="308.7" y1="404.17" y2="404.17" gradientUnits="userSpaceOnUse"><stop style="stop-color:#66f" offset="0"/><stop style="stop-color:#897de4" offset="1"/></linearGradient><path d="M305.7,405l1.5-2.1l1.4,2.1C308.7,405,307.7,405.9,305.7,405z" class="st86"/><line x1="307.3" x2="233.1" y1="403.6" y2="361.2" class="st2"/><line x1="380.8" x2="307.3" y1="361.2" y2="403.6" class="st2"/></g></g></g><g><circle cx="576.5" cy="699.7" r="4.3" class="st87"/><circle cx="532.2" cy="674.6" r="4.3" class="st87"/><circle cx="490.3" cy="650.9" r="4.3" class="st87"/><circle cx="444.2" cy="625.7" r="4.3" class="st87"/></g><g><circle cx="116.7" cy="651.4" r="4.3" class="st87"/><circle cx="161.6" cy="626.2" r="4.3" class="st87"/><circle cx="73.8" cy="676.4" r="4.3" class="st87"/><circle cx="29.8" cy="702.1" r="4.3" class="st87"/></g></g></g></svg>