<svg xmlns="http://www.w3.org/2000/svg" xmlns:xlink="http://www.w3.org/1999/xlink" style="enable-background:new 6 -6 512 512" id="Capa_1" x="0" y="0" version="1.1" viewBox="6 -6 512 512" xml:space="preserve"><style type="text/css">.st0{stroke:#fff;stroke-width:8}.st0,.st1,.st2,.st3,.st4,.st5{fill:none;stroke-miterlimit:10}.st1{stroke:#fff;stroke-width:8;stroke-linecap:round;stroke-linejoin:round}.st2{stroke:url(#SVGID_1_);stroke-width:10}.st3{stroke:url(#SVGID_2_)}.st3,.st4,.st5{stroke-width:8}.st4{stroke:url(#SVGID_3_)}.st5{stroke:url(#SVGID_4_)}</style><path id="Stroke-35-Copy-3_1_" d="M175.9,79.3c0,15.3-13.1,26.2-26.2,26.2c-13.1,0-26.2-13.1-26.2-26.2	c0-15.3,13.1-26.2,26.2-26.2C162.8,53.1,175.9,64,175.9,79.3L175.9,79.3z" class="st0"/><g id="Fill-5-Copy-3_1_"><path id="path-1_1_" d="M237.5,428.7H121.3c-10.9,0-19.6-8.7-19.6-19.6V49.3c0-4.4,0-6.5,2.2-10.9 c2.2-2.2,2.2-6.5,6.5-8.7c4.4-4.4,10.9-6.5,17.4-6.5h181h2.2l111.2,111.2v2.2v84.4" class="st0"/></g><path id="Stroke-14-Copy-3_1_" d="M212.9,81.5h48" class="st1"/><path id="Stroke-8-Copy-2_1_" d="M149.7,180.1h154.8" class="st1"/><path id="Stroke-8-Copy-3_1_" d="M149.7,234.7h146.1" class="st1"/><path id="Stroke-8-Copy-4_1_" d="M149.7,278.3h63.8" class="st1"/><linearGradient id="SVGID_1_" x1="222.302" x2="499" y1="339.125" y2="339.125" gradientUnits="userSpaceOnUse"><stop style="stop-color:#0f9" offset="0"/><stop style="stop-color:#3cf" offset="1"/></linearGradient><path d="M297.6,443.9c20.1,13.5,44.2,21.3,70.2,21.3c69.7,0,126.1-56.5,126.1-126.1S437.5,213,367.9,213	s-126.1,56.5-126.1,126.1c0,17.4,3.5,34,9.9,49.1c0,0-8.1,51.3-22.6,66.3S297.6,443.9,297.6,443.9z" class="st2"/><g><linearGradient id="SVGID_2_" x1="316" x2="345.5" y1="336.75" y2="336.75" gradientUnits="userSpaceOnUse"><stop style="stop-color:#0f9" offset="0"/><stop style="stop-color:#3cf" offset="1"/></linearGradient><circle cx="330.8" cy="336.8" r="10.8" class="st3"/><linearGradient id="SVGID_3_" x1="351.846" x2="381.346" y1="336.75" y2="336.75" gradientUnits="userSpaceOnUse"><stop style="stop-color:#0f9" offset="0"/><stop style="stop-color:#3cf" offset="1"/></linearGradient><circle cx="366.6" cy="336.8" r="10.8" class="st4"/><linearGradient id="SVGID_4_" x1="387.691" x2="417.191" y1="336.75" y2="336.75" gradientUnits="userSpaceOnUse"><stop style="stop-color:#0f9" offset="0"/><stop style="stop-color:#3cf" offset="1"/></linearGradient><circle cx="402.4" cy="336.8" r="10.8" class="st5"/></g></svg>