<svg xmlns="http://www.w3.org/2000/svg" xmlns:xlink="http://www.w3.org/1999/xlink" style="enable-background:new -44 -146 612 792" id="Capa_1" x="0" y="0" version="1.1" viewBox="-44 -146 612 792" xml:space="preserve"><style type="text/css">.st0{fill:url(#SVGID_1_);stroke:url(#SVGID_2_);stroke-miterlimit:10}.st1{fill:url(#SVGID_3_);stroke:url(#SVGID_4_)}.st1,.st2,.st3,.st4,.st5{stroke-miterlimit:10}.st2{fill:url(#SVGID_5_);stroke:url(#SVGID_6_)}.st3{fill:url(#SVGID_7_);stroke:url(#SVGID_8_)}.st4{fill:url(#SVGID_9_);stroke:url(#SVGID_10_)}.st5{fill:url(#SVGID_11_);stroke:url(#SVGID_12_)}.st6{fill:url(#SVGID_13_)}.st7{fill:url(#SVGID_14_)}.st10,.st8,.st9{fill:none;stroke-miterlimit:10}.st8,.st9{stroke:url(#SVGID_15_);stroke-width:6}.st9{stroke:url(#SVGID_16_)}.st10{stroke:#fff;stroke-width:4}.st11{fill:none;stroke:url(#SVGID_17_);stroke-miterlimit:10}.st11,.st12,.st13,.st14,.st15,.st16{stroke-width:6}.st12,.st13,.st14,.st15,.st16,.st17,.st18{fill:none;stroke-miterlimit:10}.st12{stroke:url(#SVGID_18_)}.st13{stroke:#fff}.st14{stroke:url(#SVGID_19_)}.st15{stroke:url(#SVGID_20_)}.st16{stroke:url(#SVGID_21_)}.st17,.st18{stroke:url(#SVGID_22_);stroke-width:4}.st18{stroke:url(#SVGID_23_)}</style><g><linearGradient id="SVGID_1_" x1="10.6" x2="17.2" y1="-16362.2" y2="-16362.2" gradientTransform="matrix(1 0 0 -1 0 -15884)" gradientUnits="userSpaceOnUse"><stop style="stop-color:#3f00fc" offset="0"/><stop style="stop-color:#7f00ff" offset="1"/></linearGradient><linearGradient id="SVGID_2_" x1="10.1" x2="17.7" y1="-16362.2" y2="-16362.2" gradientTransform="matrix(1 0 0 -1 0 -15884)" gradientUnits="userSpaceOnUse"><stop style="stop-color:#3f00fc" offset="0"/><stop style="stop-color:#7f00ff" offset="1"/></linearGradient><circle cx="13.9" cy="478.2" r="3.3" class="st0"/><linearGradient id="SVGID_3_" x1="10.6" x2="17.2" y1="-16320.8" y2="-16320.8" gradientTransform="matrix(1 0 0 -1 0 -15884)" gradientUnits="userSpaceOnUse"><stop style="stop-color:#3f00fc" offset="0"/><stop style="stop-color:#7f00ff" offset="1"/></linearGradient><linearGradient id="SVGID_4_" x1="10.1" x2="17.7" y1="-16320.8" y2="-16320.8" gradientTransform="matrix(1 0 0 -1 0 -15884)" gradientUnits="userSpaceOnUse"><stop style="stop-color:#3f00fc" offset="0"/><stop style="stop-color:#7f00ff" offset="1"/></linearGradient><circle cx="13.9" cy="436.8" r="3.3" class="st1"/><linearGradient id="SVGID_5_" x1="9.4" x2="16" y1="-16284.6" y2="-16284.6" gradientTransform="matrix(1 0 0 -1 0 -15884)" gradientUnits="userSpaceOnUse"><stop style="stop-color:#3f00fc" offset="0"/><stop style="stop-color:#7f00ff" offset="1"/></linearGradient><linearGradient id="SVGID_6_" x1="8.9" x2="16.5" y1="-16284.6" y2="-16284.6" gradientTransform="matrix(1 0 0 -1 0 -15884)" gradientUnits="userSpaceOnUse"><stop style="stop-color:#3f00fc" offset="0"/><stop style="stop-color:#7f00ff" offset="1"/></linearGradient><circle cx="12.7" cy="400.6" r="3.3" class="st2"/><linearGradient id="SVGID_7_" x1="9.4" x2="16" y1="-16243.3" y2="-16243.3" gradientTransform="matrix(1 0 0 -1 0 -15884)" gradientUnits="userSpaceOnUse"><stop style="stop-color:#3f00fc" offset="0"/><stop style="stop-color:#7f00ff" offset="1"/></linearGradient><linearGradient id="SVGID_8_" x1="8.9" x2="16.5" y1="-16243.3" y2="-16243.3" gradientTransform="matrix(1 0 0 -1 0 -15884)" gradientUnits="userSpaceOnUse"><stop style="stop-color:#3f00fc" offset="0"/><stop style="stop-color:#7f00ff" offset="1"/></linearGradient><circle cx="12.7" cy="359.3" r="3.3" class="st3"/><linearGradient id="SVGID_9_" x1="9.4" x2="16" y1="-16206.7" y2="-16206.7" gradientTransform="matrix(1 0 0 -1 0 -15884)" gradientUnits="userSpaceOnUse"><stop style="stop-color:#3f00fc" offset="0"/><stop style="stop-color:#7f00ff" offset="1"/></linearGradient><linearGradient id="SVGID_10_" x1="8.9" x2="16.5" y1="-16206.7" y2="-16206.7" gradientTransform="matrix(1 0 0 -1 0 -15884)" gradientUnits="userSpaceOnUse"><stop style="stop-color:#3f00fc" offset="0"/><stop style="stop-color:#7f00ff" offset="1"/></linearGradient><circle cx="12.7" cy="322.7" r="3.3" class="st4"/><linearGradient id="SVGID_11_" x1="9.4" x2="16" y1="-16166.4" y2="-16166.4" gradientTransform="matrix(1 0 0 -1 0 -15884)" gradientUnits="userSpaceOnUse"><stop style="stop-color:#3f00fc" offset="0"/><stop style="stop-color:#7f00ff" offset="1"/></linearGradient><linearGradient id="SVGID_12_" x1="8.9" x2="16.5" y1="-16166.4" y2="-16166.4" gradientTransform="matrix(1 0 0 -1 0 -15884)" gradientUnits="userSpaceOnUse"><stop style="stop-color:#3f00fc" offset="0"/><stop style="stop-color:#7f00ff" offset="1"/></linearGradient><circle cx="12.7" cy="282.4" r="3.3" class="st5"/></g><linearGradient id="SVGID_13_" x1="443.5" x2="450.1" y1="-15986.8" y2="-15986.8" gradientTransform="matrix(1 0 0 -1 0 -15884)" gradientUnits="userSpaceOnUse"><stop style="stop-color:#3f00fc" offset="0"/><stop style="stop-color:#7f00ff" offset="1"/></linearGradient><circle cx="446.8" cy="102.8" r="3.3" class="st6"/><linearGradient id="SVGID_14_" x1="443.5" x2="450.1" y1="-15946.6" y2="-15946.6" gradientTransform="matrix(1 0 0 -1 0 -15884)" gradientUnits="userSpaceOnUse"><stop style="stop-color:#3f00fc" offset="0"/><stop style="stop-color:#7f00ff" offset="1"/></linearGradient><circle cx="446.8" cy="62.6" r="3.3" class="st7"/><text style="font-family:'MyriadPro-Regular';font-size:12px" transform="matrix(1 0 0 1 -2955.5 -3477.5)">max-width: 600px;</text><text style="font-family:'MyriadPro-Regular';font-size:12px" transform="matrix(1 0 0 1 -2955.5 -3463.1001)">margin: 0 auto;</text><g><linearGradient id="SVGID_15_" x1="224.433" x2="402.333" y1="356.972" y2="356.972" gradientUnits="userSpaceOnUse"><stop style="stop-color:#3f00fc" offset="0"/><stop style="stop-color:#7f00ff" offset="1"/></linearGradient><polygon points="227.4 305.7 313.7 258.4 399.3 305.7 399.3 406.2 313.7 455.6 227.4 406.2" class="st8"/><linearGradient id="SVGID_16_" x1="225.965" x2="400.832" y1="330.522" y2="330.522" gradientUnits="userSpaceOnUse"><stop style="stop-color:#3f00fc" offset="0"/><stop style="stop-color:#7f00ff" offset="1"/></linearGradient><polyline points="227.4 305.7 314.5 354.6 399.3 305.7" class="st9"/></g><g><polygon points="415.5 -27.5 447.2 -44.9 478.7 -27.5 478.7 9.4 447.2 27.5 415.5 9.4" class="st10"/><polyline points="415.5 -27.5 447.5 -9.5 478.7 -27.5" class="st10"/></g><g><linearGradient id="SVGID_17_" x1="417.95" x2="543.15" y1="171.173" y2="171.173" gradientUnits="userSpaceOnUse"><stop style="stop-color:#3f00fc" offset="0"/><stop style="stop-color:#7f00ff" offset="1"/></linearGradient><polygon points="480.9 239.6 421 205.3 421 135.6 480.9 102.8 540.2 135.6 540.2 205.3" class="st11"/><linearGradient id="SVGID_18_" x1="421.245" x2="541.682" y1="153.482" y2="153.482" gradientUnits="userSpaceOnUse"><stop style="stop-color:#3f00fc" offset="0"/><stop style="stop-color:#7f00ff" offset="1"/></linearGradient><polyline points="422.8 136.6 481.3 170.5 540.2 135.6" class="st12"/><polygon points="421 290.8 421 221 435 213.3 480.9 239.6 527.4 212.6 540.2 221 540.2 290.8 480.9 325" class="st13"/><polyline points="421 221 481.4 255 540.2 221" class="st13"/><polygon points="480.9 408.6 421 375.8 419 304.6 433.3 297.8 480.9 325 527.9 297.8 540.2 304.6 540.2 374.3" class="st13"/><polyline points="419 304.6 481 339.1 540.2 304.6" class="st13"/><polygon points="480.9 492.6 421 458.3 421 388.5 432.5 382.1 480.9 408.6 527.6 381.5 540.2 388.5 540.2 458.3" class="st13"/><polyline points="421 388.5 481.4 422.5 540.2 388.5" class="st13"/><linearGradient id="SVGID_19_" x1="421.245" x2="541.682" y1="222.404" y2="222.404" gradientUnits="userSpaceOnUse"><stop style="stop-color:#3f00fc" offset="0"/><stop style="stop-color:#7f00ff" offset="1"/></linearGradient><polyline points="422.8 205.5 481.3 239.4 540.2 204.5" class="st14"/></g><g><polyline points="379.2 60.8 399.6 71.5 399.6 172.1 314.1 221.5 227.8 174.3 227.8 71.5 246.1 61.4" class="st13"/><polyline points="227.8 71.5 314.8 121.3 399.6 71.5" class="st13"/><g><linearGradient id="SVGID_20_" x1="224.158" x2="402.058" y1=".117" y2=".117" gradientUnits="userSpaceOnUse"><stop style="stop-color:#3f00fc" offset="0"/><stop style="stop-color:#7f00ff" offset="1"/></linearGradient><polygon points="227.2 -51.2 313.5 -98.5 399.1 -51.2 399.1 49.3 313.5 98.7 227.2 49.3" class="st15"/><linearGradient id="SVGID_21_" x1="225.69" x2="400.557" y1="-26.333" y2="-26.333" gradientUnits="userSpaceOnUse"><stop style="stop-color:#3f00fc" offset="0"/><stop style="stop-color:#7f00ff" offset="1"/></linearGradient><polyline points="227.2 -51.2 314.3 -2.3 399.1 -51.2" class="st16"/></g></g><g><linearGradient id="SVGID_22_" x1="-18.15" x2="44.85" y1="202.523" y2="202.523" gradientUnits="userSpaceOnUse"><stop style="stop-color:#3f00fc" offset="0"/><stop style="stop-color:#7f00ff" offset="1"/></linearGradient><polygon points="-16.1 184.9 13.5 168.7 42.9 184.9 42.9 219.4 13.5 236.4 -16.1 219.4" class="st17"/><linearGradient id="SVGID_23_" x1="-17.129" x2="43.849" y1="193.574" y2="193.574" gradientUnits="userSpaceOnUse"><stop style="stop-color:#3f00fc" offset="0"/><stop style="stop-color:#7f00ff" offset="1"/></linearGradient><polyline points="-16.1 184.9 13.7 201.7 42.9 184.9" class="st18"/></g><g><polygon points="66.1 160.9 139.5 120.6 212.4 160.9 212.4 246.4 139.5 288.5 66.1 246.4" class="st13"/><polyline points="66.1 160.9 140.2 202.5 212.4 160.9" class="st13"/></g><polyline points="192.7 257.8 208.9 266.8 208.9 349.3 138.7 389.8 67.9 349.3 67.9 266.8 85.1 257.3" class="st13"/><polyline points="67.9 266.8 139.3 307 208.9 266.8" class="st13"/><polyline points="192.7 357.7 208.9 366.6 208.9 449.1 138.7 489.6 67.9 449.1 67.9 366.6 85.1 357.2" class="st13"/><polyline points="67.9 366.6 139.3 406.8 208.9 366.6" class="st13"/><polyline points="192.7 457.6 208.9 466.5 208.9 549 138.7 589.5 67.9 549 67.9 466.5 85.1 457.1" class="st13"/><polyline points="67.9 466.5 139.3 506.7 208.9 466.5" class="st13"/></svg>