<svg xmlns="http://www.w3.org/2000/svg" xmlns:xlink="http://www.w3.org/1999/xlink" id="Calque_1" x="0" y="0" version="1.1" viewBox="0 0 1920 1080" xml:space="preserve" style="enable-background:new 0 0 1920 1080"><style type="text/css">.st0{opacity:.4;enable-background:new}.st0,.st1{fill:#dde2e8}.st1,.st2,.st3{enable-background:new}.st1{opacity:.1}.st2{opacity:.15;fill:url(#XMLID_2_)}.st3{opacity:.2;fill:url(#SVGID_1_)}</style><polygon points="710 432.1 717.6 424 717.6 432.1" class="st0"/><polygon points="710 423.3 717.6 415.1 717.6 423.3" class="st1"/><linearGradient id="XMLID_2_" x1="-1113.171" x2="1203.985" y1="-35.592" y2="-35.592" gradientTransform="matrix(0.8507 -0.5257 0.5257 0.8507 71.508 -76.9229)" gradientUnits="userSpaceOnUse"><stop offset="0" style="stop-color:#7ec3ff"/><stop offset="1" style="stop-color:#22005b"/></linearGradient><path id="XMLID_3_" d="M1040.5,207.3L-553.1,806.2c-80.1,30.2-158.2-0.4-174.4-68.2L-973.4-292.2	c-16.2-67.8,35.7-147.2,115.8-177.2l1593.5-598.9c80.1-30.2,158.2,0.4,174.4,68.2l246,1030.1C1172.5,97.7,1120.7,177.1,1040.5,207.3	z" class="st2"/><linearGradient id="SVGID_1_" x1="-819.664" x2="691.994" y1="211.675" y2="211.675" gradientTransform="matrix(0.8706 0.4921 -0.4921 0.8706 209.6151 204.1946)" gradientUnits="userSpaceOnUse"><stop offset="0" style="stop-color:#7ec3ff"/><stop offset="1" style="stop-color:#22005b"/></linearGradient><path d="M-173.4-619.7l508.2,519.5l615.6,264.3c33.5,23.4,41.7,69.5,18.2,103C885.2,386,700.9,641.6,626.1,685.5	c-98.1,57.7-509.5,11.2-898.8,84.2c-281.7,52.8-522.1-44.4-633.4-102.1c-37.1-19.2-50.8-65.5-30.2-101.9l656.4-1161.2	C-258.5-633.4-209.1-644.6-173.4-619.7z" class="st3"/></svg>