<svg xmlns="http://www.w3.org/2000/svg" xmlns:xlink="http://www.w3.org/1999/xlink" id="Calque_1" x="0" y="0" version="1.1" viewBox="0 0 1920 1080" xml:space="preserve" style="enable-background:new 0 0 1920 1080"><style type="text/css">.st0{opacity:.4;enable-background:new}.st0,.st1{fill:#dde2e8}.st1,.st2,.st3{enable-background:new}.st1{opacity:.1}.st2,.st3{opacity:.2;fill:url(#XMLID_2_)}.st3{fill:url(#SVGID_1_)}</style><polygon points="710 432.1 717.6 424 717.6 432.1" class="st0"/><polygon points="710 423.3 717.6 415.1 717.6 423.3" class="st1"/><linearGradient id="XMLID_2_" x1="-916.122" x2="1222.375" y1="1141.853" y2="1141.853" gradientTransform="matrix(0.8507 -0.5257 -0.5257 -0.8507 639.264 841.8331)" gradientUnits="userSpaceOnUse"><stop offset="0" style="stop-color:#7ec3ff"/><stop offset="1" style="stop-color:#22005b"/></linearGradient><path id="XMLID_3_" d="M1049.2,100.2L-428.2,649.3c-74.3,27.7-146.7-0.4-161.7-62.5l-228-944.5	c-15-62.2,33.1-135,107.4-162.5l1477.3-549.1c74.3-27.7,146.7,0.4,161.7,62.5l228.1,944.4C1171.5-0.3,1123.5,72.5,1049.2,100.2z" class="st2"/><linearGradient id="SVGID_1_" x1="-671.245" x2="840.414" y1="855.723" y2="855.723" gradientTransform="matrix(0.8706 0.4921 0.4921 -0.8706 -321.8529 1144.4426)" gradientUnits="userSpaceOnUse"><stop offset="0" style="stop-color:#7ec3ff"/><stop offset="1" style="stop-color:#22005b"/></linearGradient><path d="M-50.4-535.7l1123.8,783.8c33.5,23.4,41.7,69.5,18.2,103C1008.2,470,823.9,725.6,749.1,769.5	c-98.1,57.7-509.5,11.2-898.8,84.2c-281.7,52.8-522.1-44.4-633.4-102.1c-37.1-19.2-50.8-65.5-30.2-101.9l656.4-1161.2	C-135.5-549.4-86.1-560.6-50.4-535.7z" class="st3"/></svg>