<svg xmlns="http://www.w3.org/2000/svg" xmlns:xlink="http://www.w3.org/1999/xlink" id="Capa_1" x="0" y="0" version="1.1" viewBox="31 -31 512 512" xml:space="preserve" style="enable-background:new 31 -31 512 512"><style type="text/css">.st0{opacity:.2;fill:#11081c;enable-background:new}.st1{fill:none;stroke:url(#SVGID_1_);stroke-width:3;stroke-linecap:round;stroke-linejoin:round;stroke-miterlimit:10}.st2{fill:url(#SVGID_2_)}.st3{fill:url(#SVGID_3_)}.st4{fill:url(#SVGID_4_)}.st5{fill:url(#SVGID_5_)}.st6{fill:url(#SVGID_6_)}</style><path d="M286.8,374c-75.9,1.7-79.2,29.4-79.2,29.4s3.2,27.6,79.2,29.4c0,0,70.2-1,79.4-29.4	C357,375,286.8,374,286.8,374z" class="st0"/><linearGradient id="SVGID_1_" x1="-526.2" x2="-526.2" y1="389.3" y2="389.3" gradientUnits="userSpaceOnUse"><stop offset="0" style="stop-color:#3f00fc"/><stop offset=".208" style="stop-color:#3f02f7"/><stop offset=".467" style="stop-color:#3e09e7"/><stop offset=".753" style="stop-color:#3e14ce"/><stop offset="1" style="stop-color:#3d20b2"/></linearGradient><path d="M-526.2,389.3" class="st1"/><linearGradient id="SVGID_2_" x1="104.087" x2="469.913" y1="253.188" y2="253.188" gradientUnits="userSpaceOnUse"><stop offset="0" style="stop-color:#4f3e90"/><stop offset="1" style="stop-color:#171a31"/></linearGradient><path d="M469.9,161.7c0,101-81.9,182.9-182.9,182.9s-182.9-81.9-182.9-182.9" class="st2"/><linearGradient id="SVGID_3_" x1="104.087" x2="469.722" y1="161.732" y2="161.732" gradientUnits="userSpaceOnUse"><stop offset="0" style="stop-color:#3f00fc"/><stop offset=".208" style="stop-color:#3f02f7"/><stop offset=".467" style="stop-color:#3e09e7"/><stop offset=".753" style="stop-color:#3e14ce"/><stop offset="1" style="stop-color:#3d20b2"/></linearGradient><path d="M286.6,94c-175.1,4-182.5,67.7-182.5,67.7s7.5,63.7,182.5,67.7c0,0,161.9-2.3,183.1-67.7	C448.5,96.3,286.6,94,286.6,94z" class="st3"/><linearGradient id="SVGID_4_" x1="185.211" x2="382.857" y1="161.732" y2="161.732" gradientUnits="userSpaceOnUse"><stop offset="0" style="stop-color:#7f00ff"/><stop offset=".489" style="stop-color:#7d00ff"/><stop offset=".665" style="stop-color:#7600ff"/><stop offset=".79" style="stop-color:#6b00ff"/><stop offset=".892" style="stop-color:#5a00ff"/><stop offset=".978" style="stop-color:#40f"/><stop offset="1" style="stop-color:#3d00ff"/></linearGradient><path d="M283.9,125.1c-94.6,2.2-98.7,36.6-98.7,36.6s4,34.4,98.7,36.6c0,0,87.5-1.2,99-36.6	C371.4,126.4,283.9,125.1,283.9,125.1z" class="st4"/><linearGradient id="SVGID_5_" x1="251.241" x2="316.828" y1="161.732" y2="161.732" gradientUnits="userSpaceOnUse"><stop offset="0" style="stop-color:#0f9"/><stop offset="1" style="stop-color:#3cf"/></linearGradient><path d="M284,149.6c-31.4,0.7-32.7,12.1-32.7,12.1s1.3,11.4,32.7,12.1c0,0,29-0.4,32.8-12.1	C313,150,284,149.6,284,149.6z" class="st5"/><linearGradient id="SVGID_6_" x1="251.671" x2="315.987" y1="145.653" y2="145.653" gradientUnits="userSpaceOnUse"><stop offset="0" style="stop-color:#0f9"/><stop offset="1" style="stop-color:#3cf"/></linearGradient><path d="M251.7,161.7c0-17.8,14.4-32.2,32.2-32.2c17.8,0,32.2,14.4,32.2,32.2" class="st6"/></svg>