<svg xmlns="http://www.w3.org/2000/svg" xmlns:xlink="http://www.w3.org/1999/xlink" id="Capa_1" x="0" y="0" version="1.1" viewBox="6 -6 512 512" xml:space="preserve" style="enable-background:new 6 -6 512 512"><style type="text/css">.st0{fill:none;stroke:url(#SVGID_1_);stroke-width:3;stroke-linecap:round;stroke-linejoin:round;stroke-miterlimit:10}.st1{opacity:.2;fill:#1e1a21}.st2{fill:url(#SVGID_2_)}.st3{fill:url(#SVGID_3_)}.st4{fill:url(#SVGID_4_)}.st5{opacity:.2;fill:#2e3191;enable-background:new}.st6{fill:url(#SVGID_5_)}.st7{fill:url(#SVGID_6_)}.st8{fill:url(#SVGID_7_)}.st9{fill:#031653}.st10{fill:url(#SVGID_8_)}.st11{fill:url(#SVGID_9_)}.st12{fill:url(#SVGID_10_)}.st13{fill:url(#SVGID_11_)}.st14{fill:url(#SVGID_12_)}.st15{fill:url(#SVGID_13_)}.st16{opacity:.25;fill:url(#SVGID_14_)}.st17{fill:url(#SVGID_15_)}.st18{fill:url(#SVGID_16_)}.st19{opacity:.6;fill:url(#SVGID_17_)}.st20{fill:url(#SVGID_18_)}.st21{fill:url(#SVGID_19_)}.st22{fill:url(#SVGID_20_)}.st23{fill:url(#SVGID_21_)}.st24{fill:url(#SVGID_22_)}.st25{fill:#3d20b7}.st26{fill:url(#SVGID_23_)}.st27{fill:url(#SVGID_24_)}</style><linearGradient id="SVGID_1_" x1="197.769" x2="197.769" y1="451.297" y2="451.297" gradientUnits="userSpaceOnUse"><stop offset="0" style="stop-color:#3f00fc"/><stop offset=".208" style="stop-color:#3f02f7"/><stop offset=".467" style="stop-color:#3e09e7"/><stop offset=".753" style="stop-color:#3e14ce"/><stop offset="1" style="stop-color:#3d20b2"/></linearGradient><path d="M197.8,451.3" class="st0"/><g><path d="M355.4,306.1l57.2,2.5c0,0,8.9-1.3,14-7.1c5-5.8-1.2-21.6-12-25.4c-10.9-3.7-88.3-7.7-88.3-7.7L355.4,306.1z" class="st1"/><g><linearGradient id="SVGID_2_" x1="5.727" x2="6.35" y1="504.446" y2="503.725" gradientTransform="matrix(123.428 0 0 -179.065 -411.65 90496.2188)" gradientUnits="userSpaceOnUse"><stop offset="0" style="stop-color:#463780"/><stop offset=".143" style="stop-color:#382e68"/><stop offset=".331" style="stop-color:#292550"/><stop offset=".529" style="stop-color:#1f1f3f"/><stop offset=".743" style="stop-color:#191b34"/><stop offset="1" style="stop-color:#171a31"/></linearGradient><path d="M367.5,206.1l-67.8-38c-1.9-1-3.6-1-4.7-0.3l-16.6,9.7l3.2,2.7l11.7,8.4v58.6c0,3.9,2.9,8.8,6.5,10.9l56,31.4 l-1.3,14.1l1,2.7l16.8-9.7v0c1.2-0.6,1.9-2.1,1.9-4v-75.4C374,213,371.1,208.1,367.5,206.1z" class="st2"/><linearGradient id="SVGID_3_" x1="5.576" x2="6.292" y1="504.367" y2="503.603" gradientTransform="matrix(107.17 0 0 -168.6487 -316.669 85236.6875)" gradientUnits="userSpaceOnUse"><stop offset="0" style="stop-color:#268ecd"/><stop offset=".364" style="stop-color:#0974f9"/><stop offset=".54" style="stop-color:#1195f7"/><stop offset=".67" style="stop-color:#076cf9"/><stop offset="1" style="stop-color:#325fac"/></linearGradient><path d="M278.7,254.6c0,3.9,2.9,8.8,6.5,10.9l67.7,41.1c2.2,0.5,6.6-2.7,6.6-6.7v-74.2c0-4.6-3.5-10-7-11.9 l-66.9-37.2c-3.9-2.1-9.1,1-9.1,5.1L278.7,254.6z" class="st3"/><linearGradient id="SVGID_4_" x1="6.156" x2="5.66" y1="503.554" y2="504.378" gradientTransform="matrix(104.176 0 0 -167.1217 -298.705 84465.4453)" gradientUnits="userSpaceOnUse"><stop offset="0" style="stop-color:#4f3e90"/><stop offset="1" style="stop-color:#171a31"/></linearGradient><path d="M276.4,256.9c0,3.9,2.9,8.8,6.5,10.9l67.8,38c3.6,2,6.5,0.3,6.5-3.6v-75.4c0-3.9-2.9-8.8-6.5-10.9l-67.8-38 c-3.6-2-6.5-0.3-6.5,3.6V256.9L276.4,256.9z" class="st4"/><path d="M309,183.1l8.6-5l-7.9-4.4l-1.7,5.9L309,183.1z M352.9,207.7l8.6-4.9l-7.9-4.5l-1.7,5.9L352.9,207.7z" class="st5"/><linearGradient id="SVGID_5_" x1="5.21" x2="5.985" y1="502.564" y2="502.564" gradientTransform="matrix(71.661 0 0 -94.1923 -74.309 47509.8125)" gradientUnits="userSpaceOnUse"><stop offset="0" style="stop-color:#d5e8f1"/><stop offset="1" style="stop-color:#94bcff"/></linearGradient><path d="M354.6,184.4c0-17.7-10.9-37.7-24.8-45.5c-7.1-4-14.3-4.3-20.2-1.1c-6.7,3.7-10.5,11.7-10.5,22V181h0.1 c0.1,0.8,0.6,1.6,1.7,2.2c2.2,1.3,6,1.3,8.2,0c1.2-0.7,1.8-1.7,1.7-2.7v-20.7c0-6,1.7-10.6,4.7-12.3c2.7-1.5,6.1-0.2,8.5,1.1 c10.3,5.8,19,22.1,19,35.8v21.1c0.1,0.8,0.6,1.6,1.7,2.2c2.2,1.3,6,1.3,8.2,0c1.1-0.6,1.7-1.4,1.7-2.2L354.6,184.4 C354.7,184.4,354.6,184.4,354.6,184.4z" class="st6"/><path d="M334.6,142.2c10.2,11.3,17.2,27.9,17.2,43.1v22.9c0.4-0.2,0.8-0.3,1.2-0.5c1.1-0.6,1.7-1.4,1.7-2.2v-21.2 C354.6,168.8,346.1,151.4,334.6,142.2L334.6,142.2z M312.7,146.9c-3.6,2-5.6,7.5-5.6,14.8v22.2c0.7-0.2,1.5-0.4,2.1-0.7 c1.2-0.7,1.8-1.7,1.7-2.7v-20.7c0-6,1.7-10.6,4.7-12.3c2-1.1,4.4-0.7,6.5,0.2C319.2,146.3,315.6,145.2,312.7,146.9L312.7,146.9z" class="st5"/><linearGradient id="SVGID_6_" x1="2.652" x2="3.429" y1="498.714" y2="498.067" gradientTransform="matrix(17.861 0 0 -35.9945 261.861 18179.6777)" gradientUnits="userSpaceOnUse"><stop offset=".051" style="stop-color:#beb3ed"/><stop offset=".181" style="stop-color:#e4e0ff"/><stop offset=".375" style="stop-color:#ded5f9"/><stop offset=".436" style="stop-color:#ded5f9"/><stop offset=".485" style="stop-color:#a89ae4"/><stop offset=".708" style="stop-color:#957edc"/><stop offset="1" style="stop-color:#6e70c5"/></linearGradient><path d="M316.3,228c-3.8-2.2-6.9-0.4-6.9,3.9c0,3,1.5,6.4,3.6,8.8v9.3c0,1.6,1.3,3.6,3,4.5c1.7,0.9,3,0.4,3-1.2v-9 c2.5,0.2,4.2-1.5,4.2-4.7C323.2,235.3,320.1,230.1,316.3,228z" class="st7"/><linearGradient id="SVGID_7_" x1="2.652" x2="3.429" y1="498.714" y2="498.067" gradientTransform="matrix(17.861 0 0 -35.9945 261.861 18179.6777)" gradientUnits="userSpaceOnUse"><stop offset="0" style="stop-color:#4f3e90"/><stop offset="1" style="stop-color:#171a31"/></linearGradient><path d="M316.3,228c-3.8-2.2-6.9-0.4-6.9,3.9c0,3,1.5,6.4,3.6,8.8v9.3c0,1.6,1.3,3.6,3,4.5c1.7,0.9,3,0.4,3-1.2v-9 c2.5,0.2,4.2-1.5,4.2-4.7C323.2,235.3,320.1,230.1,316.3,228z" class="st8"/><path d="M319,244.3v9.1l-0.5-0.2c-1.7-0.9-3-3-3-4.5v-9.3c-2.2-2.5-3.6-5.9-3.6-8.8c0-1.4,0.3-2.6,1-3.4 c1-0.1,2.2,0.2,3.5,0.9c3.8,2.2,6.9,7.3,6.9,11.6c0,1.4-0.3,2.6-1,3.4h-0.8L319,244.3L319,244.3z" class="st9"/></g><g><path d="M97.2,298.6c0,0-3.9,1.9,0.6,6.9c4.5,4.9,99.3,57.1,99.3,57.1s7.8,4.1,13.6,0l86.3-50.6c0,0,2.2-3.3-2.4-5.6 L195.5,249c0,0-5-3.9-11.7,0C177.1,252.9,97.2,298.6,97.2,298.6z" class="st1"/><linearGradient id="SVGID_8_" x1="95.656" x2="297.615" y1="280.172" y2="280.172" gradientUnits="userSpaceOnUse"><stop offset="0" style="stop-color:#4f3e90"/><stop offset="1" style="stop-color:#171a31"/></linearGradient><path d="M97.2,272.9c0,0-3.9,1.9,0.6,6.9c4.5,4.9,99.3,57.1,99.3,57.1s7.8,4.1,13.6,0l86.3-50.6c0,0,2.2-3.3-2.4-5.6 l-99.2-57.4c0,0-5-3.9-11.7,0C177.1,227.2,97.2,272.9,97.2,272.9z" class="st10"/><linearGradient id="SVGID_9_" x1="95.656" x2="297.66" y1="313.068" y2="313.068" gradientUnits="userSpaceOnUse"><stop offset="0" style="stop-color:#463780"/><stop offset=".143" style="stop-color:#382e68"/><stop offset=".331" style="stop-color:#292550"/><stop offset=".529" style="stop-color:#1f1f3f"/><stop offset=".743" style="stop-color:#191b34"/><stop offset="1" style="stop-color:#171a31"/></linearGradient><path d="M95.7,287.1v-11.8c0,0-0.1,3.2,3.5,5.5c3.6,2.4,27.6,16.6,27.6,16.6l35.9,20.3l34.1,18.9 c0,0,7.6,4.2,13.7,0.6c6.1-3.6,86.8-50.8,86.8-50.8s0.8-1,0.5-2.8l0,12.7c0,1.1-0.6,2.1-1.5,2.7l-84.6,49.4c0,0-8.6,6.4-17-1.5 l-97.2-56.9C96.3,289.4,95.7,288.3,95.7,287.1L95.7,287.1z" class="st11"/><linearGradient id="SVGID_10_" x1="95.656" x2="297.615" y1="252.173" y2="252.173" gradientUnits="userSpaceOnUse"><stop offset="0" style="stop-color:#4f3e90"/><stop offset="1" style="stop-color:#171a31"/></linearGradient><path d="M97.2,244.9c0,0-3.9,1.9,0.6,6.9c4.5,4.9,99.3,57.1,99.3,57.1s7.8,4.1,13.6,0l86.3-50.6c0,0,2.2-3.3-2.4-5.6 l-99.2-57.4c0,0-5-3.9-11.7,0C177.1,199.2,97.2,244.9,97.2,244.9z" class="st12"/><linearGradient id="SVGID_11_" x1="95.656" x2="297.66" y1="285.069" y2="285.069" gradientUnits="userSpaceOnUse"><stop offset="0" style="stop-color:#463780"/><stop offset=".143" style="stop-color:#382e68"/><stop offset=".331" style="stop-color:#292550"/><stop offset=".529" style="stop-color:#1f1f3f"/><stop offset=".743" style="stop-color:#191b34"/><stop offset="1" style="stop-color:#171a31"/></linearGradient><path d="M95.7,259.1v-11.8c0,0-0.1,3.2,3.5,5.5c3.6,2.4,27.6,16.6,27.6,16.6l35.9,20.3l34.1,18.9 c0,0,7.6,4.2,13.7,0.6c6.1-3.6,86.8-50.8,86.8-50.8s0.8-1,0.5-2.8l0,12.7c0,1.1-0.6,2.1-1.5,2.7l-84.6,49.4c0,0-8.6,6.4-17-1.5 l-97.2-56.9C96.3,261.4,95.7,260.3,95.7,259.1L95.7,259.1z" class="st13"/><linearGradient id="SVGID_12_" x1="95.656" x2="297.615" y1="224.173" y2="224.173" gradientUnits="userSpaceOnUse"><stop offset="0" style="stop-color:#4f3e90"/><stop offset="1" style="stop-color:#171a31"/></linearGradient><path d="M97.2,216.9c0,0-3.9,1.9,0.6,6.9c4.5,4.9,99.3,57.1,99.3,57.1s7.8,4.1,13.6,0l86.3-50.6c0,0,2.2-3.3-2.4-5.6 l-99.2-57.4c0,0-5-3.9-11.7,0C177.1,171.2,97.2,216.9,97.2,216.9z" class="st14"/><linearGradient id="SVGID_13_" x1="95.656" x2="297.66" y1="257.07" y2="257.07" gradientUnits="userSpaceOnUse"><stop offset="0" style="stop-color:#463780"/><stop offset=".143" style="stop-color:#382e68"/><stop offset=".331" style="stop-color:#292550"/><stop offset=".529" style="stop-color:#1f1f3f"/><stop offset=".743" style="stop-color:#191b34"/><stop offset="1" style="stop-color:#171a31"/></linearGradient><path d="M95.7,231.1v-11.8c0,0-0.1,3.2,3.5,5.5c3.6,2.4,27.6,16.6,27.6,16.6l35.9,20.3l34.1,18.9 c0,0,7.6,4.2,13.7,0.6c6.1-3.6,86.8-50.8,86.8-50.8s0.8-1,0.5-2.8l0,12.7c0,1.1-0.6,2.1-1.5,2.7l-84.6,49.4c0,0-8.6,6.4-17-1.5 l-97.2-56.9C96.3,233.4,95.7,232.3,95.7,231.1L95.7,231.1z" class="st15"/><linearGradient id="SVGID_14_" x1="186.123" x2="212.305" y1="272.957" y2="175.243" gradientUnits="userSpaceOnUse"><stop offset="0" style="stop-color:#4f3e90;stop-opacity:.6"/><stop offset="1" style="stop-color:#171abf;stop-opacity:.4"/></linearGradient><path d="M107.9,217.5c0,0-3.6,1.8,0.6,6.3c4.2,4.5,91.2,52.4,91.2,52.4s7.1,3.8,12.5,0l79.3-46.4c0,0,2-3-2.2-5.2 L198.2,172c0,0-4.6-3.6-10.7,0C181.3,175.6,107.9,217.5,107.9,217.5z" class="st16"/><g><linearGradient id="SVGID_15_" x1="95.656" x2="297.615" y1="196.174" y2="196.174" gradientUnits="userSpaceOnUse"><stop offset="0" style="stop-color:#4f3e90"/><stop offset="1" style="stop-color:#171a31"/></linearGradient><path d="M97.2,188.9c0,0-3.9,1.9,0.6,6.9c4.5,4.9,99.3,57.1,99.3,57.1s7.8,4.1,13.6,0l86.3-50.6 c0,0,2.2-3.3-2.4-5.6l-99.2-57.4c0,0-5-3.9-11.7,0C177.1,143.2,97.2,188.9,97.2,188.9z" class="st17"/><linearGradient id="SVGID_16_" x1="95.656" x2="297.66" y1="229.07" y2="229.07" gradientUnits="userSpaceOnUse"><stop offset="0" style="stop-color:#463780"/><stop offset=".143" style="stop-color:#382e68"/><stop offset=".331" style="stop-color:#292550"/><stop offset=".529" style="stop-color:#1f1f3f"/><stop offset=".743" style="stop-color:#191b34"/><stop offset="1" style="stop-color:#171a31"/></linearGradient><path d="M95.7,203.1v-11.8c0,0-0.1,3.2,3.5,5.5c3.6,2.4,27.6,16.6,27.6,16.6l35.9,20.3l34.1,18.9 c0,0,7.6,4.2,13.7,0.6c6.1-3.6,86.8-50.8,86.8-50.8s0.8-1,0.5-2.8l0,12.7c0,1.1-0.6,2.1-1.5,2.7l-84.6,49.4c0,0-8.6,6.4-17-1.5 l-97.2-56.9C96.3,205.4,95.7,204.3,95.7,203.1L95.7,203.1z" class="st18"/></g><linearGradient id="SVGID_17_" x1="140.835" x2="273.111" y1="204.304" y2="204.304" gradientUnits="userSpaceOnUse"><stop offset="0" style="stop-color:#463780"/><stop offset=".143" style="stop-color:#382e68"/><stop offset=".331" style="stop-color:#292550"/><stop offset=".529" style="stop-color:#1f1f3f"/><stop offset=".743" style="stop-color:#191b34"/><stop offset="1" style="stop-color:#171a31"/></linearGradient><polygon points="140.8 189.2 208.7 230.2 273.1 195.8 266.7 195.2 200 178.4" class="st19"/><g><linearGradient id="SVGID_18_" x1="140.835" x2="204.567" y1="192.107" y2="192.107" gradientUnits="userSpaceOnUse"><stop offset="0" style="stop-color:#7f00ff"/><stop offset=".489" style="stop-color:#7d00ff"/><stop offset=".665" style="stop-color:#7600ff"/><stop offset=".79" style="stop-color:#6b00ff"/><stop offset=".892" style="stop-color:#5a00ff"/><stop offset=".978" style="stop-color:#40f"/><stop offset="1" style="stop-color:#3d00ff"/></linearGradient><polygon points="140.8 185.2 160.6 173.7 204.6 199 184.8 210.5" class="st20"/><linearGradient id="SVGID_19_" x1="184.789" x2="226.571" y1="211.138" y2="211.138" gradientUnits="userSpaceOnUse"><stop offset="0" style="stop-color:#3f00fc"/><stop offset=".208" style="stop-color:#3f02f7"/><stop offset=".467" style="stop-color:#3e09e7"/><stop offset=".753" style="stop-color:#3e14ce"/><stop offset="1" style="stop-color:#3d20b2"/></linearGradient><polygon points="226.6 211.7 204.5 199 184.8 210.6 206.7 223.2" class="st21"/><linearGradient id="SVGID_20_" x1="177.1" x2="191.982" y1="175.464" y2="231.006" gradientUnits="userSpaceOnUse"><stop offset="0" style="stop-color:#851cb7"/><stop offset="1" style="stop-color:#3d20b7"/></linearGradient><polygon points="140.8 185.2 140.8 188.6 206.7 227.1 226.6 215.5 226.6 211.7 206.8 223.2" class="st22"/><linearGradient id="SVGID_21_" x1="169.658" x2="198.751" y1="171.991" y2="171.991" gradientUnits="userSpaceOnUse"><stop offset="0" style="stop-color:#3f00fc"/><stop offset=".208" style="stop-color:#3f02f7"/><stop offset=".467" style="stop-color:#3e09e7"/><stop offset=".753" style="stop-color:#3e14ce"/><stop offset="1" style="stop-color:#3d20b2"/></linearGradient><polygon points="169.7 174.7 172.5 166.8 197 152.5 198.8 191.5" class="st23"/><linearGradient id="SVGID_22_" x1="203.419" x2="262.876" y1="193.095" y2="193.095" gradientUnits="userSpaceOnUse"><stop offset="0" style="stop-color:#7f00ff"/><stop offset=".222" style="stop-color:#7a00ff"/><stop offset=".5" style="stop-color:#6a00ff"/><stop offset=".806" style="stop-color:#5100ff"/><stop offset="1" style="stop-color:#3d00ff"/></linearGradient><polygon points="203.4 194.2 203.5 176.5 262.9 190.6 230.2 209.6" class="st24"/><polygon points="203.4 194.2 230.2 209.6 262.9 190.6 262.9 194.2 230.2 213.8 203.4 198.4" class="st25"/><polygon points="169.7 174.7 169.7 178.9 198.7 195.6 198.8 191.5" class="st25"/><linearGradient id="SVGID_23_" x1="215.376" x2="217.876" y1="214.737" y2="224.068" gradientUnits="userSpaceOnUse"><stop offset="0" style="stop-color:#3f00fc"/><stop offset=".12" style="stop-color:#3d01f7"/><stop offset=".27" style="stop-color:#3804e7"/><stop offset=".436" style="stop-color:#2f08ce"/><stop offset=".614" style="stop-color:#230eaa"/><stop offset=".8" style="stop-color:#14167c"/><stop offset=".992" style="stop-color:#012045"/><stop offset="1" style="stop-color:#002043"/></linearGradient><polygon points="206.8 223.2 206.7 227.1 226.6 215.5 226.6 211.7" class="st26"/><linearGradient id="SVGID_24_" x1="244.711" x2="248.324" y1="195.447" y2="208.93" gradientUnits="userSpaceOnUse"><stop offset="0" style="stop-color:#3f00fc"/><stop offset=".12" style="stop-color:#3d01f7"/><stop offset=".27" style="stop-color:#3804e7"/><stop offset=".436" style="stop-color:#2f08ce"/><stop offset=".614" style="stop-color:#230eaa"/><stop offset=".8" style="stop-color:#14167c"/><stop offset=".992" style="stop-color:#012045"/><stop offset="1" style="stop-color:#002043"/></linearGradient><polygon points="230.2 209.6 230.2 213.8 262.9 194.2 262.9 190.6" class="st27"/></g></g></g></svg>