<svg xmlns="http://www.w3.org/2000/svg" xmlns:xlink="http://www.w3.org/1999/xlink" style="enable-background:new -779.5 -791.5 2083 2083" id="Capa_1" x="0" y="0" version="1.1" viewBox="-779.5 -791.5 2083 2083" xml:space="preserve"><style type="text/css">.st0{fill:none;stroke:url(#SVGID_1_);stroke-width:6;stroke-miterlimit:10}.st1{opacity:.17}.st2{enable-background:new}.st3{clip-path:url(#SVGID_2_)}.st4{fill:#1d1b30}.st5{stroke:url(#XMLID_3_)}.st5,.st6,.st7{fill:none;stroke-width:6;stroke-miterlimit:10}.st6{stroke:url(#XMLID_4_)}.st7{stroke:url(#XMLID_5_)}.st8{opacity:.3;fill:#1d1b30}.st9{fill:url(#XMLID_7_)}.st10{fill:url(#XMLID_8_)}.st11{fill:url(#XMLID_9_)}.st12{fill:url(#XMLID_10_)}.st13{opacity:.2;fill:none;stroke:url(#XMLID_11_);stroke-width:2;stroke-miterlimit:10}.st14{fill:url(#XMLID_13_)}.st15{fill:url(#XMLID_14_)}.st16{fill:url(#XMLID_15_)}.st17{fill:url(#XMLID_16_)}.st18{fill:url(#XMLID_17_)}.st19{fill:url(#XMLID_18_)}.st20{fill:url(#XMLID_19_)}.st21{fill:url(#XMLID_20_)}.st22{fill:url(#XMLID_21_)}.st23{fill:url(#XMLID_22_)}.st24{fill:url(#XMLID_23_)}.st25{fill:url(#XMLID_24_)}.st26{fill:url(#XMLID_25_)}.st27{fill:url(#XMLID_29_)}.st28{fill:url(#XMLID_31_)}.st29{fill:url(#XMLID_32_)}.st30{opacity:.2;fill:none;stroke:url(#XMLID_33_);stroke-width:2;stroke-miterlimit:10}.st31{fill:url(#XMLID_34_)}.st32{fill:url(#XMLID_35_)}.st33{fill:url(#XMLID_36_)}.st34{opacity:.4;fill:url(#XMLID_37_)}.st35{opacity:.55;fill:url(#XMLID_38_)}.st36{fill:url(#XMLID_41_)}.st37{fill:url(#XMLID_42_)}.st38{fill:url(#XMLID_43_)}.st39{fill:url(#XMLID_44_)}.st40{fill:url(#XMLID_45_)}.st41{fill:url(#XMLID_47_)}.st41,.st42,.st43{clip-path:url(#XMLID_46_)}.st42{fill:url(#XMLID_51_)}.st43{fill:url(#XMLID_53_)}.st44{fill:url(#XMLID_54_)}.st44,.st45,.st46,.st47,.st48{clip-path:url(#XMLID_46_)}.st45{fill:url(#XMLID_55_)}.st46{fill:url(#XMLID_56_)}.st47{fill:url(#XMLID_57_)}.st48{fill:url(#XMLID_58_)}.st49{opacity:.55;fill:url(#XMLID_59_)}.st50{fill:url(#XMLID_60_)}.st51{opacity:5.000000e-002;fill:url(#XMLID_61_)}.st52{fill:url(#XMLID_62_)}.st53{fill:url(#XMLID_63_)}.st54{opacity:.2;fill:none;stroke:url(#XMLID_64_);stroke-width:2;stroke-miterlimit:10}.st55{fill:url(#XMLID_65_)}.st56{fill:url(#SVGID_3_)}.st57{fill:url(#SVGID_4_)}.st58{fill:url(#SVGID_5_)}.st59{fill:url(#SVGID_6_)}.st60{fill:url(#SVGID_7_)}.st61{fill:url(#SVGID_8_)}.st62{fill:url(#SVGID_9_)}.st63{fill:url(#SVGID_10_)}.st64{fill:url(#SVGID_11_)}.st65{fill:url(#SVGID_12_)}.st66{fill:url(#SVGID_13_)}.st67{fill:url(#SVGID_14_)}.st68{fill:url(#SVGID_15_)}.st69{fill:url(#SVGID_16_)}.st70{fill:url(#SVGID_17_)}.st71{fill:url(#SVGID_19_)}.st72{fill:url(#SVGID_20_)}.st73{fill:url(#XMLID_66_)}.st74{fill:url(#XMLID_67_)}.st75{fill:url(#SVGID_21_)}.st76{fill:url(#SVGID_22_)}.st77{fill:none;stroke:url(#SVGID_23_);stroke-width:3;stroke-miterlimit:10}.st78{fill:url(#SVGID_24_)}.st79{fill:none;stroke:url(#SVGID_25_);stroke-width:3;stroke-miterlimit:10}.st80{fill:url(#SVGID_26_)}.st81{fill:none;stroke:url(#SVGID_27_);stroke-width:3;stroke-miterlimit:10}.st82{fill:url(#SVGID_28_)}.st83{fill:none;stroke:url(#SVGID_29_);stroke-width:3;stroke-miterlimit:10}</style><switch><g><linearGradient id="SVGID_1_" x1="-27.1" x2="1172.68" y1="821.337" y2="821.337" gradientUnits="userSpaceOnUse"><stop style="stop-color:#7f00ff" offset="0"/><stop style="stop-color:#3f00fc" offset="1"/></linearGradient><polyline points="816.1 718.7 1166.7 922.7 886.1 1086.7 417.4 815.3 332.7 863.3 86.1 718.7 171.4 668 -25.6 555.1" class="st0"/><g id="XMLID_26_" class="st1"><g><g class="st2"><defs><polygon id="SVGID_18_" points="-772.4 250.3 -313.8 -16.2 147.8 250.3 -310.8 516.8" class="st2"/></defs><clipPath id="SVGID_2_"><use style="overflow:visible" xlink:href="#SVGID_18_"/></clipPath><g class="st3"><g><g><g><path d="M-83,117c-127.5-73.6-333.5-73.6-460.1,0c-126.6,73.6-126,192.9,1.5,266.5s333.5,73.6,460.1,0 C45.2,310,44.5,190.6-83,117" class="st4"/></g></g></g></g></g></g></g><linearGradient id="XMLID_3_" x1="178.629" x2="283.687" y1="-16227.315" y2="-16227.315" gradientTransform="matrix(1 0 0 -1 0 -15884)" gradientUnits="userSpaceOnUse"><stop style="stop-color:#7f00ff" offset="0"/><stop style="stop-color:#3f00fc" offset="1"/></linearGradient><line id="XMLID_154_" x1="282.2" x2="180.2" y1="373.6" y2="313" class="st5"/><linearGradient id="XMLID_4_" x1="29.085" x2="275.237" y1="-16318.936" y2="-16318.936" gradientTransform="matrix(1 0 0 -1 0 -15884)" gradientUnits="userSpaceOnUse"><stop style="stop-color:#7f00ff" offset="0"/><stop style="stop-color:#3f00fc" offset="1"/></linearGradient><polyline id="XMLID_74_" points="273.6 466.4 177.6 404.4 69.6 458.4 30.6 435.4" class="st6"/><linearGradient id="XMLID_5_" x1="-441.191" x2="649.216" y1="-16651.986" y2="-16651.986" gradientTransform="matrix(1 0 0 -1 0 -15884)" gradientUnits="userSpaceOnUse"><stop style="stop-color:#7f00ff" offset="0"/><stop style="stop-color:#3f00fc" offset="1"/></linearGradient><polyline id="XMLID_12_" points="647.6 598.2 96.7 936.9 -439.7 626.6" class="st7"/><polygon id="XMLID_121_" points="713.4 311.1 1189.6 607.4 716.6 903.8 240.4 607.5" class="st8"/><g id="XMLID_172_"><linearGradient id="XMLID_7_" x1="605.816" x2="824.262" y1="-16363.395" y2="-15548.143" gradientTransform="matrix(1 0 0 -1 0 -15884)" gradientUnits="userSpaceOnUse"><stop style="stop-color:#4f3e90" offset="0"/><stop style="stop-color:#171a31" offset="1"/></linearGradient><polygon id="XMLID_182_" points="483.9 -231.4 714.3 -365.3 946.2 -231.5 946.2 375 715.8 508.9 483.9 375.1" class="st9"/><linearGradient id="XMLID_8_" x1="681.633" x2="748.445" y1="-15777.176" y2="-15527.828" gradientTransform="matrix(1 0 0 -1 0 -15884)" gradientUnits="userSpaceOnUse"><stop style="stop-color:#4f3e90" offset="0"/><stop style="stop-color:#171a31" offset="1"/></linearGradient><polygon id="XMLID_181_" points="714.3 -365.3 946.2 -231.5 715.8 -97.7 483.9 -231.4" class="st10"/><g id="XMLID_173_"><linearGradient id="XMLID_9_" x1="697.693" x2="732.309" y1="-15706.18" y2="-15576.988" gradientTransform="matrix(1 0 0 -1 0 -15884)" gradientUnits="userSpaceOnUse"><stop style="stop-color:#4f3e90" offset="0"/><stop style="stop-color:#171a31" offset="1"/></linearGradient><polygon id="XMLID_178_" points="714.6 -311.8 834.7 -242.4 715.4 -173.1 595.2 -242.4" class="st11"/><linearGradient id="XMLID_10_" x1="696.436" x2="724.681" y1="-15717.389" y2="-15611.978" gradientTransform="matrix(1 0 0 -1 0 -15884)" gradientUnits="userSpaceOnUse"><stop style="stop-color:#463780" offset="0"/><stop style="stop-color:#382e68" offset=".143"/><stop style="stop-color:#292550" offset=".331"/><stop style="stop-color:#1f1f3f" offset=".529"/><stop style="stop-color:#191b34" offset=".743"/><stop style="stop-color:#171a31" offset="1"/></linearGradient><path id="XMLID_175_" d="M711.1-175.3l-115.7-67.2v11L711.1-163c2.5,1.5,5.5,1.5,8,0l115.7-67.2v-12.4l-115.7,67.2 C716.6-173.9,713.6-173.9,711.1-175.3z" class="st12"/><linearGradient id="XMLID_11_" x1="594.747" x2="835.25" y1="-15675.715" y2="-15675.715" gradientTransform="matrix(1 0 0 -1 0 -15884)" gradientUnits="userSpaceOnUse"><stop style="stop-color:#00ace9" offset="0"/><stop style="stop-color:#007541" offset="1"/></linearGradient><path id="XMLID_174_" d="M595.2-242.4l116.3,67.1c2.4,1.4,5.4,1.4,7.8,0l115.4-67.1" class="st13"/></g></g><g id="XMLID_413_"><linearGradient id="XMLID_13_" x1="380.136" x2="521.424" y1="-16521.006" y2="-15993.711" gradientTransform="matrix(1 0 0 -1 0 -15884)" gradientUnits="userSpaceOnUse"><stop style="stop-color:#4f3e90" offset="0"/><stop style="stop-color:#171a31" offset="1"/></linearGradient><polygon id="XMLID_185_" points="220.1 522.6 220.1 224.2 450 90.6 681.4 224.1 681.4 522.6 451.6 656.1" class="st14"/><g id="XMLID_315_"><linearGradient id="XMLID_14_" x1="416.584" x2="483.384" y1="-16185.992" y2="-15936.692" gradientTransform="matrix(1 0 0 -1 0 -15884)" gradientUnits="userSpaceOnUse"><stop style="stop-color:#4f3e90" offset="0"/><stop style="stop-color:#171a31" offset="1"/></linearGradient><polygon id="XMLID_382_" points="449.2 43.5 681.1 177.3 450.8 311.2 218.9 177.4" class="st15"/><linearGradient id="XMLID_15_" x1="320.238" x2="349.431" y1="-16205.363" y2="-16096.414" gradientTransform="matrix(1 0 0 -1 0 -15884)" gradientUnits="userSpaceOnUse"><stop style="stop-color:#7f00ff" offset="0"/><stop style="stop-color:#3f00fc" offset="1"/></linearGradient><polygon id="XMLID_381_" points="218.9 177.4 218.7 222.5 450.8 356.3 450.8 311.2" class="st16"/><linearGradient id="XMLID_16_" x1="565.964" x2="565.964" y1="-16240.357" y2="-16061.421" gradientTransform="matrix(1 0 0 -1 0 -15884)" gradientUnits="userSpaceOnUse"><stop style="stop-color:#463780" offset="0"/><stop style="stop-color:#382e68" offset=".143"/><stop style="stop-color:#292550" offset=".331"/><stop style="stop-color:#1f1f3f" offset=".529"/><stop style="stop-color:#191b34" offset=".743"/><stop style="stop-color:#171a31" offset="1"/></linearGradient><polygon id="XMLID_318_" points="450.8 356.4 450.8 311.2 681.2 177.4 681 222.6" class="st17"/></g><g id="XMLID_265_"><linearGradient id="XMLID_17_" x1="416.584" x2="483.384" y1="-16098.983" y2="-15849.684" gradientTransform="matrix(1 0 0 -1 0 -15884)" gradientUnits="userSpaceOnUse"><stop style="stop-color:#4f3e90" offset="0"/><stop style="stop-color:#171a31" offset="1"/></linearGradient><polygon id="XMLID_312_" points="449.2 -43.5 681.1 90.3 450.8 224.1 218.9 90.4" class="st18"/><linearGradient id="XMLID_18_" x1="320.238" x2="349.431" y1="-16118.355" y2="-16009.405" gradientTransform="matrix(1 0 0 -1 0 -15884)" gradientUnits="userSpaceOnUse"><stop style="stop-color:#7f00ff" offset="0"/><stop style="stop-color:#3f00fc" offset="1"/></linearGradient><polygon id="XMLID_307_" points="218.9 90.4 218.7 135.5 450.8 269.3 450.8 224.2" class="st19"/><linearGradient id="XMLID_19_" x1="565.964" x2="565.964" y1="-16153.349" y2="-15974.412" gradientTransform="matrix(1 0 0 -1 0 -15884)" gradientUnits="userSpaceOnUse"><stop style="stop-color:#463780" offset="0"/><stop style="stop-color:#382e68" offset=".143"/><stop style="stop-color:#292550" offset=".331"/><stop style="stop-color:#1f1f3f" offset=".529"/><stop style="stop-color:#191b34" offset=".743"/><stop style="stop-color:#171a31" offset="1"/></linearGradient><polygon id="XMLID_291_" points="450.8 269.3 450.8 224.2 681.2 90.4 681 135.5" class="st20"/></g><g id="XMLID_189_"><linearGradient id="XMLID_20_" x1="416.584" x2="483.384" y1="-16011.975" y2="-15762.676" gradientTransform="matrix(1 0 0 -1 0 -15884)" gradientUnits="userSpaceOnUse"><stop style="stop-color:#4f3e90" offset="0"/><stop style="stop-color:#171a31" offset="1"/></linearGradient><polygon id="XMLID_246_" points="449.2 -130.5 681.1 3.3 450.8 137.1 218.9 3.4" class="st21"/><linearGradient id="XMLID_21_" x1="320.238" x2="349.431" y1="-16031.347" y2="-15922.397" gradientTransform="matrix(1 0 0 -1 0 -15884)" gradientUnits="userSpaceOnUse"><stop style="stop-color:#7f00ff" offset="0"/><stop style="stop-color:#3f00fc" offset="1"/></linearGradient><polygon id="XMLID_245_" points="218.9 3.4 218.7 48.5 450.8 182.3 450.8 137.2" class="st22"/><linearGradient id="XMLID_22_" x1="565.964" x2="565.964" y1="-16066.34" y2="-15887.403" gradientTransform="matrix(1 0 0 -1 0 -15884)" gradientUnits="userSpaceOnUse"><stop style="stop-color:#463780" offset="0"/><stop style="stop-color:#382e68" offset=".143"/><stop style="stop-color:#292550" offset=".331"/><stop style="stop-color:#1f1f3f" offset=".529"/><stop style="stop-color:#191b34" offset=".743"/><stop style="stop-color:#171a31" offset="1"/></linearGradient><polygon id="XMLID_229_" points="450.8 182.3 450.8 137.2 681.2 3.4 681 48.5" class="st23"/></g><g id="XMLID_160_"><linearGradient id="XMLID_23_" x1="416.584" x2="483.384" y1="-15924.966" y2="-15675.667" gradientTransform="matrix(1 0 0 -1 0 -15884)" gradientUnits="userSpaceOnUse"><stop style="stop-color:#4f3e90" offset="0"/><stop style="stop-color:#171a31" offset="1"/></linearGradient><polygon id="XMLID_163_" points="449.2 -217.5 681.1 -83.7 450.8 50.1 218.9 -83.6" class="st24"/><linearGradient id="XMLID_24_" x1="320.238" x2="349.431" y1="-15944.338" y2="-15835.389" gradientTransform="matrix(1 0 0 -1 0 -15884)" gradientUnits="userSpaceOnUse"><stop style="stop-color:#7f00ff" offset="0"/><stop style="stop-color:#3f00fc" offset="1"/></linearGradient><polygon id="XMLID_162_" points="218.9 -83.6 218.7 -38.5 450.8 95.3 450.8 50.2" class="st25"/><linearGradient id="XMLID_25_" x1="565.964" x2="565.964" y1="-15979.331" y2="-15800.395" gradientTransform="matrix(1 0 0 -1 0 -15884)" gradientUnits="userSpaceOnUse"><stop style="stop-color:#463780" offset="0"/><stop style="stop-color:#382e68" offset=".143"/><stop style="stop-color:#292550" offset=".331"/><stop style="stop-color:#1f1f3f" offset=".529"/><stop style="stop-color:#191b34" offset=".743"/><stop style="stop-color:#171a31" offset="1"/></linearGradient><polygon id="XMLID_161_" points="450.8 95.3 450.8 50.2 681.2 -83.6 681 -38.5" class="st26"/></g><linearGradient id="XMLID_29_" x1="417.374" x2="484.186" y1="-15924.45" y2="-15675.103" gradientTransform="matrix(1 0 0 -1 0 -15884)" gradientUnits="userSpaceOnUse"><stop style="stop-color:#4f3e90" offset="0"/><stop style="stop-color:#171a31" offset="1"/></linearGradient><polygon id="XMLID_212_" points="450 -218.1 681.9 -84.2 451.6 49.6 219.6 -84.2" class="st27"/><g id="XMLID_190_"><linearGradient id="XMLID_31_" x1="433.434" x2="468.05" y1="-15853.454" y2="-15724.263" gradientTransform="matrix(1 0 0 -1 0 -15884)" gradientUnits="userSpaceOnUse"><stop style="stop-color:#4f3e90" offset="0"/><stop style="stop-color:#171a31" offset="1"/></linearGradient><polygon id="XMLID_210_" points="450.3 -164.5 570.5 -95.1 451.2 -25.8 331 -95.1" class="st28"/><linearGradient id="XMLID_32_" x1="432.177" x2="460.421" y1="-15864.663" y2="-15759.253" gradientTransform="matrix(1 0 0 -1 0 -15884)" gradientUnits="userSpaceOnUse"><stop style="stop-color:#463780" offset="0"/><stop style="stop-color:#382e68" offset=".143"/><stop style="stop-color:#292550" offset=".331"/><stop style="stop-color:#1f1f3f" offset=".529"/><stop style="stop-color:#191b34" offset=".743"/><stop style="stop-color:#171a31" offset="1"/></linearGradient><path id="XMLID_208_" d="M446.9-28.1L331.1-95.2v11l115.7,68.5c2.5,1.5,5.5,1.5,8,0l115.7-67.2v-12.4L454.8-28.1 C452.4-26.6,449.3-26.6,446.9-28.1z" class="st29"/><linearGradient id="XMLID_33_" x1="330.488" x2="570.991" y1="-15822.989" y2="-15822.989" gradientTransform="matrix(1 0 0 -1 0 -15884)" gradientUnits="userSpaceOnUse"><stop style="stop-color:#00ace9" offset="0"/><stop style="stop-color:#007541" offset="1"/></linearGradient><path id="XMLID_191_" d="M331-95.1l116.3,67.1c2.4,1.4,5.4,1.4,7.8,0l115.4-67.1" class="st30"/></g></g><linearGradient id="XMLID_34_" x1="860.983" x2="1079.429" y1="-16512.137" y2="-15696.884" gradientTransform="matrix(1 0 0 -1 0 -15884)" gradientUnits="userSpaceOnUse"><stop style="stop-color:#4f3e90" offset="0"/><stop style="stop-color:#171a31" offset="1"/></linearGradient><polygon id="XMLID_171_" points="739.1 -82.7 969.4 -216.6 1201.3 -82.8 1201.3 523.8 971 657.6 739.1 523.8" class="st31"/><linearGradient id="XMLID_35_" x1="936.8" x2="1003.613" y1="-15925.917" y2="-15676.569" gradientTransform="matrix(1 0 0 -1 0 -15884)" gradientUnits="userSpaceOnUse"><stop style="stop-color:#4f3e90" offset="0"/><stop style="stop-color:#171a31" offset="1"/></linearGradient><polygon id="XMLID_170_" points="969.4 -216.6 1201.3 -82.8 971 51.1 739.1 -82.7" class="st32"/><linearGradient id="XMLID_36_" x1="605.816" x2="824.262" y1="-16660.877" y2="-15845.626" gradientTransform="matrix(1 0 0 -1 0 -15884)" gradientUnits="userSpaceOnUse"><stop style="stop-color:#4f3e90" offset="0"/><stop style="stop-color:#171a31" offset="1"/></linearGradient><polygon id="XMLID_52_" points="483.9 66 714.3 -67.8 946.2 66 946.2 672.5 715.8 806.4 483.9 672.6" class="st33"/><linearGradient id="XMLID_37_" x1="1026.519" x2="1031.629" y1="-15681.807" y2="-15681.807" gradientTransform="matrix(1 0 0 -1 0 -15884)" gradientUnits="userSpaceOnUse"><stop style="stop-color:#fff;stop-opacity:.6" offset="0"/><stop style="stop-color:#fff" offset="1"/></linearGradient><circle id="XMLID_214_" cx="1029.1" cy="-202.2" r="2.6" class="st34"/><linearGradient id="XMLID_38_" x1="1006.134" x2="1011.609" y1="-15644.323" y2="-15644.323" gradientTransform="matrix(1 0 0 -1 0 -15884)" gradientUnits="userSpaceOnUse"><stop style="stop-color:#fff;stop-opacity:.6" offset="0"/><stop style="stop-color:#fff" offset="1"/></linearGradient><circle id="XMLID_358_" cx="1008.9" cy="-239.7" r="2.7" class="st35"/><linearGradient id="XMLID_41_" x1="681.633" x2="748.445" y1="-16074.658" y2="-15825.31" gradientTransform="matrix(1 0 0 -1 0 -15884)" gradientUnits="userSpaceOnUse"><stop style="stop-color:#4f3e90" offset="0"/><stop style="stop-color:#171a31" offset="1"/></linearGradient><polygon id="XMLID_92_" points="714.3 -67.8 946.2 66 715.8 199.8 483.9 66" class="st36"/><g id="XMLID_111_"><linearGradient id="XMLID_42_" x1="953.658" x2="986.786" y1="-15844.429" y2="-15720.794" gradientTransform="matrix(1 0 0 -1 0 -15884)" gradientUnits="userSpaceOnUse"><stop style="stop-color:#4f3e90" offset="0"/><stop style="stop-color:#171a31" offset="1"/></linearGradient><polygon id="XMLID_115_" points="969.8 -167.7 1084.8 -101.4 970.6 -35 855.6 -101.4" class="st37"/><linearGradient id="XMLID_43_" x1="905.878" x2="920.355" y1="-15854.035" y2="-15800.004" gradientTransform="matrix(1 0 0 -1 0 -15884)" gradientUnits="userSpaceOnUse"><stop style="stop-color:#7f00ff" offset="0"/><stop style="stop-color:#3f00fc" offset="1"/></linearGradient><polygon id="XMLID_113_" points="855.6 -101.3 855.5 -79 970.6 -12.6 970.6 -35" class="st38"/><linearGradient id="XMLID_44_" x1="1027.739" x2="1027.739" y1="-15871.39" y2="-15782.65" gradientTransform="matrix(1 0 0 -1 0 -15884)" gradientUnits="userSpaceOnUse"><stop style="stop-color:#463780" offset="0"/><stop style="stop-color:#382e68" offset=".143"/><stop style="stop-color:#292550" offset=".331"/><stop style="stop-color:#1f1f3f" offset=".529"/><stop style="stop-color:#191b34" offset=".743"/><stop style="stop-color:#171a31" offset="1"/></linearGradient><polygon id="XMLID_112_" points="970.6 -12.6 970.6 -35 1084.9 -101.3 1084.8 -79" class="st39"/></g><linearGradient id="XMLID_45_" x1="960.712" x2="980.52" y1="-15817.843" y2="-15743.919" gradientTransform="matrix(1 0 0 -1 0 -15884)" gradientUnits="userSpaceOnUse"><stop style="stop-color:#7f00ff;stop-opacity:.2" offset="0"/><stop style="stop-color:#3f00fc" offset="1"/></linearGradient><polygon id="XMLID_110_" points="970.4 -142.8 1039.1 -103.1 970.9 -63.4 902.1 -103.1" class="st40"/><g id="XMLID_97_"><defs><polygon id="XMLID_98_" points="970.4 -142.8 1039.1 -103.1 970.9 -63.4 902.1 -103.1"/></defs><clipPath id="XMLID_46_"><use style="overflow:visible" xlink:href="#XMLID_98_"/></clipPath><linearGradient id="XMLID_47_" x1="960.678" x2="980.548" y1="-15756.277" y2="-15830.433" gradientTransform="matrix(1 0 0 -1 0 -15884)" gradientUnits="userSpaceOnUse"><stop style="stop-color:#7f00ff;stop-opacity:.7" offset="0"/><stop style="stop-color:#3f00fc;stop-opacity:.6" offset="1"/></linearGradient><polygon id="XMLID_109_" points="970.4 -130.3 1039.1 -90.7 970.9 -51 902.1 -90.6" class="st41"/><linearGradient id="XMLID_51_" x1="960.678" x2="980.548" y1="-15768.518" y2="-15842.672" gradientTransform="matrix(1 0 0 -1 0 -15884)" gradientUnits="userSpaceOnUse"><stop style="stop-color:#7f00ff;stop-opacity:.7" offset="0"/><stop style="stop-color:#3f00fc;stop-opacity:.6" offset="1"/></linearGradient><polygon id="XMLID_108_" points="970.4 -118.1 1039.1 -78.4 970.9 -38.7 902.1 -78.4" class="st42"/><linearGradient id="XMLID_53_" x1="960.678" x2="980.548" y1="-15780.758" y2="-15854.912" gradientTransform="matrix(1 0 0 -1 0 -15884)" gradientUnits="userSpaceOnUse"><stop style="stop-color:#7f00ff;stop-opacity:.7" offset="0"/><stop style="stop-color:#3f00fc;stop-opacity:.6" offset="1"/></linearGradient><polygon id="XMLID_107_" points="970.4 -105.8 1039.1 -66.2 970.9 -26.5 902.1 -66.1" class="st43"/><linearGradient id="XMLID_54_" x1="960.678" x2="980.548" y1="-15792.998" y2="-15867.152" gradientTransform="matrix(1 0 0 -1 0 -15884)" gradientUnits="userSpaceOnUse"><stop style="stop-color:#7f00ff;stop-opacity:.7" offset="0"/><stop style="stop-color:#3f00fc;stop-opacity:.6" offset="1"/></linearGradient><polygon id="XMLID_105_" points="970.4 -93.6 1039.1 -53.9 970.9 -14.2 902.1 -53.9" class="st44"/><linearGradient id="XMLID_55_" x1="960.678" x2="980.548" y1="-15805.238" y2="-15879.393" gradientTransform="matrix(1 0 0 -1 0 -15884)" gradientUnits="userSpaceOnUse"><stop style="stop-color:#7f00ff;stop-opacity:.7" offset="0"/><stop style="stop-color:#3f00fc;stop-opacity:.6" offset="1"/></linearGradient><polygon id="XMLID_104_" points="970.4 -81.4 1039.1 -41.7 970.9 -2 902.1 -41.7" class="st45"/><linearGradient id="XMLID_56_" x1="960.678" x2="980.548" y1="-15817.478" y2="-15891.633" gradientTransform="matrix(1 0 0 -1 0 -15884)" gradientUnits="userSpaceOnUse"><stop style="stop-color:#7f00ff;stop-opacity:.7" offset="0"/><stop style="stop-color:#3f00fc;stop-opacity:.6" offset="1"/></linearGradient><polygon id="XMLID_103_" points="970.4 -69.1 1039.1 -29.4 970.9 10.2 902.1 -29.4" class="st46"/><linearGradient id="XMLID_57_" x1="960.678" x2="980.548" y1="-15829.718" y2="-15903.873" gradientTransform="matrix(1 0 0 -1 0 -15884)" gradientUnits="userSpaceOnUse"><stop style="stop-color:#7f00ff;stop-opacity:.7" offset="0"/><stop style="stop-color:#3f00fc;stop-opacity:.6" offset="1"/></linearGradient><polygon id="XMLID_101_" points="970.4 -56.9 1039.1 -17.2 970.9 22.5 902.1 -17.2" class="st47"/><linearGradient id="XMLID_58_" x1="960.678" x2="980.548" y1="-15841.958" y2="-15916.112" gradientTransform="matrix(1 0 0 -1 0 -15884)" gradientUnits="userSpaceOnUse"><stop style="stop-color:#7f00ff;stop-opacity:.7" offset="0"/><stop style="stop-color:#3f00fc;stop-opacity:.6" offset="1"/></linearGradient><polygon id="XMLID_100_" points="970.4 -44.6 1039.1 -5 970.9 34.7 902.1 -4.9" class="st48"/></g><linearGradient id="XMLID_59_" x1="973.798" x2="977.338" y1="-15738.184" y2="-15738.184" gradientTransform="matrix(1 0 0 -1 0 -15884)" gradientUnits="userSpaceOnUse"><stop style="stop-color:#fff;stop-opacity:.6" offset="0"/><stop style="stop-color:#fff" offset="1"/></linearGradient><circle id="XMLID_93_" cx="975.6" cy="-145.8" r="1.8" class="st49"/><linearGradient id="XMLID_60_" x1="524.305" x2="675.43" y1="-16038.195" y2="-16602.205" gradientTransform="matrix(1 0 0 -1 0 -15884)" gradientUnits="userSpaceOnUse"><stop style="stop-color:#7f00ff" offset="0"/><stop style="stop-color:#3f00fc" offset="1"/></linearGradient><polygon id="XMLID_252_" points="512.5 157.4 687.2 258.1 687.2 715 512.5 614.3" class="st50"/><linearGradient id="XMLID_61_" x1="664.302" x2="946.157" y1="-15917.344" y2="-15917.344" gradientTransform="matrix(1 0 0 -1 0 -15884)" gradientUnits="userSpaceOnUse"><stop style="stop-color:#463780" offset="0"/><stop style="stop-color:#382e68" offset=".143"/><stop style="stop-color:#292550" offset=".331"/><stop style="stop-color:#1f1f3f" offset=".529"/><stop style="stop-color:#191b34" offset=".743"/><stop style="stop-color:#171a31" offset="1"/></linearGradient><polygon id="XMLID_693_" points="719.1 134.5 847.7 123.2 946.2 66 714.3 -67.8 664.3 15" class="st51"/><g id="XMLID_40_"><linearGradient id="XMLID_62_" x1="697.693" x2="732.309" y1="-16003.663" y2="-15874.472" gradientTransform="matrix(1 0 0 -1 0 -15884)" gradientUnits="userSpaceOnUse"><stop style="stop-color:#4f3e90" offset="0"/><stop style="stop-color:#171a31" offset="1"/></linearGradient><polygon id="XMLID_50_" points="714.6 -14.3 834.7 55.1 715.4 124.4 595.2 55.1" class="st52"/><linearGradient id="XMLID_63_" x1="696.436" x2="724.681" y1="-16014.872" y2="-15909.461" gradientTransform="matrix(1 0 0 -1 0 -15884)" gradientUnits="userSpaceOnUse"><stop style="stop-color:#463780" offset="0"/><stop style="stop-color:#382e68" offset=".143"/><stop style="stop-color:#292550" offset=".331"/><stop style="stop-color:#1f1f3f" offset=".529"/><stop style="stop-color:#191b34" offset=".743"/><stop style="stop-color:#171a31" offset="1"/></linearGradient><path id="XMLID_49_" d="M711.1,122.2L595.4,55v11l115.7,68.5c2.5,1.5,5.5,1.5,8,0l115.7-67.2V55l-115.7,67.2 C716.6,123.6,713.6,123.6,711.1,122.2z" class="st53"/><linearGradient id="XMLID_64_" x1="594.747" x2="835.25" y1="-15973.197" y2="-15973.197" gradientTransform="matrix(1 0 0 -1 0 -15884)" gradientUnits="userSpaceOnUse"><stop style="stop-color:#00ace9" offset="0"/><stop style="stop-color:#007541" offset="1"/></linearGradient><path id="XMLID_48_" d="M595.2,55.1l116.3,67.1c2.4,1.4,5.4,1.4,7.8,0l115.4-67.1" class="st54"/></g><linearGradient id="XMLID_65_" x1="901.232" x2="1005.685" y1="-15800.703" y2="-15410.88" gradientTransform="matrix(1 0 0 -1 0 -15884)" gradientUnits="userSpaceOnUse"><stop style="stop-color:#fff;stop-opacity:0" offset="0"/><stop style="stop-color:#fff;stop-opacity:.12" offset="1"/></linearGradient><polygon id="XMLID_39_" points="901.7 -104.4 859.2 -418.4 969.8 -482.7 1081.2 -418.5 1038.7 -104.4 970.4 -64.8" class="st55"/><g><linearGradient id="SVGID_3_" x1="764.695" x2="904.799" y1="210.845" y2="210.845" gradientUnits="userSpaceOnUse"><stop style="stop-color:#4f3e90" offset="0"/><stop style="stop-color:#171a31" offset="1"/></linearGradient><polygon points="764.7 247.9 764.7 254.7 904.8 173.9 904.8 167" class="st56"/><linearGradient id="SVGID_4_" x1="764.695" x2="904.799" y1="225.104" y2="225.104" gradientUnits="userSpaceOnUse"><stop style="stop-color:#4f3e90" offset="0"/><stop style="stop-color:#171a31" offset="1"/></linearGradient><polygon points="764.7 262.2 764.7 268.9 904.8 188.2 904.8 181.3" class="st57"/><linearGradient id="SVGID_5_" x1="764.695" x2="904.799" y1="239.364" y2="239.364" gradientUnits="userSpaceOnUse"><stop style="stop-color:#4f3e90" offset="0"/><stop style="stop-color:#171a31" offset="1"/></linearGradient><polygon points="764.7 276.4 764.7 283.2 904.8 202.4 904.8 195.5" class="st58"/><linearGradient id="SVGID_6_" x1="764.695" x2="904.799" y1="253.624" y2="253.624" gradientUnits="userSpaceOnUse"><stop style="stop-color:#4f3e90" offset="0"/><stop style="stop-color:#171a31" offset="1"/></linearGradient><polygon points="764.7 290.7 764.7 297.4 904.8 216.7 904.8 209.8" class="st59"/><linearGradient id="SVGID_7_" x1="764.695" x2="904.799" y1="267.884" y2="267.884" gradientUnits="userSpaceOnUse"><stop style="stop-color:#4f3e90" offset="0"/><stop style="stop-color:#171a31" offset="1"/></linearGradient><polygon points="764.7 305 764.7 311.7 904.8 230.9 904.8 224.1" class="st60"/><linearGradient id="SVGID_8_" x1="764.695" x2="904.799" y1="282.144" y2="282.144" gradientUnits="userSpaceOnUse"><stop style="stop-color:#4f3e90" offset="0"/><stop style="stop-color:#171a31" offset="1"/></linearGradient><polygon points="764.7 319.2 764.7 326 904.8 245.2 904.8 238.3" class="st61"/><linearGradient id="SVGID_9_" x1="764.695" x2="904.799" y1="296.403" y2="296.403" gradientUnits="userSpaceOnUse"><stop style="stop-color:#4f3e90" offset="0"/><stop style="stop-color:#171a31" offset="1"/></linearGradient><polygon points="764.7 333.5 764.7 340.2 904.8 259.5 904.8 252.6" class="st62"/><linearGradient id="SVGID_10_" x1="764.695" x2="904.799" y1="310.663" y2="310.663" gradientUnits="userSpaceOnUse"><stop style="stop-color:#4f3e90" offset="0"/><stop style="stop-color:#171a31" offset="1"/></linearGradient><polygon points="764.7 347.7 764.7 354.5 904.8 273.7 904.8 266.8" class="st63"/></g><g><linearGradient id="SVGID_11_" x1="764.695" x2="904.799" y1="557.508" y2="557.508" gradientUnits="userSpaceOnUse"><stop style="stop-color:#4f3e90" offset="0"/><stop style="stop-color:#171a31" offset="1"/></linearGradient><polygon points="764.7 594.6 764.7 601.3 904.8 520.6 904.8 513.7" class="st64"/><linearGradient id="SVGID_12_" x1="764.695" x2="904.799" y1="571.768" y2="571.768" gradientUnits="userSpaceOnUse"><stop style="stop-color:#4f3e90" offset="0"/><stop style="stop-color:#171a31" offset="1"/></linearGradient><polygon points="764.7 608.8 764.7 615.6 904.8 534.8 904.8 527.9" class="st65"/><linearGradient id="SVGID_13_" x1="764.695" x2="904.799" y1="586.028" y2="586.028" gradientUnits="userSpaceOnUse"><stop style="stop-color:#4f3e90" offset="0"/><stop style="stop-color:#171a31" offset="1"/></linearGradient><polygon points="764.7 623.1 764.7 629.9 904.8 549.1 904.8 542.2" class="st66"/><linearGradient id="SVGID_14_" x1="764.695" x2="904.799" y1="600.287" y2="600.287" gradientUnits="userSpaceOnUse"><stop style="stop-color:#4f3e90" offset="0"/><stop style="stop-color:#171a31" offset="1"/></linearGradient><polygon points="764.7 637.4 764.7 644.1 904.8 563.3 904.8 556.5" class="st67"/><linearGradient id="SVGID_15_" x1="764.695" x2="904.799" y1="614.547" y2="614.547" gradientUnits="userSpaceOnUse"><stop style="stop-color:#4f3e90" offset="0"/><stop style="stop-color:#171a31" offset="1"/></linearGradient><polygon points="764.7 651.6 764.7 658.4 904.8 577.6 904.8 570.7" class="st68"/><linearGradient id="SVGID_16_" x1="764.695" x2="904.799" y1="628.807" y2="628.807" gradientUnits="userSpaceOnUse"><stop style="stop-color:#4f3e90" offset="0"/><stop style="stop-color:#171a31" offset="1"/></linearGradient><polygon points="764.7 665.9 764.7 672.6 904.8 591.9 904.8 585" class="st69"/><linearGradient id="SVGID_17_" x1="764.695" x2="904.799" y1="643.067" y2="643.067" gradientUnits="userSpaceOnUse"><stop style="stop-color:#4f3e90" offset="0"/><stop style="stop-color:#171a31" offset="1"/></linearGradient><polygon points="764.7 680.1 764.7 686.9 904.8 606.1 904.8 599.2" class="st70"/><linearGradient id="SVGID_19_" x1="764.695" x2="904.799" y1="657.327" y2="657.327" gradientUnits="userSpaceOnUse"><stop style="stop-color:#4f3e90" offset="0"/><stop style="stop-color:#171a31" offset="1"/></linearGradient><polygon points="764.7 694.4 764.7 701.1 904.8 620.4 904.8 613.5" class="st71"/></g><linearGradient id="SVGID_20_" x1="-663.022" x2="38.453" y1="89.289" y2="89.289" gradientUnits="userSpaceOnUse"><stop style="stop-color:#4f3e90" offset="0"/><stop style="stop-color:#171a31" offset="1"/></linearGradient><path d="M-663,84c0,0-0.1,189,323.8,205.5S37.3,114.7,37.3,114.7s35-188.1-288-223.3c0,0-186.7-25.3-326.7,65.3 C-577.3-43.3-652.1-6.7-663,84z" class="st72"/><linearGradient id="XMLID_66_" x1="4514.466" x2="5084.017" y1="2645.191" y2="2645.191" gradientTransform="matrix(-1 0 0 -1.1206 4486.957 2958.8093)" gradientUnits="userSpaceOnUse"><stop style="stop-color:#4f3e90" offset="0"/><stop style="stop-color:#171a31" offset="1"/></linearGradient><path id="XMLID_1_" d="M-28.9,67.3c0,0-4-112.8-283.3-119.6c0,0-261.9-1.7-283.3,119.6c0,0-39.9-132.5,283.3-145.3 C-312.2-78-4.6-72.1-28.9,67.3z" class="st73"/><linearGradient id="XMLID_67_" x1="-370.567" x2="-282.563" y1="-16215.609" y2="-15887.172" gradientTransform="matrix(1 0 0 -1 0 -15884)" gradientUnits="userSpaceOnUse"><stop style="stop-color:#4f3e90" offset="0"/><stop style="stop-color:#171a31" offset="1"/></linearGradient><path id="XMLID_6_" d="M-663.6,89.3c0,0,4.9,186.6,351.2,197.8c0,0,324.7,2.8,351.2-197.8 c0,0,49.4,219.2-351.2,240.3C-312.4,329.6-693.7,319.8-663.6,89.3z" class="st74"/><linearGradient id="SVGID_21_" x1="-532.522" x2="-152.855" y1="79.555" y2="79.555" gradientUnits="userSpaceOnUse"><stop style="stop-color:#7f00ff" offset="0"/><stop style="stop-color:#3f00fc" offset="1"/></linearGradient><path d="M-176.9,44l24-13l-43.5-23.5l-22.5,14.8L-238,9.5l25.1-13l-42.5-24l-23.5,14l-31.3-18l-41.2,24l20.5,13 l-138,79.5l-22-12.3L-532.5,97l31.4,17.9l-19.4,11.5l41.5,23.9l19.3-10.9l18.2,10l-19.6,11.2l41.9,24.4l19.1-11.4 c50.8,25.8,103.8,14.8,103.8,14.8C-229.9,167.6-238,132-238,132c48.2-3.3,70.8-26,70.8-26C-135.5,70.7-176.9,44-176.9,44z M-302.7,146.3c-19.1,14.2-49.3,5.2-49.3,5.2l-75.3-43.5l53.6-30.9l71,41C-302.7,118.1-283.6,132.2-302.7,146.3z M-223.9,91.3 c-22.3,12.3-44.1,0-44.1,0l-64.8-37.9l45.1-26.5l67,38.9C-220.6,65.8-201.6,79-223.9,91.3z" class="st75"/><g><linearGradient id="SVGID_22_" x1="-473.145" x2="-449.55" y1="619.152" y2="619.152" gradientUnits="userSpaceOnUse"><stop style="stop-color:#7f00ff" offset="0"/><stop style="stop-color:#3f00fc" offset="1"/></linearGradient><path d="M-469.5,614.5c0,0,4-3.7,13.1-1.5c9.1,2.2,6.6,8.1,6.6,8.1s-2.5,5.6-13.8,4.9 C-463.6,626-480.3,622.8-469.5,614.5z" class="st76"/><linearGradient id="SVGID_23_" x1="-486.409" x2="-435.018" y1="619.458" y2="619.458" gradientUnits="userSpaceOnUse"><stop style="stop-color:#7f00ff" offset="0"/><stop style="stop-color:#3f00fc" offset="1"/></linearGradient><path d="M-465.9,605.8c0,0,22.8-2.6,28.6,11.9s-24.1,15.6-24.1,15.6s-23.8-1.3-23.6-15 C-484.9,618.3-484.7,608.3-465.9,605.8z" class="st77"/></g><g><linearGradient id="SVGID_24_" x1="-58.757" x2="-35.162" y1="546.18" y2="546.18" gradientUnits="userSpaceOnUse"><stop style="stop-color:#7f00ff" offset="0"/><stop style="stop-color:#3f00fc" offset="1"/></linearGradient><path d="M-55.1,541.5c0,0,4-3.7,13.1-1.5s6.6,8.1,6.6,8.1s-2.5,5.6-13.8,4.9C-49.2,553-65.9,549.8-55.1,541.5z" class="st78"/><linearGradient id="SVGID_25_" x1="-72.021" x2="-20.63" y1="546.486" y2="546.486" gradientUnits="userSpaceOnUse"><stop style="stop-color:#7f00ff" offset="0"/><stop style="stop-color:#3f00fc" offset="1"/></linearGradient><path d="M-51.5,532.8c0,0,22.8-2.6,28.6,11.9S-47,560.3-47,560.3s-23.8-1.3-23.6-15 C-70.5,545.3-70.3,535.3-51.5,532.8z" class="st79"/></g><g><linearGradient id="SVGID_26_" x1=".629" x2="24.223" y1="425.342" y2="425.342" gradientUnits="userSpaceOnUse"><stop style="stop-color:#7f00ff" offset="0"/><stop style="stop-color:#3f00fc" offset="1"/></linearGradient><path d="M4.2,420.7c0,0,4-3.7,13.1-1.5s6.6,8.1,6.6,8.1s-2.5,5.6-13.8,4.9C10.2,432.2-6.5,429,4.2,420.7z" class="st80"/><linearGradient id="SVGID_27_" x1="-12.635" x2="38.755" y1="425.649" y2="425.649" gradientUnits="userSpaceOnUse"><stop style="stop-color:#7f00ff" offset="0"/><stop style="stop-color:#3f00fc" offset="1"/></linearGradient><path d="M7.9,412c0,0,22.8-2.6,28.6,11.9s-24.1,15.6-24.1,15.6s-23.8-1.3-23.6-15C-11.1,424.5-10.9,414.5,7.9,412z" class="st81"/></g><g><linearGradient id="SVGID_28_" x1="148.742" x2="172.336" y1="304.037" y2="304.037" gradientUnits="userSpaceOnUse"><stop style="stop-color:#7f00ff" offset="0"/><stop style="stop-color:#3f00fc" offset="1"/></linearGradient><path d="M152.4,299.4c0,0,4-3.7,13.1-1.5s6.6,8.1,6.6,8.1s-2.5,5.6-13.8,4.9C158.3,310.9,141.6,307.7,152.4,299.4z" class="st82"/><linearGradient id="SVGID_29_" x1="135.477" x2="186.868" y1="304.343" y2="304.343" gradientUnits="userSpaceOnUse"><stop style="stop-color:#7f00ff" offset="0"/><stop style="stop-color:#3f00fc" offset="1"/></linearGradient><path d="M156,290.7c0,0,22.8-2.6,28.6,11.9s-24.1,15.6-24.1,15.6s-23.8-1.3-23.6-15 C137,303.2,137.2,293.2,156,290.7z" class="st83"/></g></g></switch></svg>