<svg xmlns="http://www.w3.org/2000/svg" xmlns:xlink="http://www.w3.org/1999/xlink" id="Capa_1" x="0" y="0" version="1.1" viewBox="6 -6 512 512" xml:space="preserve" style="enable-background:new 6 -6 512 512"><style type="text/css">.st0{opacity:.17}.st1{enable-background:new}.st2{clip-path:url(#SVGID_2_)}.st3{fill:#1d1b30}.st4{fill:url(#SVGID_3_)}.st5{fill:url(#XMLID_16_)}.st6{fill:url(#XMLID_17_)}.st7{fill:url(#SVGID_4_)}.st8{clip-path:url(#SVGID_6_)}.st9{fill:url(#SVGID_7_)}.st10{fill:url(#XMLID_18_)}.st11{fill:url(#XMLID_19_)}.st12{fill:url(#SVGID_8_)}.st13{clip-path:url(#SVGID_10_)}.st14{fill:url(#SVGID_11_)}.st15{fill:url(#XMLID_20_)}.st16{fill:url(#XMLID_21_)}.st17{fill:url(#SVGID_12_)}</style><switch><g><g><g><g id="XMLID_26_" class="st0"><g><g class="st1"><defs><polygon id="SVGID_1_" points="18.5 202.8 145.4 129 273.2 202.8 146.3 276.6" class="st1"/></defs><clipPath id="SVGID_2_"><use xlink:href="#SVGID_1_" style="overflow:visible"/></clipPath><g class="st2"><g><g><g><path d="M209.3,165.9c-35.3-20.4-92.3-20.4-127.4,0c-35.1,20.4-34.9,53.4,0.4,73.8 c35.3,20.4,92.3,20.4,127.4,0C244.8,219.3,244.6,186.3,209.3,165.9" class="st3"/></g></g></g></g></g></g></g><linearGradient id="SVGID_3_" x1="29.545" x2="262.138" y1="-16033.402" y2="-16033.402" gradientTransform="matrix(1 0 0 -1 0 -15884)" gradientUnits="userSpaceOnUse"><stop offset="0" style="stop-color:#4f3e90"/><stop offset="1" style="stop-color:#171a31"/></linearGradient><path d="M29.5,147.6c0,0,0,62.7,107.4,68.1s124.9-58,124.9-58s11.6-62.4-95.5-74.1c0,0-61.9-8.4-108.3,21.7 C58,105.4,33.2,117.6,29.5,147.6z" class="st4"/><linearGradient id="XMLID_16_" x1="4246.69" x2="4435.54" y1="2535.084" y2="2535.084" gradientTransform="matrix(-1 0 0 -1.1206 4486.957 2958.8093)" gradientUnits="userSpaceOnUse"><stop offset="0" style="stop-color:#4f3e90"/><stop offset="1" style="stop-color:#171a31"/></linearGradient><path id="XMLID_1_" d="M239.8,142.1c0,0-1.3-37.4-93.9-39.6c0,0-86.8-0.6-93.9,39.6c0,0-13.2-43.9,93.9-48.2 C145.9,93.9,247.9,95.9,239.8,142.1z" class="st5"/><linearGradient id="XMLID_17_" x1="126.516" x2="155.697" y1="-16113.751" y2="-16004.849" gradientTransform="matrix(1 0 0 -1 0 -15884)" gradientUnits="userSpaceOnUse"><stop offset="0" style="stop-color:#4f3e90"/><stop offset="1" style="stop-color:#171a31"/></linearGradient><path id="XMLID_6_" d="M29.3,149.4c0,0,1.6,61.9,116.5,65.6c0,0,107.7,0.9,116.5-65.6c0,0,16.4,72.7-116.5,79.7 C145.8,229.1,19.4,225.8,29.3,149.4z" class="st6"/><linearGradient id="SVGID_4_" x1="72.816" x2="198.705" y1="-16030.175" y2="-16030.175" gradientTransform="matrix(1 0 0 -1 0 -15884)" gradientUnits="userSpaceOnUse"><stop offset="0" style="stop-color:#7f00ff"/><stop offset="1" style="stop-color:#3f00fc"/></linearGradient><path d="M190.7,134.4l8-4.3l-14.4-7.8l-7.5,4.9l-6.3-4.2l8.3-4.3l-14.1-8l-7.8,4.6l-10.4-6l-13.6,8l6.8,4.3 L93.9,148l-7.3-4.1L72.8,152l10.4,5.9l-6.4,3.8l13.8,7.9L97,166l6,3.3l-6.5,3.7l13.9,8.1l6.3-3.8c16.8,8.5,34.4,4.9,34.4,4.9 c22-6.9,19.4-18.7,19.4-18.7c16-1.1,23.5-8.6,23.5-8.6C204.5,143.2,190.7,134.4,190.7,134.4z M149,168.3 c-6.3,4.7-16.3,1.7-16.3,1.7l-25-14.4l17.8-10.3l23.5,13.6C149,158.9,155.4,163.6,149,168.3z M175.2,150.1 c-7.4,4.1-14.6,0-14.6,0l-21.5-12.6l15-8.8l22.2,12.9C176.2,141.6,182.5,146,175.2,150.1z" class="st7"/></g><g><g id="XMLID_7_" class="st0"><g><g class="st1"><defs><polygon id="SVGID_5_" points="263.8 259.2 377.8 192.9 492.5 259.2 378.5 325.4" class="st1"/></defs><clipPath id="SVGID_6_"><use xlink:href="#SVGID_5_" style="overflow:visible"/></clipPath><g class="st8"><g><g><g><path d="M435.2,226c-31.7-18.3-82.9-18.3-114.4,0c-31.5,18.3-31.3,48,0.4,66.3c31.7,18.3,82.9,18.3,114.4,0 C467,274,466.9,244.3,435.2,226" class="st3"/></g></g></g></g></g></g></g><linearGradient id="SVGID_7_" x1="261.862" x2="494.455" y1="-16089.795" y2="-16089.795" gradientTransform="matrix(1 0 0 -1 0 -15884)" gradientUnits="userSpaceOnUse"><stop offset="0" style="stop-color:#4f3e90"/><stop offset="1" style="stop-color:#171a31"/></linearGradient><path d="M261.9,204c0,0,0,62.7,107.4,68.1s124.9-58,124.9-58s11.6-62.4-95.5-74.1c0,0-61.9-8.4-108.3,21.7 C290.3,161.8,265.5,174,261.9,204z" class="st9"/><linearGradient id="XMLID_18_" x1="4014.373" x2="4203.224" y1="2484.76" y2="2484.76" gradientTransform="matrix(-1 0 0 -1.1206 4486.957 2958.8093)" gradientUnits="userSpaceOnUse"><stop offset="0" style="stop-color:#4f3e90"/><stop offset="1" style="stop-color:#171a31"/></linearGradient><path id="XMLID_5_" d="M472.1,198.5c0,0-1.3-37.4-93.9-39.6c0,0-86.8-0.6-93.9,39.6c0,0-13.2-43.9,93.9-48.2 C378.2,150.3,480.2,152.3,472.1,198.5z" class="st10"/><linearGradient id="XMLID_19_" x1="358.833" x2="388.014" y1="-16170.144" y2="-16061.241" gradientTransform="matrix(1 0 0 -1 0 -15884)" gradientUnits="userSpaceOnUse"><stop offset="0" style="stop-color:#4f3e90"/><stop offset="1" style="stop-color:#171a31"/></linearGradient><path id="XMLID_2_" d="M261.7,205.8c0,0,1.6,61.9,116.5,65.6c0,0,107.7,0.9,116.5-65.6c0,0,16.4,72.7-116.5,79.7 C378.1,285.5,251.7,282.2,261.7,205.8z" class="st11"/><linearGradient id="SVGID_8_" x1="305.133" x2="431.022" y1="-16086.567" y2="-16086.567" gradientTransform="matrix(1 0 0 -1 0 -15884)" gradientUnits="userSpaceOnUse"><stop offset="0" style="stop-color:#7f00ff"/><stop offset="1" style="stop-color:#3f00fc"/></linearGradient><path d="M423.1,190.8l8-4.3l-14.4-7.8l-7.5,4.9l-6.3-4.2l8.3-4.3l-14.1-8l-7.8,4.6l-10.4-6l-13.6,8l6.8,4.3 l-45.8,26.4l-7.3-4.1l-13.8,8.1l10.4,5.9l-6.4,3.8l13.8,7.9l6.4-3.6l6,3.3l-6.5,3.7l13.9,8.1l6.3-3.8 c16.8,8.5,34.4,4.9,34.4,4.9c22-6.9,19.4-18.7,19.4-18.7c16-1.1,23.5-8.6,23.5-8.6C436.8,199.6,423.1,190.8,423.1,190.8z M381.3,224.7c-6.3,4.7-16.3,1.7-16.3,1.7L340,212l17.8-10.3l23.5,13.6C381.3,215.3,387.7,220,381.3,224.7z M407.5,206.4 c-7.4,4.1-14.6,0-14.6,0l-21.5-12.6l15-8.8l22.2,12.9C408.6,198,414.9,202.4,407.5,206.4z" class="st12"/></g><g><g id="XMLID_14_" class="st0"><g><g class="st1"><defs><polygon id="SVGID_9_" points="19.1 366.9 151.4 290.1 284.5 366.9 152.3 443.8" class="st1"/></defs><clipPath id="SVGID_10_"><use xlink:href="#SVGID_9_" style="overflow:visible"/></clipPath><g class="st13"><g><g><g><path d="M218,328.5c-36.8-21.2-96.2-21.2-132.7,0c-36.5,21.2-36.3,55.6,0.4,76.9s96.2,21.2,132.7,0 C254.9,384.1,254.7,349.7,218,328.5" class="st3"/></g></g></g></g></g></g></g><linearGradient id="SVGID_11_" x1="35.531" x2="268.125" y1="-16197.542" y2="-16197.542" gradientTransform="matrix(1 0 0 -1 0 -15884)" gradientUnits="userSpaceOnUse"><stop offset="0" style="stop-color:#4f3e90"/><stop offset="1" style="stop-color:#171a31"/></linearGradient><path d="M35.5,311.8c0,0,0,62.7,107.4,68.1s124.9-58,124.9-58s11.6-62.4-95.5-74.1c0,0-61.9-8.4-108.3,21.7 C63.9,269.6,39.2,281.7,35.5,311.8z" class="st14"/><linearGradient id="XMLID_20_" x1="4240.704" x2="4429.554" y1="2388.608" y2="2388.608" gradientTransform="matrix(-1 0 0 -1.1206 4486.957 2958.8093)" gradientUnits="userSpaceOnUse"><stop offset="0" style="stop-color:#4f3e90"/><stop offset="1" style="stop-color:#171a31"/></linearGradient><path id="XMLID_13_" d="M245.8,306.2c0,0-1.3-37.4-93.9-39.6c0,0-86.8-0.6-93.9,39.6c0,0-13.2-43.9,93.9-48.2 C151.9,258.1,253.8,260,245.8,306.2z" class="st15"/><linearGradient id="XMLID_21_" x1="132.503" x2="161.683" y1="-16277.891" y2="-16168.988" gradientTransform="matrix(1 0 0 -1 0 -15884)" gradientUnits="userSpaceOnUse"><stop offset="0" style="stop-color:#4f3e90"/><stop offset="1" style="stop-color:#171a31"/></linearGradient><path id="XMLID_12_" d="M35.3,313.5c0,0,1.6,61.9,116.5,65.6c0,0,107.7,0.9,116.5-65.6c0,0,16.4,72.7-116.5,79.7 C151.8,393.2,25.4,390,35.3,313.5z" class="st16"/><linearGradient id="SVGID_12_" x1="78.802" x2="204.691" y1="-16194.315" y2="-16194.315" gradientTransform="matrix(1 0 0 -1 0 -15884)" gradientUnits="userSpaceOnUse"><stop offset="0" style="stop-color:#7f00ff"/><stop offset="1" style="stop-color:#3f00fc"/></linearGradient><path d="M196.7,298.5l8-4.3l-14.4-7.8l-7.5,4.9l-6.3-4.2l8.3-4.3l-14.1-8l-7.8,4.6l-10.4-6l-13.6,8l6.8,4.3 l-45.8,26.4l-7.3-4.1l-13.8,8.1l10.4,5.9l-6.4,3.8l13.8,7.9l6.4-3.6l6,3.3l-6.5,3.7l13.9,8.1l6.3-3.8 c16.8,8.5,34.4,4.9,34.4,4.9c22-6.9,19.4-18.7,19.4-18.7c16-1.1,23.5-8.6,23.5-8.6C210.4,307.4,196.7,298.5,196.7,298.5z M155,332.5c-6.3,4.7-16.3,1.7-16.3,1.7l-25-14.4l17.8-10.3l23.5,13.6C155,323.1,161.3,327.8,155,332.5z M181.1,314.2 c-7.4,4.1-14.6,0-14.6,0L145,301.6l15-8.8l22.2,12.9C182.2,305.7,188.5,310.1,181.1,314.2z" class="st17"/></g></g></g></switch></svg>