<svg xmlns="http://www.w3.org/2000/svg" xmlns:xlink="http://www.w3.org/1999/xlink" id="Capa_1" x="0" y="0" version="1.1" viewBox="6 -6 512 512" xml:space="preserve" style="enable-background:new 6 -6 512 512"><style type="text/css">.st0{fill:url(#SVGID_1_)}.st1{fill:url(#SVGID_2_)}.st2{fill:url(#SVGID_3_)}.st3{fill:url(#SVGID_4_)}</style><switch><g><g><g><g><linearGradient id="SVGID_1_" x1="219.436" x2="313.085" y1="233.596" y2="233.596" gradientUnits="userSpaceOnUse"><stop offset="0" style="stop-color:#7f00ff"/><stop offset="1" style="stop-color:#3f00fc"/></linearGradient><path d="M312.1,251c-1.7-6.8-5.5-12.8-10.7-17.4c14.2-12.2,15.8-33.5,3.6-47.6c-4.5-5.3-10.6-9-17.4-10.7V157h-17 v17h-17v-17h-17v17h-17v17h8.5v85.1h-8.5v17h17v17h17v-17h17v17h17V292C305.6,287.4,316.6,269.1,312.1,251z M279,276.2H245 v-34.1H279c9.4,0,17,7.6,17,17C296,268.5,288.4,276.2,279,276.2z M279,225.1H245V191H279c9.4,0,17,7.6,17,17 C296,217.5,288.4,225.1,279,225.1z" class="st0"/></g></g><g><g><linearGradient id="SVGID_2_" x1="117.285" x2="406.713" y1="233.596" y2="233.596" gradientUnits="userSpaceOnUse"><stop offset="0" style="stop-color:#7f00ff"/><stop offset="1" style="stop-color:#3f00fc"/></linearGradient><path d="M262,88.9c-79.9,0-144.7,64.8-144.7,144.7c0.1,79.9,64.8,144.6,144.7,144.7c79.9,0,144.7-64.8,144.7-144.7 S341.9,88.9,262,88.9z M262,361.3c-70.5,0-127.7-57.2-127.7-127.7c0.1-70.5,57.2-127.6,127.7-127.7 c70.5,0,127.7,57.2,127.7,127.7S332.5,361.3,262,361.3z" class="st1"/></g></g><g><g><linearGradient id="SVGID_3_" x1="151.335" x2="372.664" y1="233.594" y2="233.594" gradientUnits="userSpaceOnUse"><stop offset="0" style="stop-color:#7f00ff"/><stop offset="1" style="stop-color:#3f00fc"/></linearGradient><path d="M335.8,151.1c-45.6-40.7-115.5-36.9-156.3,8.7c-18.1,20.3-28.2,46.6-28.2,73.8c0,31.5,13.4,61.5,36.9,82.5 c45.6,40.7,115.5,36.9,156.3-8.7C385.2,261.8,381.3,191.9,335.8,151.1z M324.4,303.4c-38.5,34.5-97.7,31.2-132.2-7.4 c-15.4-17.2-23.8-39.4-23.8-62.4c0-26.7,11.3-52.1,31.2-69.8c38.5-34.5,97.7-31.2,132.2,7.4C366.3,209.7,363,268.9,324.4,303.4 z" class="st2"/></g></g><g><g><linearGradient id="SVGID_4_" x1="66.21" x2="457.79" y1="250.62" y2="250.62" gradientUnits="userSpaceOnUse"><stop offset="0" style="stop-color:#7f00ff"/><stop offset="1" style="stop-color:#3f00fc"/></linearGradient><path d="M449.3-4.8c-1.4,0-2.8,0.4-4.1,1c-55.8,30.6-123.3,30.6-179.1,0c-2.5-1.4-5.6-1.4-8.2,0 c-55.8,30.6-123.3,30.6-179.1,0C74.7-6,69.5-4.5,67.2-0.3c-0.7,1.3-1,2.7-1,4.1v363.6c0,15,8,29,20.9,36.6l170.6,100.8 c2.7,1.6,6,1.6,8.7,0L436.9,404c12.9-7.7,20.9-21.6,20.9-36.6V3.8C457.8-0.9,454-4.8,449.3-4.8z M440.8,367.4 c0,9-4.8,17.4-12.5,22L262,487.6L95.8,389.4c-7.8-4.6-12.5-13-12.5-22V17.6c57,26.3,123,24.8,178.8-4.2 c55.7,29,121.7,30.5,178.8,4.2V367.4z" class="st3"/></g></g></g></g></switch></svg>