<svg xmlns="http://www.w3.org/2000/svg" xmlns:xlink="http://www.w3.org/1999/xlink" id="Capa_1" x="0" y="0" version="1.1" viewBox="6 -6 512 512" xml:space="preserve" style="enable-background:new 6 -6 512 512"><style type="text/css">.st0{fill:url(#SVGID_1_)}.st1{fill:url(#SVGID_2_)}.st2{fill:url(#SVGID_3_)}.st3{fill:url(#SVGID_4_)}.st4{fill:url(#SVGID_5_)}.st5{fill:url(#SVGID_6_)}.st6{fill:url(#SVGID_7_)}.st7{fill:url(#SVGID_8_)}.st8{fill:url(#SVGID_9_)}.st9{fill:url(#SVGID_10_)}.st10{fill:url(#SVGID_11_)}.st11{fill:url(#SVGID_12_)}.st12{fill:url(#SVGID_13_)}.st13{fill:url(#SVGID_14_)}.st14{fill:url(#SVGID_15_)}.st15{fill:url(#SVGID_16_)}.st16{fill:url(#SVGID_17_)}.st17{fill:url(#SVGID_18_)}</style><switch><g><g><g><linearGradient id="SVGID_1_" x1="6" x2="518" y1="321.733" y2="321.733" gradientUnits="userSpaceOnUse"><stop offset="0" style="stop-color:#7f00ff"/><stop offset="1" style="stop-color:#3f00fc"/></linearGradient><path d="M483.9,193.7H185.2c0-37.7-30.6-68.3-68.3-68.3S48.7,156,48.7,193.7h-8.5C21.3,193.7,6,209,6,227.9v256 C6,502.7,21.3,518,40.1,518h443.7c18.9,0,34.1-15.3,34.1-34.1v-256C518,209,502.7,193.7,483.9,193.7z M116.9,142.5 c28.3,0,51.2,22.9,51.2,51.2s-22.9,51.2-51.2,51.2S65.7,222,65.7,193.7C65.8,165.5,88.7,142.6,116.9,142.5z M65.7,244.9h6.2 c25.7,22.8,64.3,22.8,90,0h91.5v42.7h17.1v-42.7h162.1v221.9H65.7V244.9z M500.9,483.9c0,9.4-7.6,17.1-17.1,17.1H40.1 c-9.4,0-17.1-7.6-17.1-17.1v-256c0-9.4,7.6-17.1,17.1-17.1h10.8c1.5,6,3.9,11.7,7,17.1h-0.7c-4.7,0-8.5,3.8-8.5,8.5v238.9 c0,4.7,3.8,8.5,8.5,8.5h384c4.7,0,8.5-3.8,8.5-8.5V236.4c0-4.7-3.8-8.5-8.5-8.5H176c3.1-5.3,5.4-11.1,7-17.1h300.9 c9.4,0,17.1,7.6,17.1,17.1V483.9z" class="st0"/></g></g><g><g><linearGradient id="SVGID_2_" x1="151.067" x2="364.4" y1="368.501" y2="368.501" gradientUnits="userSpaceOnUse"><stop offset="0" style="stop-color:#7f00ff"/><stop offset="1" style="stop-color:#3f00fc"/></linearGradient><path d="M334.8,415.6c2.7-8.3,4-16.9,4-25.6c0.2-47.1-37.9-85.5-85-85.7c-47.1-0.2-85.5,37.9-85.7,85 c0,8.9,1.3,17.8,4,26.3h-21.1v17.1h213.3v-17.1H334.8z M270.5,415.6h-25.6v-17.1h25.6c4.7,0,8.5,3.8,8.5,8.5 C279.1,411.8,275.2,415.6,270.5,415.6z M270.5,381.5h-25.6v-17.1h25.6c4.7,0,8.5,3.8,8.5,8.5 C279.1,377.6,275.2,381.5,270.5,381.5z M316.7,415.6h-22.1c3.3-8.8,1.3-18.7-5.1-25.6c9.5-10.3,8.8-26.4-1.6-35.8 c-2.6-2.3-5.6-4.1-8.8-5.3v-10.1H262v8.5h-17.1v-8.5h-17.1v8.5h-8.5v17.1h8.5v51.2h-37.6c-3.3-8.1-5.1-16.8-5.1-25.6 c0-37.7,30.6-68.3,68.3-68.3s68.3,30.6,68.3,68.3C321.7,398.8,320,407.5,316.7,415.6z" class="st1"/></g></g><g><g><linearGradient id="SVGID_3_" x1="296.133" x2="432.667" y1="108.4" y2="108.4" gradientUnits="userSpaceOnUse"><stop offset="0" style="stop-color:#7f00ff"/><stop offset="1" style="stop-color:#3f00fc"/></linearGradient><path d="M364.4,40.1c-37.7,0-68.2,30.6-68.3,68.3c0,37.7,30.6,68.3,68.3,68.3s68.3-30.6,68.3-68.3 S402.1,40.1,364.4,40.1z M364.4,159.6c-28.3,0-51.2-22.9-51.2-51.2s22.9-51.2,51.2-51.2c28.3,0,51.2,22.9,51.2,51.2 C415.6,136.7,392.7,159.6,364.4,159.6z" class="st2"/></g></g><g><g><linearGradient id="SVGID_4_" x1="279.067" x2="296.133" y1="35.867" y2="35.867" gradientUnits="userSpaceOnUse"><stop offset="0" style="stop-color:#7f00ff"/><stop offset="1" style="stop-color:#3f00fc"/></linearGradient><rect width="17.1" height="59.7" x="279.1" y="6" class="st3"/></g></g><g><g><linearGradient id="SVGID_5_" x1="407.067" x2="424.133" y1="18.8" y2="18.8" gradientUnits="userSpaceOnUse"><stop offset="0" style="stop-color:#7f00ff"/><stop offset="1" style="stop-color:#3f00fc"/></linearGradient><rect width="17.1" height="25.6" x="407.1" y="6" class="st4"/></g></g><g><g><linearGradient id="SVGID_6_" x1="236.4" x2="253.467" y1="104.133" y2="104.133" gradientUnits="userSpaceOnUse"><stop offset="0" style="stop-color:#7f00ff"/><stop offset="1" style="stop-color:#3f00fc"/></linearGradient><rect width="17.1" height="76.8" x="236.4" y="65.7" class="st5"/></g></g><g><g><linearGradient id="SVGID_7_" x1="173.9" x2="190.967" y1="44.4" y2="44.4" gradientUnits="userSpaceOnUse"><stop offset="0" style="stop-color:#7f00ff"/><stop offset="1" style="stop-color:#3f00fc"/></linearGradient><rect width="17.1" height="76.8" x="173.9" y="6" class="st6"/></g></g><g><g><linearGradient id="SVGID_8_" x1="82.8" x2="99.867" y1="18.8" y2="18.8" gradientUnits="userSpaceOnUse"><stop offset="0" style="stop-color:#7f00ff"/><stop offset="1" style="stop-color:#3f00fc"/></linearGradient><rect width="17.1" height="25.6" x="82.8" y="6" class="st7"/></g></g><g><g><linearGradient id="SVGID_9_" x1="338.8" x2="390" y1="108.4" y2="108.4" gradientUnits="userSpaceOnUse"><stop offset="0" style="stop-color:#7f00ff"/><stop offset="1" style="stop-color:#3f00fc"/></linearGradient><path d="M390,95.6c0-11.8-9.6-21.3-21.3-21.3h-21.3c-4.7,0-8.5,3.8-8.5,8.5V134c0,4.7,3.8,8.5,8.5,8.5h21.3 c11.8,0,21.3-9.6,21.3-21.3c0-4.6-1.6-9.1-4.4-12.8C388.4,104.7,390,100.2,390,95.6z M368.7,125.5h-12.8v-8.5h12.8 c2.4,0,4.3,1.9,4.3,4.3C372.9,123.6,371,125.5,368.7,125.5z M368.7,99.9h-12.8v-8.5h12.8c2.4,0,4.3,1.9,4.3,4.3 C372.9,98,371,99.9,368.7,99.9z" class="st8"/></g></g><g><g><linearGradient id="SVGID_10_" x1="279.067" x2="296.133" y1="159.6" y2="159.6" gradientUnits="userSpaceOnUse"><stop offset="0" style="stop-color:#7f00ff"/><stop offset="1" style="stop-color:#3f00fc"/></linearGradient><rect width="17.1" height="17.1" x="279.1" y="151.1" class="st9"/></g></g><g><g><linearGradient id="SVGID_11_" x1="173.9" x2="190.967" y1="112.667" y2="112.667" gradientUnits="userSpaceOnUse"><stop offset="0" style="stop-color:#7f00ff"/><stop offset="1" style="stop-color:#3f00fc"/></linearGradient><rect width="17.1" height="17.1" x="173.9" y="104.1" class="st10"/></g></g><g><g><linearGradient id="SVGID_12_" x1="142.533" x2="159.6" y1="270.533" y2="270.533" gradientUnits="userSpaceOnUse"><stop offset="0" style="stop-color:#7f00ff"/><stop offset="1" style="stop-color:#3f00fc"/></linearGradient><rect width="17.1" height="17.1" x="142.5" y="262" class="st11"/></g></g><g><g><linearGradient id="SVGID_13_" x1="142.533" x2="159.6" y1="321.733" y2="321.733" gradientUnits="userSpaceOnUse"><stop offset="0" style="stop-color:#7f00ff"/><stop offset="1" style="stop-color:#3f00fc"/></linearGradient><rect width="17.1" height="51.2" x="142.5" y="296.1" class="st12"/></g></g><g><g><linearGradient id="SVGID_14_" x1="108.4" x2="125.467" y1="48.667" y2="48.667" gradientUnits="userSpaceOnUse"><stop offset="0" style="stop-color:#7f00ff"/><stop offset="1" style="stop-color:#3f00fc"/></linearGradient><rect width="17.1" height="17.1" x="108.4" y="40.1" class="st13"/></g></g><g><g><linearGradient id="SVGID_15_" x1="108.4" x2="125.467" y1="91.333" y2="91.333" gradientUnits="userSpaceOnUse"><stop offset="0" style="stop-color:#7f00ff"/><stop offset="1" style="stop-color:#3f00fc"/></linearGradient><rect width="17.1" height="34.1" x="108.4" y="74.3" class="st14"/></g></g><g><g><linearGradient id="SVGID_16_" x1="236.4" x2="253.467" y1="40.133" y2="40.133" gradientUnits="userSpaceOnUse"><stop offset="0" style="stop-color:#7f00ff"/><stop offset="1" style="stop-color:#3f00fc"/></linearGradient><rect width="17.1" height="17.1" x="236.4" y="31.6" class="st15"/></g></g><g><g><linearGradient id="SVGID_17_" x1="330.267" x2="398.533" y1="296.133" y2="296.133" gradientUnits="userSpaceOnUse"><stop offset="0" style="stop-color:#7f00ff"/><stop offset="1" style="stop-color:#3f00fc"/></linearGradient><path d="M364.4,262c-18.9,0-34.1,15.3-34.1,34.1s15.3,34.1,34.1,34.1s34.1-15.3,34.1-34.1S383.3,262,364.4,262z M364.4,313.2c-9.4,0-17.1-7.6-17.1-17.1s7.6-17.1,17.1-17.1s17.1,7.6,17.1,17.1S373.8,313.2,364.4,313.2z" class="st16"/></g></g><g><g><linearGradient id="SVGID_18_" x1="91.333" x2="142.533" y1="193.733" y2="193.733" gradientUnits="userSpaceOnUse"><stop offset="0" style="stop-color:#7f00ff"/><stop offset="1" style="stop-color:#3f00fc"/></linearGradient><path d="M142.5,180.9c0-11.8-9.6-21.3-21.3-21.3H99.9c-4.7,0-8.5,3.8-8.5,8.5v51.2c0,4.7,3.8,8.5,8.5,8.5h21.3 c11.8,0,21.3-9.6,21.3-21.3c0-4.6-1.6-9.1-4.4-12.8C141,190.1,142.5,185.6,142.5,180.9z M121.2,210.8h-12.8v-8.5h12.8 c2.4,0,4.3,1.9,4.3,4.3C125.5,208.9,123.6,210.8,121.2,210.8z M121.2,185.2h-12.8v-8.5h12.8c2.4,0,4.3,1.9,4.3,4.3 S123.6,185.2,121.2,185.2z" class="st17"/></g></g></g></switch></svg>