<svg xmlns="http://www.w3.org/2000/svg" xmlns:xlink="http://www.w3.org/1999/xlink" id="Capa_1" x="0" y="0" version="1.1" viewBox="6 -6 512 512" xml:space="preserve" style="enable-background:new 6 -6 512 512"><style type="text/css">.st0{fill:url(#SVGID_1_)}.st1{fill:url(#SVGID_2_)}.st2{fill:url(#SVGID_3_)}.st3{fill:url(#SVGID_4_)}.st4{fill:url(#SVGID_5_)}.st5{fill:url(#SVGID_6_)}.st6{fill:url(#SVGID_7_)}.st7{fill:url(#SVGID_8_)}.st8{fill:url(#SVGID_9_)}.st9{fill:url(#SVGID_10_)}.st10{fill:url(#SVGID_11_)}.st11{fill:url(#SVGID_12_)}.st12{fill:url(#SVGID_13_)}.st13{fill:url(#SVGID_14_)}</style><switch><g><g><g><g><linearGradient id="SVGID_1_" x1="233.785" x2="374.865" y1="221.784" y2="221.784" gradientUnits="userSpaceOnUse"><stop offset="0" style="stop-color:#0f9"/><stop offset="1" style="stop-color:#3cf"/></linearGradient><path d="M304.3,151.2c-39,0-70.5,31.6-70.5,70.5c0,38.9,31.6,70.5,70.5,70.5c39,0,70.5-31.6,70.5-70.5 S343.3,151.2,304.3,151.2z M304.3,278.2c-31.2,0-56.4-25.3-56.4-56.4c0-31.2,25.3-56.4,56.4-56.4c31.2,0,56.4,25.3,56.4,56.4 S335.5,278.2,304.3,278.2z" class="st0"/></g></g><g><g><linearGradient id="SVGID_2_" x1="127.975" x2="240.839" y1="137.136" y2="137.136" gradientUnits="userSpaceOnUse"><stop offset="0" style="stop-color:#0f9"/><stop offset="1" style="stop-color:#3cf"/></linearGradient><path d="M184.4,80.7c-31.2,0-56.4,25.3-56.4,56.4s25.3,56.4,56.4,56.4c31.2,0,56.4-25.3,56.4-56.4 C240.8,106,215.6,80.7,184.4,80.7z M184.4,179.5c-23.4,0-42.3-19-42.3-42.3c0-23.4,18.9-42.3,42.3-42.3s42.3,18.9,42.3,42.3 S207.8,179.5,184.4,179.5z" class="st1"/></g></g><g><g><linearGradient id="SVGID_3_" x1="311.379" x2="424.243" y1="94.812" y2="94.812" gradientUnits="userSpaceOnUse"><stop offset="0" style="stop-color:#0f9"/><stop offset="1" style="stop-color:#3cf"/></linearGradient><path d="M367.8,38.4c-31.2,0-56.4,25.3-56.4,56.4s25.3,56.4,56.4,56.4c31.2,0,56.4-25.3,56.4-56.4 C424.2,63.6,399,38.4,367.8,38.4z M367.8,137.1c-23.4,0-42.3-18.9-42.3-42.3s18.9-42.3,42.3-42.3c23.4,0,42.3,18.9,42.3,42.3 C410.1,118.2,391.2,137.1,367.8,137.1z" class="st2"/></g></g><g><g><linearGradient id="SVGID_4_" x1="417.189" x2="431.297" y1="211.203" y2="211.203" gradientUnits="userSpaceOnUse"><stop offset="0" style="stop-color:#0f9"/><stop offset="1" style="stop-color:#3cf"/></linearGradient><rect width="14.1" height="49.4" x="417.2" y="186.5" class="st3"/></g></g><g><g><linearGradient id="SVGID_5_" x1="417.189" x2="431.297" y1="165.352" y2="165.352" gradientUnits="userSpaceOnUse"><stop offset="0" style="stop-color:#0f9"/><stop offset="1" style="stop-color:#3cf"/></linearGradient><rect width="14.1" height="14.1" x="417.2" y="158.3" class="st4"/></g></g><g><g><linearGradient id="SVGID_6_" x1="170.299" x2="184.407" y1="260.581" y2="260.581" gradientUnits="userSpaceOnUse"><stop offset="0" style="stop-color:#0f9"/><stop offset="1" style="stop-color:#3cf"/></linearGradient><rect width="14.1" height="49.4" x="170.3" y="235.9" class="st5"/></g></g><g><g><linearGradient id="SVGID_7_" x1="170.299" x2="184.407" y1="214.73" y2="214.73" gradientUnits="userSpaceOnUse"><stop offset="0" style="stop-color:#0f9"/><stop offset="1" style="stop-color:#3cf"/></linearGradient><rect width="14.1" height="14.1" x="170.3" y="207.7" class="st6"/></g></g><g><g><linearGradient id="SVGID_8_" x1="388.973" x2="403.081" y1="267.635" y2="267.635" gradientUnits="userSpaceOnUse"><stop offset="0" style="stop-color:#0f9"/><stop offset="1" style="stop-color:#3cf"/></linearGradient><rect width="14.1" height="35.3" x="389" y="250" class="st7"/></g></g><g><g><linearGradient id="SVGID_9_" x1="269.055" x2="283.163" y1="98.339" y2="98.339" gradientUnits="userSpaceOnUse"><stop offset="0" style="stop-color:#0f9"/><stop offset="1" style="stop-color:#3cf"/></linearGradient><rect width="14.1" height="63.5" x="269.1" y="66.6" class="st8"/></g></g><g><g><linearGradient id="SVGID_10_" x1="156.191" x2="170.299" y1="48.961" y2="48.961" gradientUnits="userSpaceOnUse"><stop offset="0" style="stop-color:#0f9"/><stop offset="1" style="stop-color:#3cf"/></linearGradient><rect width="14.1" height="21.2" x="156.2" y="38.4" class="st9"/></g></g><g><g><linearGradient id="SVGID_11_" x1="50.381" x2="473.619" y1="380.5" y2="380.5" gradientUnits="userSpaceOnUse"><stop offset="0" style="stop-color:#0f9"/><stop offset="1" style="stop-color:#3cf"/></linearGradient><path d="M472,330.2c-0.4-0.5-0.8-0.9-1.2-1.2c-19.3-14.4-45.6-15.3-65.9-2.3L316.4,384h-24.2l-47-28.2h31 c23.4,0,42.3-19,42.3-42.3c0-3.9-3.2-7.1-7.1-7.1l-48.7,0l-70.5-7.1c-1.2-0.1-2.4,0.1-3.5,0.5l-48,20.6H50.4v14.1h91.7 c1,0,1.9-0.2,2.8-0.6l47.7-20.5l69.4,6.9h41.4c-3.2,12.4-14.5,21.1-27.3,21.2h-56.4c-3.9,0-7.1,3.2-7.1,7.1 c0,2.5,1.3,4.8,3.4,6l70.5,42.3c1.1,0.7,2.4,1,3.6,1h28.2c1.4,0,2.7-0.4,3.8-1.1l90.3-58.4c12.5-8,28.2-9.2,41.7-3.1 l-138.3,112h-38.6l-132.8-48.9c-0.8-0.3-1.6-0.4-2.4-0.4H50.4v14.1h90.4l132.8,48.9c0.8,0.3,1.6,0.4,2.4,0.4h42.3 c1.6,0,3.2-0.6,4.4-1.6L471,340.1C474,337.7,474.5,333.2,472,330.2z" class="st10"/></g></g><g><g><linearGradient id="SVGID_12_" x1="276.109" x2="339.603" y1="221.784" y2="221.784" gradientUnits="userSpaceOnUse"><stop offset="0" style="stop-color:#0f9"/><stop offset="1" style="stop-color:#3cf"/></linearGradient><path d="M338.4,229.1c-0.9-2.7-2.4-5.2-4.4-7.3c7.8-8.5,7.2-21.8-1.3-29.6c-2.1-1.9-4.6-3.4-7.3-4.4v-8.4h-14.1 v7.1h-14.1v-7.1h-14.1v7.1h-7.1v14.1h7.1v42.3h-7.1v14.1h7.1v7.1h14.1v-7.1h14.1v7.1h14.1v-8.4 C336.4,252,342.2,240,338.4,229.1z M318.4,242.9h-21.2v-14.1h21.2c3.9,0,7.1,3.2,7.1,7.1S322.3,242.9,318.4,242.9z M318.4,214.7h-21.2v-14.1h21.2c3.9,0,7.1,3.2,7.1,7.1C325.5,211.6,322.3,214.7,318.4,214.7z" class="st11"/></g></g><g><g><linearGradient id="SVGID_13_" x1="163.245" x2="205.57" y1="137.136" y2="137.136" gradientUnits="userSpaceOnUse"><stop offset="0" style="stop-color:#0f9"/><stop offset="1" style="stop-color:#3cf"/></linearGradient><path d="M202,137.1c5.8-7.8,4.3-18.8-3.5-24.7c-3.1-2.3-6.8-3.5-10.6-3.5h-17.6c-3.9,0-7.1,3.2-7.1,7.1v42.3 c0,3.9,3.2,7.1,7.1,7.1h17.6c9.7,0,17.6-7.9,17.6-17.6C205.6,143.9,204.3,140.2,202,137.1z M187.9,151.2h-10.6v-7.1h10.6 c1.9,0,3.5,1.6,3.5,3.5S189.9,151.2,187.9,151.2z M187.9,130.1h-10.6V123h10.6c1.9,0,3.5,1.6,3.5,3.5S189.9,130.1,187.9,130.1z" class="st12"/></g></g><g><g><linearGradient id="SVGID_14_" x1="346.649" x2="388.974" y1="94.812" y2="94.812" gradientUnits="userSpaceOnUse"><stop offset="0" style="stop-color:#0f9"/><stop offset="1" style="stop-color:#3cf"/></linearGradient><path d="M385.4,94.8c5.8-7.8,4.3-18.8-3.5-24.7c-3.1-2.3-6.8-3.5-10.6-3.5h-17.6c-3.9,0-7.1,3.2-7.1,7.1V116 c0,3.9,3.2,7.1,7.1,7.1h17.6c9.7,0,17.6-7.9,17.6-17.6C389,101.6,387.7,97.9,385.4,94.8z M371.3,108.9h-10.6v-7.1h10.6 c1.9,0,3.5,1.6,3.5,3.5S373.3,108.9,371.3,108.9z M371.3,87.8h-10.6v-7.1h10.6c1.9,0,3.5,1.6,3.5,3.5S373.3,87.8,371.3,87.8z" class="st13"/></g></g></g></g></switch></svg>