<svg xmlns="http://www.w3.org/2000/svg" xmlns:xlink="http://www.w3.org/1999/xlink" id="Capa_1" x="0" y="0" version="1.1" viewBox="6 -6 512 512" xml:space="preserve" style="enable-background:new 6 -6 512 512"><style type="text/css">.st0{fill:url(#SVGID_1_)}.st1{fill:url(#SVGID_2_)}.st2{fill:url(#SVGID_3_)}.st3{fill:url(#SVGID_4_)}.st4{fill:url(#SVGID_5_)}.st5{fill:url(#SVGID_6_)}.st6{fill:url(#SVGID_7_)}.st7{fill:url(#SVGID_8_)}.st8{fill:url(#SVGID_9_)}.st9{fill:url(#SVGID_10_)}</style><switch><g><g><g><g><linearGradient id="SVGID_1_" x1="448.809" x2="462.647" y1="412.599" y2="412.599" gradientUnits="userSpaceOnUse"><stop offset="0" style="stop-color:#0f9"/><stop offset="1" style="stop-color:#3cf"/></linearGradient><rect width="13.8" height="62.3" x="448.8" y="381.5" class="st0"/></g></g><g><g><linearGradient id="SVGID_2_" x1="75.177" x2="89.016" y1="322.651" y2="322.651" gradientUnits="userSpaceOnUse"><stop offset="0" style="stop-color:#0f9"/><stop offset="1" style="stop-color:#3cf"/></linearGradient><rect width="13.8" height="48.4" x="75.2" y="298.4" class="st1"/></g></g><g><g><linearGradient id="SVGID_3_" x1="111.8" x2="163.098" y1="381.464" y2="381.464" gradientUnits="userSpaceOnUse"><stop offset="0" style="stop-color:#0f9"/><stop offset="1" style="stop-color:#3cf"/></linearGradient><path d="M142.3,342c-2.7-2.7-7.1-2.7-9.8,0l-20.8,20.8l9.8,9.8l8.9-8.9V423h13.8v-59.4l8.9,8.9l9.8-9.8L142.3,342z" class="st2"/></g></g><g><g><linearGradient id="SVGID_4_" x1="172.045" x2="185.883" y1="433.356" y2="433.356" gradientUnits="userSpaceOnUse"><stop offset="0" style="stop-color:#0f9"/><stop offset="1" style="stop-color:#3cf"/></linearGradient><rect width="13.8" height="48.4" x="172" y="409.1" class="st3"/></g></g><g><g><linearGradient id="SVGID_5_" x1="75.177" x2="89.016" y1="367.625" y2="367.625" gradientUnits="userSpaceOnUse"><stop offset="0" style="stop-color:#0f9"/><stop offset="1" style="stop-color:#3cf"/></linearGradient><rect width="13.8" height="13.8" x="75.2" y="360.7" class="st4"/></g></g><g><g><linearGradient id="SVGID_6_" x1="54.42" x2="469.58" y1="246.541" y2="246.541" gradientUnits="userSpaceOnUse"><stop offset="0" style="stop-color:#0f9"/><stop offset="1" style="stop-color:#3cf"/></linearGradient><path d="M461.3,173.9c-12.1-23.7-35.7-39.4-62.2-41.3c7.8-41.3-19.4-81.1-60.7-88.8c-31-5.8-62.4,8.1-78.9,34.9 C226,53.3,178.3,59.8,152.9,93.3c-8.7,11.5-14,25.1-15.2,39.4c-2.4-0.2-4.8-0.3-7.2-0.3c-42,0-76.1,34.1-76.1,76.1 s34.1,76.1,76.1,76.1h20.8V333h13.8v-48.4h20.8v6.9h13.8v-6.9H262v13.8c-42-0.1-76.2,33.9-76.3,76c-0.1,42,33.9,76.2,76,76.3 c21.1,0,41.2-8.7,55.7-24v10.2h13.8v-30.7c17.5-38.1,0.8-83.1-37.3-100.6c-5.8-2.6-11.8-4.6-18.1-5.7v-15.2h62.3V333h13.8 v-48.4h41.5c7,0,14-1,20.8-2.9v37.5h13.8v-43C465.5,257.1,480.3,211.3,461.3,173.9z M290.6,319.2 c20.7,10.7,33.7,32.1,33.7,55.4c0,9.6-2.3,19.1-6.6,27.7h-0.3v0.7c-15.7,30.5-53.2,42.5-83.8,26.7s-42.5-53.2-26.7-83.8 S260.1,303.4,290.6,319.2z M454.8,216.6c-4,30.9-30.2,54-61.4,54.2H130.5c-34.4,0-62.3-27.9-62.3-62.3 c0-34.4,27.9-62.3,62.3-62.3c4.2,0,8.4,0.4,12.5,1.3c3.7,0.8,7.4-1.7,8.2-5.4c0.1-0.5,0.1-1,0.1-1.5c0-0.1-0.1-1.1-0.1-1.3 c0-34.4,27.8-62.3,62.2-62.3c16.1,0,31.6,6.2,43.3,17.4c2.8,2.6,7.1,2.6,9.8-0.2c0.5-0.6,1-1.2,1.3-1.9 c14.2-31.3,51-45.1,82.3-30.9c25.9,11.8,40.5,39.6,35.5,67.6c-11.5-9.1-25.8-14.1-40.5-14.1v13.8c28.6,0,51.9,23.2,51.9,51.9 h13.8c0-12-3.3-23.8-9.6-34.1C435.2,151.2,459.3,182.5,454.8,216.6z" class="st5"/></g></g><g><g><linearGradient id="SVGID_7_" x1="234.317" x2="296.596" y1="374.544" y2="374.544" gradientUnits="userSpaceOnUse"><stop offset="0" style="stop-color:#0f9"/><stop offset="1" style="stop-color:#3cf"/></linearGradient><path d="M295.5,381.7c-0.9-2.7-2.4-5.1-4.3-7.2c7.7-8.4,7.1-21.4-1.3-29.1c-2.1-1.9-4.5-3.4-7.2-4.3V333h-13.8v6.9 h-13.8V333h-13.8v6.9h-6.9v13.8h6.9v41.5h-6.9v13.8h6.9v6.9h13.8v-6.9h13.8v6.9h13.8v-8.2C293.5,404.2,299.2,392.4,295.5,381.7 z M275.8,395.3h-20.8v-13.8h20.8c3.8,0,6.9,3.1,6.9,6.9S279.7,395.3,275.8,395.3z M275.8,367.6h-20.8v-13.8h20.8 c3.8,0,6.9,3.1,6.9,6.9C282.8,364.5,279.7,367.6,275.8,367.6z" class="st6"/></g></g><g><g><linearGradient id="SVGID_8_" x1="374.726" x2="426.024" y1="398.76" y2="398.76" gradientUnits="userSpaceOnUse"><stop offset="0" style="stop-color:#0f9"/><stop offset="1" style="stop-color:#3cf"/></linearGradient><path d="M416.2,404.2l-8.9,8.9v-52.5h-13.8v52.5l-8.9-8.9l-9.8,9.8l20.8,20.8c2.7,2.7,7.1,2.7,9.8,0L426,414 L416.2,404.2z" class="st7"/></g></g><g><g><linearGradient id="SVGID_9_" x1="393.456" x2="407.294" y1="339.949" y2="339.949" gradientUnits="userSpaceOnUse"><stop offset="0" style="stop-color:#0f9"/><stop offset="1" style="stop-color:#3cf"/></linearGradient><rect width="13.8" height="13.8" x="393.5" y="333" class="st8"/></g></g><g><g><linearGradient id="SVGID_10_" x1="172.045" x2="379.618" y1="203.286" y2="203.286" gradientUnits="userSpaceOnUse"><stop offset="0" style="stop-color:#0f9"/><stop offset="1" style="stop-color:#3cf"/></linearGradient><path d="M313.9,187.7c-5.8,0-11.5,0.8-17.1,2.3c-15.9-32.6-55.2-46.2-87.8-30.3c-22.6,11-36.9,34-36.9,59.1h13.8 c0.1-28.7,23.4-51.8,52-51.7c21.6,0.1,41,13.5,48.5,33.8c1.3,3.6,5.3,5.4,8.9,4.1c0,0,0.1,0,0.1,0 c26.7-10.3,56.7,3.1,66.9,29.8c2.3,6,3.5,12.3,3.4,18.7h13.8C379.6,217.2,350.2,187.8,313.9,187.7z" class="st9"/></g></g></g></g></switch></svg>