<svg xmlns="http://www.w3.org/2000/svg" xmlns:xlink="http://www.w3.org/1999/xlink" id="Capa_1" x="0" y="0" version="1.1" viewBox="6 -6 512 512" xml:space="preserve" style="enable-background:new 6 -6 512 512"><style type="text/css">.st0{fill:url(#SVGID_1_)}.st1{fill:url(#SVGID_2_)}.st2{fill:url(#SVGID_3_)}.st3{fill:url(#SVGID_4_)}.st4{fill:url(#SVGID_5_)}.st5{fill:url(#SVGID_6_)}.st6{fill:url(#SVGID_7_)}.st7{fill:url(#SVGID_8_)}.st8{fill:url(#SVGID_9_)}.st9{fill:url(#SVGID_10_)}.st10{fill:url(#SVGID_11_)}.st11{fill:url(#SVGID_12_)}.st12{fill:url(#SVGID_13_)}.st13{fill:url(#SVGID_14_)}.st14{fill:url(#SVGID_15_)}.st15{fill:url(#SVGID_16_)}.st16{fill:url(#SVGID_17_)}.st17{fill:url(#SVGID_18_)}.st18{fill:url(#SVGID_19_)}.st19{fill:url(#SVGID_20_)}.st20{fill:url(#SVGID_21_)}.st21{fill:url(#SVGID_22_)}.st22{fill:url(#SVGID_23_)}.st23{fill:url(#SVGID_24_)}.st24{fill:url(#SVGID_25_)}.st25{fill:url(#SVGID_26_)}.st26{fill:url(#SVGID_27_)}.st27{fill:url(#SVGID_28_)}.st28{fill:url(#SVGID_29_)}</style><switch><g><g><g><g><linearGradient id="SVGID_1_" x1="130.267" x2="192.674" y1="118.267" y2="118.267" gradientUnits="userSpaceOnUse"><stop offset="0" style="stop-color:#0f9"/><stop offset="1" style="stop-color:#3cf"/></linearGradient><path d="M191.5,125.4c-0.9-2.7-2.4-5.1-4.3-7.2c7.7-8.4,7.1-21.4-1.3-29.1c-2.1-1.9-4.5-3.4-7.2-4.3v-8.2h-13.9 v6.9h-13.9v-6.9h-13.9v6.9h-6.9v13.9h6.9v41.6h-6.9v13.9h6.9v6.9h13.9v-6.9h13.9v6.9h13.9v-8.2 C189.6,147.9,195.3,136.2,191.5,125.4z M171.9,139.1h-20.8v-13.9h20.8c3.8,0,6.9,3.1,6.9,6.9S175.7,139.1,171.9,139.1z M171.9,111.3h-20.8V97.5h20.8c3.8,0,6.9,3.1,6.9,6.9S175.7,111.3,171.9,111.3z" class="st0"/></g></g><g><g><linearGradient id="SVGID_2_" x1="81.733" x2="234.267" y1="118.267" y2="118.267" gradientUnits="userSpaceOnUse"><stop offset="0" style="stop-color:#0f9"/><stop offset="1" style="stop-color:#3cf"/></linearGradient><path d="M158,42c-42.1,0-76.3,34.1-76.3,76.3c0,42.1,34.2,76.2,76.3,76.3c42.1,0,76.3-34.1,76.3-76.3 S200.1,42,158,42z M158,180.7c-34.5,0-62.4-27.9-62.4-62.4c0-34.4,28-62.4,62.4-62.4c34.5,0,62.4,27.9,62.4,62.4 C220.4,152.7,192.5,180.7,158,180.7z" class="st1"/></g></g><g><g><linearGradient id="SVGID_3_" x1="81.733" x2="234.267" y1="333.2" y2="333.2" gradientUnits="userSpaceOnUse"><stop offset="0" style="stop-color:#0f9"/><stop offset="1" style="stop-color:#3cf"/></linearGradient><path d="M158,256.9c-42.1,0-76.3,34.1-76.3,76.3s34.1,76.3,76.3,76.3c42.1,0,76.2-34.2,76.3-76.3 C234.3,291.1,200.1,256.9,158,256.9z M158,395.6c-34.5,0-62.4-27.9-62.4-62.4c0-34.5,27.9-62.4,62.4-62.4s62.4,27.9,62.4,62.4 C220.4,367.6,192.4,395.6,158,395.6z" class="st2"/></g></g><g><g><linearGradient id="SVGID_4_" x1="109.467" x2="206.533" y1="336.743" y2="336.743" gradientUnits="userSpaceOnUse"><stop offset="0" style="stop-color:#0f9"/><stop offset="1" style="stop-color:#3cf"/></linearGradient><path d="M205.1,336l-41.6-55.5c-2.5-3.1-7-3.5-10.1-1c-0.4,0.3-0.7,0.6-1,1L110.9,336c-2,2.6-1.8,6.2,0.3,8.7 l41.6,48.5c2.5,2.9,6.9,3.2,9.8,0.7c0.3-0.2,0.5-0.5,0.7-0.7l41.6-48.5C207,342.2,207.1,338.6,205.1,336z M158,378l-32.7-38.2 l32.7-43.6l32.7,43.6L158,378z" class="st3"/></g></g><g><g><linearGradient id="SVGID_5_" x1="141.034" x2="174.966" y1="343.966" y2="343.966" gradientUnits="userSpaceOnUse"><stop offset="0" style="stop-color:#0f9"/><stop offset="1" style="stop-color:#3cf"/></linearGradient><path d="M168.8,333.9l-10.8,5.4l-10.8-5.4l-6.2,12.4l13.9,6.9c2,1,4.2,1,6.2,0l13.9-6.9L168.8,333.9z" class="st4"/></g></g><g><g><linearGradient id="SVGID_6_" x1="317.467" x2="470" y1="381.733" y2="381.733" gradientUnits="userSpaceOnUse"><stop offset="0" style="stop-color:#0f9"/><stop offset="1" style="stop-color:#3cf"/></linearGradient><path d="M393.7,305.5c-42.1,0-76.3,34.1-76.3,76.3s34.1,76.3,76.3,76.3s76.3-34.1,76.3-76.3 C470,339.6,435.8,305.5,393.7,305.5z M393.7,444.1c-34.5,0-62.4-27.9-62.4-62.4c0-34.5,27.9-62.4,62.4-62.4 c34.5,0,62.4,27.9,62.4,62.4C456.1,416.2,428.2,444.1,393.7,444.1z" class="st5"/></g></g><g><g><linearGradient id="SVGID_7_" x1="255.067" x2="407.6" y1="187.6" y2="187.6" gradientUnits="userSpaceOnUse"><stop offset="0" style="stop-color:#0f9"/><stop offset="1" style="stop-color:#3cf"/></linearGradient><path d="M331.3,111.3c-42.1,0-76.3,34.1-76.3,76.3c0,42.1,34.2,76.2,76.3,76.3c42.1,0,76.3-34.1,76.3-76.3 S373.5,111.3,331.3,111.3z M331.3,250c-34.5,0-62.4-27.9-62.4-62.4c0-34.4,28-62.4,62.4-62.4c34.5,0,62.4,27.9,62.4,62.4 C393.7,222.1,365.8,250,331.3,250z" class="st6"/></g></g><g><g><linearGradient id="SVGID_8_" x1="386.8" x2="442.267" y1="385.2" y2="385.2" gradientUnits="userSpaceOnUse"><stop offset="0" style="stop-color:#0f9"/><stop offset="1" style="stop-color:#3cf"/></linearGradient><path d="M418,347.1h-24.3c-3.8,0-6.9,3.1-6.9,6.9v69.3h13.9v-27.7H418c13.4,0,24.3-10.9,24.3-24.3 C442.3,357.9,431.4,347.1,418,347.1z M418,381.7h-17.3v-20.8H418c5.7,0,10.4,4.7,10.4,10.4S423.7,381.7,418,381.7z" class="st7"/></g></g><g><g><linearGradient id="SVGID_9_" x1="366" x2="379.867" y1="385.2" y2="385.2" gradientUnits="userSpaceOnUse"><stop offset="0" style="stop-color:#0f9"/><stop offset="1" style="stop-color:#3cf"/></linearGradient><rect width="13.9" height="76.3" x="366" y="347.1" class="st8"/></g></g><g><g><linearGradient id="SVGID_10_" x1="303.6" x2="366" y1="187.6" y2="187.6" gradientUnits="userSpaceOnUse"><stop offset="0" style="stop-color:#0f9"/><stop offset="1" style="stop-color:#3cf"/></linearGradient><path d="M331.3,152.9h-20.8c-3.8,0-6.9,3.1-6.9,6.9v55.5c0,3.8,3.1,6.9,6.9,6.9h20.8c19.1,0,34.7-15.5,34.7-34.7 S350.5,152.9,331.3,152.9z M331.3,208.4h-13.9v-13.9h20.8v-13.9h-20.8v-13.9h13.9c11.5,0,20.8,9.3,20.8,20.8 S342.8,208.4,331.3,208.4z" class="st9"/></g></g><g><g><linearGradient id="SVGID_11_" x1="456.133" x2="470" y1="73.2" y2="73.2" gradientUnits="userSpaceOnUse"><stop offset="0" style="stop-color:#0f9"/><stop offset="1" style="stop-color:#3cf"/></linearGradient><rect width="13.9" height="48.5" x="456.1" y="48.9" class="st10"/></g></g><g><g><linearGradient id="SVGID_12_" x1="54" x2="67.867" y1="52.4" y2="52.4" gradientUnits="userSpaceOnUse"><stop offset="0" style="stop-color:#0f9"/><stop offset="1" style="stop-color:#3cf"/></linearGradient><rect width="13.9" height="20.8" x="54" y="42" class="st11"/></g></g><g><g><linearGradient id="SVGID_13_" x1="421.467" x2="435.333" y1="128.667" y2="128.667" gradientUnits="userSpaceOnUse"><stop offset="0" style="stop-color:#0f9"/><stop offset="1" style="stop-color:#3cf"/></linearGradient><rect width="13.9" height="62.4" x="421.5" y="97.5" class="st12"/></g></g><g><g><linearGradient id="SVGID_14_" x1="54" x2="67.867" y1="191.067" y2="191.067" gradientUnits="userSpaceOnUse"><stop offset="0" style="stop-color:#0f9"/><stop offset="1" style="stop-color:#3cf"/></linearGradient><rect width="13.9" height="20.8" x="54" y="180.7" class="st13"/></g></g><g><g><linearGradient id="SVGID_15_" x1="74.8" x2="88.667" y1="215.333" y2="215.333" gradientUnits="userSpaceOnUse"><stop offset="0" style="stop-color:#0f9"/><stop offset="1" style="stop-color:#3cf"/></linearGradient><rect width="13.9" height="13.9" x="74.8" y="208.4" class="st14"/></g></g><g><g><linearGradient id="SVGID_16_" x1="74.8" x2="88.667" y1="250" y2="250" gradientUnits="userSpaceOnUse"><stop offset="0" style="stop-color:#0f9"/><stop offset="1" style="stop-color:#3cf"/></linearGradient><rect width="13.9" height="27.7" x="74.8" y="236.1" class="st15"/></g></g><g><g><linearGradient id="SVGID_17_" x1="171.867" x2="185.733" y1="423.333" y2="423.333" gradientUnits="userSpaceOnUse"><stop offset="0" style="stop-color:#0f9"/><stop offset="1" style="stop-color:#3cf"/></linearGradient><rect width="13.9" height="13.9" x="171.9" y="416.4" class="st16"/></g></g><g><g><linearGradient id="SVGID_18_" x1="171.867" x2="185.733" y1="451.067" y2="451.067" gradientUnits="userSpaceOnUse"><stop offset="0" style="stop-color:#0f9"/><stop offset="1" style="stop-color:#3cf"/></linearGradient><rect width="13.9" height="13.9" x="171.9" y="444.1" class="st17"/></g></g><g><g><linearGradient id="SVGID_19_" x1="296.667" x2="310.533" y1="437.2" y2="437.2" gradientUnits="userSpaceOnUse"><stop offset="0" style="stop-color:#0f9"/><stop offset="1" style="stop-color:#3cf"/></linearGradient><rect width="13.9" height="13.9" x="296.7" y="430.3" class="st18"/></g></g><g><g><linearGradient id="SVGID_20_" x1="213.467" x2="227.333" y1="194.533" y2="194.533" gradientUnits="userSpaceOnUse"><stop offset="0" style="stop-color:#0f9"/><stop offset="1" style="stop-color:#3cf"/></linearGradient><rect width="13.9" height="13.9" x="213.5" y="187.6" class="st19"/></g></g><g><g><linearGradient id="SVGID_21_" x1="213.467" x2="227.333" y1="229.2" y2="229.2" gradientUnits="userSpaceOnUse"><stop offset="0" style="stop-color:#0f9"/><stop offset="1" style="stop-color:#3cf"/></linearGradient><rect width="13.9" height="27.7" x="213.5" y="215.3" class="st20"/></g></g><g><g><linearGradient id="SVGID_22_" x1="421.467" x2="435.333" y1="76.667" y2="76.667" gradientUnits="userSpaceOnUse"><stop offset="0" style="stop-color:#0f9"/><stop offset="1" style="stop-color:#3cf"/></linearGradient><rect width="13.9" height="13.9" x="421.5" y="69.7" class="st21"/></g></g><g><g><linearGradient id="SVGID_23_" x1="262" x2="275.867" y1="371.333" y2="371.333" gradientUnits="userSpaceOnUse"><stop offset="0" style="stop-color:#0f9"/><stop offset="1" style="stop-color:#3cf"/></linearGradient><rect width="13.9" height="62.4" x="262" y="340.1" class="st22"/></g></g><g><g><linearGradient id="SVGID_24_" x1="303.6" x2="317.467" y1="66.267" y2="66.267" gradientUnits="userSpaceOnUse"><stop offset="0" style="stop-color:#0f9"/><stop offset="1" style="stop-color:#3cf"/></linearGradient><rect width="13.9" height="48.5" x="303.6" y="42" class="st23"/></g></g><g><g><linearGradient id="SVGID_25_" x1="262" x2="275.867" y1="319.333" y2="319.333" gradientUnits="userSpaceOnUse"><stop offset="0" style="stop-color:#0f9"/><stop offset="1" style="stop-color:#3cf"/></linearGradient><rect width="13.9" height="13.9" x="262" y="312.4" class="st24"/></g></g><g><g><linearGradient id="SVGID_26_" x1="456.133" x2="470" y1="274.267" y2="274.267" gradientUnits="userSpaceOnUse"><stop offset="0" style="stop-color:#0f9"/><stop offset="1" style="stop-color:#3cf"/></linearGradient><rect width="13.9" height="62.4" x="456.1" y="243.1" class="st25"/></g></g><g><g><linearGradient id="SVGID_27_" x1="456.133" x2="470" y1="222.267" y2="222.267" gradientUnits="userSpaceOnUse"><stop offset="0" style="stop-color:#0f9"/><stop offset="1" style="stop-color:#3cf"/></linearGradient><rect width="13.9" height="13.9" x="456.1" y="215.3" class="st26"/></g></g><g><g><linearGradient id="SVGID_28_" x1="54" x2="67.867" y1="426.8" y2="426.8" gradientUnits="userSpaceOnUse"><stop offset="0" style="stop-color:#0f9"/><stop offset="1" style="stop-color:#3cf"/></linearGradient><rect width="13.9" height="62.4" x="54" y="395.6" class="st27"/></g></g><g><g><linearGradient id="SVGID_29_" x1="54" x2="67.867" y1="374.8" y2="374.8" gradientUnits="userSpaceOnUse"><stop offset="0" style="stop-color:#0f9"/><stop offset="1" style="stop-color:#3cf"/></linearGradient><rect width="13.9" height="13.9" x="54" y="367.9" class="st28"/></g></g></g></g></switch></svg>