<svg xmlns="http://www.w3.org/2000/svg" xmlns:xlink="http://www.w3.org/1999/xlink" id="Capa_1" x="0" y="0" version="1.1" viewBox="6 -6 512 512" xml:space="preserve" style="enable-background:new 6 -6 512 512"><style type="text/css">.st0{fill:url(#SVGID_1_)}.st1{fill:url(#SVGID_2_)}.st2{fill:url(#SVGID_3_)}.st3{fill:url(#SVGID_4_)}</style><switch><g><g><g><g><linearGradient id="SVGID_1_" x1="204.184" x2="459.119" y1="336.685" y2="336.685" gradientUnits="userSpaceOnUse"><stop offset="0" style="stop-color:#0f9"/><stop offset="1" style="stop-color:#3cf"/></linearGradient><path d="M400.7,373.4c-1.1-1.7-3-2.8-5-3l-59.8-4h-23.2v-16.2l19.2-3l37.3,3.9c0.6,0.1,1.1,0,1.7,0l25.4-4l-2-12.7 L371,338c-0.7-30.7-18.2-58.5-45.6-72.4l1.5-1.7l82.6,29.2l40.4,40.4l9.1-9.1L417.7,283c-0.7-0.7-1.5-1.2-2.4-1.5l-88-31.1 c-2.4-0.9-5.1-0.2-6.9,1.7l-7.6,8.2c-8.1-2.6-16.6-3.9-25.2-3.9c-46.1,0-83.5,37.3-83.5,83.4s37.3,83.5,83.4,83.5 c30.1,0,57.9-16.2,72.7-42.5l31.2,2.1l23.7,37.4c1.2,1.9,3.2,3,5.4,3h33.9v-12.8h-30.4L400.7,373.4z M247.6,398.2 c-32.2-22.1-40.4-66.1-18.3-98.2c22.1-32.2,66.1-40.4,98.2-18.3c18.4,12.6,29.7,33.1,30.6,55.4l0,0l-25.8-2.7 c-0.6-0.1-1.1,0-1.7,0l-25.4,4c-0.3,0.1-0.6,0.2-0.9,0.3l-10.2-3.4v-26.6c6.9,1.3,12.2,7,12.8,14.1h12.8 c-0.8-14.1-11.7-25.6-25.7-27.3v-7h-12.8v7c-14,1.7-24.8,13.2-25.7,27.3c0.3,8.3,5.9,15.5,13.9,17.8l11.8,3.9v26.6 c-6.9-1.3-12.2-7-12.8-14.1h-12.8c0.8,14.1,11.7,25.6,25.7,27.3v7h12.8v-7c4.6-0.8,8.9-2.5,12.8-5h28.5l10.3,0.7 C323.8,412.1,279.8,420.3,247.6,398.2z M299.8,350.7v17.9c-1.8,1.1-3.7,1.9-5.7,2.5v-22.2L299.8,350.7z M281.3,308.7V331 l-7.7-2.6c-2.7-0.6-4.8-2.9-5.1-5.6C269.1,315.7,274.3,310,281.3,308.7z" class="st0"/></g></g><g><g><linearGradient id="SVGID_2_" x1="64.881" x2="319.829" y1="124.848" y2="124.848" gradientUnits="userSpaceOnUse"><stop offset="0" style="stop-color:#0f9"/><stop offset="1" style="stop-color:#3cf"/></linearGradient><path d="M309.1,87.1c-19.4-34.4-60.2-50.5-97.9-38.6l-7.6-8.2c-1.7-1.9-4.4-2.6-6.9-1.7l-88,31.1 c-0.9,0.3-1.7,0.8-2.4,1.5l-41.4,41.4l9.1,9.1l40.4-40.4L197,52.1l1.5,1.7c-27.4,13.9-44.9,41.7-45.6,72.4l-23.2-3.7l-2,12.7 l25.4,4c0.6,0.1,1.1,0.1,1.7,0l37.3-3.9l18.5,2.9v16.3h-23l-59.3,4c-2,0.1-3.9,1.2-5,3l-23.5,37.1H69.4v12.8h33.9 c2.2,0,4.2-1.1,5.4-3l23.7-37.4l31.2-2.1c22.6,40.2,73.5,54.4,113.7,31.7S331.7,127.2,309.1,87.1z M236.4,198.7 c-23.3,0-45.1-11.4-58.2-30.6l9.9-0.7h29v5.6h12.8v-6.4h12.8v6.4h12.8v-8.7c11.2-5.3,16-18.6,10.7-29.7 c-1.1-2.4-2.7-4.7-4.7-6.5c8.9-8.6,9.1-22.7,0.5-31.6c-1.9-1.9-4.1-3.5-6.5-4.7v-8.7h-12.8v6.4h-12.8v-6.4h-12.8v6.4h-12.8 v12.8h6.4v22.9l-17.3-2.7c-0.6-0.1-1.1-0.1-1.7,0l-25.8,2.7c1.5-37.8,32.6-67.7,70.5-67.7c39,0,70.6,31.6,70.7,70.6 C307,167,275.4,198.6,236.4,198.7z M246,121.6h-22.5v-19.3H246c5.3,0,9.6,4.3,9.6,9.6C255.6,117.3,251.3,121.6,246,121.6z M255.6,144.1c0,5.3-4.3,9.6-9.6,9.6h-21.8v-19.3H246C251.3,134.5,255.6,138.8,255.6,144.1z" class="st1"/></g></g><g><g><linearGradient id="SVGID_3_" x1="323.812" x2="458.432" y1="153.974" y2="153.974" gradientUnits="userSpaceOnUse"><stop offset="0" style="stop-color:#0f9"/><stop offset="1" style="stop-color:#3cf"/></linearGradient><path d="M450.7,206.4l-15.9,11.9C430.3,153,389.2,95.9,328.8,70.8l-4.9,11.8c55.4,23,93.2,75.1,98.1,134.9 l-14.8-11.1l-7.7,10.3l25.7,19.3c2.3,1.7,5.4,1.7,7.7,0l25.7-19.3L450.7,206.4z" class="st2"/></g></g><g><g><linearGradient id="SVGID_4_" x1="65.568" x2="200.188" y1="307.544" y2="307.544" gradientUnits="userSpaceOnUse"><stop offset="0" style="stop-color:#0f9"/><stop offset="1" style="stop-color:#3cf"/></linearGradient><path d="M102.1,244l14.8,11.1l7.7-10.3l-25.7-19.3c-2.3-1.7-5.4-1.7-7.7,0l-25.7,19.3l7.7,10.3l15.9-11.9 c4.6,65.3,45.7,122.4,106.1,147.5l4.9-11.8C144.8,355.9,106.9,303.8,102.1,244z" class="st3"/></g></g></g></g></switch></svg>