<svg xmlns="http://www.w3.org/2000/svg" xmlns:xlink="http://www.w3.org/1999/xlink" id="Capa_1" x="0" y="0" version="1.1" viewBox="6 -6 512 512" xml:space="preserve" style="enable-background:new 6 -6 512 512"><style type="text/css">.st0{fill:url(#SVGID_1_)}.st1{fill:url(#SVGID_2_)}.st2{fill:url(#SVGID_3_)}.st3{fill:url(#SVGID_4_)}.st4{fill:url(#SVGID_5_)}.st5{fill:url(#SVGID_6_)}.st6{fill:url(#SVGID_7_)}.st7{fill:url(#SVGID_8_)}.st8{fill:url(#SVGID_9_)}.st9{fill:url(#SVGID_10_)}.st10{fill:url(#SVGID_11_)}</style><switch><g><g><g><g><linearGradient id="SVGID_1_" x1="6" x2="257.325" y1="250" y2="250" gradientUnits="userSpaceOnUse"><stop offset="0" style="stop-color:#0f9"/><stop offset="1" style="stop-color:#3cf"/></linearGradient><path d="M238,66.6v34c-82.5-37.5-179.8-0.9-217.3,81.6S19.8,362,102.3,399.5c43.1,19.6,92.6,19.6,135.7,0v34h19.3 V66.6L238,66.6L238,66.6z M238,331.8c-45.2,37.4-112.1,31.1-149.5-14s-31.1-112.1,14-149.5c39.3-32.6,96.2-32.6,135.5,0V331.8z M238,144.3c-58.4-37.4-136-20.4-173.4,37.9s-20.4,136,37.9,173.4c41.3,26.5,94.2,26.5,135.5,0V378 c-70.7,37.4-158.3,10.5-195.8-60.2S31.7,159.5,102.4,122c42.4-22.5,93.2-22.5,135.6,0L238,144.3L238,144.3z" class="st0"/></g></g><g><g><linearGradient id="SVGID_2_" x1="276.635" x2="344.217" y1="105.18" y2="105.18" gradientUnits="userSpaceOnUse"><stop offset="0" style="stop-color:#0f9"/><stop offset="1" style="stop-color:#3cf"/></linearGradient><rect width="67.6" height="19.3" x="276.6" y="95.5" class="st1"/></g></g><g><g><linearGradient id="SVGID_3_" x1="295.944" x2="363.526" y1="317.582" y2="317.582" gradientUnits="userSpaceOnUse"><stop offset="0" style="stop-color:#0f9"/><stop offset="1" style="stop-color:#3cf"/></linearGradient><rect width="67.6" height="19.3" x="295.9" y="307.9" class="st2"/></g></g><g><g><linearGradient id="SVGID_4_" x1="295.944" x2="363.526" y1="211.381" y2="211.381" gradientUnits="userSpaceOnUse"><stop offset="0" style="stop-color:#0f9"/><stop offset="1" style="stop-color:#3cf"/></linearGradient><rect width="67.6" height="19.3" x="295.9" y="201.7" class="st3"/></g></g><g><g><linearGradient id="SVGID_5_" x1="450.418" x2="479.382" y1="414.128" y2="414.128" gradientUnits="userSpaceOnUse"><stop offset="0" style="stop-color:#0f9"/><stop offset="1" style="stop-color:#3cf"/></linearGradient><rect width="29" height="19.3" x="450.4" y="404.5" class="st4"/></g></g><g><g><linearGradient id="SVGID_6_" x1="276.635" x2="305.599" y1="423.782" y2="423.782" gradientUnits="userSpaceOnUse"><stop offset="0" style="stop-color:#0f9"/><stop offset="1" style="stop-color:#3cf"/></linearGradient><rect width="29" height="19.3" x="276.6" y="414.1" class="st5"/></g></g><g><g><linearGradient id="SVGID_7_" x1="402.145" x2="469.727" y1="134.144" y2="134.144" gradientUnits="userSpaceOnUse"><stop offset="0" style="stop-color:#0f9"/><stop offset="1" style="stop-color:#3cf"/></linearGradient><rect width="67.6" height="19.3" x="402.1" y="124.5" class="st6"/></g></g><g><g><linearGradient id="SVGID_8_" x1="450.418" x2="518" y1="76.217" y2="76.217" gradientUnits="userSpaceOnUse"><stop offset="0" style="stop-color:#0f9"/><stop offset="1" style="stop-color:#3cf"/></linearGradient><rect width="67.6" height="19.3" x="450.4" y="66.6" class="st7"/></g></g><g><g><linearGradient id="SVGID_9_" x1="382.836" x2="402.145" y1="317.582" y2="317.582" gradientUnits="userSpaceOnUse"><stop offset="0" style="stop-color:#0f9"/><stop offset="1" style="stop-color:#3cf"/></linearGradient><rect width="19.3" height="19.3" x="382.8" y="307.9" class="st8"/></g></g><g><g><linearGradient id="SVGID_10_" x1="469.727" x2="508.345" y1="240.345" y2="240.345" gradientUnits="userSpaceOnUse"><stop offset="0" style="stop-color:#0f9"/><stop offset="1" style="stop-color:#3cf"/></linearGradient><rect width="38.6" height="19.3" x="469.7" y="230.7" class="st9"/></g></g><g><g><linearGradient id="SVGID_11_" x1="122.161" x2="228.374" y1="249.999" y2="249.999" gradientUnits="userSpaceOnUse"><stop offset="0" style="stop-color:#0f9"/><stop offset="1" style="stop-color:#3cf"/></linearGradient><path d="M227.2,269.7c-1.9-7.7-6.2-14.6-12.2-19.7c16-13.8,17.9-38,4.1-54c-5.2-6-12-10.3-19.7-12.2v-20.7h-19.3 v19.3h-19.3v-19.3h-19.3v19.3h-19.3v19.3h9.7v96.5h-9.7v19.3h19.3v19.3h19.3v-19.3h19.3v19.3h19.3v-20.7 C219.9,311.1,232.4,290.2,227.2,269.7z M189.7,298.3h-38.6v-38.6h38.6c10.7,0,19.3,8.6,19.3,19.3S200.4,298.3,189.7,298.3z M189.7,240.3h-38.6v-38.6h38.6c10.7,0,19.3,8.6,19.3,19.3C209.1,231.7,200.4,240.3,189.7,240.3z" class="st10"/></g></g></g></g></switch></svg>